<svg width="95" height="78" viewBox="0 0 95 78" fill="none" xmlns="http://www.w3.org/2000/svg">
<path d="M4.66864 4.83684C14.9419 3.76075 24.8453 1.10416 35.2026 0.0280685C40.0114 -0.476348 36.6486 5.98018 33.1345 6.35009C26.9638 6.98901 20.9109 8.21643 14.8242 9.30933C49.629 16.8924 80.6001 39.1203 94.0176 71.5207C95.0937 74.1268 89.9823 79.7259 88.469 76.0604C76.1613 46.3167 47.8971 25.4338 16.3543 17.2119C20.3054 21.4861 24.0158 25.9767 27.4683 30.663C29.5868 33.6726 23.2312 38.3133 21.1462 35.3372C14.9083 26.4763 6.71994 19.0614 0.481987 10.1164C-1.31709 7.79608 2.33151 5.0386 4.66864 4.83684Z" fill="#2C2836"/>
</svg>
