<svg width="95" height="78" viewBox="0 0 95 78" fill="none" xmlns="http://www.w3.org/2000/svg">
<path d="M89.4965 4.83684C79.2232 3.76075 69.3199 1.10416 58.9625 0.0280685C54.1537 -0.476348 57.5165 5.98018 61.0306 6.35009C67.2013 6.98901 73.2543 8.21643 79.3409 9.30933C44.5362 16.8924 13.565 39.1203 0.147566 71.5207C-0.928522 74.1268 4.1829 79.7259 5.69615 76.0604C18.0039 46.3167 46.268 25.4338 77.8109 17.2119C73.8598 21.4861 70.1494 25.9767 66.6969 30.663C64.5783 33.6726 70.934 38.3133 73.0189 35.3372C79.2569 26.4763 87.4452 19.0614 93.6832 10.1164C95.4823 7.79608 91.8336 5.0386 89.4965 4.83684Z" fill="#2C2836"/>
</svg>
