<svg width="939" height="416" viewBox="0 0 939 416" fill="none" xmlns="http://www.w3.org/2000/svg">
<g clip-path="url(#clip0_2401_14787)">
<path d="M777.244 5.55036C854.556 17.596 906.51 53.4818 926.921 89.6186C946.713 125.755 934.961 162.143 932.487 197.527C929.395 233.162 934.961 268.044 903.418 296.151C872.493 324.257 803.839 345.839 729.001 366.667C654.781 387.496 574.994 407.823 487.167 413.093C399.34 418.614 303.473 409.078 221.831 390.006C140.189 370.934 72.1536 342.074 36.2806 308.447C-0.210875 274.82 -5.15887 236.424 5.35563 200.79C16.4886 165.155 42.4656 131.778 83.9051 101.915C125.345 71.8012 182.247 45.2005 252.756 31.3982C323.883 17.8469 409.236 17.345 503.248 11.0713C597.26 5.04847 699.931 -6.7462 777.244 5.55036Z" fill="#EEF0FF"/>
</g>
<defs>
<clipPath id="clip0_2401_14787">
<rect width="938" height="415" fill="white" transform="translate(0.5 0.167725)"/>
</clipPath>
</defs>
</svg>
