<svg width="149" height="32" viewBox="0 0 149 32" fill="none" xmlns="http://www.w3.org/2000/svg">
<path d="M12.7238 1.01936L24.3788 4.51594V17.384C24.3788 18.7849 23.8136 20.2975 22.5653 21.8905C21.6102 23.1093 20.2635 24.3641 18.5398 25.6118C15.8262 27.5761 13.144 28.8339 12.7238 29.0263C12.304 28.8341 9.62148 27.5763 6.90757 25.6118C5.18387 24.3641 3.83711 23.1093 2.88211 21.8905C1.63379 20.2974 1.06846 18.7848 1.06846 17.384V4.51594L12.7238 1.01936ZM0.973572 4.54441L0.973599 4.5444L0.973572 4.54441ZM12.7783 29.051L12.7779 29.0508L12.7783 29.051Z" fill="#6246EA" stroke="#6246EA" stroke-width="2.02699"/>
<path d="M9.88901 16.5659C6.91929 16.5659 4.82471 14.4826 4.82471 11.5065C4.82471 8.53033 6.91929 6.43286 9.88901 6.43286C12.2849 6.43286 14.0925 7.76504 14.6664 9.9192H11.9692C11.5532 9.06887 10.7928 8.64371 9.86031 8.64371C8.35394 8.64371 7.32099 9.74913 7.32099 11.5065C7.32099 13.2638 8.35394 14.3692 9.86031 14.3692C10.7915 14.3692 11.5511 13.9453 11.9675 13.0973C12.4852 11.9619 13.7809 11.3465 15.3965 11.3465C17.5915 11.3465 19.0692 12.4236 19.1696 14.3226H16.5155C16.4725 13.6849 16.0134 13.3022 15.3535 13.288C14.7653 13.2739 14.3205 13.5715 14.3205 14.1951C14.3205 14.9191 15.1936 15.2033 16.2085 15.5336C17.617 15.992 19.2988 16.5393 19.2988 18.475C19.2988 20.1473 17.9789 21.5362 15.6261 21.5362C13.4597 21.5362 11.7669 20.4733 11.6951 18.4609H14.3062C14.3779 19.2262 14.8657 19.5946 15.5543 19.5946C16.2716 19.5946 16.7307 19.2403 16.7307 18.6593C16.7307 17.887 15.846 17.6128 14.8203 17.2948C13.9341 17.0201 12.9427 16.7128 12.3259 16.0235C11.6217 16.3763 10.7976 16.5659 9.88901 16.5659Z" fill="white"/>
<path d="M65.6633 23.6002C65.6633 24.1655 65.4684 24.6366 65.0785 25.0135C64.6951 25.3839 64.107 25.5691 63.3143 25.5691H62.0081V28.4055H61.1211V21.6117H63.3143C64.081 21.6117 64.6626 21.7969 65.059 22.1673C65.4619 22.5377 65.6633 23.0153 65.6633 23.6002ZM63.3143 24.8381C63.8081 24.8381 64.172 24.7308 64.4059 24.5164C64.6399 24.302 64.7568 23.9965 64.7568 23.6002C64.7568 22.7619 64.276 22.3428 63.3143 22.3428H62.0081V24.8381H63.3143ZM72.2924 28.4055L70.6744 25.6276H69.6022V28.4055H68.7152V21.6117H70.9083C71.4216 21.6117 71.8538 21.6995 72.2047 21.8749C72.5621 22.0504 72.8285 22.2875 73.0039 22.5865C73.1794 22.8854 73.2671 23.2265 73.2671 23.6099C73.2671 24.0778 73.1306 24.4904 72.8577 24.8478C72.5913 25.2052 72.1884 25.4424 71.6491 25.5593L73.3548 28.4055H72.2924ZM69.6022 24.916H70.9083C71.3892 24.916 71.7498 24.7991 71.9902 24.5651C72.2307 24.3247 72.3509 24.0063 72.3509 23.6099C72.3509 23.207 72.2307 22.8951 71.9902 22.6742C71.7563 22.4532 71.3957 22.3428 70.9083 22.3428H69.6022V24.916ZM79.6749 28.4737C79.0446 28.4737 78.4695 28.3275 77.9496 28.0351C77.4298 27.7362 77.0172 27.3236 76.7117 26.7972C76.4128 26.2644 76.2634 25.6666 76.2634 25.0038C76.2634 24.3409 76.4128 23.7464 76.7117 23.22C77.0172 22.6872 77.4298 22.2745 77.9496 21.9821C78.4695 21.6832 79.0446 21.5338 79.6749 21.5338C80.3117 21.5338 80.89 21.6832 81.4099 21.9821C81.9297 22.2745 82.3391 22.6839 82.638 23.2103C82.9369 23.7366 83.0864 24.3344 83.0864 25.0038C83.0864 25.6731 82.9369 26.2709 82.638 26.7972C82.3391 27.3236 81.9297 27.7362 81.4099 28.0351C80.89 28.3275 80.3117 28.4737 79.6749 28.4737ZM79.6749 27.7037C80.1493 27.7037 80.5749 27.5933 80.9518 27.3723C81.3352 27.1514 81.6341 26.8362 81.8485 26.4268C82.0694 26.0175 82.1799 25.5431 82.1799 25.0038C82.1799 24.4579 82.0694 23.9835 81.8485 23.5807C81.6341 23.1713 81.3384 22.8561 80.9615 22.6352C80.5846 22.4143 80.1557 22.3038 79.6749 22.3038C79.194 22.3038 78.7652 22.4143 78.3883 22.6352C78.0114 22.8561 77.7125 23.1713 77.4915 23.5807C77.2771 23.9835 77.1699 24.4579 77.1699 25.0038C77.1699 25.5431 77.2771 26.0175 77.4915 26.4268C77.7125 26.8362 78.0114 27.1514 78.3883 27.3723C78.7716 27.5933 79.2005 27.7037 79.6749 27.7037ZM91.3533 23.5807C91.1649 23.1843 90.8919 22.8789 90.5345 22.6644C90.1771 22.4435 89.7613 22.333 89.2869 22.333C88.8125 22.333 88.3837 22.4435 88.0003 22.6644C87.6234 22.8789 87.3245 23.1908 87.1035 23.6002C86.8891 24.003 86.7819 24.4709 86.7819 25.0038C86.7819 25.5366 86.8891 26.0045 87.1035 26.4073C87.3245 26.8102 87.6234 27.1221 88.0003 27.3431C88.3837 27.5575 88.8125 27.6647 89.2869 27.6647C89.9497 27.6647 90.4955 27.4665 90.9244 27.0702C91.3533 26.6738 91.6035 26.1377 91.675 25.4619H88.9652V24.7406H92.6204V25.4229C92.5684 25.9817 92.393 26.4951 92.0941 26.9629C91.7952 27.4243 91.402 27.7914 90.9147 28.0644C90.4273 28.3308 89.8847 28.464 89.2869 28.464C88.6566 28.464 88.0815 28.3178 87.5616 28.0254C87.0418 27.7265 86.6292 27.3138 86.3238 26.7875C86.0248 26.2611 85.8754 25.6666 85.8754 25.0038C85.8754 24.3409 86.0248 23.7464 86.3238 23.22C86.6292 22.6872 87.0418 22.2745 87.5616 21.9821C88.0815 21.6832 88.6566 21.5338 89.2869 21.5338C90.0082 21.5338 90.645 21.7125 91.1973 22.0699C91.7562 22.4272 92.1623 22.9309 92.4157 23.5807H91.3533ZM99.3199 28.4055L97.7018 25.6276H96.6296V28.4055H95.7427V21.6117H97.9358C98.4491 21.6117 98.8812 21.6995 99.2321 21.8749C99.5895 22.0504 99.856 22.2875 100.031 22.5865C100.207 22.8854 100.295 23.2265 100.295 23.6099C100.295 24.0778 100.158 24.4904 99.8852 24.8478C99.6188 25.2052 99.2159 25.4424 98.6766 25.5593L100.382 28.4055H99.3199ZM96.6296 24.916H97.9358C98.4166 24.916 98.7773 24.7991 99.0177 24.5651C99.2581 24.3247 99.3783 24.0063 99.3783 23.6099C99.3783 23.207 99.2581 22.8951 99.0177 22.6742C98.7838 22.4532 98.4231 22.3428 97.9358 22.3428H96.6296V24.916ZM107.638 26.8947H104.675L104.129 28.4055H103.193L105.65 21.6507H106.673L109.12 28.4055H108.184L107.638 26.8947ZM107.385 26.1734L106.157 22.7424L104.928 26.1734H107.385ZM119.031 21.6605V28.4055H118.144V23.376L115.902 28.4055H115.278L113.027 23.3662V28.4055H112.14V21.6605H113.095L115.59 27.2359L118.085 21.6605H119.031Z" fill="#50497C"/>
<path d="M32.3454 10.1263C32.3454 9.17014 32.5589 8.3161 32.986 7.56417C33.4223 6.80297 34.0117 6.21349 34.7544 5.79576C35.5063 5.36874 36.3464 5.15523 37.2747 5.15523C38.3608 5.15523 39.3123 5.43372 40.1292 5.9907C40.9461 6.54768 41.5171 7.31817 41.842 8.30218H39.6001C39.3773 7.83802 39.0617 7.48991 38.6532 7.25783C38.2541 7.02576 37.7899 6.90972 37.2608 6.90972C36.6945 6.90972 36.1886 7.04433 35.743 7.31353C35.3067 7.57346 34.9632 7.94478 34.7126 8.4275C34.4712 8.91021 34.3506 9.47648 34.3506 10.1263C34.3506 10.7668 34.4712 11.3331 34.7126 11.8251C34.9632 12.3078 35.3067 12.6838 35.743 12.953C36.1886 13.2129 36.6945 13.3429 37.2608 13.3429C37.7899 13.3429 38.2541 13.2268 38.6532 12.9947C39.0617 12.7534 39.3773 12.4006 39.6001 11.9365H41.842C41.5171 12.9298 40.9461 13.7049 40.1292 14.2619C39.3216 14.8096 38.3701 15.0834 37.2747 15.0834C36.3464 15.0834 35.5063 14.8746 34.7544 14.4568C34.0117 14.0298 33.4223 13.4403 32.986 12.6884C32.5589 11.9365 32.3454 11.0824 32.3454 10.1263ZM48.2414 14.9999L46.097 11.2124H45.178V14.9999H43.2285V5.28055H46.8768C47.6287 5.28055 48.2692 5.41515 48.7984 5.68436C49.3275 5.94429 49.722 6.30168 49.9819 6.75655C50.2511 7.20214 50.3857 7.70342 50.3857 8.2604C50.3857 8.90093 50.2001 9.48112 49.8288 10.001C49.4574 10.5115 48.9051 10.8643 48.1717 11.0592L50.4971 14.9999H48.2414ZM45.178 9.75033H46.8071C47.3363 9.75033 47.7308 9.62501 47.9907 9.37436C48.2507 9.11444 48.3806 8.75704 48.3806 8.30218C48.3806 7.85659 48.2507 7.51312 47.9907 7.27176C47.7308 7.02112 47.3363 6.8958 46.8071 6.8958H45.178V9.75033ZM53.8199 6.85402V9.29082H57.0922V10.8364H53.8199V13.4125H57.5099V14.9999H51.8705V5.26663H57.5099V6.85402H53.8199ZM62.4006 5.28055C63.4217 5.28055 64.3175 5.48014 65.088 5.87931C65.8678 6.27848 66.4665 6.84938 66.8843 7.59202C67.3113 8.32538 67.5248 9.17942 67.5248 10.1541C67.5248 11.1289 67.3113 11.9829 66.8843 12.7163C66.4665 13.4403 65.8678 14.002 65.088 14.4011C64.3175 14.8003 63.4217 14.9999 62.4006 14.9999H59.003V5.28055H62.4006ZM62.3309 13.3429C63.3521 13.3429 64.1411 13.0644 64.6981 12.5074C65.2551 11.9504 65.5336 11.166 65.5336 10.1541C65.5336 9.14229 65.2551 8.35323 64.6981 7.78697C64.1411 7.21142 63.3521 6.92365 62.3309 6.92365H60.9524V13.3429H62.3309ZM70.655 5.28055V14.9999H68.7055V5.28055H70.655ZM78.9167 5.28055V6.85402H76.3267V14.9999H74.3773V6.85402H71.7873V5.28055H78.9167ZM86.4559 15.0973C85.7782 15.0973 85.1655 14.9813 84.6178 14.7492C84.0794 14.5172 83.6524 14.183 83.3368 13.7467C83.0211 13.3104 82.8587 12.7952 82.8494 12.201H84.9381C84.9659 12.6002 85.1052 12.9158 85.3558 13.1479C85.6157 13.38 85.9685 13.496 86.4141 13.496C86.8689 13.496 87.2263 13.3893 87.4863 13.1758C87.7462 12.953 87.8762 12.6652 87.8762 12.3124C87.8762 12.0247 87.788 11.788 87.6116 11.6023C87.4352 11.4166 87.2124 11.2727 86.9432 11.1706C86.6833 11.0592 86.3212 10.9386 85.8571 10.8086C85.2258 10.6229 84.7106 10.4419 84.3115 10.2655C83.9216 10.0799 83.5828 9.80603 83.295 9.44399C83.0165 9.07267 82.8772 8.58067 82.8772 7.96799C82.8772 7.39244 83.0211 6.89116 83.3089 6.46414C83.5967 6.03712 84.0005 5.71221 84.5203 5.48942C85.0402 5.25734 85.6343 5.14131 86.3027 5.14131C87.3052 5.14131 88.1175 5.38731 88.7395 5.87931C89.3707 6.36202 89.7188 7.03968 89.7838 7.91229H87.6394C87.6209 7.5781 87.477 7.30425 87.2078 7.09074C86.9479 6.86795 86.5997 6.75655 86.1634 6.75655C85.7828 6.75655 85.4765 6.85402 85.2444 7.04897C85.0216 7.24391 84.9102 7.52704 84.9102 7.89836C84.9102 8.15829 84.9938 8.37644 85.1609 8.55282C85.3372 8.71991 85.5508 8.85916 85.8014 8.97055C86.0613 9.07267 86.4234 9.19335 86.8875 9.33259C87.5188 9.51825 88.034 9.70391 88.4331 9.88957C88.8323 10.0752 89.1758 10.3537 89.4636 10.725C89.7513 11.0964 89.8952 11.5837 89.8952 12.1871C89.8952 12.707 89.7606 13.1897 89.4914 13.6353C89.2222 14.0809 88.8277 14.4383 88.3078 14.7075C87.788 14.9674 87.1706 15.0973 86.4559 15.0973ZM95.8184 15.0973C94.9086 15.0973 94.0732 14.8838 93.3119 14.4568C92.5507 14.0298 91.9473 13.4403 91.5018 12.6884C91.0562 11.9272 90.8334 11.0685 90.8334 10.1124C90.8334 9.1655 91.0562 8.3161 91.5018 7.56417C91.9473 6.80297 92.5507 6.20885 93.3119 5.78183C94.0732 5.35482 94.9086 5.14131 95.8184 5.14131C96.7374 5.14131 97.5729 5.35482 98.3248 5.78183C99.086 6.20885 99.6847 6.80297 100.121 7.56417C100.567 8.3161 100.789 9.1655 100.789 10.1124C100.789 11.0685 100.567 11.9272 100.121 12.6884C99.6847 13.4403 99.086 14.0298 98.3248 14.4568C97.5636 14.8838 96.7281 15.0973 95.8184 15.0973ZM95.8184 13.3568C96.4032 13.3568 96.9184 13.2268 97.364 12.9669C97.8096 12.6977 98.1577 12.3171 98.4083 11.8251C98.659 11.3331 98.7843 10.7622 98.7843 10.1124C98.7843 9.46255 98.659 8.89629 98.4083 8.41357C98.1577 7.92157 97.8096 7.54561 97.364 7.28568C96.9184 7.02576 96.4032 6.8958 95.8184 6.8958C95.2335 6.8958 94.7137 7.02576 94.2588 7.28568C93.8132 7.54561 93.4651 7.92157 93.2145 8.41357C92.9638 8.89629 92.8385 9.46255 92.8385 10.1124C92.8385 10.7622 92.9638 11.3331 93.2145 11.8251C93.4651 12.3171 93.8132 12.6977 94.2588 12.9669C94.7137 13.2268 95.2335 13.3568 95.8184 13.3568ZM103.911 13.4543H107.113V14.9999H101.961V5.28055H103.911V13.4543ZM109.995 5.28055V11.296C109.995 11.955 110.167 12.461 110.511 12.8137C110.854 13.1572 111.337 13.3289 111.959 13.3289C112.59 13.3289 113.077 13.1572 113.421 12.8137C113.764 12.461 113.936 11.955 113.936 11.296V5.28055H115.899V11.282C115.899 12.1082 115.718 12.8091 115.356 13.3846C115.004 13.9509 114.526 14.3779 113.922 14.6657C113.328 14.9535 112.664 15.0973 111.931 15.0973C111.207 15.0973 110.548 14.9535 109.954 14.6657C109.369 14.3779 108.905 13.9509 108.561 13.3846C108.218 12.8091 108.046 12.1082 108.046 11.282V5.28055H109.995ZM124.119 5.28055V6.85402H121.529V14.9999H119.579V6.85402H116.989V5.28055H124.119ZM127.212 5.28055V14.9999H125.263V5.28055H127.212ZM133.371 15.0973C132.461 15.0973 131.626 14.8838 130.865 14.4568C130.103 14.0298 129.5 13.4403 129.054 12.6884C128.609 11.9272 128.386 11.0685 128.386 10.1124C128.386 9.1655 128.609 8.3161 129.054 7.56417C129.5 6.80297 130.103 6.20885 130.865 5.78183C131.626 5.35482 132.461 5.14131 133.371 5.14131C134.29 5.14131 135.126 5.35482 135.878 5.78183C136.639 6.20885 137.237 6.80297 137.674 7.56417C138.119 8.3161 138.342 9.1655 138.342 10.1124C138.342 11.0685 138.119 11.9272 137.674 12.6884C137.237 13.4403 136.639 14.0298 135.878 14.4568C135.116 14.8838 134.281 15.0973 133.371 15.0973ZM133.371 13.3568C133.956 13.3568 134.471 13.2268 134.917 12.9669C135.362 12.6977 135.71 12.3171 135.961 11.8251C136.212 11.3331 136.337 10.7622 136.337 10.1124C136.337 9.46255 136.212 8.89629 135.961 8.41357C135.71 7.92157 135.362 7.54561 134.917 7.28568C134.471 7.02576 133.956 6.8958 133.371 6.8958C132.786 6.8958 132.266 7.02576 131.812 7.28568C131.366 7.54561 131.018 7.92157 130.767 8.41357C130.517 8.89629 130.391 9.46255 130.391 10.1124C130.391 10.7622 130.517 11.3331 130.767 11.8251C131.018 12.3171 131.366 12.6977 131.812 12.9669C132.266 13.2268 132.786 13.3568 133.371 13.3568ZM147.827 14.9999H145.877L141.463 8.33002V14.9999H139.514V5.26663H141.463L145.877 11.9504V5.26663H147.827V14.9999Z" fill="#50497C"/>
<line x1="32.6295" y1="24.716" x2="54.9087" y2="24.716" stroke="#50497C" stroke-width="0.696227"/>
<line x1="125.924" y1="24.716" x2="148.203" y2="24.716" stroke="#50497C" stroke-width="0.696227"/>
</svg>
