<svg width="153" height="128" viewBox="0 0 153 128" fill="none" xmlns="http://www.w3.org/2000/svg">
<path d="M116.633 43.0891C116.633 43.0891 135.092 43.7751 135.892 42.9176C136.693 42.0602 136.921 39.7165 132.463 40.1167C132.463 40.1167 136.521 34.8577 130.292 33.8859C124.062 32.9141 124.805 37.8301 124.805 37.8301C124.805 37.8301 118.633 34.3432 120.29 40.0023C120.29 40.0023 118.747 38.8591 118.29 40.8598C118.29 40.8598 108.688 42.689 116.633 43.0891ZM56.7485 28.3089C56.7485 28.3089 64.4473 28.4488 63.4006 26.5121C62.3538 24.5754 54.934 24.9567 54.934 24.9567C54.934 24.9567 55.5324 21.8916 53.2131 20.8735C50.8939 19.8554 48.5258 20.5968 48.5258 20.5968C48.5258 20.5968 51.4696 12.3137 45.1024 11.7704C38.7353 11.2271 39.5583 18.5873 39.5583 18.5873C39.5583 18.5873 38.4036 15.2535 35.266 17.2944C32.1284 19.3353 34.511 23.3635 34.511 23.3635C34.511 23.3635 32.6701 20.9645 30.0618 22.4331C27.4536 23.9016 27.977 26.1908 27.977 26.1908C27.977 26.1908 20.3271 26.9327 22.5711 28.0221C24.815 29.1115 56.7485 28.3089 56.7485 28.3089Z" fill="#817EFB"/>
<path d="M53.1263 97.8055C52.7077 97.8055 36.0814 98.8822 36.9186 101.155C37.7559 103.429 81.116 111.803 87.2761 111.384C93.4362 110.966 129.549 100.782 125.313 99.7196C105.517 94.7547 53.1263 97.8055 53.1263 97.8055Z" fill="#EEF0FF"/>
<path d="M69.0872 40.8342C69.0872 40.8342 68.7554 29.5068 69.1538 29.2113C69.5523 28.9157 76.6246 28.4846 76.6655 28.9586C76.7064 29.4325 76.8276 38.4792 76.8276 38.4792L69.0872 40.8342Z" fill="#F1F1F1"/>
<path d="M73.2766 39.5596L76.8276 38.4792C76.8276 38.4792 76.7064 29.4325 76.6655 28.9586C76.6465 28.7387 75.1137 28.7137 73.4361 28.7795L73.3548 28.8168L73.2766 39.5596Z" fill="#D8D8D8"/>
<path d="M42.0891 63.455L56.3227 64.1574L75.5054 40.2646L62.941 35.7653L42.0891 63.455Z" fill="#8C0331"/>
<path d="M48.8254 100.772C48.8254 100.772 82.9738 107.12 84.5538 107.03C86.1339 106.94 116.423 101.682 116.333 100.734C116.243 99.7853 115.957 62.2986 115.551 60.7183C115.331 59.8614 104.331 45.2552 97.3833 39.5149L65.4746 39.4889C61.3666 43.3927 49.3213 57.9533 48.5928 59.684C47.1482 63.1155 48.8254 100.772 48.8254 100.772Z" fill="#F1F1F1"/>
<path d="M69.0791 39.4918L65.4746 39.4889C61.3666 43.3927 49.3213 57.9533 48.5928 59.684C48.3579 60.242 48.2055 61.7053 48.1151 63.7643C49.1036 62.8368 63.769 49.0941 65.2678 48.6943C66.8189 48.2806 84.2016 64.5745 84.2016 64.5745L88.2766 58.9858C88.2766 58.9858 75.8525 44.959 69.0791 39.4918Z" fill="#E8E8E8"/>
<path d="M97.3832 39.515L66.4589 40.1619C72.5054 46.6543 83.9622 59.0401 84.1144 59.839C84.3046 60.8381 84.4512 100.829 84.4734 107.23C86.7192 107.013 116.422 101.67 116.333 100.734C116.243 99.7854 115.958 62.2986 115.551 60.7183C115.331 59.8613 104.331 45.2552 97.3832 39.515Z" fill="#D8D8D8"/>
<path d="M88.4317 65.2434C88.4317 65.2434 65.1127 39.3338 63.5615 39.1269C62.0103 38.92 44.1457 63.5368 43.293 63.5368C42.2589 63.5368 41.2247 63.4334 41.2247 63.4334C41.2247 63.4334 61.4932 35.0931 62.8893 34.6276C64.2854 34.1621 98.5143 34.7827 100.169 35.4551C101.823 36.1274 122.144 60.5372 122.144 62.037C122.144 63.5368 88.4317 65.2434 88.4317 65.2434Z" fill="#CC234B"/>
<path d="M90.6896 65.1232C98.2408 64.7095 122.144 63.2999 122.144 62.0371C122.144 60.5373 101.823 36.1274 100.169 35.4551C98.5634 34.8028 66.2911 34.1992 63.0994 34.5891L62.8893 34.6277C62.8893 34.6277 90.5631 63.4855 90.6866 65.0885C90.6874 65.1001 90.6887 65.1116 90.6896 65.1232Z" fill="#AF0B3A"/>
<path d="M72.4173 99.5831C61.4845 97.9238 47.5328 95.7557 47.5328 95.7557C47.5328 95.7557 47.6362 100.462 47.6879 101.082C47.7198 101.466 56.3744 102.944 56.3744 102.944L72.4173 99.5831Z" fill="#AA3B30"/>
<path d="M92.8267 90.9462C92.2063 90.0153 91.8961 71.5527 92.3614 71.0873C92.8267 70.6219 109.424 68.4498 109.89 69.329C110.355 70.2082 110.562 87.8433 109.734 88.7742C109.027 89.5701 93.3168 91.6815 92.8267 90.9462Z" fill="#B3B3B3"/>
<path d="M92.1545 71.6044C92.1545 71.6044 91.896 90.1704 92.7233 90.6358C93.5506 91.1012 107.304 89.2395 107.459 88.5671C107.614 87.8948 108.442 70.0011 107.252 69.7943C106.063 69.5875 92.3096 70.8286 92.1545 71.6044Z" fill="#F1F1F1"/>
<path d="M93.4666 72.5116C93.4666 72.5116 93.2185 89.4797 93.9626 89.5294C94.7066 89.579 100.56 88.9837 100.659 88.5867C100.758 88.1898 100.808 71.9163 100.461 71.8171C100.114 71.7177 93.8633 72.2139 93.4666 72.5116ZM101.61 71.7673C101.61 71.7673 101.511 77.6219 101.858 77.7211C102.205 77.8203 106.372 77.6715 106.57 77.3241C106.769 76.9768 106.868 71.5192 106.322 71.4696C105.777 71.4201 101.61 71.7673 101.61 71.7673ZM101.856 78.7134C101.856 78.7134 101.558 88.289 101.806 88.3882C102.054 88.4874 106.221 88.2393 106.469 87.7432C106.717 87.2471 107.015 78.5149 106.519 78.3661C106.023 78.2173 101.856 78.7134 101.856 78.7134Z" fill="#2F8AC2"/>
<path d="M100.117 73.7765L94.0159 86.7055C94.0159 86.7055 94.0159 88.2053 94.2227 88.4121C94.4295 88.619 96.9113 84.9472 96.9113 84.9472L96.446 87.0675L97.4284 87.2743L100.324 75.8969L100.117 73.7765ZM102.495 77.3449C102.495 77.3449 105.029 72.0699 105.236 72.0182C105.443 71.9665 106.011 72.2768 106.011 72.2768L103.685 77.2932L102.495 77.3449ZM104.667 76.3623L106.322 72.8974L106.425 73.8283C106.425 73.8283 104.874 76.776 104.719 76.5175C104.564 76.2589 104.667 76.3623 104.667 76.3623ZM106.425 79.2067C106.425 79.2067 102.03 87.2226 102.03 87.4295C102.03 87.6364 102.082 88.0501 102.185 88.0501C102.289 88.0501 102.547 87.9984 102.547 87.9984L106.58 80.0859L106.425 79.2067Z" fill="#479BDB"/>
<path d="M56.3865 102.943C56.3865 102.943 56.2194 67.1052 56.7881 67.0018C57.3569 66.8983 73.7992 67.4672 73.9026 68.1395C74.006 68.8118 73.8509 105.323 73.8509 105.323L58.3393 102.582L56.3865 102.943Z" fill="#D8D8D8"/>
<path d="M58.9597 67.7258C58.5711 67.9201 58.3651 98.7464 58.3416 102.567L73.8509 105.323C73.8509 105.323 73.993 71.9264 73.9145 68.4204C70.3142 67.9271 59.3079 67.5516 58.9597 67.7258Z" fill="#CC234B"/>
<path d="M60.489 70.5068C60.489 70.5068 59.8779 80.1817 60.45 80.6953C61.0219 81.2088 65.6341 81.4889 65.8812 81.0229C66.2388 80.3484 66.2494 73.832 66.2494 73.832C66.2494 73.832 65.7225 80.4551 65.5686 80.6629C65.4148 80.8708 61.485 80.8439 61.3787 80.379C61.2723 79.9142 61.3735 71.3803 61.631 71.2235C61.8886 71.0667 65.9222 71.1447 66.0278 71.506C66.1335 71.8674 66.2461 73.3147 66.2461 73.3147C66.2461 73.3147 66.644 70.8298 66.1253 70.5745C65.6067 70.3193 60.6392 69.7301 60.489 70.5068ZM60.3593 82.7128C60.3593 82.7128 59.7482 92.3877 60.3202 92.9013C60.8923 93.4148 65.5045 93.6949 65.7515 93.229C66.1091 92.5544 66.1197 86.038 66.1197 86.038C66.1197 86.038 65.5928 92.6611 65.439 92.8689C65.2852 93.0768 61.3554 93.0499 61.249 92.5851C61.1427 92.1203 61.2438 83.5863 61.5014 83.4296C61.7589 83.2729 65.7925 83.3508 65.8982 83.7121C66.0038 84.0734 66.1164 85.5208 66.1164 85.5208C66.1164 85.5208 66.5144 83.0359 65.9957 82.7806C65.477 82.5253 60.5095 81.9361 60.3593 82.7128ZM67.7322 71.185C67.7322 71.185 67.1211 80.8599 67.6931 81.3735C68.2652 81.887 72.8774 82.1671 73.1244 81.7011C73.482 81.0266 73.4926 74.5102 73.4926 74.5102C73.4926 74.5102 72.9657 81.1333 72.8119 81.3411C72.6581 81.5489 68.7283 81.5221 68.6219 81.0573C68.5156 80.5925 68.6167 72.0585 68.8743 71.9018C69.1318 71.7451 73.1654 71.8229 73.2711 72.1843C73.3768 72.5456 73.4893 73.993 73.4893 73.993C73.4893 73.993 73.8873 71.5081 73.3686 71.2528C72.8499 70.9975 67.8824 70.4084 67.7322 71.185ZM67.5508 83.5462C67.5508 83.5462 66.9397 93.2212 67.5117 93.7347C68.0838 94.2482 72.6959 94.5283 72.9429 94.0624C73.3006 93.3878 73.3112 86.8714 73.3112 86.8714C73.3112 86.8714 72.7843 93.4945 72.6304 93.7023C72.4766 93.9101 68.5468 93.8833 68.4404 93.4185C68.3341 92.9537 68.4353 84.4197 68.6928 84.2629C68.9504 84.1061 72.984 84.1841 73.0896 84.5454C73.1953 84.9068 73.3079 86.3541 73.3079 86.3541C73.3079 86.3541 73.7058 83.8692 73.1871 83.6139C72.6685 83.3587 67.701 82.7695 67.5508 83.5462Z" fill="#AF0B3A"/>
<path d="M58.8046 89.1878C58.8046 89.1878 58.7012 85.7229 58.8563 85.7229C59.0114 85.7229 59.5285 85.6712 59.5802 85.7746C59.6319 85.878 59.5802 89.2396 59.4251 89.343C59.27 89.4464 58.8046 89.4464 58.8046 89.1878Z" fill="#FFB002"/>
<path d="M58.7529 88.0501C59.1812 88.0501 59.5285 87.7028 59.5285 87.2744C59.5285 86.846 59.1812 86.4987 58.7529 86.4987C58.3245 86.4987 57.9773 86.846 57.9773 87.2744C57.9773 87.7028 58.3245 88.0501 58.7529 88.0501Z" fill="#EF9500"/>
<path d="M58.5978 87.7398C58.912 87.7398 59.1666 87.4851 59.1666 87.1709C59.1666 86.8568 58.912 86.6021 58.5978 86.6021C58.2837 86.6021 58.0291 86.8568 58.0291 87.1709C58.0291 87.4851 58.2837 87.7398 58.5978 87.7398Z" fill="#FFB002"/>
<path d="M59.1148 88.5672L59.0114 88.8775H59.2699L59.1665 88.5672C59.1665 88.5672 59.3733 88.5155 59.3216 88.3087C59.2699 88.1018 58.9597 88.1535 58.9597 88.3087C58.9597 88.4638 59.0114 88.5155 59.1148 88.5672Z" fill="#1A1A1A"/>
<path d="M85.0598 101.272L116.238 95.5943L116.226 95.3633C116.226 95.3633 117.335 95.6007 117.335 95.7559C117.335 95.911 113.405 97.721 113.405 97.721L85.1742 102.427L85.0598 101.272Z" fill="#AA3B30"/>
<path d="M85.3294 101.496L85.1743 101.238L73.8677 99.5641V99.3041L72.72 99.6035L73.4265 99.9843L73.0236 100.824L85.3294 101.496Z" fill="#891A1A"/>
<path d="M117.335 95.7558C117.128 95.1869 86.3118 101.445 85.226 101.445C84.8269 101.445 79.1263 100.573 72.7133 99.6012V105.849C79.0453 106.927 84.6728 107.857 85.0708 107.857C86.1566 107.857 117.025 101.238 117.283 100.979C117.542 100.721 117.542 96.3246 117.335 95.7558Z" fill="#AA3B30"/>
<path d="M85.1852 107.848C87.4945 107.57 117.03 101.232 117.283 100.979C117.542 100.72 117.542 96.3246 117.335 95.7557C117.13 95.193 86.9734 101.31 85.2726 101.442C85.2405 103.783 85.2032 106.505 85.1852 107.848ZM48.6129 95.5403C48.6186 95.5489 47.5328 95.7558 47.5328 95.7558L56.3615 97.1238L56.3744 102.944L58.3391 102.582L58.3908 96.6349L56.3744 96.8935L48.6319 95.7168L48.6129 95.5403Z" fill="#891A1A"/>
<path d="M66.787 60.3681C69.9731 59.872 72.1081 56.5924 71.5557 53.0428C71.0032 49.4932 67.9726 47.0178 64.7865 47.5139C61.6004 48.01 59.4654 51.2896 60.0178 54.8392C60.5702 58.3888 63.6009 60.8642 66.787 60.3681Z" fill="#B3B3B3"/>
<path d="M67.413 59.5604C70.1988 59.1266 72.0655 56.259 71.5825 53.1554C71.0995 50.0518 68.4496 47.8874 65.6638 48.3211C62.878 48.7549 61.0112 51.6225 61.4942 54.7261C61.9773 57.8298 64.6272 59.9941 67.413 59.5604Z" fill="white"/>
<path d="M67.5453 58.1849C69.6489 57.8574 71.0586 55.6919 70.6938 53.3483C70.3291 51.0046 68.3281 49.3703 66.2244 49.6978C64.1208 50.0253 62.7112 52.1907 63.0759 54.5344C63.4407 56.878 65.4417 58.5124 67.5453 58.1849Z" fill="#2F8AC2"/>
<path d="M69.6281 51.4573C69.6281 51.4573 65.6394 57.5281 65.466 57.4703C65.2926 57.4125 64.7723 57.239 64.7723 56.8343C64.7723 56.4297 69.2812 51.0526 69.2812 51.0526L69.6281 51.4573ZM65.6394 54.406C65.6394 54.406 68.732 50.8502 68.443 50.6189C68.154 50.3876 67.3572 49.8784 67.0619 50.0752C66.7666 50.272 65.0902 53.9723 65.0902 53.9723L65.6394 54.406Z" fill="#479BDB"/>
<path d="M88.38 96.2212C88.38 96.2212 92.9301 95.2903 93.0335 95.6523C93.1369 96.0142 93.2403 97.3072 93.0335 97.514C92.8267 97.7209 88.5351 98.6517 88.38 98.1863C88.2249 97.7209 88.2249 96.4797 88.2249 96.4797C88.2249 96.4797 88.4317 98.0312 88.742 98.0829C89.0523 98.1346 92.775 97.6692 92.8267 97.3589C92.8784 97.0485 92.9301 95.8591 92.6716 95.8591C92.4131 95.8591 88.38 96.2212 88.38 96.2212Z" fill="#D1D1D1"/>
<path d="M92.8267 93.7388C92.8267 93.7388 97.3768 92.8079 97.4802 93.1699C97.5836 93.5319 97.687 94.8248 97.4802 95.0317C97.2734 95.2385 92.9818 96.1694 92.8267 95.704C92.6716 95.2386 92.6716 93.9973 92.6716 93.9973C92.6716 93.9973 92.8784 95.5488 93.1887 95.6006C93.4989 95.6523 97.2217 95.1868 97.2734 94.8765C97.3252 94.5662 97.3768 93.3767 97.1183 93.3767C96.8598 93.3767 92.8267 93.7388 92.8267 93.7388ZM110.148 88.6189C110.148 88.6189 114.698 87.688 114.801 88.05C114.905 88.412 115.008 89.7049 114.801 89.9118C114.595 90.1186 110.303 91.0495 110.148 90.5841C109.993 90.1187 109.993 88.8775 109.993 88.8775C109.993 88.8775 110.2 90.429 110.51 90.4807C110.82 90.5324 114.543 90.067 114.595 89.7566C114.646 89.4464 114.698 88.2569 114.44 88.2569C114.181 88.2569 110.148 88.6189 110.148 88.6189Z" fill="#D1D1D1"/>
<path d="M79.2157 87.7059C79.2157 87.7059 74.6341 86.9453 74.5443 87.311C74.4545 87.6766 74.3993 88.9724 74.6137 89.1714C74.8281 89.3705 79.1514 90.1407 79.2891 89.6697C79.4267 89.1988 79.3804 87.9585 79.3804 87.9585C79.3804 87.9585 79.2316 89.5166 78.9235 89.5799C78.6154 89.6431 74.8779 89.3169 74.8146 89.0087C74.7514 88.7005 74.6554 87.5138 74.9138 87.5042C75.1721 87.4945 79.2157 87.7059 79.2157 87.7059ZM55.7415 92.8258C55.7415 92.8258 51.1599 92.0652 51.07 92.4308C50.9802 92.7965 50.9251 94.0923 51.1395 94.2913C51.3539 94.4903 55.6771 95.2605 55.8148 94.7896C55.9524 94.3187 55.9062 93.0784 55.9062 93.0784C55.9062 93.0784 55.7573 94.6365 55.4492 94.6998C55.1412 94.763 51.4036 94.4367 51.3404 94.1286C51.2772 93.8204 51.1811 92.6337 51.4395 92.6241C51.6978 92.6144 55.7415 92.8258 55.7415 92.8258Z" fill="#E8E8E8"/>
<path d="M53.9835 90.3951C53.9835 90.3951 49.4019 89.6346 49.3121 90.0002C49.2222 90.3658 49.1671 91.6616 49.3815 91.8607C49.5958 92.0597 53.9191 92.8299 54.0568 92.359C54.1944 91.8881 54.1482 90.6478 54.1482 90.6478C54.1482 90.6478 53.9993 92.2058 53.6913 92.2691C53.3832 92.3324 49.6456 92.0061 49.5824 91.6979C49.5192 91.3898 49.4231 90.2031 49.6815 90.1934C49.9398 90.1838 53.9835 90.3951 53.9835 90.3951ZM58.5839 63.1592C58.5839 63.1592 53.9646 62.6779 53.8971 63.0483C53.8296 63.4186 53.8531 64.7155 54.0791 64.9011C54.3052 65.0868 58.6672 65.5934 58.776 65.115C58.8849 64.6366 58.7635 63.4014 58.7635 63.4014C58.7635 63.4014 58.7094 64.9656 58.4057 65.0474C58.102 65.1292 54.3515 65.0303 54.2698 64.7265C54.188 64.4227 54.0202 63.244 54.2775 63.2188C54.5349 63.1935 58.5839 63.1592 58.5839 63.1592Z" fill="#E8E8E8"/>
<path d="M103.168 65.7088C103.168 65.7088 107.718 64.7779 107.821 65.1399C107.925 65.5019 108.028 66.7948 107.821 67.0017C107.614 67.2085 103.323 68.1394 103.168 67.674C103.013 67.2086 103.013 65.9674 103.013 65.9674C103.013 65.9674 103.219 67.5189 103.53 67.5706C103.84 67.6223 107.563 67.1569 107.614 66.8466C107.666 66.5363 107.718 65.3468 107.459 65.3468C107.201 65.3468 103.168 65.7088 103.168 65.7088ZM87.1908 78.5344C87.1908 78.5344 91.7409 77.6035 91.8443 77.9655C91.9477 78.3275 92.0511 79.6204 91.8443 79.8273C91.6375 80.0341 87.3459 80.965 87.1908 80.4996C87.0357 80.0341 87.0357 78.793 87.0357 78.793C87.0357 78.793 87.2425 80.3445 87.5528 80.3962C87.863 80.4479 91.5858 79.9825 91.6375 79.6721C91.6892 79.3618 91.7409 78.1724 91.4824 78.1724C91.2239 78.1724 87.1908 78.5344 87.1908 78.5344Z" fill="#D1D1D1"/>
<path d="M69.1653 37.5046C68.367 37.5046 67.1516 37.2923 65.5664 36.4017C64.5204 35.814 63.8171 35.2165 63.7878 35.1913C63.7335 35.145 63.7271 35.0634 63.7734 35.0091C63.8198 34.9548 63.9014 34.9484 63.9557 34.9948C63.9837 35.0187 66.7915 37.3904 69.3967 37.2395C70.0298 37.203 70.4684 37.0002 70.7005 36.6366C71.1306 35.9629 70.7358 34.944 70.7318 34.9338C70.7055 34.8674 70.738 34.7923 70.8044 34.766C70.8707 34.7397 70.9459 34.7723 70.9721 34.8387C70.9906 34.8854 71.4188 35.9919 70.9184 36.7757C70.639 37.2132 70.1321 37.4561 69.4116 37.4977C69.3345 37.5021 69.2524 37.5046 69.1653 37.5046Z" fill="#8C0331"/>
<path d="M76.0421 39.4698C75.2438 39.4698 74.0283 39.2575 72.4432 38.3669C71.3971 37.7792 70.6939 37.1817 70.6645 37.1565C70.6103 37.1102 70.6039 37.0286 70.6502 36.9743C70.6966 36.92 70.7782 36.9136 70.8325 36.96C70.8605 36.9839 73.6683 39.3556 76.2735 39.2047C76.9065 39.1682 77.3452 38.9653 77.5772 38.6018C78.0073 37.9281 77.6125 36.9092 77.6085 36.899C77.5822 36.8325 77.6147 36.7575 77.6811 36.7312C77.7474 36.7049 77.8226 36.7374 77.8488 36.8039C77.8673 36.8506 78.2955 37.9571 77.7951 38.7409C77.5158 39.1783 77.0088 39.4213 76.2883 39.4629C76.2113 39.4672 76.1292 39.4698 76.0421 39.4698ZM92.898 38.5388C92.0997 38.5388 90.8843 38.3266 89.2991 37.4359C88.2531 36.8482 87.5499 36.2507 87.5205 36.2256C87.4662 36.1792 87.4598 36.0976 87.5062 36.0434C87.5526 35.989 87.6341 35.9826 87.6885 36.029C87.7165 36.053 90.5243 38.4247 93.1295 38.2738C93.7626 38.2372 94.2012 38.0344 94.4333 37.6708C94.8634 36.9972 94.4686 35.9782 94.4646 35.968C94.4383 35.9016 94.4708 35.8265 94.5372 35.8003C94.6035 35.7739 94.6787 35.8065 94.7049 35.8729C94.7234 35.9196 95.1516 37.0261 94.6511 37.81C94.3718 38.2474 93.8649 38.4903 93.1444 38.5319C93.0673 38.5364 92.985 38.5388 92.898 38.5388ZM88.9167 43.5036C88.1184 43.5036 86.903 43.2913 85.3178 42.4007C84.2718 41.813 83.5685 41.2155 83.5392 41.1903C83.4849 41.144 83.4785 41.0624 83.5248 41.008C83.5712 40.9537 83.6528 40.9474 83.7071 40.9937C83.7351 41.0177 86.5429 43.3893 89.1481 43.2384C89.7812 43.202 90.2198 42.9991 90.4519 42.6355C90.882 41.9618 90.4872 40.9429 90.4832 40.9327C90.4569 40.8663 90.4894 40.7912 90.5558 40.7649C90.6221 40.7385 90.6973 40.7711 90.7235 40.8375C90.742 40.8843 91.1702 41.9908 90.6697 42.7746C90.3904 43.212 89.8835 43.4549 89.163 43.4965C89.0859 43.5011 89.0038 43.5036 88.9167 43.5036ZM106.398 47.8713C105.6 47.8713 104.384 47.659 102.799 46.7684C101.753 46.1807 101.05 45.5832 101.021 45.558C100.966 45.5117 100.96 45.4301 101.006 45.3758C101.053 45.3214 101.134 45.3151 101.188 45.3614C101.217 45.3854 104.024 47.7571 106.63 47.6062C107.263 47.5697 107.701 47.3668 107.933 47.0032C108.363 46.3296 107.969 45.3106 107.965 45.3004C107.938 45.234 107.971 45.1589 108.037 45.1327C108.104 45.1063 108.179 45.1389 108.205 45.2053C108.223 45.2521 108.652 46.3586 108.151 47.1424C107.872 47.5798 107.365 47.8227 106.644 47.8643C106.567 47.8688 106.485 47.8713 106.398 47.8713Z" fill="#8C0331"/>
<path d="M102.882 54.2339C102.084 54.2339 100.868 54.0216 99.2833 53.1309C98.2372 52.5432 97.534 51.9457 97.5046 51.9206C97.4504 51.8742 97.444 51.7926 97.4903 51.7384C97.5367 51.684 97.6183 51.6776 97.6725 51.724C97.7006 51.748 100.508 54.1197 103.114 53.9688C103.747 53.9322 104.185 53.7294 104.417 53.3658C104.847 52.6922 104.453 51.6732 104.449 51.663C104.422 51.5966 104.455 51.5215 104.521 51.4953C104.587 51.4689 104.663 51.5015 104.689 51.568C104.707 51.6147 105.136 52.7212 104.635 53.505C104.356 53.9425 103.849 54.1854 103.128 54.227C103.051 54.2314 102.969 54.2339 102.882 54.2339Z" fill="#8C0331"/>
<path d="M99.1544 61.9145C98.3561 61.9145 97.1406 61.7022 95.5555 60.8116C94.5094 60.2239 93.8062 59.6264 93.7769 59.6012C93.7226 59.5549 93.7162 59.4733 93.7625 59.419C93.8089 59.3646 93.8905 59.3582 93.9448 59.4046C93.9728 59.4286 96.7806 61.8003 99.3858 61.6494C100.019 61.6129 100.457 61.41 100.69 61.0464C101.12 60.3728 100.725 59.3538 100.721 59.3436C100.695 59.2772 100.727 59.2021 100.793 59.1758C100.86 59.1495 100.935 59.182 100.961 59.2485C100.98 59.2952 101.408 60.4017 100.907 61.1855C100.628 61.6229 100.121 61.8659 99.4007 61.9074C99.3237 61.912 99.2415 61.9145 99.1544 61.9145Z" fill="#8C0331"/>
<path d="M92.2775 59.8976C91.4792 59.8976 90.2638 59.6853 88.6786 58.7946C87.6325 58.2069 86.9294 57.6094 86.9 57.5843C86.8457 57.5379 86.8393 57.4563 86.8856 57.402C86.932 57.3477 87.0136 57.3413 87.0679 57.3877C87.0959 57.4117 89.9037 59.7833 92.5089 59.6324C93.142 59.5959 93.5806 59.393 93.8127 59.0295C94.2428 58.3558 93.848 57.3369 93.844 57.3267C93.8177 57.2602 93.8502 57.1852 93.9166 57.1589C93.9829 57.1325 94.0581 57.1651 94.0844 57.2316C94.1028 57.2783 94.531 58.3848 94.0306 59.1686C93.7513 59.606 93.2443 59.849 92.5238 59.8906C92.4467 59.8951 92.3646 59.8976 92.2775 59.8976Z" fill="#8C0331"/>
<path d="M113.27 57.3636C112.472 57.3636 111.256 57.1513 109.671 56.2606C108.625 55.6729 107.922 55.0754 107.892 55.0503C107.838 55.0039 107.832 54.9223 107.878 54.8681C107.925 54.8137 108.006 54.8074 108.06 54.8537C108.088 54.8777 110.896 57.2494 113.501 57.0985C114.134 57.0619 114.573 56.859 114.805 56.4955C115.235 55.8219 114.84 54.8029 114.836 54.7927C114.81 54.7263 114.843 54.6512 114.909 54.625C114.975 54.5986 115.05 54.6312 115.077 54.6976C115.095 54.7444 115.523 55.8509 115.023 56.6347C114.744 57.0721 114.237 57.315 113.516 57.3566C113.439 57.361 113.357 57.3636 113.27 57.3636Z" fill="#8C0331"/>
<path d="M86.3533 48.4341C85.555 48.4341 84.3396 48.2218 82.7544 47.3311C81.7084 46.7434 81.0051 46.1459 80.9758 46.1208C80.9215 46.0744 80.9151 45.9928 80.9614 45.9385C81.0078 45.8842 81.0894 45.8778 81.1437 45.9242C81.1717 45.9481 83.9795 48.3198 86.5847 48.1689C87.2178 48.1324 87.6564 47.9295 87.8885 47.566C88.3186 46.8923 87.9238 45.8733 87.9198 45.8632C87.8935 45.7967 87.926 45.7217 87.9924 45.6954C88.0587 45.6691 88.1339 45.7016 88.1601 45.7681C88.1786 45.8148 88.6068 46.9213 88.1063 47.7051C87.827 48.1425 87.3201 48.3855 86.5996 48.4271C86.5225 48.4315 86.4403 48.4341 86.3533 48.4341Z" fill="#8C0331"/>
<path d="M68.2712 29.0255C68.2712 29.0255 77.6349 29.3295 77.7099 28.9763C77.785 28.623 78.0162 25.1751 77.5839 25.0224C77.1517 24.8698 68.7253 24.2827 68.3406 25.0306C67.9559 25.7785 67.9568 28.9109 68.2712 29.0255Z" fill="#CC234B"/>
<path d="M77.5839 25.0225C77.4094 24.9608 75.9307 24.8283 74.2046 24.7415L74.1382 29.1451C76.0409 29.1564 77.6788 29.1232 77.71 28.9763C77.785 28.623 78.0162 25.1751 77.5839 25.0225Z" fill="#AF0B3A"/>
<path d="M31.169 114.71C37.7265 114.71 43.0424 114.137 43.0424 113.431C43.0424 112.725 37.7265 112.153 31.169 112.153C24.6115 112.153 19.2956 112.725 19.2956 113.431C19.2956 114.137 24.6115 114.71 31.169 114.71Z" fill="#EEF0FF"/>
<path d="M46.6369 85.303C46.6369 85.303 47.68 84.4562 47.8714 84.6481C48.0629 84.8401 47.4658 85.1468 47.6284 85.2374C47.7911 85.3281 48.9128 84.8447 49.1005 85.1198C49.2603 85.354 48.015 85.5381 48.062 85.6069C48.1089 85.6757 49.1865 85.8072 49.2622 85.9773C49.338 86.1474 48.951 86.2301 48.2604 86.0159C48.2604 86.0159 47.964 85.9359 47.9784 85.9866C47.9927 86.0373 48.9072 86.4616 48.8348 86.5917C48.7623 86.7218 48.5165 86.6275 47.8152 86.2794C47.8152 86.2794 47.6852 86.2068 47.7321 86.2756C47.779 86.3444 48.4728 86.8589 48.1544 86.8947C47.8362 86.9305 46.3691 85.8147 46.3691 85.8147L46.6369 85.303Z" fill="#F07461"/>
<path d="M45.7442 84.9836L46.6041 85.2058C46.6041 85.2058 46.7208 85.7991 46.4358 86.0249L45.6783 86.0366L45.7442 84.9836Z" fill="white"/>
<path d="M24.9858 113.447C25.0506 113.466 25.1167 113.478 25.184 113.483C25.6422 113.515 28.0472 113.667 28.1068 113.279C28.1727 112.851 27.4231 111.859 25.6031 112.554C24.1548 113.108 24.7062 113.366 24.9858 113.447Z" fill="#2B2B2B"/>
<path d="M25.6032 112.554C25.686 112.523 25.7666 112.495 25.845 112.47C25.4947 112.828 26.1494 113.279 27.1844 113.279C27.8205 113.279 28.0079 113.118 28.0418 112.963C28.0993 113.08 28.1203 113.191 28.1068 113.279C28.0472 113.667 25.6422 113.515 25.1839 113.483C25.1167 113.478 25.0504 113.466 24.9857 113.447C24.7062 113.366 24.1548 113.108 25.6032 112.554Z" fill="#1A1A1A"/>
<path d="M25.0681 112.788L25.9957 109.581C26.0156 109.512 26.0865 109.471 26.1561 109.488L26.5485 109.586C26.6246 109.606 26.6679 109.686 26.642 109.76L25.6259 112.664C25.5716 112.819 25.4341 112.93 25.271 112.95L25.2128 112.958C25.1178 112.97 25.0415 112.88 25.0681 112.788Z" fill="#E85653"/>
<path d="M33.5615 113.822C33.6262 113.841 33.6924 113.852 33.7596 113.857C34.2178 113.89 36.6228 114.041 36.6825 113.654C36.7484 113.226 35.9988 112.234 34.1788 112.929C32.7305 113.482 33.2819 113.74 33.5615 113.822Z" fill="#2B2B2B"/>
<path d="M34.1787 112.929C34.2616 112.897 34.3421 112.869 34.4205 112.844C34.0703 113.203 34.725 113.654 35.76 113.654C36.3961 113.654 36.5835 113.492 36.6173 113.338C36.6749 113.454 36.6959 113.566 36.6823 113.654C36.6227 114.041 34.2177 113.89 33.7595 113.857C33.6922 113.852 33.626 113.841 33.5613 113.822C33.2818 113.74 32.7304 113.482 34.1787 112.929Z" fill="#1A1A1A"/>
<path d="M33.6438 113.163L33.8466 109.494C33.8666 109.425 33.9374 109.384 34.007 109.402L34.3994 109.5C34.4755 109.519 34.5188 109.599 34.4929 109.673L34.2015 113.038C34.1472 113.193 34.0098 113.304 33.8467 113.325L33.7884 113.332C33.6934 113.344 33.6171 113.255 33.6438 113.163Z" fill="#F5735D"/>
<path d="M28.3009 88.2002C28.3009 88.2002 28.0373 98.2499 28.1032 99.502C28.1691 100.754 25.7868 109.935 25.7868 109.935C25.7868 109.935 25.5232 109.77 25.4574 109.968C25.3915 110.166 25.0291 110.956 25.3915 111.088C25.7538 111.22 26.5116 111.55 26.6104 111.319C26.7092 111.088 27.1704 110.199 26.6104 110.1C26.6104 110.1 30.3434 101.281 30.6398 99.8644C30.9363 98.4476 31.5293 94.922 31.5293 94.922C31.5293 94.922 33.5058 100.095 33.5718 100.359C33.6377 100.622 33.6706 110.447 33.6706 110.447C33.6706 110.447 33.3412 110.414 33.3083 110.644C33.2753 110.875 33.1765 111.567 33.44 111.633C33.7036 111.699 34.8565 111.863 34.9225 111.633C34.9884 111.402 35.186 110.479 34.5601 110.447C34.5601 110.447 36.2732 100.359 36.1743 99.3702C36.0754 98.3817 34.7907 88.3649 34.7907 88.3649L28.3009 88.2002Z" fill="#333333"/>
<path d="M31.5294 94.9219C31.5294 94.9219 30.887 92.9943 30.6728 91.7587C30.6728 91.7587 28.3833 91.8411 28.2784 89.0823C28.216 91.5613 28.0494 98.4773 28.1032 99.5019C28.1691 100.754 25.7868 109.935 25.7868 109.935C25.7868 109.935 25.5232 109.77 25.4574 109.968C25.3915 110.165 25.0291 110.956 25.3915 111.088C25.7538 111.22 26.5116 111.549 26.6104 111.319C26.7092 111.088 27.1704 110.198 26.6104 110.1C26.6104 110.1 30.3434 101.281 30.6398 99.8644C30.9364 98.4475 31.5294 94.9219 31.5294 94.9219Z" fill="#2B2B2B"/>
<path d="M30.6645 91.7535C30.6568 91.7087 30.6142 91.6786 30.5693 91.6863C30.5245 91.6939 30.4945 91.7366 30.5021 91.7814C30.5048 91.7965 30.741 93.1406 31.4717 95.262C31.5081 95.048 31.5293 94.9219 31.5293 94.9219C31.5293 94.9219 31.5316 94.9279 31.5358 94.939C30.8816 92.9882 30.667 91.7677 30.6645 91.7535ZM26.4934 110.126C26.4952 110.126 26.4971 110.126 26.4989 110.126C26.5419 110.125 26.5775 110.091 26.5798 110.048C26.5822 110.002 26.5474 109.964 26.502 109.961C26.4982 109.961 26.1843 109.941 25.8308 109.77C25.8054 109.865 25.7904 109.921 25.7874 109.933C26.1577 110.106 26.4766 110.125 26.4934 110.126Z" fill="#1A1A1A"/>
<path d="M32.7098 72.0653L32.5691 75.5138L33.906 75.6194L33.8005 74.2118C33.8005 74.2118 34.5393 74.7045 35.1374 74.3174C35.6699 73.9728 35.3837 71.5023 35.3837 71.5023L32.7098 72.0653Z" fill="#F5735D"/>
<path d="M34.4525 75.3192C34.4525 75.3192 34.3155 74.6513 34.2222 74.6442C34.1288 74.6371 32.1756 74.3944 31.9747 74.5668C31.7738 74.7393 31.7453 75.1128 31.7453 75.1128L34.4525 75.3192Z" fill="#EFEFEF"/>
<path d="M35.545 76.9989C35.545 76.9989 35.1058 75.369 34.7466 75.1538C34.3875 74.9386 31.8741 74.6532 31.5728 74.9119C31.2714 75.1707 31.3088 77.1457 31.3088 77.1457L35.545 76.9989Z" fill="#2B2B2B"/>
<path d="M46.244 85.0003C42.744 83.6342 41.1219 81.585 41.1219 81.585C38.2195 77.145 37.6521 76.2773 34.9224 75.6134C33.4597 75.2576 28.5946 74.9776 27.5761 77.6563C26.605 80.2101 27.9055 89.3793 27.9055 89.3793C32.8775 91.7277 35.3506 89.4002 35.3506 89.4002C35.9107 87.555 37.1951 83.6342 37.1951 83.6342C37.1951 83.6342 39.0328 85.0826 40.6051 85.5807C43.0854 86.3665 46.1586 86.1957 46.1586 86.1957C46.3293 85.8541 46.4148 85.3418 46.244 85.0003Z" fill="#333333"/>
<path d="M33.8532 73.1737C33.8532 73.1737 33.1144 74.4054 32.1997 73.8776C31.2849 73.3497 31.7775 72.2237 31.7775 72.2237C31.7775 72.2237 31.2146 72.4348 31.2146 72.2237C31.2146 72.0125 31.7423 72.0477 31.7423 72.0477C31.7423 72.0477 31.0035 71.7311 31.2146 71.3439C31.4257 70.9569 31.8831 71.4143 31.8831 71.4143C31.8831 71.4143 32.2701 69.9716 34.2755 69.5844C36.2809 69.1974 36.879 71.8366 33.9589 72.3644C33.9589 72.3644 33.3338 71.7954 33.1849 72.5403C32.9737 73.596 33.8532 73.1737 33.8532 73.1737Z" fill="#2F8AC2"/>
<path d="M31.7424 72.0477C31.7424 72.0477 31.2147 72.0125 31.2147 72.2237C31.2147 72.4348 31.7776 72.2237 31.7776 72.2237C31.7776 72.2237 31.285 73.3497 32.1997 73.8775C33.1145 74.4054 33.8533 73.1737 33.8533 73.1737C33.8533 73.1737 32.9737 73.596 33.1848 72.5403C33.3338 71.7954 33.9588 72.3644 33.9588 72.3644C35.5059 72.0847 36.0653 71.2125 35.9512 70.5116C35.8078 71.5943 33.4372 72.1738 32.6219 71.8717C32.0214 71.6493 32.1098 71.1035 32.2561 70.732C31.9665 71.1036 31.8831 71.4143 31.8831 71.4143C31.8831 71.4143 31.4257 70.9568 31.2146 71.3438C31.0035 71.731 31.7424 72.0477 31.7424 72.0477Z" fill="#1279A9"/>
<path d="M45.5285 85.8447C45.5231 85.8962 45.4146 85.927 45.286 85.9135C45.1575 85.9001 45.0576 85.8475 45.063 85.796C45.0683 85.7446 45.1769 85.7138 45.3055 85.7272C45.434 85.7407 45.5339 85.7933 45.5285 85.8447Z" fill="#1A1A1A"/>
<path d="M35.9628 82.1856C35.4439 84.1546 34.1437 87.0406 30.9858 86.9317C28.8386 86.8576 27.8098 85.3655 27.3277 83.7452C27.5412 86.5776 27.9056 89.3794 27.9056 89.3794C32.8775 91.7277 35.3507 89.4003 35.3507 89.4003C35.7655 88.0337 36.7311 85.0692 37.2042 83.6444C36.8322 83.3307 36.3232 82.8283 35.9628 82.1856Z" fill="#2B2B2B"/>
<path d="M45.5136 86.2657C43.2121 86.2657 41.4693 86.0339 40.3267 85.5752C38.5515 84.8624 37.3839 83.9197 36.7171 83.2543C35.9922 82.5313 35.6925 81.9839 35.6801 81.961C35.661 81.9257 35.6742 81.8817 35.7094 81.8626C35.7447 81.8434 35.7886 81.8566 35.8077 81.8919C35.8106 81.8973 36.1127 82.4473 36.8245 83.1564C37.4813 83.8107 38.6314 84.738 40.3808 85.4404C41.6098 85.9338 43.5529 86.1604 46.1573 86.1147C46.1577 86.1147 46.1581 86.1147 46.1585 86.1147C46.198 86.1147 46.2304 86.1463 46.231 86.186C46.2318 86.226 46.1999 86.2591 46.1598 86.2598C45.9397 86.2637 45.7242 86.2657 45.5136 86.2657Z" fill="#1A1A1A"/>
<path d="M32.0586 90.5149C30.9481 90.5149 29.5626 90.2554 27.9033 89.4774C27.8585 89.4564 27.8393 89.4031 27.8603 89.3583C27.8812 89.3133 27.9347 89.2941 27.9793 89.3152C32.578 91.4716 35.0023 89.5804 35.2637 89.3576C35.3012 89.3255 35.3578 89.33 35.3899 89.3677C35.422 89.4054 35.4175 89.4619 35.3798 89.494C35.2049 89.643 34.0939 90.5149 32.0586 90.5149Z" fill="#1A1A1A"/>
<path d="M71.7106 115.697C83.5595 115.697 93.165 114.869 93.165 113.848C93.165 112.827 83.5595 111.999 71.7106 111.999C59.8617 111.999 50.2562 112.827 50.2562 113.848C50.2562 114.869 59.8617 115.697 71.7106 115.697Z" fill="#EEF0FF"/>
<path d="M88.5192 89.8005C88.5192 89.8005 87.81 90.7229 87.9805 90.8843C88.151 91.0457 88.4029 90.5217 88.485 90.6605C88.5672 90.7992 88.1744 91.7815 88.4168 91.9377C88.6232 92.0708 88.7541 90.9884 88.8147 91.0275C88.8753 91.0665 89.0136 91.9966 89.1626 92.0583C89.3115 92.12 89.3743 91.7829 89.1732 91.19C89.1732 91.19 89.0973 90.9351 89.1415 90.9464C89.1856 90.9578 89.5737 91.7399 89.6847 91.6742C89.7956 91.6085 89.7084 91.3978 89.3911 90.7986C89.3911 90.7986 89.3254 90.6876 89.386 90.7267C89.4466 90.7657 89.9077 91.3547 89.9315 91.0783C89.9552 90.8019 88.956 89.5571 88.956 89.5571L88.5192 89.8005Z" fill="#F27461"/>
<path d="M79.0667 113.459L78.7116 110.086L78.0632 110.249L78.5495 113.394L79.0667 113.459Z" fill="#F87258"/>
<path d="M79.0923 113.916C79.0285 113.935 78.9634 113.946 78.8972 113.951C78.4463 113.983 76.0792 114.132 76.0206 113.751C75.9558 113.329 76.6935 112.353 78.4847 113.038C79.9101 113.582 79.3674 113.836 79.0923 113.916Z" fill="#2F8AC2"/>
<path d="M78.4846 113.038C78.4031 113.006 78.3238 112.979 78.2466 112.954C78.5913 113.307 77.947 113.751 76.9283 113.751C76.3022 113.751 76.1178 113.592 76.0844 113.44C76.0277 113.554 76.0071 113.664 76.0204 113.751C76.0791 114.132 78.4461 113.983 78.8971 113.951C78.9633 113.946 79.0285 113.935 79.0921 113.916C79.3674 113.836 79.9101 113.582 78.4846 113.038Z" fill="#1279A9"/>
<path d="M84.876 108.78L82.6396 106.23L82.2036 106.737L84.4162 109.025L84.876 108.78Z" fill="#EB544F"/>
<path d="M85.1033 109.012C85.0695 109.069 85.0298 109.122 84.9846 109.171C84.6774 109.502 83.0524 111.23 82.7489 110.992C82.4133 110.729 82.2845 109.512 84.0591 108.786C85.4714 108.208 85.2492 108.765 85.1033 109.012Z" fill="#2F8AC2"/>
<path d="M84.0591 108.786C83.9784 108.819 83.9016 108.853 83.8286 108.888C84.3211 108.91 84.1546 109.674 83.4113 110.371C82.9545 110.799 82.7112 110.81 82.583 110.721C82.6198 110.843 82.6799 110.938 82.7489 110.992C83.0525 111.23 84.6775 109.502 84.9847 109.171C85.0298 109.122 85.0695 109.069 85.1033 109.012C85.2492 108.765 85.4714 108.208 84.0591 108.786Z" fill="#1279A9"/>
<path d="M76.0442 88.4862L75.127 99.5107C75.1195 99.6272 75.1611 99.7415 75.2416 99.826L83.0629 108.027L83.8354 107.208L77.7277 99.7829L79.8623 88.6637L76.0442 88.4862Z" fill="#4C1854"/>
<path d="M81.9889 88.6889L78.0145 101.185L79.0521 111.14L77.8848 111.27L76.1873 100.804L77.2364 88.4073L81.9889 88.6889Z" fill="#5A2960"/>
<path d="M78.7218 111.177L79.0521 111.14L78.0146 101.185L81.9889 88.689L77.2364 88.4073L77.0387 90.781C77.3758 90.3845 78.4879 89.3103 79.6195 90.5315C80.8516 91.8611 77.3499 101.201 77.3499 101.201L78.7218 111.177Z" fill="#4C1854"/>
<path d="M76.1876 100.818L77.1418 90.2515C77.143 90.2373 77.1404 90.223 77.1343 90.21L76.8396 89.5887C76.8204 89.5482 76.772 89.531 76.7315 89.5502C76.6911 89.5694 76.6739 89.6177 76.6931 89.6582L76.9785 90.2599L76.027 100.649L76.1876 100.818Z" fill="#3A0D45"/>
<path d="M78.6951 75.7969C78.6951 75.7969 76.8562 75.9629 76.1872 76.1302C73.4243 76.8211 69.4637 82.6095 69.4201 77.9482C69.4201 77.9482 68.6647 77.7473 68.2466 77.9982C68.2466 77.9982 66.3198 86.5016 74.521 82.1276C74.521 82.1276 75.2559 87.6322 75.6983 88.6945C75.6983 88.6945 79.3373 89.7149 82.2192 88.8435C82.2192 88.8435 82.8876 84.6043 83.5121 82.8359C83.5121 82.8359 83.9382 83.455 85.4589 84.6718C85.4589 84.6718 86.4321 86.2537 88.3787 89.9041C88.3787 89.9041 88.7437 89.8433 89.1086 89.5999C89.1086 89.5999 88.8887 86.6001 88.0137 83.82C86.9797 80.5347 85.5066 76.2806 78.6951 75.7969Z" fill="#CC2276"/>
<path d="M77.0566 75.98C76.9243 76.4139 76.6997 78.5877 78.2204 78.831C79.6989 79.0677 81.0885 76.704 81.1864 76.2145C81.1866 76.2134 81.1861 76.2124 81.1863 76.2114C80.3054 75.9208 79.5828 75.86 78.6952 75.7969C78.6952 75.7969 77.8582 75.8229 77.0566 75.98Z" fill="#F27461"/>
<path d="M82.2193 88.8434C82.2193 88.8434 82.8768 84.674 83.4968 82.8803C83.1475 82.4815 83.0867 82.6032 82.4176 81.3256C82.4176 81.3256 83.3938 86.3316 78.5551 87.1701C76.8214 87.4705 75.5635 86.6703 75.064 85.7518C75.2765 87.0248 75.5131 88.2495 75.6985 88.6946C75.6984 88.6945 79.3374 89.7149 82.2193 88.8434Z" fill="#B5106B"/>
<path d="M79.5363 88.5768C77.6232 88.5768 75.8198 88.2532 75.5341 88.1996C75.489 88.1911 75.4592 88.1476 75.4677 88.1024C75.4761 88.0572 75.519 88.0275 75.5648 88.036C75.9877 88.1154 79.7678 88.7923 82.2382 88.1077C82.2824 88.0953 82.3284 88.1215 82.3406 88.1657C82.3528 88.21 82.3269 88.2559 82.2826 88.2682C81.4537 88.4977 80.4815 88.5768 79.5363 88.5768Z" fill="#81034F"/>
<path d="M82.3857 81.1957C82.4239 81.1779 82.4691 81.1947 82.4867 81.2329C82.7395 81.7807 83.235 82.4849 83.5061 82.8535C83.4864 82.9099 83.4666 82.9687 83.4468 83.0297C83.194 82.6912 82.6318 81.9105 82.3486 81.2965C82.331 81.2585 82.3476 81.2133 82.3857 81.1957Z" fill="#81034F"/>
<path d="M86.0137 71.6417C84.4611 70.0228 82.5453 73.5579 81.191 73.4918L80.6922 73.4238C80.922 72.951 80.9948 72.3539 80.6624 71.6417C79.7303 69.6438 76.7647 70.254 76.3683 71.7738C75.9719 73.2936 77.3262 73.6901 77.3262 73.6901L79.3742 74.7143C79.3742 74.7143 80.0184 74.3967 80.4664 73.7929L80.8276 73.9874C80.8276 73.9874 80.9597 75.6063 82.7104 75.7055C84.4611 75.8046 84.7584 73.9213 85.8154 75.4411C85.8155 75.4411 87.5662 73.2606 86.0137 71.6417Z" fill="#AA3B30"/>
<path d="M85.766 72.8806C84.5407 72.3681 84.2135 73.7396 82.7271 74.2683C81.2407 74.7969 80.7452 73.7726 80.7452 73.7726L80.9036 73.4526L80.6923 73.4238C80.922 72.9511 80.9948 72.3539 80.6625 71.6417C80.4234 71.1293 80.0505 70.7888 79.6215 70.5909C80.0244 70.9353 80.2923 71.4374 79.9853 72.0217C79.4733 72.9963 77.9208 72.1373 77.9208 72.1373C77.9351 72.8829 78.8185 74.222 79.0704 74.5624L79.3742 74.7143C79.3742 74.7143 80.0184 74.3967 80.4664 73.793L80.8276 73.9875C80.8276 73.9875 80.9597 75.6064 82.7104 75.7055C84.4611 75.8046 84.7584 73.9214 85.8154 75.4412C85.8154 75.4412 85.8177 75.4383 85.8217 75.4332C86.278 74.5491 86.6744 73.2606 85.766 72.8806Z" fill="#891A1A"/>
<path d="M80.0831 74.2184C80.0831 74.2184 80.7616 73.624 80.8887 72.6385C80.8887 72.6385 81.7856 72.864 81.3231 73.7891C80.9061 74.6234 80.0831 74.2184 80.0831 74.2184Z" fill="#FFB002"/>
<path d="M80.5797 73.5681C80.3495 73.985 80.083 74.2185 80.083 74.2185C80.083 74.2185 80.9061 74.6235 81.3231 73.7893C81.363 73.7094 81.3926 73.6349 81.4137 73.5651C81.09 73.8488 80.6668 73.6204 80.5797 73.5681Z" fill="#EF9500"/>
<path d="M77.095 72.732C77.095 72.732 76.8638 74.8134 77.8878 74.7473C78.9118 74.6813 79.4073 73.9544 79.4073 73.9544C79.4073 73.9544 80.167 74.0865 80.167 73.4587C80.167 72.831 79.5725 72.6989 79.3742 73.1284C79.3742 73.1284 78.3502 73.0954 77.9208 72.1372C77.9208 72.1373 77.5905 72.5998 77.095 72.732Z" fill="#F27461"/>
<path d="M78.1171 76.0675L78.195 74.1439L79.4404 73.8553L79.5534 76.0527C79.0746 76.0625 78.5959 76.0664 78.1171 76.0675Z" fill="#F27461"/>
<path d="M79.006 74.2097C79.0053 74.2108 78.9374 74.3222 78.772 74.4433C78.6513 74.5317 78.4573 74.6396 78.1752 74.7052L78.1449 75.5655C79.1719 75.2938 79.0293 74.1706 79.006 74.2097Z" fill="#E55857"/>
<path d="M77.4861 73.8545C77.4861 73.8545 77.8798 74.052 78.2129 73.8113C78.2128 73.8112 77.8653 74.7754 77.4861 73.8545Z" fill="white"/>
<path d="M79.3413 73.1615C79.3386 73.1615 79.3358 73.1614 79.333 73.161C78.471 73.0532 78.0502 72.4275 77.9123 72.1715C77.5484 72.6714 76.8751 72.8231 76.8448 72.8296C76.8093 72.8373 76.774 72.8148 76.7662 72.7791C76.7585 72.7435 76.781 72.7083 76.8167 72.7005C76.8239 72.6989 77.5525 72.5342 77.8639 72.0047L77.9327 71.8877L77.9822 72.014C77.9857 72.0229 78.3456 72.9043 79.3493 73.0299C79.3855 73.0344 79.4112 73.0675 79.4067 73.1036C79.4026 73.137 79.3741 73.1615 79.3413 73.1615Z" fill="#891A1A"/>
<path d="M69.4201 77.9481C69.4201 77.9481 68.6647 77.7472 68.2466 77.9981C68.2466 77.9981 66.3206 86.4981 74.5164 82.1298C74.372 80.7669 74.1519 77.3428 75.4461 76.4147C72.768 77.7454 69.46 82.206 69.4201 77.9481Z" fill="#B5106B"/>
<path d="M51.0723 84.8504C51.0723 84.8504 50.1019 84.0846 49.9281 84.2636C49.7544 84.4426 50.3077 84.7173 50.1592 84.8027C50.0107 84.8881 48.9725 84.4577 48.8033 84.7132C48.6592 84.9308 49.8073 85.0843 49.765 85.1482C49.7227 85.212 48.733 85.3468 48.6654 85.5042C48.5979 85.6616 48.9551 85.7329 49.5877 85.527C49.5877 85.527 49.8594 85.4497 49.8468 85.4965C49.8342 85.5432 48.9982 85.9453 49.0665 86.0641C49.1349 86.1829 49.3599 86.0929 50.0006 85.7638C50.0006 85.7638 50.1193 85.6954 50.077 85.7593C50.0347 85.8232 49.403 86.3054 49.6962 86.3342C49.9896 86.3631 51.3251 85.3178 51.3251 85.3178L51.0723 84.8504Z" fill="#E55857"/>
<path d="M63.8746 113.402L63.5188 110.022L62.869 110.184L63.3563 113.337L63.8746 113.402Z" fill="#F27461"/>
<path d="M63.9003 113.86C63.8364 113.878 63.7711 113.89 63.7048 113.894C63.2528 113.926 60.8807 114.076 60.822 113.694C60.757 113.272 61.4963 112.294 63.2914 112.979C64.7199 113.525 64.176 113.779 63.9003 113.86Z" fill="#562F5E"/>
<path d="M63.2914 112.979C63.2096 112.948 63.1302 112.92 63.0529 112.896C63.3983 113.249 62.7526 113.694 61.7317 113.694C61.1043 113.694 60.9196 113.535 60.8861 113.382C60.8293 113.497 60.8086 113.607 60.822 113.694C60.8808 114.076 63.2528 113.926 63.7048 113.894C63.7711 113.89 63.8364 113.878 63.9003 113.86C64.176 113.779 64.7199 113.525 63.2914 112.979Z" fill="#371443"/>
<path d="M69.6963 108.712L67.4552 106.157L67.0182 106.665L69.2355 108.958L69.6963 108.712Z" fill="#E55857"/>
<path d="M69.9241 108.945C69.8902 109.002 69.8503 109.055 69.8052 109.104C69.4973 109.436 67.8688 111.168 67.5646 110.929C67.2284 110.665 67.0992 109.446 68.8777 108.719C70.293 108.14 70.0704 108.698 69.9241 108.945Z" fill="#562F5E"/>
<path d="M68.8776 108.719C68.7967 108.752 68.7198 108.786 68.6466 108.821C69.1401 108.842 68.9732 109.609 68.2284 110.307C67.7707 110.736 67.5269 110.746 67.3983 110.658C67.4352 110.78 67.4954 110.875 67.5646 110.929C67.8687 111.168 69.4972 109.436 69.8051 109.104C69.8503 109.055 69.8901 109.002 69.924 108.945C70.0703 108.698 70.293 108.14 68.8776 108.719Z" fill="#371443"/>
<path d="M60.8458 88.3753L59.9265 99.4232C59.919 99.54 59.9607 99.6546 60.0414 99.7393L67.8795 107.958L68.6536 107.137L62.5328 99.6961L64.672 88.5532L60.8458 88.3753Z" fill="#1279A9"/>
<path d="M66.8031 88.5785L62.8202 101.101L63.86 111.078L62.6902 111.208L60.9891 100.719L62.0404 88.2963L66.8031 88.5785Z" fill="#2F8AC2"/>
<path d="M63.529 111.115L63.86 111.078L62.8203 101.101L66.8031 88.5784L62.0405 88.2962L61.8423 90.6749C62.1801 90.2776 63.2947 89.2011 64.4286 90.4249C65.6633 91.7574 62.1542 101.117 62.1542 101.117L63.529 111.115Z" fill="#1279A9"/>
<path d="M60.9894 100.733L61.9456 90.1444C61.9469 90.1301 61.9442 90.1158 61.9381 90.1029L61.6427 89.4801C61.6234 89.4396 61.575 89.4224 61.5345 89.4416C61.494 89.4608 61.4767 89.5093 61.4959 89.5498L61.782 90.1527L60.8284 100.564L60.9894 100.733Z" fill="#085D77"/>
<path d="M63.5023 75.659C63.5023 75.659 61.6595 75.8253 60.9891 75.9929C59.2035 76.4395 58.2723 78.4182 56.2319 80.7311C54.9514 82.1826 53.5855 83.2927 51.0245 84.5734C51.0245 84.5734 51.0245 85.0857 51.1953 85.598C51.1953 85.598 56.6587 85.0857 59.5612 83.6342C59.5612 83.6342 60.0557 87.5195 60.4991 88.5841C60.4991 88.5841 64.1458 89.6066 67.0339 88.7334C67.0339 88.7334 67.7037 84.4852 68.3295 82.713C68.3295 82.713 69.0033 83.8147 70.8406 84.4749C70.8406 84.4749 69.5794 86.6981 68.0806 87.431C68.0806 87.431 68.1037 87.9928 68.5917 88.3977C68.5917 88.3977 74.7227 87.1197 74.2456 84.2382C73.7686 81.3566 70.3283 76.1437 63.5023 75.659Z" fill="#FFB002"/>
<path d="M67.0339 88.7334C67.0339 88.7334 67.6928 84.555 68.3142 82.7575C67.9682 82.2093 67.5353 81.3497 67.0858 80.0224C67.0858 80.0224 67.4347 86.4022 63.3618 87.0564C61.3638 87.3773 60.3639 86.5555 59.8633 85.635C60.0762 86.9107 60.3134 88.138 60.4991 88.5841C60.4991 88.5841 64.1459 89.6067 67.0339 88.7334Z" fill="#EF9500"/>
<path d="M61.3835 75.9141C61.2937 76.1553 61.1492 76.6549 61.2034 77.2689C61.2995 78.3568 62.5804 78.8909 63.4256 78.1994C64.1994 77.5664 64.7428 76.6337 64.7281 75.8013C64.7265 75.801 64.7249 75.8008 64.7234 75.8006C64.5271 75.7688 64.3277 75.7409 64.1251 75.7172C64.115 75.716 64.1047 75.7152 64.0946 75.714C64.0027 75.7035 63.9102 75.6936 63.8169 75.6849C63.7128 75.6751 63.6079 75.6664 63.5022 75.6589C63.5022 75.6589 62.9698 75.717 62.2049 75.7978C61.9192 75.833 61.6289 75.8727 61.3835 75.9141Z" fill="#F27461"/>
<path d="M68.3295 82.7131C67.3733 81.0799 66.8798 79.0073 66.8745 78.9846C66.8641 78.9402 66.8197 78.9126 66.7752 78.9231C66.7309 78.9335 66.7033 78.9779 66.7138 79.0223C66.7193 79.0458 67.2427 81.2452 68.2601 82.9191C68.2833 82.8474 68.3064 82.7784 68.3295 82.7131Z" fill="#D57300"/>
<path d="M68.5929 88.1112C68.5929 88.1112 68.3081 88.8293 67.9374 88.8751C67.8511 88.8857 67.7581 88.8891 67.6745 88.8605C67.648 88.8515 67.6215 88.8396 67.6016 88.8198C67.5669 88.7853 67.5726 88.7352 67.5456 88.6968C67.5095 88.6457 67.4249 88.6518 67.3876 88.6016C67.3544 88.5571 67.3747 88.49 67.3464 88.4422C67.3227 88.4021 67.2698 88.3847 67.2503 88.3424C67.2343 88.308 67.2451 88.2665 67.2335 88.2304C67.2194 88.1866 67.1744 88.1563 67.1667 88.111C67.1637 88.0934 67.1668 88.0753 67.1728 88.0585C67.1912 88.0075 67.3882 87.8971 67.3882 87.8971C67.3882 87.8971 67.268 87.7481 67.4066 87.6228C67.5227 87.5178 68.4375 87.5862 68.4375 87.5862L68.5929 88.1112Z" fill="#F27461"/>
<path d="M67.4737 87.7509C67.4209 87.7742 67.3875 87.8283 67.3884 87.886C67.3885 87.8932 67.3882 87.8972 67.3882 87.8972C67.3882 87.8972 67.3882 87.8972 67.8126 87.6636C67.8126 87.6635 67.6176 87.6873 67.4737 87.7509Z" fill="#E55857"/>
<path d="M70.3785 85.1939C69.8794 85.9102 69.0277 86.9679 68.0806 87.431C68.0806 87.431 68.1037 87.9928 68.5917 88.3977C68.5917 88.3977 70.7481 87.9482 72.4036 86.9813C71.7365 86.3766 71.0586 85.784 70.3785 85.1939Z" fill="#FFB002"/>
<path d="M72.3643 80.2918C71.8255 80.1392 70.9545 79.9317 70.797 80.1336C70.5658 80.4298 71.0909 81.7927 70.8164 81.7373C70.542 81.6819 69.0709 81.3281 68.9602 81.8771C68.88 82.2748 68.9376 83.0299 68.9754 83.416C69.087 83.512 69.2149 83.6128 69.3596 83.7148C69.3073 83.4609 69.0242 81.966 69.597 81.977C70.223 81.9889 70.991 82.4295 71.2113 82.0455C71.4315 81.6613 70.9174 80.3864 71.4554 80.4092C71.8799 80.4272 72.5005 80.6977 72.7443 80.8114C72.6247 80.6379 72.498 80.4645 72.3643 80.2918Z" fill="#562F5E"/>
<path d="M73.2467 81.6098C72.7925 81.4362 72.3016 81.294 72.166 81.426C71.897 81.6882 72.2324 83.1097 71.9679 83.0176C71.7035 82.9255 70.294 82.3755 70.1099 82.9045C70.0109 83.1891 69.9605 83.6792 69.9349 84.0715C70.0329 84.1246 69.9529 84.1806 70.0612 84.2318C70.0731 83.7081 70.3449 83.0299 70.7273 83.0898C71.3458 83.1865 72.0471 83.7271 72.3174 83.3764C72.5876 83.0258 72.251 81.6928 72.7811 81.7884C72.9982 81.8275 73.2583 81.9417 73.4905 82.0626C73.4147 81.9129 73.3334 81.7618 73.2467 81.6098Z" fill="#562F5E"/>
<path d="M60.7472 73.2217C60.7472 73.2217 58.4384 72.4266 59.0545 70.3268C59.6705 68.227 62.457 68.8868 63.5804 70.752C63.5804 70.752 63.8258 70.1466 64.1551 70.6091C64.4845 71.0716 63.9808 73.358 63.9808 73.358C63.9808 73.358 62.8542 73.935 60.7472 73.2217Z" fill="#562F5E"/>
<path d="M64.221 70.7629C64.2581 71.946 62.8721 70.8381 62.8721 70.8381C62.8721 70.8381 62.2464 72.0606 60.611 71.9186C59.1649 71.793 59.1141 70.442 59.1217 70.1307C59.0972 70.1933 59.0746 70.2584 59.0546 70.3267C58.4385 72.4265 60.7473 73.2216 60.7473 73.2216C62.8543 73.9349 63.9809 73.3578 63.9809 73.3578C63.9809 73.3578 64.4029 71.4409 64.221 70.7629Z" fill="#481F52"/>
<path d="M63.957 76.5516L63.5729 73.7003L62.3636 74.0828L62.4264 76.6721C62.8892 76.6356 63.4937 76.5788 63.957 76.5516Z" fill="#F27461"/>
<path d="M62.3925 75.2739C63.4651 74.9357 63.5012 74.0201 63.5012 74.0201L62.366 74.179L62.3925 75.2739Z" fill="#E55857"/>
<path d="M61.2139 72.7321C61.2139 72.7321 61.1438 74.9144 62.2027 74.762C63.2616 74.6095 63.7171 73.8135 63.7171 73.8135C63.7171 73.8135 64.5176 73.8887 64.4662 73.2363C64.4149 72.5838 63.7861 72.4951 63.6153 72.9577C63.6152 72.9577 63.5211 71.419 61.2139 72.7321Z" fill="#F27461"/>
<path d="M63.6677 72.9783C63.6204 72.982 63.5767 72.9503 63.5665 72.9028C63.5138 72.6576 63.3412 72.2466 62.7768 72.2475C61.9844 72.2483 60.9736 72.9479 60.9634 72.9549C60.9199 72.9854 60.8602 72.9746 60.8298 72.9313C60.7994 72.8878 60.8101 72.828 60.8534 72.7976C60.8967 72.7673 61.9213 72.057 62.7764 72.0556C63.5225 72.0543 63.7133 72.6728 63.754 72.8624C63.7651 72.9143 63.7322 72.9654 63.6803 72.9765C63.6762 72.9773 63.6719 72.978 63.6677 72.9783Z" fill="#371443"/>
<path d="M60.1065 76.3966C60.1321 76.3739 60.1543 76.3515 60.175 76.3293C58.8703 77.0948 57.9393 78.7956 56.2319 80.7311C54.9514 82.1826 53.5855 83.2926 51.0245 84.5734C51.0245 84.5734 51.0245 85.0857 51.1953 85.598C51.1953 85.598 56.6587 85.0856 59.5612 83.6341C59.5612 83.6342 59.0298 77.356 60.1065 76.3966Z" fill="#EF9500"/>
<path d="M58.3166 80.6608C58.1977 81.2867 57.6248 81.9819 57.9724 82.2684C58.2533 82.4998 59.199 82.3498 59.4912 82.5664C59.4826 82.4065 59.4743 82.2333 59.4666 82.0493C58.9578 82.0243 58.2778 82.1094 58.3488 81.9248C58.4511 81.6589 59.057 80.2438 58.5253 80.039C58.1524 79.8954 57.4226 79.8243 57.0193 79.7945C56.9319 79.9028 56.8425 80.0124 56.7509 80.123C57.2097 80.1182 58.4129 80.1533 58.3166 80.6608ZM59.5152 82.9839C59.4041 83.2959 59.1941 83.6448 59.0459 83.8711C59.2248 83.795 59.3973 83.7162 59.5612 83.6342C59.5612 83.6342 59.5403 83.3869 59.5152 82.9839Z" fill="#481F52"/>
<path d="M57.707 84.3558C57.8614 84.3078 58.0136 84.2581 58.1634 84.2069C58.3693 83.8354 58.5247 83.4684 58.4306 83.3318C58.2137 83.0171 56.7312 83.111 56.8686 82.8615C57.006 82.6119 57.7981 81.292 57.2991 81.0171C57.0586 80.8845 56.6461 80.763 56.2831 80.6727C56.266 80.6922 56.2493 80.7116 56.232 80.7312C56.1683 80.8033 56.1044 80.8744 56.0402 80.9449C56.5454 81.0516 57.126 81.2528 57.008 81.6048C56.8054 82.2087 56.1437 82.8199 56.4492 83.1508C56.7547 83.4818 58.1487 83.3716 57.9624 83.887C57.9086 84.0351 57.8141 84.1982 57.707 84.3558Z" fill="#481F52"/>
<path d="M76.3989 73.4477C76.4569 73.5533 76.5233 73.6064 76.5961 73.6057C76.9378 73.6021 77.3975 73.5667 77.4435 73.3025C77.4779 73.1047 77.4706 72.7173 77.4656 72.5535C77.465 72.5323 77.5436 72.5276 77.5472 72.5481C77.5765 72.7168 77.6499 73.1358 77.6808 73.2823C77.6958 73.3532 77.7405 73.413 77.81 73.4551C77.9394 73.5334 78.1414 73.5469 78.3868 73.4951C78.4264 73.4867 78.4671 73.4767 78.5088 73.4649C78.669 73.4198 78.7673 73.2245 78.8009 72.8846C78.811 72.7826 78.8136 72.6835 78.8133 72.6023C78.8132 72.5689 79.4415 72.9896 79.4415 72.9896C79.4526 72.9981 79.4665 73.0008 79.4793 72.998C79.4898 72.9958 79.4997 72.9899 79.5068 72.9806C79.5223 72.9601 79.5183 72.9308 79.4978 72.9153L78.8006 72.3865C78.7997 72.3858 78.7985 72.3857 78.7976 72.385C78.7889 72.3726 78.775 72.3643 78.7588 72.3646C78.7528 72.3647 78.1526 72.3781 77.5512 72.4048C76.3117 72.4599 76.2767 72.5135 76.2536 72.5491C76.1795 72.6627 76.2678 73.2087 76.3989 73.4477Z" fill="#4A1C53"/>
<path d="M77.2166 73.4387L76.6975 72.55L76.5697 72.577L76.8323 73.189L76.7897 73.198L76.608 72.9694L76.8436 73.4536L77.023 73.4603L76.9175 73.171L77.1171 73.4848L77.2166 73.4387Z" fill="#5A2960"/>
<path d="M78.4877 73.3484L77.9685 72.4597L77.8408 72.4867L78.1034 73.0987L78.0607 73.1077L77.8791 72.879L78.1147 73.3633L78.294 73.3699L78.1885 73.0807L78.3882 73.3945L78.4877 73.3484Z" fill="#5A2960"/>
<path d="M69.8194 84.0103C69.8523 83.8725 69.999 83.2951 70.1588 83.2276C70.3404 83.1508 70.3824 83.4628 70.1484 83.9886C70.1484 83.9886 70.1397 84.0634 70.1775 84.0086C70.2153 83.9538 70.5658 83.1797 70.7356 83.2617C70.9308 83.3561 70.3808 84.149 70.3808 84.149C70.3808 84.149 70.362 84.1764 70.4099 84.169C70.4578 84.1616 70.8353 83.4956 70.9694 83.5444C71.0932 83.5894 71.0783 83.8217 70.6321 84.282C70.6321 84.282 70.5944 84.3367 70.6612 84.302C70.728 84.2672 71.0138 83.9389 71.1233 84.0145C71.2055 84.0712 71.042 84.4839 70.5986 84.7035C70.0145 84.9927 69.4043 84.094 69.34 83.6841L69.8194 84.0103Z" fill="#E15857"/>
</svg>
