<svg width="119" height="102" viewBox="0 0 119 102" fill="none" xmlns="http://www.w3.org/2000/svg">
<path d="M7.84335 96.0678C7.58043 92.9643 20.105 91.7453 41.8159 89.8927C63.5308 88.0402 82.7998 91.5381 80.2941 93.9762C76.9119 97.2669 63.1245 100.291 41.3777 101.613C19.0215 102.968 8.11026 99.1712 7.84335 96.0678Z" fill="#EEF0FF"/>
<path d="M17.699 44.4047C17.8105 44.2733 17.8623 44.1059 17.9181 43.9426C18.173 43.1976 18.5435 42.4965 19.0136 41.867C19.1171 41.7276 19.2287 41.5881 19.2884 41.4288C19.4358 41.0344 19.2566 40.5961 19.0415 40.2336C17.922 38.3213 15.8665 37.1501 13.787 36.3892C12.3768 35.8752 10.8869 35.5047 9.38906 35.5685C8.79549 35.5924 8.17803 35.696 7.696 36.0426C7.21398 36.3852 6.91123 36.935 6.76781 37.5086C6.62042 38.0823 6.61644 38.6799 6.63237 39.2695C6.67221 40.9547 6.85546 42.6598 7.50479 44.2175C7.68007 44.6398 7.89519 45.0541 8.21388 45.3808C8.53257 45.7075 8.97476 45.9345 9.43288 45.9146C9.89498 45.8947 10.3053 45.6278 10.7116 45.4047C11.831 44.7832 13.0978 44.4286 14.3766 44.3569C14.9861 44.3251 15.6235 44.333 16.217 44.4725C16.6831 44.58 17.3086 44.8709 17.699 44.4047Z" fill="#FEA7A7"/>
<path d="M12.7154 45.9504C11.1339 46.8787 10.624 48.2452 9.6679 50.1495C8.66402 49.2411 8.07046 47.8986 7.58047 46.6317C6.58854 44.078 5.60458 41.3371 6.1583 38.652C6.38936 37.5365 6.99089 36.3811 8.06647 36.0027C8.85922 35.7238 9.74758 35.9349 10.5085 36.2975C12.0661 37.0385 13.2492 38.3691 14.3925 39.6599C14.998 40.3451 15.6035 41.0303 16.1413 41.7673C16.5317 42.3012 17.7507 43.5999 17.6989 44.3011C17.6472 45.0341 16.0378 44.6676 15.4123 44.7672C14.4284 44.9266 13.5759 45.4445 12.7154 45.9504Z" fill="url(#paint0_linear_3437_17917)"/>
<path d="M39.6329 100.992C34.6932 100.753 33.0161 99.219 32.8289 97.988L31.9126 88.2872C31.9126 87.6857 33.3149 87.6498 33.9164 87.6498H46.1064C46.7079 87.6498 47.7317 88.1159 47.7317 88.7175L47.1939 97.988C47.1143 99.6015 43.513 101.179 39.6329 100.992ZM66.4987 96.8526C71.1277 96.1355 72.5578 94.522 72.6096 93.3428L73.6972 76.3555C73.6374 75.7898 71.2632 74.5229 70.6975 74.5827L59.0652 84.9248C58.4995 84.9846 57.5793 85.5264 57.6391 86.0921L59.0732 94.773C59.3082 96.2869 62.8577 97.4183 66.4987 96.8526ZM23.5589 95.9562C19.0813 95.7371 17.5595 94.3467 17.3922 93.2312L16.5596 84.4348C16.5596 83.889 17.8304 83.8572 18.3762 83.8572H29.4308C29.9766 83.8572 30.9048 84.2795 30.9048 84.8252L30.4148 93.2312C30.3431 94.6973 27.0765 96.1275 23.5589 95.9562Z" fill="#FA8780"/>
<path d="M46.1105 87.6498H45.5688L45.0389 96.741C44.9553 98.3545 41.3541 99.9361 37.474 99.7448C35.7371 99.6612 34.4066 99.4142 33.3987 99.0795C34.2432 99.9879 36.1076 100.82 39.6331 100.992C43.5132 101.179 47.1144 99.6014 47.1981 97.9879L47.7359 88.7174C47.7359 88.1159 46.7121 87.6498 46.1105 87.6498ZM70.6976 74.5826L70.5981 74.6703C71.088 74.985 71.4665 75.3157 71.4904 75.5387L70.4029 92.526C70.3511 93.7053 68.9209 95.3187 64.2919 96.0358C62.7781 96.2709 61.2763 96.2111 60.0254 95.9562C61.364 96.7968 63.9095 97.2549 66.4989 96.8525C71.1279 96.1354 72.558 94.522 72.6098 93.3427L73.6973 76.3554C73.6336 75.7857 71.2633 74.5229 70.6976 74.5826ZM29.431 83.8611H28.3275L27.8734 91.6496C27.7977 93.1157 24.5351 94.5459 21.0175 94.3746C19.6153 94.3068 18.5038 94.1236 17.6314 93.8686C18.221 94.8208 19.9061 95.7769 23.5551 95.9562C27.0727 96.1275 30.3353 94.6973 30.411 93.2312L30.901 84.8252C30.9089 84.2834 29.9768 83.8611 29.431 83.8611Z" fill="#F0756E"/>
<path d="M51.572 94.8049C47.3932 94.5858 45.975 93.1954 45.8156 92.0799L45.0388 83.2835C45.0388 82.7377 46.2259 82.7058 46.7358 82.7058H57.0495C57.5594 82.7058 58.4279 83.1281 58.4279 83.6739L57.9698 92.0799C57.902 93.546 54.8545 94.9762 51.572 94.8049Z" fill="#FA8780"/>
<path d="M80.8519 63.0095C80.8519 80.0765 72.542 93.4743 42.816 94.0838C18.3683 94.5818 5.55688 80.2478 5.55688 63.1848C5.55688 46.1218 23.7542 31.2659 44.3298 31.3337C71.2912 31.4173 80.8519 45.9426 80.8519 63.0095Z" fill="#FA8780"/>
<path d="M62.2601 54.5876C61.6625 55.0178 61.3478 55.7469 61.2243 56.472C60.9415 58.1691 61.5789 59.8662 61.9533 61.5474C62.3278 63.2286 62.3557 65.2086 61.1367 66.4237C60.0332 67.5233 58.2645 67.6348 56.9977 68.5471C55.5277 69.6108 54.9899 71.6984 55.5396 73.4314C56.0854 75.1604 57.5753 76.5029 59.2763 77.1324C60.9773 77.7618 62.8696 77.7419 64.6423 77.3555C65.7458 77.1165 66.8612 76.7141 67.6579 75.9133C68.7096 74.8576 69.0363 73.3118 69.578 71.9254C70.1517 70.4474 71.0161 69.0849 72.0997 67.9296C72.9801 66.9934 74.0118 66.1887 74.7687 65.1489C76.7128 62.4876 76.4857 58.695 74.9679 55.7748C74.5935 55.0577 74.1353 54.3565 73.4621 53.9024C72.0559 52.9582 70.1796 53.3446 68.5383 53.7669C67.383 54.0657 66.4827 54.233 65.3036 54.1812C64.2957 54.1374 63.1404 53.9581 62.2601 54.5876ZM47.7795 78.5347C45.939 78.9251 44.1424 80.0486 43.4572 81.8055C43.1067 82.6979 43.1226 83.8412 43.8397 84.4827C44.4372 85.0205 45.3216 85.0484 46.1263 85.0484C48.0623 85.0444 49.9984 85.0444 51.9344 85.0404C52.3846 85.0404 52.8507 85.0364 53.261 84.8452C54.3485 84.3392 54.488 82.8532 55.2289 81.9091C55.6831 81.3314 56.428 80.8215 56.3483 80.0884C56.2926 79.5745 55.8304 79.208 55.3723 78.969C53.4363 77.9571 49.839 78.0965 47.7795 78.5347ZM50.1976 71.9055C49.9864 71.8258 49.7554 71.7661 49.5323 71.79C48.7196 71.8776 48.3651 72.8935 47.644 73.276C47.2417 73.4911 46.676 73.5469 46.5047 73.9692C46.4011 74.2242 46.4967 74.5229 46.6561 74.75C47.0903 75.3795 47.9309 75.6105 48.6917 75.5747C49.4566 75.5388 50.1936 75.2879 50.9465 75.1564C51.6994 75.0249 52.528 75.0289 53.1654 75.4512C53.4084 75.6145 53.7311 75.8336 53.9541 75.6424C54.0139 75.5906 54.0537 75.5149 54.0816 75.4392C54.3206 74.7978 54.0458 74.0449 53.5359 73.5907C52.9941 73.1047 52.3726 73.1286 51.7552 72.8497C51.1935 72.5987 50.7832 72.1286 50.1976 71.9055ZM74.8046 50.1177C74.3704 50.0021 73.9043 49.8866 73.486 50.042C73.0637 50.1973 72.765 50.7471 73.0279 51.1096C73.3187 51.512 73.98 51.3726 74.3704 51.6793C74.5895 51.8507 74.6851 52.1375 74.8604 52.3486C75.0356 52.5598 75.4061 52.6833 75.5774 52.4642C75.4898 51.8028 75.5456 51.1256 75.7328 50.4842C75.7766 50.3328 75.8284 50.1734 75.7049 50.03C75.6292 49.9384 75.5137 49.8946 75.3982 49.8906C75.1591 49.8866 74.9639 50.03 74.7807 50.1695M58.9377 80.1123C58.6987 80.4908 58.4517 80.9051 58.4756 81.3513C58.4995 81.7975 58.9337 82.2477 59.36 82.1043C59.83 81.9489 59.8938 81.2716 60.3001 80.9928C60.5312 80.8334 60.8299 80.8294 61.0849 80.7219C61.3438 80.6143 61.5669 80.2996 61.4116 80.0725C60.7542 79.9609 60.1208 79.706 59.5671 79.3355C59.4755 79.2757 59.3799 79.208 59.2723 79.2C59.0731 79.1841 58.9098 79.3753 58.8819 79.5705C58.8501 79.7657 58.9178 79.961 58.9855 80.1482M40.4814 83.5385C40.1588 83.5982 39.8082 83.6739 39.5931 83.9249C39.378 84.1759 39.4098 84.65 39.7245 84.7456C39.8122 84.7735 39.9078 84.7655 39.9994 84.7934C40.2305 84.8611 40.4177 85.14 40.6487 85.0643C40.9316 84.9727 40.824 84.5384 40.9635 84.2755C41.0113 84.1839 41.0909 84.1161 41.1308 84.0205C41.2264 83.7735 40.8718 83.5066 40.6607 83.666" fill="#F0756E"/>
<path d="M58.7985 62.8262C58.4758 62.886 58.1253 62.9617 57.9102 63.2127C57.695 63.4597 57.7269 63.9377 58.0416 64.0334C58.1293 64.0612 58.2249 64.0533 58.3165 64.0812C58.5475 64.1489 58.7348 64.4278 58.9658 64.3521C59.2487 64.2604 59.1411 63.8262 59.2805 63.5633C59.3283 63.4716 59.408 63.4039 59.4478 63.3083C59.5435 63.0613 59.1889 62.7944 58.9778 62.9537" fill="#F0756E"/>
<path d="M26.232 68.9933C27.5697 68.9933 28.6541 67.834 28.6541 66.4038C28.6541 64.9736 27.5697 63.8143 26.232 63.8143C24.8943 63.8143 23.8099 64.9736 23.8099 66.4038C23.8099 67.834 24.8943 68.9933 26.232 68.9933Z" fill="#F0756E"/>
<path d="M11.652 62.2326C11.1501 62.2087 9.77569 62.1729 8.42523 62.1848V79.9011C9.57252 79.8812 10.7118 79.7976 11.4528 79.8334C15.9543 80.0525 19.1612 75.8814 19.3922 71.1685C19.6153 66.4555 16.1535 62.4557 11.652 62.2326Z" fill="url(#paint1_linear_3437_17917)"/>
<path d="M37.3661 48.9982C37.0275 47.1696 36.4021 45.4047 35.5615 43.7434C35.0397 42.7156 34.482 41.6838 33.7211 40.8113C32.7889 39.7396 31.5301 38.9229 30.1517 38.6002C29.7255 38.405 29.2674 38.2935 28.7893 38.2895C28.383 38.2855 27.9687 38.3652 27.6102 38.5604C27.2317 38.7676 26.9369 39.1022 26.666 39.4369C25.0805 41.4208 24.0807 43.8072 23.1843 46.1776C23.0648 46.4963 23.033 46.8429 23.1246 47.1736C23.3198 47.8907 23.8018 47.7034 24.2958 47.7313C24.8734 47.7632 25.4271 47.9464 25.949 48.1974C27.0684 48.7353 28.132 49.4404 28.8332 50.4563C30.7254 53.1892 30.2473 55.8863 30.2434 55.8345C30.2434 55.8345 30.2673 56.1971 30.4186 56.2887C31.2433 56.7907 32.5579 56.3485 33.4144 55.9461C35.1034 55.1533 36.7885 53.9741 37.3383 52.1933C37.6609 51.1654 37.5613 50.0539 37.3661 48.9982Z" fill="#FEA7A7"/>
<path d="M56.5359 36.7835C56.4443 36.7835 56.3487 36.7716 56.2571 36.7397C44.82 33.2419 36.7133 36.3374 36.6336 36.3692C36.1436 36.5604 35.5899 36.3214 35.3987 35.8314C35.2075 35.3414 35.4465 34.7876 35.9365 34.5964C36.291 34.457 44.7483 31.23 56.8148 34.9191C57.3167 35.0745 57.5996 35.6043 57.4482 36.1063C57.3207 36.5166 56.9423 36.7835 56.5359 36.7835Z" fill="#D8592F"/>
<path d="M84.6561 54.2887C84.0546 54.4919 83.4331 54.472 82.9152 54.2249C80.9234 53.2768 79.9952 51.3087 80.1506 48.3686C80.1546 48.2929 80.1586 48.2292 80.1586 48.1894C80.1586 48.1774 80.1586 48.1655 80.1546 48.1535C79.8996 48.2611 79.6367 48.3806 79.3419 48.5081C79.1387 48.5957 78.9236 48.6913 78.6966 48.7909C77.9516 49.1136 77.119 49.512 76.5932 50.1415C76.1948 50.6235 75.9598 51.3884 76.2825 51.9223C76.5055 52.2928 76.386 52.7708 76.0156 52.9899C75.6491 53.2091 75.167 53.0935 74.9479 52.723C74.3265 51.6872 74.5097 50.2172 75.3941 49.1455C76.1351 48.2531 77.1668 47.7551 78.0711 47.3607C78.2982 47.2611 78.5133 47.1695 78.7125 47.0779C79.4056 46.7711 79.9713 46.5241 80.5968 46.293C80.776 45.9464 81.0111 45.5998 81.2979 45.2493C82.254 44.0899 83.4889 43.1617 84.8712 42.5761C85.2696 42.4048 85.7237 42.592 85.895 42.9864C86.0623 43.3808 85.8791 43.839 85.4847 44.0063C84.5844 44.3887 83.7598 44.9425 83.0626 45.6277C83.8155 45.5759 84.5167 45.7592 85.1182 46.1695C86.377 47.034 86.9746 48.7192 87.106 49.9024C87.2933 51.6195 86.5125 53.2887 85.166 54.0497C84.9987 54.1532 84.8274 54.2289 84.6561 54.2887ZM81.7719 47.548C81.7201 47.7392 81.7042 47.9185 81.7162 48.0938C81.7241 48.1894 81.7162 48.2969 81.7082 48.4563C81.6325 49.9104 81.7401 51.9422 83.5845 52.8226C83.7837 52.9182 84.1064 52.8744 84.4011 52.7071C85.2019 52.2569 85.6799 51.1773 85.5604 50.0897C85.4767 49.3447 85.0584 48.03 84.2418 47.4723C83.8155 47.1814 83.3176 47.1177 82.7161 47.2771C82.3655 47.3647 82.0548 47.4563 81.7719 47.548Z" fill="#FA8780"/>
<path d="M10.9696 56.4986C11.2296 55.1393 10.9254 53.9389 10.2901 53.8173C9.65478 53.6958 8.92896 54.6992 8.66893 56.0585C8.40891 57.4178 8.71315 58.6182 9.34846 58.7398C9.98377 58.8613 10.7096 57.8579 10.9696 56.4986Z" fill="#A64424"/>
<path d="M9.52004 58.7349C8.88664 58.6114 8.5799 57.4122 8.83883 56.0537C9.07387 54.8267 9.68735 53.8905 10.2729 53.8108C9.63955 53.7072 8.92249 54.7032 8.66753 56.0537C8.4086 57.4122 8.71135 58.6154 9.34874 58.7349C9.41248 58.7468 9.47223 58.7429 9.53597 58.7349C9.528 58.7349 9.52402 58.7349 9.52004 58.7349Z" fill="#7A321B"/>
<path d="M20.6533 58.7838C20.9261 57.3575 20.606 56.0977 19.9383 55.9699C19.2705 55.8422 18.5081 56.8949 18.2352 58.3212C17.9624 59.7474 18.2825 61.0072 18.9502 61.135C19.618 61.2627 20.3804 60.2101 20.6533 58.7838Z" fill="#A64424"/>
<path d="M19.1292 61.133C18.4639 61.0056 18.1413 59.7467 18.4161 58.3164C18.6631 57.0296 19.3085 56.0456 19.9219 55.962C19.2607 55.8544 18.5077 56.8982 18.2369 58.3164C17.962 59.7427 18.2847 61.0056 18.9499 61.133C19.0137 61.145 19.0814 61.145 19.1451 61.133C19.1372 61.133 19.1332 61.133 19.1292 61.133Z" fill="#7A321B"/>
<path d="M15.908 71.4051C16.1456 66.5352 12.8733 62.4183 8.59923 62.2098C4.32514 62.0013 0.66772 65.78 0.430153 70.6499C0.192586 75.5198 3.46483 79.6367 7.73892 79.8452C12.013 80.0537 15.6704 76.275 15.908 71.4051Z" fill="#FEA7A7"/>
<path d="M4.49778 72.9615C5.11821 72.9615 5.62117 71.8485 5.62117 70.4755C5.62117 69.1026 5.11821 67.9896 4.49778 67.9896C3.87735 67.9896 3.37439 69.1026 3.37439 70.4755C3.37439 71.8485 3.87735 72.9615 4.49778 72.9615Z" fill="#D8592F"/>
<path d="M4.81604 68.0929C5.23831 68.4634 5.53708 69.3877 5.53708 70.4753C5.53708 71.5629 5.23831 72.4871 4.81604 72.8576C5.28213 72.5549 5.73626 71.6107 5.73626 70.4832C5.73228 69.3518 5.28213 68.3957 4.81604 68.0929Z" fill="white"/>
<path d="M3.62887 70.5471C3.62887 69.1727 4.13081 68.0612 4.75226 68.0612H4.75625C4.67259 68.0173 4.58495 67.9894 4.49333 67.9894C3.87188 67.9894 3.36993 69.101 3.36993 70.4754C3.36993 71.8458 3.87187 72.9573 4.48934 72.9613C3.99935 72.6984 3.62887 71.7184 3.62887 70.5471Z" fill="#A64424"/>
<path d="M9.17002 74.2202C9.79045 74.2202 10.2934 73.1072 10.2934 71.7342C10.2934 70.3613 9.79045 69.2483 9.17002 69.2483C8.54959 69.2483 8.04663 70.3613 8.04663 71.7342C8.04663 73.1072 8.54959 74.2202 9.17002 74.2202Z" fill="#D8592F"/>
<path d="M9.48883 69.352C9.9111 69.7225 10.2099 70.6467 10.2099 71.7343C10.2099 72.8219 9.9111 73.7462 9.48883 74.1167C9.95492 73.8139 10.3852 72.8538 10.3852 71.7264C10.3852 70.5989 9.95492 69.6548 9.48883 69.352Z" fill="white"/>
<path d="M8.30154 71.8059C8.30154 70.4314 8.80348 69.3199 9.42493 69.3199H9.42891C9.34525 69.2761 9.25761 69.2482 9.16599 69.2482C8.54454 69.2482 8.0426 70.3597 8.0426 71.7342C8.0426 73.1046 8.54454 74.2161 9.16201 74.2201C8.67202 73.9572 8.30154 72.9771 8.30154 71.8059Z" fill="#A64424"/>
<path d="M28.6779 50.6674C29.6897 52.2411 30.12 54.1294 30.2634 55.9939C31.9365 53.257 32.4624 49.9902 32.8368 46.8031C33.044 45.0302 33.2113 43.1897 32.6416 41.5005C32.072 39.8114 30.5741 38.3015 28.7894 38.2895C28.3831 38.2855 27.9688 38.3652 27.6103 38.5604C27.2318 38.7676 26.937 39.1022 26.6662 39.4369C25.1723 41.3053 24.2003 43.5323 23.3398 45.7673C23.1645 46.2214 22.9932 46.7114 23.1247 47.1815C23.3199 47.8907 23.8019 47.7034 24.2959 47.7313C24.8735 47.7632 25.4272 47.9464 25.9491 48.1974C27.0725 48.7392 28.0126 49.6276 28.6779 50.6674Z" fill="url(#paint2_linear_3437_17917)"/>
<path d="M76.2187 45.2134C77.9794 48.9145 78.8598 52.9701 78.8598 57.2089C78.8598 74.2759 65.8532 88.1079 34.7887 88.7135C27.2954 88.8609 20.8539 87.7295 15.4839 85.63C21.7342 91.0401 30.8887 94.3228 42.8117 94.0798C72.5417 93.4742 80.8477 80.0724 80.8477 63.0055C80.8516 56.4839 79.4534 50.3327 76.2187 45.2134Z" fill="#EE7460"/>
<path d="M8.35345 63.2485C8.75182 63.2365 9.15019 63.2963 9.54059 63.3839C9.93098 63.4756 10.3134 63.6031 10.6799 63.7704C11.0464 63.9377 11.401 64.1409 11.7316 64.3719C11.8113 64.4317 11.8989 64.4875 11.9746 64.5552L12.2096 64.7504L12.4327 64.9576C12.5084 65.0253 12.5761 65.101 12.6478 65.1727C12.9227 65.4715 13.1816 65.7862 13.3928 66.1328C13.4207 66.1766 13.4485 66.2165 13.4724 66.2603L13.5481 66.3918C13.5959 66.4794 13.6517 66.5671 13.6955 66.6547C13.7832 66.838 13.8788 67.0133 13.9465 67.2045C14.2532 67.9495 14.4405 68.7343 14.5042 69.5231C14.2851 68.7622 14.0222 68.0212 13.6716 67.328C13.6278 67.2403 13.588 67.1527 13.5362 67.069L13.3968 66.8141C13.349 66.7304 13.2932 66.6507 13.2454 66.5671L13.1697 66.4436C13.1458 66.4037 13.1139 66.3639 13.086 66.3241L12.9187 66.089L12.7395 65.8619C12.6837 65.7862 12.616 65.7145 12.5562 65.6428L12.4606 65.5352C12.4287 65.4994 12.3929 65.4675 12.361 65.4317C12.1021 65.1488 11.8153 64.8938 11.5085 64.6628C11.2018 64.4277 10.8791 64.2206 10.5405 64.0373C10.4967 64.0134 10.4568 63.9895 10.413 63.9696L10.2815 63.9058C10.1939 63.862 10.1063 63.8222 10.0186 63.7823C9.93098 63.7385 9.83936 63.7066 9.75172 63.6668C9.6601 63.6309 9.56847 63.5951 9.47685 63.5632C9.1223 63.4278 8.74385 63.3202 8.35345 63.2485ZM32.2713 39.8193C32.4028 39.891 32.5183 39.9866 32.6298 40.0902C32.7374 40.1937 32.837 40.3093 32.9286 40.4328C33.1119 40.6758 33.2553 40.9427 33.3788 41.2216C33.6178 41.7793 33.7572 42.3729 33.8249 42.9705C33.8927 43.5681 33.8927 44.1697 33.8369 44.7593C33.7811 45.3529 33.6775 45.9385 33.5102 46.5082C33.5182 45.9146 33.5381 45.329 33.5341 44.7473C33.5341 44.1657 33.5062 43.584 33.4425 43.0143C33.3788 42.4407 33.2752 41.8749 33.0959 41.3291C33.0083 41.0582 32.9007 40.7913 32.7693 40.5364C32.6338 40.2774 32.4785 40.0264 32.2713 39.8193ZM9.85928 35.7637C9.97879 35.7517 10.0943 35.7597 10.2138 35.7716C10.2736 35.7756 10.3333 35.7876 10.3891 35.7955C10.4489 35.8035 10.5046 35.8155 10.5644 35.8274C10.7994 35.8712 11.0265 35.9469 11.2496 36.0266C11.6957 36.1939 12.118 36.429 12.5084 36.6959L12.7992 36.907C12.8948 36.9787 12.9825 37.0584 13.0741 37.1341C13.1657 37.2098 13.2573 37.2855 13.337 37.3732C13.4207 37.4568 13.5043 37.5405 13.588 37.6241L13.6517 37.6879C13.6716 37.7078 13.6915 37.7317 13.7115 37.7556L13.827 37.8911C13.9027 37.9827 13.9784 38.0703 14.0541 38.162C14.1258 38.2576 14.1935 38.3532 14.2612 38.4488C14.3289 38.5444 14.3967 38.644 14.4564 38.7436C14.2732 38.5922 14.1019 38.4329 13.9306 38.2735C13.8429 38.1978 13.7553 38.1221 13.6676 38.0464C13.58 37.9707 13.4964 37.8911 13.4047 37.8193C13.2255 37.6759 13.0542 37.5206 12.8669 37.3851C12.7753 37.3174 12.6877 37.2417 12.5921 37.174L12.3132 36.9748C11.9348 36.7158 11.5483 36.4768 11.138 36.2696C10.9349 36.166 10.7237 36.0704 10.5126 35.9868C10.3054 35.8991 10.0863 35.8194 9.85928 35.7637ZM62.6028 36.4369C63.1884 36.6322 63.7541 36.8792 64.3158 37.1341C64.8735 37.3971 65.4233 37.6799 65.9611 37.9867C66.0965 38.0624 66.2319 38.1381 66.3634 38.2177C66.4949 38.2974 66.6303 38.3771 66.7618 38.4568L67.1562 38.7038L67.5466 38.9548C68.0604 39.2974 68.5624 39.6559 69.0564 40.0344C69.5463 40.4129 70.0204 40.8073 70.4825 41.2176C70.7096 41.4288 70.9406 41.6319 71.1597 41.851C71.2713 41.9586 71.3828 42.0662 71.4904 42.1777L71.813 42.5124C71.9206 42.6239 72.0242 42.7394 72.1278 42.851C72.2313 42.9665 72.3389 43.0781 72.4385 43.1936C72.6377 43.4287 72.8408 43.6597 73.032 43.9027C73.4185 44.3848 73.777 44.8868 74.1156 45.4007C73.7093 44.9386 73.3149 44.4685 72.8886 44.0262C72.4743 43.5761 72.0401 43.1458 71.5979 42.7195C71.1557 42.2972 70.7016 41.8909 70.2395 41.4885C70.0045 41.2933 69.7734 41.0941 69.5344 40.9029C69.2994 40.7077 69.0564 40.5204 68.8173 40.3332C67.8493 39.5882 66.8454 38.887 65.8097 38.2377C65.5507 38.0743 65.2878 37.915 65.0249 37.7596C64.8934 37.6799 64.762 37.6042 64.6305 37.5245L64.2321 37.2975C63.6944 36.9987 63.1526 36.7078 62.6028 36.4369Z" fill="white"/>
<path d="M96.3681 100.812C104.605 100.812 111.283 100.351 111.283 99.7807C111.283 99.2108 104.605 98.7488 96.3681 98.7488C88.1309 98.7488 81.4533 99.2108 81.4533 99.7807C81.4533 100.351 88.1309 100.812 96.3681 100.812Z" fill="#EEF0FF"/>
<path d="M86.2733 93.773L85.3929 87.9088L82.8553 88.8011L84.4329 94.8527L86.2733 93.773Z" fill="#3C5B7F"/>
<path d="M115.884 78.467L110.048 75.2798L109.215 77.8335L115.286 80.2239L115.884 78.467Z" fill="#355070"/>
<path d="M108.335 79.192C104.32 76.8136 92.1614 69.3159 88.9665 63.9377C88.9665 63.9377 83.3735 56.6153 80.4774 49.7909L89.3848 43.1777C89.3848 43.1777 93.8704 59.8502 98.4556 63.4158C103.041 66.9814 105.168 70.7063 110.295 74.2201C110.713 74.507 110.992 74.9531 111.064 75.4551C111.171 76.1921 111.191 77.3156 110.661 78.4669C110.259 79.3513 109.172 79.69 108.335 79.192Z" fill="#355070"/>
<path d="M110.649 77.6184C110.614 77.6343 110.574 77.6303 110.546 77.6025C108.554 75.6902 106.331 74.021 103.941 72.6465C103.614 72.4593 103.28 72.272 102.953 72.0927C102.144 71.6426 101.304 71.1804 100.531 70.6426C97.6747 68.6547 95.635 65.603 93.8344 62.9139L91.2371 59.0256C89.8189 56.9022 88.3489 54.7111 87.3769 52.2928C87.357 52.245 87.3769 52.1932 87.4287 52.1693C87.4765 52.1494 87.5323 52.1733 87.5522 52.2211C88.5202 54.6194 89.9822 56.8066 91.3964 58.922L93.9938 62.8103C95.7824 65.4875 97.8141 68.5232 100.642 70.4912C101.407 71.0251 102.244 71.4872 103.049 71.9334C103.375 72.1127 103.71 72.2999 104.037 72.4872C106.443 73.8696 108.678 75.5468 110.677 77.471C110.713 77.5068 110.717 77.5666 110.681 77.6025C110.669 77.6104 110.661 77.6144 110.649 77.6184Z" fill="#7290B3"/>
<path d="M76.4739 45.5121C75.705 50.4721 76.4659 65.5909 76.4659 65.5909C76.677 72.3874 80.9674 86.0203 82.039 89.3349C82.2262 89.9086 82.776 90.291 83.3775 90.2591C84.5527 90.1954 85.9669 89.5221 86.7517 89.0998C87.1142 88.9046 87.3253 88.5102 87.2855 88.0999C86.8951 84.104 84.9272 63.1528 86.0824 60.3123C86.0824 60.3123 91.2452 48.8506 89.5562 43.8867L76.4739 45.5121Z" fill="#3C5B7F"/>
<path d="M81.282 50.1255C81.2621 50.1295 81.2382 50.1216 81.2183 50.1096C80.8797 49.8706 80.5331 49.6236 80.1427 49.4722C80.0272 49.4284 79.9037 49.3925 79.7882 49.3566C79.5213 49.277 79.2424 49.1933 79.0113 49.018C78.6927 48.779 78.5134 48.4165 78.358 48.0619C77.9995 47.2452 77.6928 46.3966 77.4458 45.5401C77.4298 45.4923 77.4617 45.4405 77.5095 45.4246C77.5613 45.4086 77.6091 45.4405 77.625 45.4883C77.868 46.3369 78.1748 47.1775 78.5293 47.9862C78.6767 48.3169 78.8401 48.6595 79.1229 48.8706C79.33 49.026 79.577 49.0977 79.84 49.1774C79.9634 49.2132 80.0869 49.2531 80.2104 49.2969C80.6207 49.4523 80.9793 49.7072 81.3259 49.9542C81.3697 49.9861 81.3776 50.0419 81.3498 50.0857C81.3338 50.1096 81.3099 50.1255 81.282 50.1255ZM81.3179 51.0219C81.3059 51.0219 81.29 51.0219 81.2781 51.0139L80.8757 50.7709C80.8478 50.755 80.8359 50.7152 80.8558 50.6873C80.8717 50.6594 80.9116 50.6474 80.9394 50.6674L81.3418 50.9104C81.3697 50.9263 81.3816 50.9661 81.3617 50.994C81.3537 51.01 81.3378 51.0219 81.3179 51.0219ZM80.4853 50.5239C80.4734 50.5239 80.4574 50.5239 80.4455 50.516L80.0192 50.261C79.9913 50.2451 79.9794 50.2052 79.9993 50.1773C80.0152 50.1494 80.0551 50.1375 80.083 50.1574L80.5092 50.4124C80.5371 50.4283 80.549 50.4682 80.5291 50.496C80.5212 50.512 80.5052 50.5199 80.4853 50.5239ZM79.6328 50.01C79.6209 50.01 79.6049 50.01 79.593 50.002L79.1667 49.7471C79.1388 49.7311 79.1269 49.6913 79.1468 49.6634C79.1627 49.6355 79.2026 49.6236 79.2305 49.6435L79.6567 49.8985C79.6846 49.9144 79.6965 49.9542 79.6766 49.9821C79.6687 49.9981 79.6487 50.006 79.6328 50.01ZM78.7803 49.4881C78.7644 49.4881 78.7524 49.4881 78.7405 49.4762C78.6568 49.4204 78.5891 49.3646 78.5214 49.3088C78.4616 49.261 78.4058 49.2053 78.3501 49.1455C78.3262 49.1216 78.3262 49.0818 78.3501 49.0579C78.374 49.034 78.4138 49.034 78.4377 49.0579C78.4935 49.1136 78.5453 49.1654 78.601 49.2132C78.6608 49.265 78.7285 49.3168 78.8082 49.3726C78.8361 49.3925 78.844 49.4323 78.8241 49.4602C78.8162 49.4762 78.8002 49.4881 78.7803 49.4881ZM78.0752 48.787C78.0553 48.7909 78.0314 48.779 78.0194 48.7631C77.9915 48.7272 77.9637 48.6874 77.9318 48.6515C77.8601 48.5559 77.7844 48.4603 77.7127 48.3647C77.6928 48.3368 77.6968 48.2969 77.7246 48.277C77.7525 48.2571 77.7924 48.2611 77.8123 48.289C77.884 48.3846 77.9557 48.4802 78.0274 48.5718C78.0553 48.6077 78.0832 48.6435 78.1111 48.6834C78.131 48.7113 78.127 48.7511 78.0991 48.771C78.0991 48.783 78.0871 48.787 78.0752 48.787ZM77.4976 47.9782C77.4737 47.9822 77.4498 47.9703 77.4378 47.9464C77.398 47.8826 77.3661 47.8149 77.3342 47.7511C77.2944 47.6675 77.2546 47.5759 77.2187 47.4842C77.2068 47.4524 77.2227 47.4165 77.2546 47.4045C77.2864 47.3926 77.3223 47.4085 77.3342 47.4404C77.3661 47.5281 77.4059 47.6117 77.4458 47.6954C77.4737 47.7551 77.5095 47.8189 77.5454 47.8826C77.5613 47.9105 77.5533 47.9503 77.5215 47.9663C77.5135 47.9742 77.5055 47.9782 77.4976 47.9782ZM77.143 47.05C77.1112 47.054 77.0833 47.034 77.0753 47.0022C77.0394 46.8468 77.0155 46.6835 76.9916 46.5042C76.9877 46.4683 77.0116 46.4404 77.0474 46.4365C77.0833 46.4325 77.1112 46.4564 77.1151 46.4922C77.1351 46.6675 77.1629 46.8269 77.1948 46.9783C77.2028 47.0101 77.1829 47.046 77.147 47.054C77.147 47.05 77.143 47.05 77.143 47.05ZM77.0195 46.062C76.9837 46.066 76.9518 46.0381 76.9518 46.0022C76.9438 45.8349 76.9359 45.6716 76.9319 45.5042C76.9319 45.4684 76.9598 45.4405 76.9916 45.4405C77.0275 45.4405 77.0554 45.4644 77.0554 45.5003C77.0594 45.6676 77.0673 45.8309 77.0753 45.9982C77.0793 46.0301 77.0514 46.058 77.0195 46.062ZM84.8474 89.7732C84.8195 89.7771 84.7916 89.7652 84.7677 89.7453C84.712 89.6815 84.6562 89.6178 84.6004 89.5501C84.5685 89.5102 84.5725 89.4505 84.6164 89.4186C84.6562 89.3867 84.7159 89.3907 84.7478 89.4345C84.7996 89.4983 84.8514 89.558 84.9072 89.6178C84.943 89.6576 84.939 89.7134 84.9032 89.7493C84.8872 89.7652 84.8673 89.7732 84.8474 89.7732Z" fill="#7FA0C7"/>
<path d="M84.3973 89.1756C84.3615 89.1796 84.3256 89.1637 84.3097 89.1318C84.222 88.9924 84.1424 88.841 84.0667 88.6816C84.0428 88.6338 84.0627 88.578 84.1105 88.5581C84.1583 88.5342 84.2141 88.5541 84.234 88.6019C84.3057 88.7533 84.3854 88.9007 84.465 89.0322C84.4929 89.076 84.477 89.1318 84.4332 89.1597C84.4252 89.1716 84.4093 89.1756 84.3973 89.1756ZM83.9671 88.2753C83.9273 88.2792 83.8834 88.2553 83.8715 88.2155C83.8157 88.0641 83.7639 87.9047 83.7121 87.7334C83.6962 87.6856 83.7241 87.6338 83.7759 87.6179C83.8237 87.602 83.8794 87.6299 83.8914 87.6816C83.9392 87.845 83.991 88.0043 84.0468 88.1517C84.0667 88.1996 84.0388 88.2553 83.991 88.2713C83.983 88.2713 83.9751 88.2713 83.9671 88.2753ZM83.6803 87.3151C83.6325 87.3191 83.5926 87.2912 83.5807 87.2434C83.5448 87.092 83.509 86.9287 83.4731 86.7494C83.4612 86.6976 83.497 86.6498 83.5448 86.6379C83.5926 86.6259 83.6444 86.6618 83.6564 86.7096C83.6922 86.8849 83.7281 87.0442 83.7639 87.1956C83.7759 87.2474 83.744 87.2952 83.6962 87.3072C83.6882 87.3151 83.6843 87.3151 83.6803 87.3151ZM83.4811 86.3351C83.4333 86.3391 83.3895 86.3072 83.3815 86.2594C83.3656 86.1718 83.3496 86.0881 83.3337 86.0005L83.2899 85.7654C83.2819 85.7136 83.3138 85.6658 83.3656 85.6578C83.4173 85.6499 83.4651 85.6817 83.4731 85.7335L83.5169 85.9686C83.5329 86.0522 83.5488 86.1399 83.5647 86.2235C83.5727 86.2753 83.5408 86.3231 83.4891 86.3311C83.4851 86.3351 83.4811 86.3351 83.4811 86.3351ZM83.3018 85.3471C83.254 85.3511 83.2102 85.3192 83.1982 85.2714L83.1106 84.7774C83.1026 84.7256 83.1345 84.6778 83.1863 84.6698C83.2381 84.6619 83.2859 84.6937 83.2938 84.7455L83.3815 85.2395C83.3895 85.2913 83.3576 85.3391 83.3058 85.3471C83.3058 85.3471 83.3058 85.3471 83.3018 85.3471ZM83.1265 84.3631C83.0787 84.3671 83.0349 84.3352 83.023 84.2874L82.9353 83.7934C82.9274 83.7416 82.9592 83.6938 83.011 83.6858C83.0628 83.6778 83.1106 83.7097 83.1186 83.7615L83.2062 84.2555C83.2142 84.3073 83.1823 84.3551 83.1305 84.3631C83.1305 84.3631 83.1305 84.3631 83.1265 84.3631ZM82.9513 83.3751C82.9035 83.3791 82.8596 83.3472 82.8477 83.2994L82.76 82.8054C82.7521 82.7536 82.7839 82.7058 82.8357 82.6978C82.8875 82.6898 82.9353 82.7217 82.9433 82.7735L83.0309 83.2675C83.0389 83.3193 83.007 83.3671 82.9552 83.3751C82.9592 83.3751 82.9552 83.3751 82.9513 83.3751ZM82.78 82.391C82.7322 82.395 82.6883 82.3632 82.6764 82.3154L82.5887 81.8214C82.5808 81.7696 82.6127 81.7218 82.6644 81.7138C82.7162 81.7018 82.764 81.7377 82.772 81.7895L82.8596 82.2835C82.8676 82.3353 82.8357 82.3831 82.7839 82.391H82.78ZM82.6047 81.403C82.5569 81.407 82.5131 81.3752 82.5011 81.3274L82.4174 80.8334C82.4095 80.7816 82.4414 80.7338 82.4931 80.7258C82.5449 80.7178 82.5927 80.7497 82.6007 80.8015L82.6844 81.2955C82.6923 81.3473 82.6605 81.3951 82.6087 81.403C82.6126 81.403 82.6087 81.403 82.6047 81.403ZM82.4374 80.415C82.3896 80.419 82.3457 80.3871 82.3338 80.3393L82.2501 79.8453C82.2422 79.7936 82.274 79.7458 82.3258 79.7378C82.3776 79.7298 82.4254 79.7617 82.4334 79.8135L82.517 80.3075C82.525 80.3593 82.4931 80.4071 82.4414 80.415H82.4374ZM82.2661 79.431C82.2183 79.435 82.1744 79.4031 82.1625 79.3553C82.1346 79.192 82.1067 79.0247 82.0788 78.8613C82.0709 78.8095 82.1027 78.7617 82.1545 78.7538C82.2023 78.7458 82.2541 78.7777 82.2621 78.8295C82.29 78.9928 82.3179 79.1601 82.3457 79.3235C82.3537 79.3752 82.3218 79.4231 82.2701 79.431C82.2701 79.431 82.2701 79.431 82.2661 79.431ZM82.1027 78.443C82.0549 78.447 82.0071 78.4151 81.9992 78.3673L81.9155 77.8733C81.9075 77.8215 81.9434 77.7737 81.9912 77.7658C82.043 77.7578 82.0908 77.7936 82.0988 77.8414L82.1824 78.3355C82.1904 78.3872 82.1545 78.4351 82.1067 78.443H82.1027ZM81.9394 77.455C81.8916 77.459 81.8438 77.4271 81.8358 77.3753C81.808 77.212 81.7801 77.0447 81.7562 76.8813C81.7482 76.8295 81.784 76.7817 81.8319 76.7738C81.8836 76.7658 81.9314 76.8017 81.9394 76.8495C81.9673 77.0128 81.9912 77.1801 82.0191 77.3435C82.027 77.3953 81.9912 77.4431 81.9434 77.451C81.9394 77.455 81.9394 77.455 81.9394 77.455ZM81.7761 76.467C81.7283 76.471 81.6805 76.4391 81.6725 76.3873C81.6446 76.224 81.6207 76.0567 81.5928 75.8933C81.5849 75.8415 81.6207 75.7937 81.6725 75.7858C81.7243 75.7778 81.7721 75.8137 81.7801 75.8654C81.8079 76.0288 81.8318 76.1961 81.8597 76.3594C81.8677 76.4112 81.8319 76.459 81.784 76.467C81.7801 76.467 81.7801 76.467 81.7761 76.467ZM81.6207 75.479C81.5729 75.483 81.5251 75.4511 81.5171 75.3993C81.4932 75.236 81.4654 75.0687 81.4415 74.9053C81.4335 74.8535 81.4693 74.8057 81.5211 74.7978C81.5729 74.7898 81.6207 74.8257 81.6287 74.8774C81.6526 75.0408 81.6805 75.2081 81.7044 75.3714C81.7123 75.4232 81.6765 75.471 81.6247 75.479C81.6247 75.475 81.6207 75.475 81.6207 75.479ZM81.4693 74.487C81.4215 74.491 81.3737 74.4591 81.3658 74.4073C81.3419 74.244 81.314 74.0767 81.2901 73.9133C81.2821 73.8616 81.318 73.8137 81.3698 73.8058C81.4215 73.7978 81.4693 73.8337 81.4773 73.8855C81.5012 74.0488 81.5251 74.2161 81.553 74.3795C81.561 74.4312 81.5251 74.4791 81.4733 74.487C81.4693 74.487 81.4693 74.487 81.4693 74.487ZM81.318 73.499C81.2702 73.503 81.2224 73.4711 81.2144 73.4193C81.1905 73.256 81.1666 73.0887 81.1427 72.9253C81.1347 72.8736 81.1706 72.8257 81.2223 72.8178C81.2741 72.8098 81.3219 72.8457 81.3299 72.8975C81.3538 73.0608 81.3777 73.2281 81.4016 73.3915C81.4096 73.4432 81.3737 73.491 81.3219 73.499C81.3219 73.495 81.3219 73.495 81.318 73.499ZM81.1745 72.507C81.1267 72.511 81.0789 72.4791 81.071 72.4274C81.0471 72.264 81.0232 72.0967 80.9993 71.9333C80.9913 71.8816 81.0272 71.8338 81.0789 71.8258C81.1267 71.8178 81.1785 71.8537 81.1865 71.9055C81.2104 72.0688 81.2343 72.2361 81.2582 72.3995C81.2662 72.4513 81.2303 72.4991 81.1745 72.507C81.1785 72.507 81.1745 72.507 81.1745 72.507ZM81.0351 71.515C80.9833 71.519 80.9395 71.4832 80.9316 71.4354C80.9076 71.268 80.8877 71.1047 80.8638 70.9374C80.8559 70.8856 80.8917 70.8378 80.9435 70.8338C80.9953 70.8258 81.0431 70.8617 81.0471 70.9135C81.071 71.0768 81.0909 71.2441 81.1148 71.4075C81.1267 71.4593 81.0909 71.5071 81.0351 71.515C81.0391 71.515 81.0391 71.515 81.0351 71.515ZM80.9037 70.5231C80.8519 70.527 80.8081 70.4912 80.8001 70.4434C80.7802 70.2761 80.7563 70.1127 80.7363 69.9454C80.7284 69.8936 80.7642 69.8458 80.816 69.8418C80.8638 69.8378 80.9156 69.8697 80.9196 69.9215C80.9395 70.0888 80.9634 70.2521 80.9833 70.4195C80.9913 70.4673 80.9554 70.5151 80.9037 70.5231ZM80.7762 69.5271C80.7244 69.5311 80.6806 69.4952 80.6726 69.4474C80.6527 69.2801 80.6328 69.1167 80.6129 68.9494C80.6049 68.8976 80.6447 68.8498 80.6925 68.8458C80.7403 68.8379 80.7921 68.8777 80.7961 68.9255C80.816 69.0928 80.8359 69.2562 80.8559 69.4235C80.8638 69.4753 80.828 69.5231 80.7762 69.5271ZM80.6527 68.5351C80.6009 68.5391 80.5571 68.5032 80.5491 68.4514C80.5292 68.2841 80.5093 68.1208 80.4894 67.9534C80.4854 67.9017 80.5212 67.8538 80.573 67.8499C80.6248 67.8459 80.6686 67.8817 80.6766 67.9335C80.6965 68.1009 80.7164 68.2642 80.7363 68.4315C80.7403 68.4833 80.7045 68.5271 80.6527 68.5351ZM80.5372 67.5391C80.4854 67.5431 80.4416 67.5073 80.4336 67.4555C80.4137 67.2881 80.3977 67.1248 80.3778 66.9575C80.3738 66.9057 80.4097 66.8619 80.4615 66.8539C80.5133 66.8499 80.5571 66.8858 80.565 66.9376C80.585 67.1049 80.6009 67.2682 80.6208 67.4355C80.6248 67.4873 80.589 67.5351 80.5372 67.5391ZM80.4296 66.5432C80.3778 66.5471 80.334 66.5113 80.326 66.4595L80.3101 66.3201C80.2981 66.2005 80.2862 66.081 80.2742 65.9575C80.2703 65.9057 80.3061 65.8619 80.3579 65.8539C80.4097 65.85 80.4535 65.8858 80.4615 65.9376C80.4734 66.0571 80.4854 66.1766 80.4973 66.2962L80.5133 66.4316C80.5173 66.4914 80.4814 66.5392 80.4296 66.5432ZM80.326 65.5472C80.2742 65.5512 80.2264 65.5153 80.2225 65.4635C80.2065 65.2962 80.1906 65.1329 80.1747 64.9655C80.1707 64.9137 80.2065 64.8699 80.2583 64.862C80.3101 64.858 80.3539 64.8938 80.3619 64.9456C80.3778 65.1129 80.3938 65.2763 80.4097 65.4436C80.4177 65.4994 80.3778 65.5432 80.326 65.5472ZM80.2344 64.5512C80.1826 64.5552 80.1348 64.5193 80.1308 64.4676L80.087 63.9696C80.083 63.9178 80.1229 63.874 80.1707 63.87C80.2225 63.866 80.2663 63.9018 80.2703 63.9536L80.3141 64.4516C80.3221 64.4994 80.2862 64.5472 80.2344 64.5512ZM80.1508 63.5552C80.1468 63.5552 80.1468 63.5552 80.1508 63.5552C80.095 63.5592 80.0512 63.5194 80.0472 63.4676C80.0352 63.3003 80.0233 63.133 80.0113 62.9656C80.0073 62.9138 80.0512 62.87 80.099 62.866C80.1507 62.862 80.1946 62.9019 80.1986 62.9537C80.2105 63.121 80.2225 63.2843 80.2344 63.4517C80.2384 63.5035 80.1986 63.5473 80.1508 63.5552ZM80.087 62.5553H80.083C80.0312 62.5593 79.9874 62.5194 79.9834 62.4676C79.9755 62.2963 79.9675 62.129 79.9635 61.9657C79.9635 61.9139 80.0034 61.8701 80.0551 61.8701C80.1069 61.8701 80.1508 61.9099 80.1508 61.9617C80.1547 62.121 80.1627 62.2884 80.1707 62.4597C80.1707 62.5075 80.1348 62.5513 80.087 62.5553ZM80.0591 61.5553C80.0551 61.5553 80.0512 61.5553 80.0512 61.5553C79.9994 61.5553 79.9595 61.5115 79.9595 61.4637C79.9595 61.2924 79.9635 61.1251 79.9675 60.9617C79.9675 60.9099 80.0113 60.8701 80.0631 60.8701C80.1149 60.8701 80.1547 60.9139 80.1547 60.9657C80.1508 61.1251 80.1468 61.2924 80.1468 61.4637C80.1428 61.5075 80.1069 61.5474 80.0591 61.5553ZM80.091 60.5514C80.087 60.5514 80.079 60.5514 80.0751 60.5514C80.0233 60.5474 79.9834 60.5036 79.9874 60.4518C79.9994 60.2924 80.0113 60.1211 80.0312 59.9498C80.0352 59.898 80.083 59.8622 80.1348 59.8662C80.1866 59.8701 80.2225 59.918 80.2185 59.9697C80.2025 60.1411 80.1866 60.3044 80.1786 60.4637C80.1707 60.5116 80.1348 60.5474 80.091 60.5514ZM80.1906 59.5554C80.1826 59.5554 80.1747 59.5554 80.1707 59.5554C80.1189 59.5475 80.083 59.5036 80.091 59.4518C80.1109 59.2925 80.1348 59.1291 80.1587 58.9539C80.1667 58.9021 80.2145 58.8662 80.2663 58.8742C80.3181 58.8821 80.3539 58.93 80.3459 58.9817C80.3181 59.157 80.2981 59.3164 80.2782 59.4757C80.2663 59.5196 80.2304 59.5514 80.1906 59.5554ZM80.338 58.5674C80.33 58.5674 80.3221 58.5674 80.3141 58.5674C80.2623 58.5594 80.2304 58.5116 80.2384 58.4599C80.2663 58.2965 80.2942 58.1292 80.3221 57.9659C80.33 57.9141 80.3778 57.8822 80.4296 57.8902C80.4814 57.8981 80.5133 57.9459 80.5053 57.9977C80.4774 58.1611 80.4495 58.3244 80.4216 58.4917C80.4137 58.5316 80.3778 58.5634 80.338 58.5674ZM80.5133 57.5794C80.5053 57.5794 80.4973 57.5794 80.4854 57.5794C80.4336 57.5714 80.4017 57.5197 80.4097 57.4718L80.4256 57.3802C80.4495 57.2488 80.4734 57.1133 80.4973 56.9818C80.5053 56.93 80.5531 56.8982 80.6049 56.9061C80.6567 56.9141 80.6885 56.9659 80.6806 57.0137C80.6567 57.1452 80.6328 57.2806 80.6089 57.4121L80.5929 57.5037C80.585 57.5475 80.5531 57.5754 80.5133 57.5794ZM80.6885 56.5954C80.6806 56.5954 80.6726 56.5954 80.6646 56.5954C80.6129 56.5874 80.581 56.5396 80.589 56.4878L80.6009 56.4121C80.6248 56.2727 80.6487 56.1333 80.6686 55.9938C80.6766 55.942 80.7244 55.9062 80.7762 55.9181C80.828 55.9261 80.8638 55.9739 80.8519 56.0257C80.828 56.1651 80.808 56.3046 80.7841 56.448L80.7722 56.5237C80.7642 56.5595 80.7284 56.5914 80.6885 56.5954ZM80.8479 55.6074C80.8399 55.6074 80.832 55.6074 80.824 55.6074C80.7722 55.5994 80.7363 55.5516 80.7443 55.4998C80.7682 55.3365 80.7921 55.1692 80.816 55.0058C80.824 54.954 80.8718 54.9182 80.9196 54.9261C80.9714 54.9341 81.0072 54.9819 80.9993 55.0297C80.9754 55.1971 80.9515 55.3604 80.9276 55.5277C80.9236 55.5715 80.8877 55.6034 80.8479 55.6074ZM80.9833 54.6154C80.9754 54.6154 80.9674 54.6154 80.9634 54.6154C80.9116 54.6074 80.8758 54.5636 80.8837 54.5118C80.9037 54.3485 80.9236 54.1812 80.9435 54.0138C80.9515 53.962 80.9953 53.9262 81.0471 53.9302C81.0989 53.9381 81.1347 53.982 81.1307 54.0338C81.1108 54.2011 81.0909 54.3644 81.071 54.5317C81.063 54.5756 81.0272 54.6114 80.9833 54.6154ZM81.1028 53.6194C81.0949 53.6194 81.0909 53.6194 81.0829 53.6194C81.0311 53.6154 80.9953 53.5676 80.9993 53.5159C81.0192 53.3485 81.0351 53.1852 81.0511 53.0179C81.055 52.9661 81.1028 52.9302 81.1546 52.9342C81.2064 52.9382 81.2423 52.986 81.2383 53.0378C81.2224 53.2051 81.2024 53.3685 81.1865 53.5358C81.1785 53.5796 81.1467 53.6154 81.1028 53.6194ZM81.2024 52.6235C81.1945 52.6235 81.1905 52.6235 81.1825 52.6235C81.1307 52.6195 81.0949 52.5717 81.0989 52.5199C81.1148 52.3526 81.1307 52.1892 81.1427 52.0219C81.1467 51.9701 81.1945 51.9303 81.2423 51.9382C81.2941 51.9422 81.3299 51.986 81.3259 52.0378C81.31 52.2052 81.298 52.3725 81.2821 52.5358C81.2821 52.5836 81.2463 52.6195 81.2024 52.6235ZM81.2901 51.6275C81.2861 51.6275 81.2781 51.6275 81.2741 51.6275C81.2224 51.6235 81.1825 51.5797 81.1865 51.5279C81.1985 51.3606 81.2144 51.1972 81.2263 51.0299C81.2303 50.9781 81.2741 50.9383 81.3259 50.9423C81.3777 50.9462 81.4176 50.9901 81.4136 51.0419C81.4016 51.2092 81.3897 51.3765 81.3737 51.5398C81.3697 51.5877 81.3339 51.6195 81.2901 51.6275ZM81.3618 50.6275C81.3578 50.6275 81.3498 50.6275 81.3458 50.6275C81.2941 50.6236 81.2542 50.5797 81.2582 50.5279C81.2702 50.3606 81.2821 50.1933 81.2901 50.03C81.2941 49.9782 81.3379 49.9383 81.3897 49.9423C81.4415 49.9463 81.4813 49.9901 81.4773 50.0419C81.4654 50.2092 81.4574 50.3765 81.4454 50.5439C81.4415 50.5877 81.4056 50.6236 81.3618 50.6275ZM81.4255 49.6276C81.4215 49.6276 81.4136 49.6276 81.4096 49.6276C81.3578 49.6236 81.318 49.5798 81.3219 49.528C81.3299 49.3607 81.3419 49.1933 81.3498 49.03C81.3538 48.9782 81.3976 48.9384 81.4494 48.9424C81.5012 48.9463 81.541 48.9902 81.5371 49.0419C81.5291 49.2093 81.5171 49.3766 81.5092 49.5439C81.5052 49.5877 81.4693 49.6236 81.4255 49.6276ZM81.4773 48.6276C81.4733 48.6276 81.4693 48.6276 81.4614 48.6276C81.4096 48.6236 81.3697 48.5798 81.3737 48.528C81.3817 48.3607 81.3897 48.1934 81.3976 48.03C81.4016 47.9782 81.4454 47.9384 81.4972 47.9424C81.549 47.9464 81.5888 47.9902 81.5849 48.042C81.5769 48.2093 81.5689 48.3766 81.561 48.544C81.561 48.5878 81.5251 48.6236 81.4773 48.6276ZM81.5251 47.6277C81.5211 47.6277 81.5171 47.6277 81.5092 47.6277C81.4574 47.6237 81.4175 47.5799 81.4215 47.5321C81.4295 47.3647 81.4375 47.1974 81.4415 47.0301C81.4454 46.9783 81.4893 46.9385 81.5371 46.9424C81.5889 46.9464 81.6287 46.9863 81.6247 47.0381C81.6167 47.2054 81.6088 47.3727 81.6048 47.54C81.6088 47.5838 81.5729 47.6237 81.5251 47.6277ZM81.5689 46.6277C81.565 46.6277 81.561 46.6277 81.557 46.6277C81.5052 46.6237 81.4654 46.5839 81.4654 46.5321L81.4853 46.0301C81.4893 45.9783 81.5291 45.9385 81.5809 45.9385C81.6327 45.9425 81.6725 45.9823 81.6725 46.0341L81.6526 46.5361C81.6486 46.5839 81.6128 46.6237 81.5689 46.6277ZM81.6088 45.6238C81.6048 45.6238 81.6008 45.6238 81.5968 45.6238C81.545 45.6238 81.5052 45.58 81.5052 45.5282L81.5132 45.2772C81.5171 45.2254 81.557 45.1855 81.6088 45.1855C81.6606 45.1855 81.7004 45.2294 81.7004 45.2812L81.6924 45.5321C81.6884 45.5839 81.6526 45.6198 81.6088 45.6238Z" fill="#7FA0C7"/>
<path d="M78.2703 46.7591C77.3103 46.544 76.9278 46.0739 76.6769 45.9424C75.9598 45.5639 76.5414 44.6397 76.6729 43.8429C76.884 42.5521 77.2306 41.2773 77.2864 39.9746C77.3302 39.0065 77.2107 38.0304 77.386 37.0783C77.5612 36.1261 78.107 35.158 79.0272 34.8513C79.9156 34.5565 80.8677 34.9429 81.7241 35.3214C82.1106 35.4927 82.5129 35.6799 82.7679 36.0146C82.9591 36.2695 83.0467 36.5843 83.1264 36.891C83.6204 38.7714 84.0108 40.6757 84.3016 42.5999C84.3972 43.2254 84.4848 43.8708 84.7756 44.4325C85.0027 44.8708 85.5644 45.9504 86.0265 46.1297C83.704 46.8707 80.6525 47.293 78.2703 46.7591Z" fill="#193759"/>
<path d="M105.682 50.9542C101.579 56.0974 97.7228 55.8544 93.1735 55.7269C90.9227 55.6631 83.9832 49.5758 81.2544 44.8788C80.4178 43.4406 76.47 39.2455 76.3425 37.5524C76.2589 36.4449 75.9043 35.6521 75.1793 33.7318C74.036 30.7121 76.3067 27.7959 77.7368 25.2382C77.9679 24.8637 79.8322 25.7282 82.2941 21.6089C82.4893 21.5531 83.5808 22.2065 84.019 22.5571C88.0226 25.7481 90.4247 34.1462 93.6674 41.6199C95.5637 46.0022 109.232 43.3051 105.682 50.9542Z" fill="#FDC25E"/>
<path d="M76.4337 27.4533C75.3024 29.4293 74.3463 31.5527 75.1749 33.7319C75.641 34.9589 75.9517 35.7238 76.1389 36.405C77.6448 35.3214 79.1785 33.9669 80.9512 32.5208C82.0985 31.5845 84.0146 30.5288 84.6719 29.242C84.9747 28.7679 85.0783 28.2261 84.8592 27.5887C83.5127 23.7124 78.8239 25.784 76.4337 27.4533Z" fill="#F2AC33"/>
<path d="M84.8512 27.8835C83.0785 23.4455 77.1429 27.278 75.4976 28.9433C70.8686 33.5885 69.0521 34.5446 62.6822 30.2898C62.5866 30.2261 62.487 30.1623 62.3755 30.0946C61.5389 29.5847 60.4474 30.0309 60.2084 30.979C60.1924 31.0467 60.1725 31.1145 60.1526 31.1822C60.1446 31.218 60.1287 31.2499 60.1167 31.2818C59.9096 31.736 59.7024 32.1941 59.4953 32.6483C59.4833 32.6722 59.4714 32.6961 59.4594 32.716C59.4594 32.72 59.4554 32.72 59.4554 32.724C59.2483 33.0745 59.3758 33.5247 59.7343 33.7159C60.6864 34.2179 61.6226 34.6761 62.244 35.0665C70.3826 40.2376 74.0834 36.7477 80.6206 32.5088C82.3893 31.3655 85.7515 30.1384 84.8512 27.8835Z" fill="#FDC25E"/>
<path d="M60.3838 28.7201C60.0492 28.3695 59.7424 27.991 59.4636 27.5966C59.1967 27.2182 58.9019 26.7998 58.6828 26.3576C58.5394 26.0668 58.3521 25.7959 58.129 25.5609L58.1251 25.5569C57.6749 25.0828 57.2208 24.6047 56.8065 24.1028C56.6989 23.9753 56.5993 23.8398 56.5037 23.7044C56.3523 23.6566 56.2169 23.5809 56.0814 23.4932C55.7189 23.2582 55.46 22.9315 55.213 22.5889C55.0815 22.4056 54.978 22.1945 54.8306 22.0232C54.5119 21.6367 54.1733 21.2622 53.8426 20.8838C53.7231 20.7483 53.5877 20.6368 53.4204 20.5651C53.2969 20.5133 53.1774 20.5571 53.1216 20.6806C53.0539 20.832 53.1335 20.9515 53.2052 21.0631C53.3009 21.2105 53.4204 21.3459 53.5319 21.4853C53.6514 21.6367 53.7669 21.7881 53.8665 21.9554C54.0777 22.302 54.2768 22.6566 54.5238 22.9833C54.6194 23.1108 54.6912 23.2542 54.739 23.4056C54.7629 23.4773 54.739 23.541 54.6792 23.5849C54.6234 23.6247 54.5716 23.6048 54.5278 23.5689C54.229 23.3219 53.9303 23.0749 53.6514 22.8C53.5279 22.6805 53.4004 22.565 53.261 22.4614C53.018 22.2861 52.7551 22.1387 52.524 21.9475C52.3408 21.7961 52.1496 21.6606 51.9345 21.5571C51.8827 21.5332 51.8389 21.5292 51.7911 21.5571C51.56 21.7005 51.4365 21.8598 51.7074 22.0989C51.7193 22.1068 51.7273 22.1228 51.7393 22.1267C51.8707 22.1985 51.9823 22.2981 52.0938 22.3977C52.2771 22.557 52.4683 22.7124 52.6515 22.8797C52.8109 23.0271 52.9543 23.1904 53.1096 23.3379C53.3487 23.5649 53.6156 23.7641 53.8267 24.0191C53.9143 24.1267 53.986 24.2422 54.0538 24.3617C53.9382 24.29 53.8506 24.1824 53.747 24.0988C53.5598 23.9474 53.3686 23.796 53.1774 23.6526C52.7232 23.3179 52.293 22.9554 51.8628 22.5929C51.8149 22.553 51.7592 22.5251 51.7034 22.5052C51.6038 22.4694 51.5281 22.4933 51.4684 22.569C51.3489 22.7124 51.3489 22.8239 51.4644 22.9674C51.5719 23.1028 51.7154 23.2024 51.8269 23.3339C52.0062 23.549 52.2452 23.7044 52.4523 23.8956C52.6635 24.0908 52.8627 24.302 53.0937 24.4772C53.3208 24.6446 53.5558 24.8039 53.7829 24.9752C53.8904 25.0549 53.994 25.1426 54.0856 25.2661C53.9781 25.2342 53.9064 25.1704 53.8227 25.1306C53.6116 25.031 53.4204 24.8956 53.2092 24.792C53.0459 24.7083 52.8866 24.6047 52.7471 24.4812C52.6276 24.3737 52.5001 24.278 52.3727 24.1785C52.2332 24.0669 52.1058 24.0828 52.0062 24.2183C51.9384 24.3059 51.9823 24.3896 52.0261 24.4693C52.1376 24.6844 52.3288 24.8318 52.5041 24.9872C52.6555 25.1226 52.8228 25.2382 52.9941 25.3537C53.2371 25.517 53.4801 25.6844 53.7151 25.8597C54.472 26.4254 55.3006 26.9313 56.1452 27.3616C56.7188 27.6564 57.0933 28.3854 57.4717 28.8874C57.902 29.4651 58.3322 30.0467 58.7585 30.6284C59.1927 31.218 59.6269 31.8076 60.0571 32.3972C60.0611 32.3892 60.0651 32.3813 60.0731 32.3733C60.3121 31.963 60.4993 31.5207 60.7065 31.0905C60.822 30.8515 60.9335 30.6124 61.0491 30.3734C61.0889 30.2937 61.4076 29.7559 61.3717 29.6961C61.1287 29.3256 60.6826 29.0388 60.3838 28.7201Z" fill="#EB8F8F"/>
<path d="M43.1904 2.80895L36.5656 28.8357C36.3863 29.5408 36.7688 30.2619 37.4221 30.4492L52.4245 35.0107C53.0778 35.1979 53.7511 34.7796 53.9303 34.0785L60.583 7.80873C60.7623 7.10359 60.3799 6.3825 59.7266 6.19526L44.6962 1.87673C44.0469 1.68948 43.3697 2.10779 43.1904 2.80895Z" fill="#2A6B2C"/>
<path d="M42.5527 1.09191L36.4617 28.7839C36.2984 29.5329 36.7087 30.2739 37.378 30.4372L52.8346 34.2139C53.5078 34.3773 54.185 33.9032 54.3483 33.1542L60.4393 5.46224C60.6027 4.71327 60.1924 3.97226 59.5231 3.80892L44.0665 0.0321992C43.3973 -0.13114 42.7161 0.342944 42.5527 1.09191Z" fill="#388F3B"/>
<path d="M42.4612 1.51416L36.5535 28.3655L52.4164 32.2419C52.6554 32.3016 52.8944 32.1343 52.9502 31.8674L58.6149 6.12352C58.6906 5.77692 58.4994 5.43829 58.1927 5.36259L42.4612 1.51416Z" fill="#77C679"/>
<path d="M41.7843 25.6884L41.7325 25.9195L49.4927 27.8158C49.6082 27.8437 49.7038 27.8636 49.7038 27.8636L49.7516 27.6405C49.7516 27.6365 49.6281 27.6046 49.4768 27.5688L41.7843 25.6884ZM41.6051 26.5768L41.5533 26.8079L49.3134 28.7042C49.429 28.7321 49.5246 28.752 49.5246 28.752L49.5724 28.5289C49.5724 28.5249 49.4489 28.4931 49.2975 28.4572L41.6051 26.5768ZM46.1504 6.38647L46.0986 6.61754L53.8588 8.51387C53.9743 8.54176 54.0699 8.56167 54.0699 8.56167L54.1177 8.33858C54.1177 8.33459 53.9942 8.30273 53.8429 8.26687L46.1504 6.38647ZM45.9712 7.2709L45.9194 7.50196L53.6795 9.39829C53.795 9.42618 53.8907 9.4461 53.8907 9.4461L53.9385 9.223C53.9385 9.21902 53.815 9.18715 53.6636 9.15129L45.9712 7.2709Z" fill="#388F3B"/>
<path d="M51.5801 17.4614C51.8233 15.4075 50.5221 13.5651 48.6737 13.3462C46.8253 13.1273 45.1297 14.6149 44.8866 16.6688C44.6434 18.7226 45.9446 20.5651 47.793 20.784C49.6414 21.0028 51.337 19.5153 51.5801 17.4614Z" fill="#388F3B"/>
<path d="M30.4585 22.5969C30.4665 19.9795 28.6978 18.7206 27.8174 18.7206C29.4746 18.7166 30.4665 16.7287 30.4585 14.8443C30.4665 16.4578 31.3708 18.7166 33.0997 18.7206C31.4584 18.7127 30.5581 21.1508 30.4585 22.5969ZM36.7408 6.80482C36.7487 5.01208 35.5377 4.15156 34.9322 4.15156C36.0675 4.14757 36.7447 2.78907 36.7408 1.49829C36.7487 2.60581 37.3662 4.15156 38.5493 4.15156C37.426 4.14359 36.8085 5.81284 36.7408 6.80482ZM65.5665 25.5171C65.5585 23.0192 67.2476 21.8161 68.0881 21.8161C66.5066 21.8121 65.5585 19.9158 65.5665 18.1151C65.5585 19.6568 64.698 21.8121 63.0448 21.8161C64.6104 21.8121 65.4709 24.1387 65.5665 25.5171Z" fill="#FEDA04"/>
<path d="M62.7184 30.7399C62.3638 30.4929 61.838 30.4013 61.4436 30.222C61.0014 30.0228 60.5712 29.7958 60.1609 29.5408C59.5673 29.1703 59.0255 28.7241 58.428 28.3616C57.9619 28.0787 57.4639 27.8636 56.966 27.6445C56.715 27.5329 56.464 27.4214 56.2171 27.3018C55.982 27.1863 55.7311 27.1186 55.4761 27.0548C55.4363 27.0469 55.3964 27.0349 55.3606 27.027C54.9781 26.9393 54.6435 26.7481 54.3169 26.5449C54.1217 26.4254 53.9464 26.274 53.7472 26.1664C53.305 25.9314 52.8469 25.7163 52.3967 25.4932C52.2334 25.4135 52.0661 25.3617 51.8828 25.3617C51.7474 25.3617 51.6558 25.4454 51.6518 25.5808C51.6478 25.7441 51.7673 25.8278 51.8789 25.9035C52.0263 26.0031 52.1896 26.0828 52.3449 26.1704C52.5123 26.262 52.6756 26.3616 52.8349 26.4772C53.1616 26.7162 53.4843 26.9672 53.8388 27.1704C53.9743 27.2501 54.0938 27.3536 54.1973 27.4771C54.2451 27.5329 54.2491 27.6006 54.2093 27.6644C54.1734 27.7241 54.1177 27.7241 54.0619 27.7082C53.6914 27.5927 53.3209 27.4811 52.9584 27.3337C52.7991 27.27 52.6358 27.2102 52.4684 27.1744C52.1776 27.1066 51.8749 27.0708 51.588 26.9831C51.361 26.9114 51.1299 26.8636 50.8949 26.8477C50.8391 26.8437 50.7953 26.8596 50.7634 26.9035C50.6041 27.1226 50.5523 27.3178 50.8909 27.4333C50.9029 27.4373 50.9188 27.4453 50.9307 27.4493C51.0821 27.4652 51.2216 27.513 51.361 27.5608C51.592 27.6365 51.8311 27.7082 52.0581 27.7919C52.2613 27.8676 52.4565 27.9632 52.6557 28.0389C52.9624 28.1584 53.2851 28.2381 53.5799 28.3934C53.7034 28.4572 53.8109 28.5368 53.9225 28.6205C53.787 28.5966 53.6675 28.5329 53.54 28.497C53.309 28.4293 53.0739 28.3616 52.8389 28.3018C52.2932 28.1663 51.7554 27.999 51.2176 27.8277C51.1578 27.8078 51.0981 27.8038 51.0343 27.8078C50.9268 27.8158 50.871 27.8636 50.8391 27.9552C50.7833 28.1305 50.8232 28.2341 50.9865 28.3257C51.1379 28.4094 51.3052 28.4452 51.4606 28.5249C51.7076 28.6564 51.9904 28.7082 52.2533 28.8038C52.5242 28.9034 52.7871 29.0229 53.07 29.0946C53.3448 29.1623 53.6197 29.2181 53.8946 29.2898C54.026 29.3217 54.1535 29.3655 54.285 29.4412C54.1734 29.4531 54.0818 29.4213 53.9902 29.4173C53.7552 29.4053 53.5281 29.3575 53.2931 29.3376C53.1098 29.3257 52.9226 29.2898 52.7473 29.23C52.5959 29.1783 52.4406 29.1344 52.2852 29.0906C52.1139 29.0428 52.0023 29.1026 51.9625 29.2659C51.9346 29.3735 52.0063 29.4332 52.078 29.493C52.2653 29.6484 52.4963 29.7121 52.7194 29.7878C52.9106 29.8555 53.1138 29.8993 53.313 29.9352C53.5998 29.991 53.8906 30.0547 54.1734 30.1264C55.0897 30.3575 56.0497 30.5089 56.9939 30.5806C57.6352 30.6324 58.2646 31.1622 58.8064 31.4809C59.4279 31.8475 60.0453 32.2219 60.6628 32.5924C61.2882 32.9709 61.9137 33.3494 62.5431 33.7279C62.5431 33.7199 62.5471 33.7079 62.5471 33.7C62.6108 33.2299 62.6148 32.7478 62.6387 32.2737L62.6785 31.477C62.6865 31.3973 62.7741 30.7758 62.7184 30.7399Z" fill="#FEA7A7"/>
<path d="M51.2293 28.3019C51.0819 28.274 50.9265 28.2063 50.7831 28.1146C50.7074 28.0629 50.6955 27.9951 50.7353 27.9154C50.7791 27.8318 50.8429 27.7959 50.9305 27.8198C51.0739 27.8557 51.2093 27.9035 51.3448 27.9633C51.4364 28.0031 51.4563 28.0429 51.4285 28.1425C51.3926 28.282 51.3607 28.3138 51.2293 28.3019ZM50.7472 26.8876C50.8269 26.8836 50.9106 26.9115 50.9942 26.9474C51.0938 26.9912 51.1177 27.035 51.0898 27.1386C51.0819 27.1665 51.0779 27.1944 51.0659 27.2223C51.0301 27.3298 51.0022 27.3418 50.8907 27.3179C50.7831 27.294 50.6835 27.2661 50.5839 27.2183C50.4843 27.1705 50.4564 27.1227 50.4764 27.035C50.5042 26.9235 50.56 26.8796 50.6676 26.8836C50.6955 26.8836 50.7154 26.8876 50.7472 26.8876ZM51.7591 25.3339C51.8866 25.3498 51.9981 25.4016 52.1057 25.4733C52.1535 25.5052 52.1694 25.557 52.1455 25.6128C52.0499 25.8239 52.0419 25.8518 51.8268 25.7442C51.7631 25.7124 51.7073 25.6725 51.6476 25.6327C51.5758 25.5889 51.536 25.5331 51.5719 25.4454C51.5958 25.3697 51.6635 25.3299 51.7591 25.3339ZM52.3885 29.4014C52.3845 29.4971 52.3288 29.5449 52.2491 29.5249C52.1296 29.4931 52.022 29.4373 51.9145 29.3775C51.8547 29.3417 51.8507 29.2461 51.8906 29.1704C51.9264 29.1106 51.9742 29.1345 52.022 29.1505C52.1057 29.1783 52.1893 29.1983 52.273 29.2261C52.3566 29.262 52.4005 29.3218 52.3885 29.4014Z" fill="#D8592F"/>
<path d="M64.1125 35.6401C64.0209 35.4728 63.6504 34.7637 63.9412 35.3095C63.8456 35.1302 63.75 34.9469 63.6663 34.7637C63.5946 34.6083 63.5428 34.4529 63.503 34.2856C63.3317 33.6004 63.3715 32.9829 63.5946 32.3136C63.6902 32.0307 63.8257 31.7638 63.9412 31.4929C63.9133 31.3535 63.9093 31.218 63.9213 31.0826C63.5349 30.8435 63.1285 30.5846 62.7023 30.2977C62.6545 31.0069 62.4792 31.6961 62.1804 32.3614C61.8976 32.8116 61.6108 33.2617 61.3279 33.7079C61.1686 33.9151 60.9973 34.1023 60.814 34.2736C61.3638 34.5605 61.8657 34.8274 62.2481 35.0704C63.0728 35.5963 63.8535 36.0305 64.5945 36.3851C64.4152 36.1461 64.2559 35.8991 64.1125 35.6401Z" fill="#F2AC33"/>
<path d="M63.4632 30.5766C63.4871 30.6045 63.515 30.6324 63.519 30.6682C63.523 30.7081 63.5031 30.7439 63.4832 30.7798C63.1605 31.3256 62.5828 31.708 62.3478 32.2977C62.2681 32.4929 62.2323 32.7 62.1964 32.9072C62.0929 33.4849 61.9933 34.0625 61.8897 34.6402C61.8419 34.9191 61.7064 35.2696 61.4236 35.2537C61.324 35.2497 61.2324 35.19 61.1487 35.1382C60.5512 34.7517 59.9536 34.3693 59.3521 33.9828C59.2804 33.939 59.2087 33.8872 59.1728 33.8115C59.1489 33.7558 59.1489 33.692 59.1529 33.6283C59.1928 32.5486 59.5234 31.4849 60.0851 30.5687C60.4954 29.8994 61.1169 28.9193 61.9933 29.3894C62.5629 29.6922 63.025 30.1105 63.4632 30.5766Z" fill="#FDC25E"/>
<path d="M71.0038 32.6841C71.1194 32.7757 71.219 32.8833 71.3146 32.9908C71.4102 33.0984 71.4978 33.2139 71.5855 33.3295C71.6691 33.445 71.7488 33.5645 71.8245 33.692C71.8962 33.8155 71.9639 33.947 72.0197 34.0864C71.9042 33.9948 71.8046 33.8872 71.705 33.7797C71.6094 33.6721 71.5217 33.5566 71.4341 33.441C71.3504 33.3255 71.2708 33.206 71.1991 33.0785C71.1234 32.951 71.0556 32.8235 71.0038 32.6841Z" fill="#F2AC33"/>
<path d="M70.9046 32.9112C70.9444 33.0945 70.9882 33.2697 71.052 33.4331C71.0838 33.5167 71.1197 33.5964 71.1595 33.6761C71.1994 33.7598 71.2432 33.8474 71.2591 33.959C71.2671 34.0147 71.2631 34.0745 71.2472 34.1342C71.2312 34.194 71.1994 34.2418 71.1715 34.2817C71.1396 34.3215 71.1117 34.3573 71.0838 34.3932L71.0002 34.4968C70.8886 34.6402 70.7771 34.7836 70.6576 34.927C70.7094 34.7478 70.7851 34.5765 70.8807 34.4131C70.9046 34.3733 70.9285 34.3334 70.9524 34.2936C70.9763 34.2538 71.0042 34.2139 71.0241 34.1821C71.0679 34.1103 71.0838 34.0586 71.0719 33.9868C71.0639 33.9151 71.0281 33.8355 70.9962 33.7518C70.9604 33.6641 70.9325 33.5725 70.9126 33.4769C70.8687 33.2897 70.8647 33.0945 70.9046 32.9112Z" fill="#F2AC33"/>
<path d="M60.3678 34.6084C60.316 34.4928 60.2682 34.3853 60.2284 34.2737C60.1886 34.1582 60.1527 34.0426 60.1407 33.9152C60.1248 33.7877 60.1328 33.6562 60.1766 33.5287C60.2164 33.4052 60.2961 33.2857 60.4116 33.226C60.3559 33.3375 60.332 33.449 60.324 33.5566C60.316 33.6682 60.32 33.7757 60.332 33.8873L60.3798 34.2339C60.3798 34.3574 60.3917 34.4849 60.3678 34.6084Z" fill="#F2AC33"/>
<path d="M89.6718 45.0939C90.1339 45.5043 90.4925 46.0182 90.851 46.5162C91.0302 46.7672 91.2055 47.0142 91.4007 47.2452C91.5959 47.4763 91.8031 47.6954 92.0301 47.8946C92.4843 48.289 92.9902 48.6276 93.5399 48.8707C94.0857 49.1216 94.6673 49.289 95.2609 49.3607C95.8544 49.4364 96.4719 49.4204 97.0973 49.4842C97.4081 49.516 97.7228 49.5718 98.0255 49.6634C98.3283 49.7511 98.6151 49.8666 98.9019 49.9702C99.1888 50.0778 99.4756 50.1774 99.7664 50.2411C100.057 50.3088 100.36 50.3367 100.663 50.3367C101.268 50.3407 101.878 50.2331 102.487 50.1375C101.894 50.3009 101.292 50.4483 100.667 50.4881C100.356 50.5041 100.037 50.4961 99.7266 50.4403C99.4158 50.3885 99.1171 50.2929 98.8223 50.1973C98.5275 50.1017 98.2407 50.0021 97.9498 49.9224C97.659 49.8427 97.3682 49.7989 97.0655 49.775C96.4639 49.7232 95.8465 49.7391 95.221 49.6674C94.5956 49.5838 93.9821 49.4085 93.4125 49.1336C92.8428 48.8627 92.3209 48.5041 91.8628 48.0699C91.6358 47.8548 91.4286 47.6157 91.2374 47.3687C91.0502 47.1178 90.8828 46.8588 90.7195 46.5959C90.3968 46.078 90.0861 45.5521 89.6718 45.0939Z" fill="#F2AC33"/>
<path d="M118.553 84.5265C118.537 84.2357 118.581 83.9448 118.553 83.654C118.529 83.407 118.49 83.156 118.438 82.913C118.382 82.658 118.31 82.415 118.286 82.1561C118.274 82.0246 118.27 81.8891 118.266 81.7577C118.131 81.4191 118.004 81.1362 117.972 81.0725C117.689 80.6223 117.593 80.1402 117.53 79.6542C117.51 79.4908 117.49 79.3275 117.47 79.1642C117.143 77.2599 116.378 77.471 115.952 77.4511C115.737 77.4391 115.255 77.3794 114.856 77.479C114.745 77.5069 114.677 77.6184 114.697 77.73C114.697 77.73 114.697 77.73 114.697 77.734C114.757 78.0327 114.976 78.3475 114.932 78.6901C114.88 79.1203 114.498 79.3514 114.092 79.3275C114.056 79.3235 113.996 79.3195 113.936 79.3116C113.773 79.2877 113.61 79.3793 113.55 79.5387C113.55 79.5387 113.55 79.5387 113.55 79.5426C113.45 79.7378 113.701 80.1163 114.159 80.3434C114.562 80.5426 114.896 80.7498 115.912 81.8374C116.203 82.1521 116.33 82.5943 116.434 83.0246C116.49 83.2078 116.884 84.6978 117.82 84.889C118.179 84.9647 118.31 84.8731 118.458 84.634C118.454 84.6101 118.557 84.5504 118.553 84.5265Z" fill="#FDC25E"/>
<path d="M118.991 84.4149C119.035 84.6141 118.908 84.8172 118.704 84.8611L118.689 84.865C118.489 84.9089 118.286 84.7814 118.242 84.5782L116.788 77.8494C116.745 77.6502 116.872 77.447 117.075 77.4032L117.091 77.3992C117.29 77.3554 117.493 77.4829 117.537 77.6861L118.991 84.4149Z" fill="#FDC25E"/>
<path d="M116.621 81.9329C116.621 81.897 116.593 81.8691 116.557 81.8691C116.374 81.8691 116.203 81.9448 116.059 82.0205C116.083 82.0564 116.103 82.0922 116.123 82.1281C116.254 82.0603 116.402 81.9926 116.553 81.9926C116.593 81.9966 116.621 81.9687 116.621 81.9329ZM116.306 81.5265C116.318 81.5345 116.334 81.5385 116.35 81.5385C116.386 81.5345 116.41 81.5066 116.406 81.4707C116.406 81.4468 116.394 81.4269 116.374 81.4149C116.342 81.391 116.306 81.395 116.29 81.399C116.095 81.4389 115.908 81.5345 115.752 81.662C115.78 81.6898 115.808 81.7217 115.84 81.7536C115.976 81.646 116.135 81.5663 116.306 81.5265ZM115.386 81.16C115.366 81.1839 115.35 81.2078 115.338 81.2357C115.37 81.2636 115.398 81.2954 115.43 81.3273C115.446 81.2954 115.462 81.2636 115.482 81.2357C115.529 81.1759 115.597 81.1321 115.661 81.0923C115.8 81.0086 115.944 80.9329 116.091 80.8692C116.123 80.8532 116.139 80.8174 116.123 80.7855C116.111 80.7536 116.071 80.7377 116.039 80.7536C115.888 80.8214 115.737 80.8971 115.593 80.9847C115.525 81.0325 115.446 81.0843 115.386 81.16ZM114.86 80.7974C114.892 80.8214 114.924 80.8492 114.956 80.8811C115 80.8094 115.043 80.7377 115.103 80.6859C115.159 80.6341 115.227 80.5983 115.298 80.5584C115.366 80.5226 115.434 80.4867 115.497 80.4349C115.525 80.411 115.529 80.3752 115.505 80.3473C115.482 80.3194 115.446 80.3154 115.418 80.3393C115.366 80.3831 115.306 80.415 115.239 80.4509C115.163 80.4907 115.083 80.5345 115.015 80.5943C114.952 80.654 114.904 80.7257 114.86 80.7974Z" fill="white"/>
<path d="M118.386 84.8012C118.215 84.2116 118.055 83.618 117.9 83.0244C117.745 82.4308 117.593 81.8372 117.466 81.2317C117.406 80.9289 117.35 80.6261 117.306 80.3194C117.263 80.0126 117.239 79.7058 117.203 79.4031C117.131 78.7975 116.956 78.2079 116.785 77.6183C117 78.192 117.211 78.7736 117.298 79.3911C117.322 79.5425 117.338 79.6979 117.358 79.8493C117.378 80.0006 117.398 80.152 117.422 80.3034C117.47 80.6062 117.525 80.905 117.585 81.2078C117.709 81.8093 117.856 82.4029 117.992 83.0005C118.135 83.5981 118.262 84.1997 118.386 84.8012Z" fill="white"/>
<path d="M86.1782 92.8805C86.1663 92.8965 86.1583 92.9124 86.1503 92.9283C85.987 93.2351 85.8037 93.5299 85.6285 93.8327C85.5687 93.9363 85.509 94.0398 85.4213 94.1235C85.1783 94.3585 84.7082 94.2868 84.5489 93.9841C84.5409 93.9641 84.529 93.9442 84.517 93.9203C84.4334 93.749 84.2541 93.6414 84.0629 93.6494C83.9633 93.6534 83.8637 93.6494 83.7641 93.6375C83.294 93.5857 83.7601 94.7848 83.7681 95.0278C83.78 95.5378 83.6048 96.0318 83.3458 96.466C82.8797 97.2429 82.0989 97.6532 81.5014 98.2906C80.9038 98.9281 80.9039 99.8603 81.9277 100.04C82.9076 100.211 84.3736 99.6412 85.1186 99.0237C85.8993 98.3783 85.9591 97.3504 86.6084 96.6214C87.2458 95.9083 88.2417 95.5418 87.8474 94.3984C87.7358 94.0797 87.1582 93.2032 86.6483 92.769C86.481 92.6216 86.2897 92.7172 86.1782 92.8805Z" fill="#FDC25E"/>
<path d="M86.1819 96.1792C85.5285 96.9083 85.4688 97.9361 84.692 98.5815C84.1024 99.0715 82.8675 99.8285 81.8954 100.036C81.9074 100.04 81.9193 100.04 81.9353 100.044C82.9153 100.215 84.3812 99.6452 85.1262 99.0277C85.907 98.3823 85.9667 97.3545 86.6161 96.6254C87.2535 95.9123 88.2494 95.5458 87.855 94.4024C87.8231 94.3148 87.7634 94.1913 87.6797 94.0479C87.6558 94.9323 86.7276 95.5737 86.1819 96.1792Z" fill="#FDC25E"/>
<path d="M83.8714 95.1195L83.9232 95.1115C84.0069 95.0956 84.0905 95.0796 84.1702 95.0836C84.3495 95.0916 84.5128 95.1991 84.6363 95.2908C84.6562 95.3067 84.6841 95.3067 84.708 95.2948C84.7159 95.2908 84.7199 95.2868 84.7239 95.2788C84.7438 95.2509 84.7399 95.2111 84.712 95.1912C84.5725 95.0876 84.3893 94.9681 84.1782 94.9561C84.0826 94.9521 83.9909 94.9681 83.9033 94.984L83.8555 94.992C83.8276 94.996 83.7997 94.9999 83.7758 95.0039C83.7758 95.0119 83.7758 95.0199 83.7758 95.0278C83.7758 95.0637 83.7758 95.0956 83.7758 95.1314C83.8037 95.1314 83.8395 95.1274 83.8714 95.1195ZM83.7798 95.6334C84.0108 95.6334 84.214 95.6892 84.3694 95.7927C84.3893 95.8087 84.4172 95.8087 84.4371 95.7927C84.4451 95.7888 84.4491 95.7808 84.457 95.7728C84.4769 95.7449 84.469 95.7051 84.4411 95.6852C84.2698 95.5657 84.0387 95.5059 83.7838 95.5059C83.7678 95.5059 83.7479 95.5059 83.732 95.5059C83.724 95.5497 83.7161 95.5896 83.7041 95.6334C83.728 95.6334 83.7559 95.6334 83.7798 95.6334ZM83.5766 96.1752C83.6244 96.1832 83.6802 96.1951 83.732 96.215C83.8356 96.2588 83.9232 96.3385 84.0108 96.4182C84.0308 96.4381 84.0626 96.4421 84.0865 96.4262C84.0905 96.4222 84.0945 96.4182 84.0985 96.4142C84.1224 96.3903 84.1224 96.3505 84.0945 96.3266C84.0069 96.2429 83.9033 96.1473 83.7758 96.0955C83.7121 96.0716 83.6483 96.0597 83.5926 96.0477C83.5806 96.0477 83.5687 96.0437 83.5607 96.0437C83.5448 96.0836 83.5248 96.1234 83.5089 96.1632C83.5328 96.1672 83.5567 96.1712 83.5766 96.1752ZM83.3137 96.5258C83.2898 96.5616 83.2659 96.5975 83.242 96.6333C83.3018 96.6493 83.3615 96.6692 83.4093 96.705C83.493 96.7608 83.5487 96.8644 83.6005 96.952C83.6165 96.9839 83.6563 96.9919 83.6842 96.976C83.6842 96.976 83.6842 96.976 83.6882 96.976C83.7161 96.96 83.728 96.9202 83.7081 96.8923C83.6523 96.7927 83.5886 96.6772 83.481 96.6054C83.4292 96.5656 83.3735 96.5417 83.3137 96.5258Z" fill="white"/>
<path d="M82.4571 100.067C82.6204 100.016 82.7838 99.9639 82.9391 99.9002C83.0945 99.8324 83.2379 99.7448 83.3813 99.6492C83.6602 99.458 83.9231 99.2348 84.182 99.0157C84.3095 98.9042 84.441 98.7926 84.5645 98.6811C84.684 98.5656 84.7835 98.4341 84.8712 98.2907C85.0425 98.0038 85.166 97.6851 85.3054 97.3704C85.3771 97.215 85.4528 97.0597 85.5404 96.9083C85.6281 96.7569 85.7356 96.6174 85.8472 96.486C85.9587 96.3545 86.0782 96.231 86.1898 96.1035C86.3013 95.976 86.4129 95.8485 86.5204 95.7171C86.628 95.5856 86.7316 95.4502 86.8391 95.3187C86.9427 95.1832 87.0582 95.0518 87.1698 94.9283C87.2813 94.8008 87.3928 94.6733 87.4845 94.5299C87.5721 94.3865 87.6398 94.2231 87.6358 94.0518C87.6558 94.2231 87.596 94.3944 87.5124 94.5458C87.4287 94.6972 87.3211 94.8327 87.2176 94.9681C87.11 95.1036 87.0024 95.231 86.9029 95.3705C86.8033 95.5099 86.6997 95.6454 86.5961 95.7808C86.4925 95.9163 86.385 96.0517 86.2734 96.1792C86.1619 96.3107 86.0464 96.4342 85.9388 96.5656C85.8313 96.6971 85.7317 96.8286 85.644 96.972C85.5604 97.1154 85.4847 97.2668 85.4169 97.4222C85.2775 97.7289 85.154 98.0556 84.9708 98.3504C84.8792 98.4978 84.7716 98.6373 84.6401 98.7608C84.5724 98.8205 84.5087 98.8723 84.441 98.9281L84.2418 99.0914C83.9749 99.3066 83.704 99.5177 83.4132 99.701C83.2658 99.7926 83.1144 99.8723 82.9511 99.932C82.7877 99.9878 82.6204 100.028 82.4571 100.067Z" fill="white"/>
<path d="M87.7475 22.573C86.4289 19.4854 86.3014 15.9557 87.1021 12.6053C87.2535 11.9599 87.2814 11.3025 87.1898 10.6771C87.1579 10.2906 87.1061 9.88428 87.0185 9.458C86.7635 8.18714 86.2257 6.7888 85.1581 5.5777C85.1581 5.5777 81.8437 1.57788 77.2267 3.5499C77.2267 3.5499 75.8642 4.26302 74.8524 5.47014C74.1473 5.71315 73.6294 6.13943 73.4223 6.72506C73.231 7.26288 73.3266 7.86445 73.6453 8.45008C73.6653 8.54968 73.7011 8.64529 73.7449 8.73692C73.7449 8.73692 73.7649 8.72895 73.8087 8.717C74.4222 9.63728 75.3822 16.2864 75.3225 16.2147L75.4619 16.9477C75.4619 16.9477 75.5655 17.5493 75.5774 18.4058C75.6491 20.0551 75.3782 21.6965 74.3146 23.0789C73.6414 23.9315 73.733 25.039 73.6692 26.0668C73.6852 26.2262 73.6015 26.4692 73.4422 26.517C71.9085 27.1664 71.8129 28.9153 72.8367 29.9989C73.0358 30.2658 73.2629 30.5128 73.5099 30.7359C74.2548 31.4132 75.195 31.9112 76.1391 32.2418C76.5614 32.3932 76.9876 32.5247 77.4218 32.6362C78.2863 32.8593 79.1547 32.9988 79.9913 33.0665C80.9872 33.1542 81.9473 32.6123 82.7002 31.9431C82.9312 31.7439 83.1503 31.5247 83.3535 31.2977C83.5567 31.0666 83.7479 30.8236 83.9232 30.5646C84.1542 30.3017 84.4251 29.9989 84.7159 29.6961C85.5565 28.7878 86.3253 27.9153 87.4766 27.3576C88.584 26.8198 88.6916 25.6286 88.4446 24.529C88.361 24.1625 88.2414 23.808 88.106 23.4892C88.0064 23.2104 87.8869 22.8996 87.7475 22.573Z" fill="#193759"/>
<path d="M75.211 16.1749C75.2628 16.2427 75.3186 16.3104 75.3783 16.3781C75.8683 17.0195 76.4977 17.7964 77.4179 17.6928C77.5096 17.6808 77.6052 17.6609 77.7048 17.6211C77.7566 17.6012 77.8044 17.5812 77.8561 17.5534C78.135 17.4219 78.3103 17.2107 78.5015 16.9996L78.5413 16.9478C80.0551 14.7208 79.7006 12.9639 79.7006 12.9639C79.5771 12.4221 79.4337 11.9321 79.2703 11.4939C78.7883 11.4301 78.2904 11.3146 77.7924 11.1433C75.7767 10.4501 74.3505 9.06768 74.1075 7.73706C73.6375 8.62148 73.5259 9.67721 73.7689 10.6891C73.7928 10.8365 73.8207 10.9799 73.8446 11.1273C73.8725 11.3026 73.9004 11.4739 73.9163 11.6492C73.9203 11.709 73.9243 11.7648 73.9283 11.8205C74.0438 12.6372 73.6295 13.3384 73.498 14.0914C73.4901 14.1471 73.4821 14.1989 73.4741 14.2507C73.4821 14.3822 73.9482 14.4459 74.1912 14.2666C74.2589 14.4419 74.2908 14.6132 74.3864 14.7766C74.4103 14.8324 74.4382 14.8881 74.4661 14.9439C74.5218 15.0555 74.5776 15.167 74.6334 15.2825C74.6772 15.3702 74.729 15.4618 74.7808 15.5534C74.8525 15.6769 74.9321 15.8044 75.0198 15.9319C75.0875 16.0116 75.1473 16.0913 75.211 16.1749Z" fill="#FEA7A7"/>
<path d="M77.7921 11.1432C78.29 11.3145 78.788 11.43 79.27 11.4938C79.2341 11.3942 79.1943 11.2946 79.1545 11.199C78.6246 11.0595 78.0789 10.8603 77.5371 10.6054C75.9636 9.86038 74.7645 8.7927 74.1789 7.729C74.1311 7.73697 74.1072 7.74095 74.1072 7.74095C74.3502 9.06759 75.7803 10.454 77.7921 11.1432Z" fill="#EB8F8F"/>
<path d="M77.7965 21.2823C78.5255 20.8321 79.1111 20.2066 79.5612 19.4975C79.7843 19.1429 79.9755 18.7684 80.1349 18.382C80.2942 17.9956 80.4257 17.5972 80.5213 17.1868C80.6209 16.7805 80.6926 16.3662 80.7444 15.9478C80.8001 15.5295 80.828 15.1073 80.8519 14.685C80.8958 13.8364 80.8878 12.9838 80.9117 12.1313C81.0113 12.9799 81.083 13.8324 81.083 14.6929C81.087 15.1232 81.0631 15.5534 81.0232 15.9837C80.9794 16.414 80.9077 16.8402 80.8081 17.2625C80.7045 17.6848 80.5651 18.0991 80.3938 18.4975C80.2145 18.8959 80.0074 19.2784 79.7564 19.6329C79.5055 19.9875 79.2146 20.3142 78.888 20.597C78.5573 20.8719 78.1908 21.111 77.7965 21.2823ZM76.3544 19.0314C76.3703 19.6051 76.3544 20.1748 76.3305 20.7444C76.3225 21.0273 76.3066 21.3102 76.3106 21.589C76.3106 21.6607 76.3106 21.7285 76.3145 21.7962C76.3185 21.8639 76.3225 21.9356 76.3265 22.0034C76.3305 22.0711 76.3384 22.1428 76.3424 22.2105C76.3504 22.2782 76.3544 22.35 76.3663 22.4177C76.4022 22.6926 76.458 22.9635 76.5297 23.2344C76.6014 23.5013 76.693 23.7642 76.8006 24.0232C77.0236 24.5331 77.3144 25.0192 77.7128 25.4295C77.4698 25.2741 77.2587 25.0709 77.0714 24.8518C76.8842 24.6287 76.7249 24.3857 76.5894 24.1268C76.45 23.8718 76.3424 23.5969 76.2548 23.318C76.1672 23.0392 76.1034 22.7523 76.0676 22.4615C76.0317 22.1707 76.0118 21.8799 76.0237 21.589C76.0317 21.2982 76.0596 21.0114 76.0954 20.7285C76.1711 20.1588 76.2468 19.5931 76.3544 19.0314ZM78.7127 30.8436C79.127 30.736 79.5413 30.6404 79.9556 30.5448C80.3699 30.4492 80.7882 30.3695 81.1905 30.25C81.5889 30.1265 81.9713 29.9671 82.2741 29.7082C82.5808 29.4532 82.788 29.0987 82.9672 28.7242C83.1545 28.3497 83.3138 27.9433 83.5648 27.5768C83.6923 27.3936 83.8436 27.2222 84.011 27.0788C84.1743 26.9314 84.3496 26.8079 84.5129 26.6765C84.6762 26.545 84.8276 26.4095 84.9551 26.2502C85.0786 26.0908 85.1742 25.9115 85.2459 25.7163C85.3933 25.3259 85.4411 24.8996 85.5048 24.4773C85.5088 24.9036 85.5008 25.3339 85.3853 25.7602C85.3296 25.9713 85.2379 26.1785 85.1144 26.3657C84.987 26.5529 84.8276 26.7083 84.6643 26.8517C84.501 26.9952 84.3376 27.1306 84.1862 27.2701C84.0349 27.4095 83.9074 27.5609 83.7998 27.7322C83.5768 28.0708 83.4214 28.4652 83.2341 28.8556C83.1385 29.0508 83.035 29.2421 82.9075 29.4293C82.78 29.6126 82.6326 29.7879 82.4534 29.9273C82.0948 30.2102 81.6726 30.3735 81.2503 30.4771C80.828 30.5807 80.4018 30.6324 79.9835 30.6922C79.5612 30.744 79.139 30.7998 78.7127 30.8436ZM78.1669 4.68939C78.5932 4.6137 79.0434 4.6376 79.4736 4.72525C79.9038 4.81688 80.3221 4.96826 80.7205 5.14754C80.9197 5.23917 81.1149 5.33478 81.3101 5.43836C81.5013 5.54194 81.6965 5.64552 81.8837 5.76106C82.2582 5.99212 82.6167 6.26701 82.9234 6.59767C83.2262 6.93232 83.4533 7.33469 83.6086 7.753C83.764 8.17131 83.8636 8.60156 83.9313 9.03581C84.003 9.46607 84.0548 9.89633 84.1145 10.3266C84.1663 10.7568 84.2221 11.1871 84.2619 11.6214C84.1544 11.1991 84.0627 10.7768 83.9711 10.3545L83.7042 9.08362C83.6086 8.66531 83.505 8.25098 83.3457 7.86056C83.1903 7.47014 82.9832 7.10761 82.7003 6.80085C82.4255 6.49011 82.0869 6.23115 81.7323 6.00009C81.3778 5.76504 80.9993 5.55788 80.6209 5.35869C80.2384 5.16746 79.8481 4.98818 79.4377 4.86867C79.0314 4.74118 78.6012 4.68142 78.1669 4.68939Z" fill="#2F5682"/>
<defs>
<linearGradient id="paint0_linear_3437_17917" x1="7.87669" y1="43.1938" x2="14.4405" y2="42.2799" gradientUnits="userSpaceOnUse">
<stop stop-color="#F77C74"/>
<stop offset="1" stop-color="#CC542C"/>
</linearGradient>
<linearGradient id="paint1_linear_3437_17917" x1="13.9104" y1="62.1831" x2="13.9104" y2="79.9013" gradientUnits="userSpaceOnUse">
<stop stop-color="#F77C74"/>
<stop offset="1" stop-color="#CC542C"/>
</linearGradient>
<linearGradient id="paint2_linear_3437_17917" x1="32.8137" y1="47.2869" x2="22.9057" y2="46.8507" gradientUnits="userSpaceOnUse">
<stop stop-color="#F77C74"/>
<stop offset="1" stop-color="#CC542C"/>
</linearGradient>
</defs>
</svg>
