<svg width="16" height="16" viewBox="0 0 16 16" fill="none" xmlns="http://www.w3.org/2000/svg">
<path d="M12.3713 5.57333C12.8258 5.23242 13.2349 4.82333 13.5531 4.34606C13.144 4.52788 12.6667 4.66424 12.1895 4.70969C12.6895 4.41424 13.0531 3.95969 13.2349 3.39151C12.7804 3.66424 12.2576 3.86879 11.7349 3.98242C11.2804 3.50515 10.6667 3.23242 9.98491 3.23242C8.66673 3.23242 7.59854 4.3006 7.59854 5.61879C7.59854 5.8006 7.62127 5.98242 7.66673 6.16424C5.68945 6.0506 3.91673 5.09606 2.73491 3.66424C2.53036 4.00515 2.41673 4.41424 2.41673 4.86879C2.41673 5.68697 2.82582 6.41424 3.48491 6.84606C3.09854 6.82333 2.71218 6.73242 2.394 6.5506V6.57333C2.394 7.73242 3.21218 8.68697 4.30309 8.91424C4.12127 8.95969 3.894 9.00515 3.68945 9.00515C3.53036 9.00515 3.394 8.98242 3.23491 8.95969C3.53036 9.91424 4.41673 10.5961 5.46218 10.6188C4.644 11.2551 3.62127 11.6415 2.50763 11.6415C2.30309 11.6415 2.12127 11.6188 1.93945 11.5961C2.98491 12.2779 4.23491 12.6642 5.59854 12.6642C9.98491 12.6642 12.3713 9.0506 12.3713 5.89151C12.3713 5.77788 12.3713 5.68697 12.3713 5.57333Z" fill="#50497C"/>
</svg>
