<svg width="1440" height="121" viewBox="0 0 1440 121" fill="none" xmlns="http://www.w3.org/2000/svg">
<g clip-path="url(#clip0_2315_14175)">
<path opacity="0.25" d="M0 0.167725V46.4577C57.348 68.6577 124.308 78.6277 189.6 74.4577C274.032 69.0877 353.196 41.1477 437.76 36.9577C526.368 32.5977 614.808 53.8377 699.6 72.2177C782.724 90.2177 865.56 97.0977 950.88 85.2977C994.26 79.2977 1034.7 67.4577 1076.22 55.9577C1187.39 25.1677 1335.6 -14.1223 1440 52.6377V0.167725H0Z" fill="#DFE3FF"/>
<path opacity="0.5" d="M0 0.167725V15.9777C15.6 37.0877 33.168 57.0277 57.228 72.2177C119.292 111.438 198 111.168 269.496 91.7477C306.876 81.5977 341.604 65.6777 377.1 51.9477C426.204 32.9477 478.776 5.94772 534.096 2.27772C577.608 -0.572275 619.176 11.6977 652.416 33.8377C690.54 59.2277 727.2 95.8377 776.772 106.838C825.3 117.628 874.392 100.148 919.728 82.5577C965.064 64.9677 1009.92 43.5577 1060.03 39.5077C1131.71 33.6577 1195.97 62.3877 1262.71 78.3477C1298.95 87.0077 1333.51 84.5177 1367.22 70.8477C1394.14 59.9577 1424.82 43.9177 1440 21.6077V0.167725H0Z" fill="#DFE3FF"/>
<path d="M0 0.167725V5.79772C179.916 59.1677 376.908 71.4877 570.996 42.7377C622.596 35.0977 672.072 22.6177 724.128 16.2777C794.928 7.64773 859.104 28.5177 922.8 51.6777C993.516 77.3877 1063.2 95.4077 1141.44 90.1677C1245.28 83.1677 1348.39 44.4577 1440 5.35772V0.167725H0Z" fill="#DFE3FF"/>
</g>
<defs>
<clipPath id="clip0_2315_14175">
<rect width="1440" height="120" fill="white" transform="translate(0 0.167725)"/>
</clipPath>
</defs>
</svg>
