<svg width="16" height="16" viewBox="0 0 16 16" fill="none" xmlns="http://www.w3.org/2000/svg">
<path d="M1.55383 4.56455L7.75757 7.66603L13.9613 4.56455C13.9383 4.16926 13.7651 3.79771 13.4771 3.52599C13.1891 3.25427 12.8081 3.10295 12.4121 3.10303H3.10302C2.70706 3.10295 2.32606 3.25427 2.03804 3.52599C1.75003 3.79771 1.5768 4.16926 1.55383 4.56455Z" fill="#50497C"/>
<path d="M13.9636 6.29761L7.75757 9.40064L1.55151 6.29761V10.8606C1.55151 11.2721 1.71498 11.6667 2.00594 11.9577C2.29691 12.2487 2.69154 12.4121 3.10303 12.4121H12.4121C12.8236 12.4121 13.2182 12.2487 13.5092 11.9577C13.8002 11.6667 13.9636 11.2721 13.9636 10.8606V6.29761Z" fill="#5E5C63"/>
</svg>
