<svg width="16" height="16" viewBox="0 0 16 16" fill="none" xmlns="http://www.w3.org/2000/svg">
<g clip-path="url(#clip0_3450_16535)">
<path d="M7.75758 0C3.47273 0 0 3.47273 0 7.75758C0 11.0455 2.04545 13.8515 4.9303 14.9818C4.86364 14.3667 4.8 13.4273 4.95758 12.7576C5.1 12.1515 5.86667 8.90303 5.86667 8.90303C5.86667 8.90303 5.63333 8.43939 5.63333 7.75152C5.63333 6.67273 6.25758 5.86667 7.03636 5.86667C7.69697 5.86667 8.01818 6.36364 8.01818 6.96061C8.01818 7.62727 7.59394 8.62121 7.37576 9.54242C7.19394 10.3152 7.76364 10.9455 8.52424 10.9455C9.90303 10.9455 10.9636 9.49091 10.9636 7.39394C10.9636 5.53636 9.6303 4.23636 7.72424 4.23636C5.51818 4.23636 4.22121 5.89091 4.22121 7.60303C4.22121 8.2697 4.47879 8.98485 4.8 9.37273C4.86364 9.44848 4.87273 9.51818 4.85455 9.59394C4.79697 9.83939 4.66364 10.3667 4.63939 10.4727C4.60606 10.6152 4.52727 10.6455 4.37879 10.5758C3.40909 10.1242 2.80303 8.70909 2.80303 7.5697C2.80303 5.12121 4.58182 2.87576 7.92727 2.87576C10.6182 2.87576 12.7091 4.79394 12.7091 7.35758C12.7091 10.0303 11.0242 12.1818 8.68485 12.1818C7.9 12.1818 7.16061 11.7727 6.90606 11.2909C6.90606 11.2909 6.51818 12.7727 6.42424 13.1364C6.24848 13.8091 5.77576 14.6545 5.46061 15.1697C6.18788 15.3939 6.95758 15.5152 7.75758 15.5152C12.0424 15.5152 15.5152 12.0424 15.5152 7.75758C15.5152 3.47273 12.0424 0 7.75758 0Z" fill="#50497C"/>
</g>
<defs>
<clipPath id="clip0_3450_16535">
<rect width="15.5152" height="15.5152" fill="white"/>
</clipPath>
</defs>
</svg>
