<svg width="81" height="74" viewBox="0 0 81 74" fill="none" xmlns="http://www.w3.org/2000/svg">
<path fill-rule="evenodd" clip-rule="evenodd" d="M61.6076 10.179C59.8742 7.18996 56.6664 5.33188 53.1994 5.33188H27.7642C24.3134 5.33188 21.0894 7.18996 19.3559 10.179L6.6383 32.1367C4.90482 35.1258 4.90482 38.8258 6.6383 41.8148L19.3559 63.7886C21.0894 66.7777 24.2972 68.6358 27.7642 68.6358H53.1994C56.6502 68.6358 59.8742 66.7777 61.6076 63.7886L74.3253 41.8148C76.0588 38.8258 76.0588 35.1258 74.3253 32.1367L61.6076 10.179ZM50.2316 55.0331C48.1699 57.8725 44.8319 59.4391 41.2975 59.4391H36.585C30.6944 59.4391 25.6874 54.7393 25.5892 48.8646V27.1279C25.5892 25.5613 26.8655 24.2885 28.4363 24.2885H28.5345C30.1053 24.2885 31.3816 25.5613 31.3816 27.1279V36.7234H32.4616V18.4137C32.4616 16.8471 33.7379 15.5743 35.3087 15.5743H35.4069C36.9777 15.5743 38.254 16.8471 38.254 18.4137V36.7234H39.334V15.2805C39.334 13.7139 40.6103 12.441 42.1811 12.441H42.2793C43.8501 12.441 45.1264 13.7139 45.1264 15.2805V36.7234H46.3045V19.5887C46.3045 18.0221 47.5808 16.7492 49.1516 16.7492H49.2498C50.8206 16.7492 52.0969 18.0221 52.0969 19.5887V41.2274L55.5331 37.5067C56.5149 36.3317 58.3803 36.2338 59.4602 37.3109C60.6383 38.3879 60.7365 40.1503 59.6566 41.2274C59.6273 41.2274 59.1437 41.968 58.37 43.1528C56.5501 45.94 53.125 51.1856 50.2316 55.0331Z" fill="#FF3730"/>
<path fill-rule="evenodd" clip-rule="evenodd" d="M66.2532 7.5131L78.9708 29.4869C80.2999 31.7689 81 34.361 81 37C81 39.639 80.2999 42.2311 78.9708 44.5131L66.2532 66.4869C63.5639 71.1402 58.5902 74 53.2116 74H27.7763C22.3976 74 17.424 71.1402 14.7346 66.4869L2.01701 44.5131C0.695608 42.2285 0 39.6374 0 37C0 34.3626 0.695608 31.7715 2.01701 29.4869L14.7346 7.5131C17.424 2.85983 22.3976 0 27.7763 0H53.2116C58.5902 0 63.5639 2.87598 66.2532 7.5131ZM63.8069 65.0651L76.5245 43.0913C78.6954 39.3428 78.6954 34.6572 76.5245 30.9087L63.8069 8.93493C61.636 5.18646 57.5858 2.84367 53.2278 2.84367H27.7925C23.4507 2.84367 19.3843 5.17031 17.2134 8.93493L4.49573 30.9087C2.32482 34.6572 2.32482 39.3266 4.49573 43.0913L17.2134 65.0651C19.3843 68.8135 23.4345 71.1563 27.7925 71.1563H53.2278C57.5696 71.1563 61.636 68.8297 63.8069 65.0651Z" fill="#FF3730"/>
</svg>
