<svg width="41" height="36" viewBox="0 0 41 36" fill="none" xmlns="http://www.w3.org/2000/svg">
<path fill-rule="evenodd" clip-rule="evenodd" d="M30.7775 4.92512C29.9388 3.47886 28.3867 2.57983 26.7092 2.57983H14.4024C12.7327 2.57983 11.1728 3.47886 10.3341 4.92512L4.18063 15.5493C3.34188 16.9956 3.34188 18.7858 4.18063 20.2321L10.3341 30.8641C11.1728 32.3104 12.7249 33.2094 14.4024 33.2094H26.7092C28.3789 33.2094 29.9388 32.3104 30.7775 30.8641L36.9309 20.2321C37.7697 18.7858 37.7697 16.9956 36.9309 15.5493L30.7775 4.92512ZM25.2732 26.6277C24.2757 28.0016 22.6606 28.7596 20.9505 28.7596H18.6703C15.8202 28.7596 13.3975 26.4856 13.35 23.6431V13.1258C13.35 12.3678 13.9675 11.752 14.7276 11.752H14.7751C15.5351 11.752 16.1527 12.3678 16.1527 13.1258V17.7686H16.6752V8.90947C16.6752 8.15147 17.2927 7.5356 18.0528 7.5356H18.1003C18.8603 7.5356 19.4779 8.15147 19.4779 8.90947V17.7686H20.0004V7.39347C20.0004 6.63547 20.6179 6.0196 21.378 6.0196H21.4255C22.1855 6.0196 22.8031 6.63547 22.8031 7.39347V17.7686H23.3731V9.47797C23.3731 8.71997 23.9906 8.1041 24.7507 8.1041H24.7982C25.5582 8.1041 26.1758 8.71997 26.1758 9.47797V19.9478L27.8384 18.1476C28.3134 17.5791 29.216 17.5317 29.7385 18.0528C30.3085 18.574 30.356 19.4267 29.8335 19.9478C29.8193 19.9478 29.5853 20.3062 29.211 20.8795C28.3304 22.2281 26.6732 24.7661 25.2732 26.6277Z" fill="#FF3730"/>
<path fill-rule="evenodd" clip-rule="evenodd" d="M33.0253 3.63521L39.1787 14.2672C39.8218 15.3714 40.1605 16.6255 40.1605 17.9024C40.1605 19.1793 39.8218 20.4335 39.1787 21.5376L33.0253 32.1697C31.724 34.4211 29.3175 35.8049 26.7151 35.8049H14.4082C11.8058 35.8049 9.39927 34.4211 8.09804 32.1697L1.94462 21.5376C1.30526 20.4322 0.968689 19.1786 0.968689 17.9024C0.968689 16.6263 1.30526 15.3726 1.94462 14.2672L8.09804 3.63521C9.39927 1.38373 11.8058 0 14.4082 0H26.7151C29.3175 0 31.724 1.39154 33.0253 3.63521ZM31.8416 31.4817L37.995 20.8497C39.0454 19.036 39.0454 16.7689 37.995 14.9552L31.8416 4.32316C30.7912 2.50947 28.8315 1.37591 26.7229 1.37591H14.4161C12.3153 1.37591 10.3478 2.50165 9.29737 4.32316L3.14395 14.9552C2.09355 16.7689 2.09355 19.0282 3.14395 20.8497L9.29737 31.4817C10.3478 33.2954 12.3075 34.429 14.4161 34.429H26.7229C28.8237 34.429 30.7912 33.3032 31.8416 31.4817Z" fill="#FF3730"/>
</svg>
