<svg width="83" height="111" viewBox="0 0 83 111" fill="none" xmlns="http://www.w3.org/2000/svg">
<g clip-path="url(#clip0_3437_17543)">
<g style="mix-blend-mode:multiply">
<path d="M73.4007 29.9335H65.2244C64.7796 29.9335 64.4191 30.2941 64.4191 30.7388V35.6988C64.4191 36.1435 64.7796 36.5041 65.2244 36.5041H73.4007C73.8454 36.5041 74.206 36.1435 74.206 35.6988V30.7388C74.206 30.2941 73.8454 29.9335 73.4007 29.9335Z" fill="#C1DDCD"/>
</g>
<path d="M34.4877 105.878C34.4877 105.878 37.0874 107.783 39.6968 107.005C39.675 109.575 31.0223 110.011 28.8821 108.799C29.5254 105.089 31.3077 104.666 34.4877 105.878Z" fill="url(#paint0_linear_3437_17543)"/>
<path d="M34.2774 103.81C34.2774 103.81 34.2604 105.155 34.2774 105.829C34.2894 106.125 31.6535 106.362 30.4903 105.544L30.9135 103.926L33.518 102.995L34.2774 103.81Z" fill="url(#paint1_linear_3437_17543)"/>
<path d="M27.2885 7.50138C27.0104 5.36118 26.0793 2.37216 23.7409 1.72405C23.5716 1.68536 22.1109 1.637 22.2173 2.06745C21.5112 -0.817578 18.128 -0.198495 16.1982 1.01549C13.7436 2.5632 12.0484 5.2185 11.1609 7.93667C9.28667 17.1069 6.85386 25.7039 0.278501 32.7557C0.137401 32.9205 0.0454305 33.1217 0.0130662 33.3362C-0.0192982 33.5508 0.00924692 33.7701 0.0954462 33.9692C0.181645 34.1683 0.322035 34.3392 0.500623 34.4624C0.679211 34.5856 0.888814 34.6562 1.10556 34.6661C8.33144 34.9636 17.5355 37.1667 17.5355 37.1667C25.0371 31.7835 27.3611 17.1311 27.2885 7.50138Z" fill="url(#paint2_linear_3437_17543)"/>
<path d="M29.4649 78.8098C27.9849 86.7902 30.587 103.878 30.9159 103.917C32.9763 104.927 34.2725 103.801 34.2725 103.801C34.7562 96.3304 37.9532 56.6436 33.9074 48.4698L28.8773 47.0188C27.19 49.0766 26.0015 51.4966 25.4046 54.0899C24.3091 59.8213 28.5726 74.1497 29.4649 78.8098Z" fill="url(#paint3_linear_3437_17543)"/>
<path style="mix-blend-mode:multiply" opacity="0.5" d="M25.1507 56.7308C25.2619 61.3255 28.6403 75.446 29.4601 78.8098C28.6741 75.3081 27.9656 61.103 30.4975 54.6051C33.0295 48.1071 34.2531 50.6076 34.2531 50.6076L34.4152 50.3658C34.2825 49.7314 34.1145 49.1049 33.9122 48.4892L28.8821 47.0382C28.5387 47.0382 25.6174 53.7442 25.4094 54.1093C25.2241 54.9705 25.1373 55.85 25.1507 56.7308Z" fill="url(#paint4_linear_3437_17543)"/>
<path d="M47.7401 32.4171C48.1778 32.4026 48.7606 32.1487 49.162 32.1753C49.4377 32.4026 53.3747 29.7304 50.9346 30.6203C50.7196 30.7511 50.4939 30.8636 50.2599 30.9565C50.896 30.6808 53.4545 28.1948 51.3433 29.3459C50.4945 29.9964 50.376 30.2261 49.8561 30.3398C50.3156 30.2745 53.2731 26.751 51.1015 28.3036C50.3277 29.0847 50.2672 29.3096 49.7207 29.5127C50.1269 29.3193 51.7254 24.9373 50.2043 27.1525C49.6941 28.4729 49.5151 28.6035 48.734 29.329C48.734 29.329 48.1584 29.7328 48.0399 28.959C47.9214 28.1851 48.0593 27.6458 47.7981 27.3484C47.5369 27.0509 47.4692 27.0437 47.3773 27.1936C47.6361 28.2117 47.2008 28.1367 46.959 29.1621C46.78 29.8876 45.9916 30.1294 45.358 30.1681C45.7446 30.4972 46.0458 30.915 46.2357 31.3859C46.4256 31.8567 46.4987 32.3665 46.4487 32.8718C46.8888 32.7242 47.3217 32.5622 47.7546 32.4123L47.7401 32.4171Z" fill="url(#paint5_linear_3437_17543)"/>
<path d="M23.661 14.5217C23.661 14.5217 23.84 20.5843 25.8109 21.0728C25.8109 21.0728 23.3369 24.6011 19.7313 20.4272C19.7313 20.4272 19.8909 17.206 18.955 14.8264L23.661 14.5217Z" fill="url(#paint6_linear_3437_17543)"/>
<path d="M25.112 7.2063C24.3672 10.6088 28.0551 14.1105 23.9947 17.9049C22.6357 17.9049 17.2017 18.1854 16.2562 13.4842C15.9225 12.7079 14.6601 12.5169 14.9358 11.0998C15.2115 9.68264 15.9757 10.4275 15.9757 10.4275C15.9757 10.4275 15.9225 9.38035 15.9466 8.49284C15.9708 7.60532 25.112 7.2063 25.112 7.2063Z" fill="url(#paint7_linear_3437_17543)"/>
<path d="M25.112 7.20635C25.112 7.20635 23.661 12.8773 15.7169 10.5339C10.2056 8.90884 19.9973 5.84485 19.9973 5.84485L25.112 7.20635Z" fill="url(#paint8_linear_3437_17543)"/>
<path d="M16.0844 104.717C16.0844 104.717 16.1691 109.336 19.6732 110.388C17.9949 112.451 10.7255 107.206 9.77509 104.843C11.9443 102.874 13.7701 102.787 16.0844 104.717Z" fill="url(#paint9_linear_3437_17543)"/>
<path d="M16.6698 102.712C16.6698 102.712 16.2562 104.042 16.0845 104.717C16.0072 105.015 13.3228 104.475 12.4087 103.322L13.3035 101.839L16.1643 101.682L16.6698 102.712Z" fill="url(#paint10_linear_3437_17543)"/>
<path d="M18.3407 78.4181C16.1643 86.1567 13.6589 94.0935 13.1825 102.161C14.1498 102.911 15.2526 103.566 16.5101 103.143C22.8388 86.28 30.4153 66.7184 27.4577 48.3441C25.8447 47.8411 24.1592 46.9874 22.5558 46.2982C20.1037 48.8423 17.8861 51.7902 17.4774 55.8215C17.0469 62.8902 17.9756 71.3446 18.3407 78.4181Z" fill="url(#paint11_linear_3437_17543)"/>
<path d="M28.8821 21.9846C25.3151 29.1307 28.7031 33.8802 34.8771 36.8886L34.9762 36.8281C36.3135 37.0845 37.6363 36.4944 38.8914 35.9696C41.6749 34.7944 44.5744 33.9528 47.2757 32.584C46.6959 31.837 46.347 30.9367 46.2721 29.994C42.9445 30.6228 36.4369 31.8078 36.3135 31.8271C33.651 31.0387 28.8821 21.9846 28.8821 21.9846Z" fill="url(#paint12_linear_3437_17543)"/>
<path d="M14.7424 33.5344C16.0071 38.8232 17.8644 44.0758 19.9103 49.0696C25.0395 50.3682 34.674 48.7116 33.963 48.523C33.1045 45.8895 32.3379 40.0348 32.3984 36.55C32.1759 34.243 33.4286 32.1971 33.1674 29.8997C33.0005 28.1077 31.7551 27.0388 30.9909 25.5637C30.3912 24.4464 29.8132 23.3147 29.153 22.2433C27.8955 21.0076 25.6126 21.1333 24.4567 19.7259C24.5437 19.8758 25.4699 21.5299 23.8497 21.7548C21.088 22.0281 19.6829 20.374 19.6829 20.374C13.9105 21.8782 13.0205 28.5575 14.7424 33.5344Z" fill="url(#paint13_linear_3437_17543)"/>
<path style="mix-blend-mode:multiply" opacity="0.3" d="M30.0526 33.1668L29.7963 33.2708C29.8843 33.2428 29.97 33.208 30.0526 33.1668Z" fill="url(#paint14_linear_3437_17543)"/>
<path d="M34.4007 28.439L34.5385 28.5479C34.5 28.503 34.4532 28.466 34.4007 28.439Z" fill="url(#paint15_linear_3437_17543)"/>
<path style="mix-blend-mode:multiply" opacity="0.5" d="M19.6999 46.6343C17.9756 43.8098 31.5181 40.7313 32.6741 40.6853L32.5967 40.1315L26.1664 37.9091C24.3358 38.3396 20.7301 39.0554 19.3081 39.3601C19.2519 39.3725 19.1934 39.3707 19.1381 39.3548C19.0827 39.3389 19.0322 39.3095 18.9912 39.2691C18.9501 39.2288 18.9197 39.1788 18.9029 39.1237C18.886 39.0687 18.8832 39.0103 18.8946 38.9538C19.0687 38.0808 18.8946 37.6818 19.5911 37.5464C20.5995 37.3505 21.7482 37.2441 22.9331 37.1135L31.8663 36.8717V33.9697C21.7095 36.33 20.7663 28.1779 20.4447 29.67C20.1231 31.1621 20.9066 31.7666 20.9066 31.7666L22.435 35.7931C18.8269 35.6722 18.2924 30.3519 17.9369 29.6506C17.284 28.8429 17.6516 35.5198 15.1245 34.5259C16.0216 39.4568 18.1135 44.3998 19.9103 49.0357C25.0395 50.3343 34.674 48.6778 33.963 48.4892C24.8944 49.5677 21.1605 48.3078 19.6999 46.6343Z" fill="url(#paint16_linear_3437_17543)"/>
<path d="M81.3785 45.1012L34.1661 75.105C33.5776 75.4785 32.8648 75.6029 32.1846 75.451C31.5044 75.2991 30.9123 74.8832 30.5386 74.2949L12.3627 45.6985C11.9892 45.11 11.8647 44.3973 12.0167 43.717C12.1686 43.0368 12.5844 42.4447 13.1728 42.071L60.3829 12.0647C60.9711 11.6911 61.6836 11.5662 62.3638 11.7177C63.044 11.8692 63.6362 12.2845 64.0103 12.8725L82.1838 41.4713C82.3697 41.7624 82.4963 42.0873 82.5564 42.4274C82.6165 42.7675 82.6089 43.1161 82.5341 43.4533C82.4593 43.7904 82.3187 44.1095 82.1205 44.3923C81.9222 44.6751 81.67 44.916 81.3785 45.1012Z" fill="url(#paint17_linear_3437_17543)"/>
<g style="mix-blend-mode:screen">
<path style="mix-blend-mode:multiply" d="M28.2678 46.71L21.3674 51.0959C20.9921 51.3345 20.8812 51.8322 21.1197 52.2075L23.7803 56.3935C24.0189 56.7688 24.5166 56.8797 24.8919 56.6411L31.7923 52.2553C32.1677 52.0167 32.2786 51.519 32.04 51.1436L29.3794 46.9577C29.1408 46.5823 28.6431 46.4715 28.2678 46.71Z" fill="url(#paint18_linear_3437_17543)"/>
<path style="mix-blend-mode:multiply" d="M27.4387 37.4042L16.9157 44.0927C16.5403 44.3313 16.4294 44.8289 16.668 45.2043L17.8018 46.9881C18.0404 47.3634 18.538 47.4743 18.9134 47.2357L29.4364 40.5473C29.8118 40.3087 29.9227 39.811 29.6841 39.4357L28.5503 37.6519C28.3118 37.2766 27.8141 37.1657 27.4387 37.4042Z" fill="url(#paint19_linear_3437_17543)"/>
<path style="mix-blend-mode:multiply" d="M60.7612 16.224L50.2382 22.9125C49.8628 23.151 49.7519 23.6487 49.9905 24.0241L51.1243 25.8078C51.3628 26.1832 51.8605 26.2941 52.2359 26.0555L62.7589 19.3671C63.1343 19.1285 63.2452 18.6308 63.0066 18.2554L61.8728 16.4717C61.6343 16.0963 61.1366 15.9854 60.7612 16.224Z" fill="url(#paint20_linear_3437_17543)"/>
<path style="mix-blend-mode:multiply" d="M75.669 44.32C73.4079 45.8145 70.5688 48.095 68.4141 45.0455C68.1822 44.6817 68.0244 44.2757 67.9495 43.8508C67.8747 43.4259 67.8844 42.9904 67.9781 42.5692C68.0717 42.1481 68.2475 41.7495 68.4954 41.3964C68.7433 41.0432 69.0583 40.7424 69.4226 40.5112C71.6837 39.0167 74.5252 36.7338 76.6775 39.7857C76.9091 40.1496 77.0667 40.5556 77.1413 40.9805C77.216 41.4053 77.2062 41.8407 77.1126 42.2618C77.0189 42.6828 76.8432 43.0813 76.5956 43.4345C76.3479 43.7877 76.033 44.0886 75.669 44.32Z" fill="url(#paint21_linear_3437_17543)"/>
<path style="mix-blend-mode:multiply" d="M61.1108 44.7674C60.5716 44.661 29.4504 65.7582 28.916 64.7619L26.8484 61.5117C26.8207 61.4679 26.8019 61.419 26.7931 61.368C26.7844 61.3169 26.7857 61.2646 26.7972 61.2141C26.8087 61.1635 26.83 61.1157 26.8599 61.0734C26.8898 61.0312 26.9278 60.9952 26.9717 60.9676C27.5085 61.0764 58.6297 39.9792 59.1641 40.9731L61.2317 44.2233C61.2879 44.3115 61.3066 44.4183 61.284 44.5204C61.2613 44.6224 61.199 44.7113 61.1108 44.7674Z" fill="url(#paint22_linear_3437_17543)"/>
<path style="mix-blend-mode:multiply" d="M39.5856 62.8756L31.4649 68.0387C30.9135 68.4885 30.1203 66.4596 29.8447 66.225C29.7885 66.1368 29.7698 66.0299 29.7924 65.9279C29.8151 65.8259 29.8774 65.737 29.9656 65.6809C30.2558 65.7413 38.4949 59.6932 38.6328 60.6411C38.7319 61.0063 40.2264 62.5637 39.5856 62.8756Z" fill="url(#paint23_linear_3437_17543)"/>
<path style="mix-blend-mode:multiply" d="M53.9503 58.1212L33.4431 71.1631C33.3995 71.1912 33.3508 71.2104 33.2998 71.2195C33.2488 71.2287 33.1964 71.2276 33.1458 71.2163C33.0952 71.2051 33.0473 71.1839 33.0049 71.154C32.9626 71.1241 32.9266 71.0861 32.899 71.0422C32.8023 70.6843 31.3078 69.1245 31.9462 68.8077L52.4534 55.7755C53.0144 55.3257 53.7907 57.3546 54.0712 57.5868C54.1243 57.6742 54.1414 57.7787 54.1188 57.8785C54.0963 57.9782 54.0358 58.0652 53.9503 58.1212Z" fill="url(#paint24_linear_3437_17543)"/>
</g>
<path d="M39.6412 36.6032C40.1926 36.5862 40.9253 36.2694 41.4283 36.2936C41.9797 36.267 43.6773 35.2151 44.3641 34.6008C45.0509 33.9866 44.3255 33.9237 43.6508 34.3396C43.3796 34.5019 43.0957 34.6418 42.8019 34.758C43.5879 34.4122 46.855 31.2636 44.1634 32.7387C43.0994 33.5537 42.9543 33.8439 42.2965 33.9866C42.947 33.5924 44.1876 32.2454 44.6737 31.503C45.2154 30.6783 44.4319 30.8089 43.8611 31.4304C42.8938 32.4123 42.8116 32.6928 42.1272 32.9443C42.6109 32.3711 43.3219 30.6445 43.5274 29.7715C43.7523 28.8042 43.0728 29.1983 42.7391 29.9819C42.4053 30.7654 42.0136 31.6263 42.0136 31.6263L40.8915 32.717C40.8915 32.717 40.166 33.2248 40.0209 32.2551C39.8758 31.2853 40.0475 30.6082 39.7234 30.2334C39.3994 29.8585 39.3099 29.8513 39.1938 30.0375C39.5155 31.4014 38.9858 31.1475 38.6691 32.5066C38.4466 33.4134 37.472 33.7157 36.6619 33.7713C37.1478 34.1821 37.5264 34.705 37.7649 35.2949C38.0033 35.8848 38.0946 36.5239 38.0306 37.157C38.582 36.9756 39.1261 36.77 39.6678 36.5838L39.6412 36.6032Z" fill="url(#paint25_linear_3437_17543)"/>
<path d="M15.3687 23.5226C15.3687 23.5226 12.399 27.08 14.7109 34.2115C15.9031 37.5972 19.2065 39.7567 22.1617 41.5124C24.3091 42.7215 26.4445 41.9501 28.546 41.0626C32.038 39.5923 35.6727 38.5355 39.0608 36.8185C38.3346 35.8806 37.8953 34.7527 37.796 33.5707C33.622 34.3639 25.4627 35.8439 25.3103 35.8705C21.9682 34.8741 15.3687 23.5226 15.3687 23.5226Z" fill="url(#paint26_linear_3437_17543)"/>
</g>
<defs>
<linearGradient id="paint0_linear_3437_17543" x1="33.9751" y1="103.397" x2="34.3305" y2="108.526" gradientUnits="userSpaceOnUse">
<stop stop-color="#101B44"/>
<stop offset="0.14" stop-color="#14244A"/>
<stop offset="0.37" stop-color="#1D3C59"/>
<stop offset="0.66" stop-color="#2D6471"/>
<stop offset="0.99" stop-color="#439A93"/>
<stop offset="1" stop-color="#449C94"/>
</linearGradient>
<linearGradient id="paint1_linear_3437_17543" x1="33.2039" y1="102.294" x2="32.2688" y2="106.286" gradientUnits="userSpaceOnUse">
<stop stop-color="#EF877E"/>
<stop offset="1" stop-color="#FABEB2"/>
</linearGradient>
<linearGradient id="paint2_linear_3437_17543" x1="14.1088" y1="22.7077" x2="24.3817" y2="-18.8484" gradientUnits="userSpaceOnUse">
<stop stop-color="#5A3512"/>
<stop offset="1" stop-color="#B84C26"/>
</linearGradient>
<linearGradient id="paint3_linear_3437_17543" x1="31.9316" y1="55.1201" x2="27.4505" y2="105.658" gradientUnits="userSpaceOnUse">
<stop stop-color="#101B44"/>
<stop offset="0.14" stop-color="#14244A"/>
<stop offset="0.37" stop-color="#1D3C59"/>
<stop offset="0.66" stop-color="#2D6471"/>
<stop offset="0.99" stop-color="#439A93"/>
<stop offset="1" stop-color="#449C94"/>
</linearGradient>
<linearGradient id="paint4_linear_3437_17543" x1="34.4127" y1="62.9095" x2="25.1482" y2="62.9095" gradientUnits="userSpaceOnUse">
<stop stop-color="#101B44"/>
<stop offset="0.14" stop-color="#14244A"/>
<stop offset="0.37" stop-color="#1D3C59"/>
<stop offset="0.66" stop-color="#2D6471"/>
<stop offset="0.99" stop-color="#439A93"/>
<stop offset="1" stop-color="#449C94"/>
</linearGradient>
<linearGradient id="paint5_linear_3437_17543" x1="40.2346" y1="31.5744" x2="51.6407" y2="27.8417" gradientUnits="userSpaceOnUse">
<stop stop-color="#EF877E"/>
<stop offset="1" stop-color="#FABEB2"/>
</linearGradient>
<linearGradient id="paint6_linear_3437_17543" x1="17.0612" y1="11.946" x2="18.126" y2="17.4028" gradientUnits="userSpaceOnUse">
<stop stop-color="#EF877E"/>
<stop offset="1" stop-color="#FABEB2"/>
</linearGradient>
<linearGradient id="paint7_linear_3437_17543" x1="20.5699" y1="4.51089" x2="24.2937" y2="14.7371" gradientUnits="userSpaceOnUse">
<stop stop-color="#EF877E"/>
<stop offset="1" stop-color="#FABEB2"/>
</linearGradient>
<linearGradient id="paint8_linear_3437_17543" x1="17.475" y1="16.7224" x2="25.0637" y2="-13.9731" gradientUnits="userSpaceOnUse">
<stop stop-color="#5A3512"/>
<stop offset="1" stop-color="#B84C26"/>
</linearGradient>
<linearGradient id="paint9_linear_3437_17543" x1="18.2133" y1="101.676" x2="14.9569" y2="106.324" gradientUnits="userSpaceOnUse">
<stop stop-color="#101B44"/>
<stop offset="0.14" stop-color="#14244A"/>
<stop offset="0.37" stop-color="#1D3C59"/>
<stop offset="0.66" stop-color="#2D6471"/>
<stop offset="0.99" stop-color="#439A93"/>
<stop offset="1" stop-color="#449C94"/>
</linearGradient>
<linearGradient id="paint10_linear_3437_17543" x1="13.3507" y1="102.925" x2="11.2327" y2="106.601" gradientUnits="userSpaceOnUse">
<stop stop-color="#EF877E"/>
<stop offset="1" stop-color="#FABEB2"/>
</linearGradient>
<linearGradient id="paint11_linear_3437_17543" x1="23.8997" y1="54.6194" x2="11.8249" y2="104.216" gradientUnits="userSpaceOnUse">
<stop stop-color="#101B44"/>
<stop offset="0.14" stop-color="#14244A"/>
<stop offset="0.37" stop-color="#1D3C59"/>
<stop offset="0.66" stop-color="#2D6471"/>
<stop offset="0.99" stop-color="#439A93"/>
<stop offset="1" stop-color="#449C94"/>
</linearGradient>
<linearGradient id="paint12_linear_3437_17543" x1="21.8599" y1="29.5805" x2="52.595" y2="28.9606" gradientUnits="userSpaceOnUse">
<stop stop-color="#F37321"/>
<stop offset="1" stop-color="#FEDC5D"/>
</linearGradient>
<linearGradient id="paint13_linear_3437_17543" x1="-42.9986" y1="12.2494" x2="-47.3565" y2="-25.3369" gradientUnits="userSpaceOnUse">
<stop stop-color="#F37321"/>
<stop offset="1" stop-color="#FEDC5D"/>
</linearGradient>
<linearGradient id="paint14_linear_3437_17543" x1="30.3713" y1="33.2316" x2="30.3732" y2="33.1239" gradientUnits="userSpaceOnUse">
<stop stop-color="#E55E25"/>
<stop offset="1" stop-color="#F9A349"/>
</linearGradient>
<linearGradient id="paint15_linear_3437_17543" x1="34.8738" y1="28.358" x2="34.9437" y2="28.4897" gradientUnits="userSpaceOnUse">
<stop stop-color="#42C1C5"/>
<stop offset="1" stop-color="#0898D0"/>
</linearGradient>
<linearGradient id="paint16_linear_3437_17543" x1="-43.5109" y1="12.3048" x2="-47.8641" y2="-25.2308" gradientUnits="userSpaceOnUse">
<stop stop-color="#F37321"/>
<stop offset="1" stop-color="#FEDC5D"/>
</linearGradient>
<linearGradient id="paint17_linear_3437_17543" x1="56.7913" y1="16.1615" x2="36.5043" y2="74.5935" gradientUnits="userSpaceOnUse">
<stop stop-color="#0EAFE6"/>
<stop offset="1" stop-color="#2F99D5"/>
</linearGradient>
<linearGradient id="paint18_linear_3437_17543" x1="40.6821" y1="11.0562" x2="20.6121" y2="68.8603" gradientUnits="userSpaceOnUse">
<stop stop-color="#0EAFE6"/>
<stop offset="1" stop-color="#2F99D5"/>
</linearGradient>
<linearGradient id="paint19_linear_3437_17543" x1="34.7881" y1="8.8753" x2="14.6903" y2="66.7573" gradientUnits="userSpaceOnUse">
<stop stop-color="#0EAFE6"/>
<stop offset="1" stop-color="#2F99D5"/>
</linearGradient>
<linearGradient id="paint20_linear_3437_17543" x1="58.0571" y1="16.6447" x2="37.9612" y2="74.5254" gradientUnits="userSpaceOnUse">
<stop stop-color="#0EAFE6"/>
<stop offset="1" stop-color="#2F99D5"/>
</linearGradient>
<linearGradient id="paint21_linear_3437_17543" x1="79.0366" y1="23.7139" x2="58.58" y2="82.6319" gradientUnits="userSpaceOnUse">
<stop stop-color="#0EAFE6"/>
<stop offset="1" stop-color="#2F99D5"/>
</linearGradient>
<linearGradient id="paint22_linear_3437_17543" x1="56.7262" y1="16.3204" x2="36.528" y2="74.4954" gradientUnits="userSpaceOnUse">
<stop stop-color="#0EAFE6"/>
<stop offset="1" stop-color="#2F99D5"/>
</linearGradient>
<linearGradient id="paint23_linear_3437_17543" x1="51.9741" y1="14.736" x2="31.7731" y2="72.9157" gradientUnits="userSpaceOnUse">
<stop stop-color="#0EAFE6"/>
<stop offset="1" stop-color="#2F99D5"/>
</linearGradient>
<linearGradient id="paint24_linear_3437_17543" x1="59.0763" y1="17.0016" x2="38.8023" y2="75.391" gradientUnits="userSpaceOnUse">
<stop stop-color="#0EAFE6"/>
<stop offset="1" stop-color="#2F99D5"/>
</linearGradient>
<linearGradient id="paint25_linear_3437_17543" x1="30.3486" y1="35.6542" x2="44.6483" y2="30.9738" gradientUnits="userSpaceOnUse">
<stop stop-color="#EF877E"/>
<stop offset="1" stop-color="#FABEB2"/>
</linearGradient>
<linearGradient id="paint26_linear_3437_17543" x1="-45.5869" y1="12.5789" x2="-49.952" y2="-25.0406" gradientUnits="userSpaceOnUse">
<stop stop-color="#F37321"/>
<stop offset="1" stop-color="#FEDC5D"/>
</linearGradient>
<clipPath id="clip0_3437_17543">
<rect width="82.7059" height="111" fill="white"/>
</clipPath>
</defs>
</svg>
