<svg width="57" height="119" viewBox="0 0 57 119" fill="none" xmlns="http://www.w3.org/2000/svg">
<g clip-path="url(#clip0_3437_17604)">
<path d="M1.72323 107.989C1.78019 107.989 1.82292 107.989 1.87989 107.961L4.07311 107.325C4.21553 107.282 4.32947 107.198 4.40068 107.056C4.47189 106.929 4.48613 106.788 4.4434 106.646L4.14432 105.643C4.1016 105.501 4.01615 105.388 3.87373 105.318C3.74556 105.247 3.60314 105.233 3.46072 105.275L1.26749 105.911C0.982658 105.996 0.811756 106.293 0.897209 106.59L1.19629 107.593C1.26749 107.834 1.48112 107.989 1.72323 107.989ZM1.72323 107.466C1.70898 107.466 1.69475 107.466 1.69475 107.452L1.39567 106.448C1.39567 106.434 1.39567 106.42 1.40991 106.42L3.60314 105.784C3.61738 105.784 3.63162 105.784 3.63162 105.798L3.93069 106.802C3.93069 106.816 3.9307 106.83 3.91646 106.83L1.72323 107.466ZM55.3006 81.2462C55.4003 81.2462 55.5143 81.2179 55.5997 81.1614C55.7279 81.0766 55.7991 80.9635 55.8418 80.8222L56.0555 79.8045C56.1124 79.5076 55.9273 79.2249 55.6282 79.1543L53.3922 78.702C53.2498 78.6737 53.1074 78.702 52.9792 78.7868C52.8511 78.8716 52.7656 78.9846 52.7371 79.126L52.5235 80.1437C52.495 80.285 52.5235 80.4264 52.609 80.5536C52.6944 80.6808 52.8083 80.7656 52.9508 80.7939L55.1867 81.2462H55.3006ZM53.2783 79.2108L55.5143 79.6631C55.5285 79.6631 55.5285 79.6772 55.5285 79.6914L55.3149 80.7091C55.3149 80.7232 55.3006 80.7232 55.2864 80.7232L53.0504 80.2709C53.0362 80.2709 53.0362 80.2568 53.0362 80.2426L53.2498 79.2249C53.2641 79.2108 53.2641 79.2108 53.2783 79.2108ZM1.72323 76.8927C1.78019 76.8927 1.82292 76.8786 1.87989 76.8644L4.07311 76.2284C4.21553 76.186 4.32947 76.1012 4.40068 75.9598C4.47189 75.8326 4.48613 75.6913 4.4434 75.5499L4.14432 74.5464C4.1016 74.405 4.01615 74.2919 3.87373 74.2213C3.74556 74.1506 3.5889 74.1364 3.46072 74.1789L1.26749 74.8149C0.982658 74.8997 0.811756 75.1965 0.897209 75.4934L1.19629 76.4969C1.23901 76.6383 1.32446 76.7514 1.46688 76.822C1.53809 76.8644 1.63778 76.8927 1.72323 76.8927ZM1.72323 76.3697C1.70898 76.3697 1.69475 76.3697 1.69475 76.3556L1.39567 75.352C1.39567 75.3379 1.39567 75.3238 1.40991 75.3238L3.60314 74.6877C3.61738 74.6877 3.63162 74.6877 3.63162 74.7018L3.93069 75.7054C3.93069 75.7195 3.9307 75.7337 3.91646 75.7337L1.72323 76.3697ZM55.3006 50.1499C55.557 50.1499 55.7849 49.9661 55.8418 49.7117L56.0555 48.694C56.1124 48.3972 55.9273 48.1145 55.6282 48.0438L53.3922 47.5915C53.2498 47.5632 53.1074 47.5915 52.9792 47.6763C52.8511 47.7611 52.7656 47.8742 52.7371 48.0155L52.5235 49.0332C52.495 49.1746 52.5235 49.3159 52.609 49.4431C52.6944 49.5704 52.8083 49.6552 52.9508 49.6834L55.1867 50.1357C55.2294 50.1499 55.2579 50.1499 55.3006 50.1499ZM53.2783 48.1145L55.5143 48.5668C55.5285 48.5668 55.5285 48.5809 55.5285 48.5951L55.3149 49.6128C55.3149 49.6269 55.3006 49.6269 55.2864 49.6269L53.0504 49.1746C53.0362 49.1746 53.0362 49.1604 53.0362 49.1463L53.2498 48.1286C53.2641 48.1145 53.2641 48.1145 53.2783 48.1145ZM1.72323 94.4339C1.78019 94.4339 1.82292 94.4197 1.87989 94.4056L4.07311 93.7695C4.21553 93.7271 4.32947 93.6423 4.40068 93.501C4.47189 93.3738 4.48613 93.2324 4.4434 93.0911L4.14432 92.0875C4.1016 91.9462 4.01615 91.8331 3.87373 91.7624C3.74556 91.6917 3.5889 91.6776 3.46072 91.72L1.26749 92.3561C0.982658 92.4409 0.811756 92.7377 0.897209 93.0345L1.19629 94.0381C1.23901 94.1794 1.32446 94.2925 1.46688 94.3632C1.53809 94.4056 1.63778 94.4339 1.72323 94.4339ZM1.72323 93.9109C1.70898 93.9109 1.69475 93.9109 1.69475 93.8968L1.39567 92.8932C1.39567 92.8791 1.39567 92.8649 1.40991 92.8649L3.60314 92.2289L3.88797 92.1723L3.63162 92.243L3.93069 93.2466C3.93069 93.2607 3.9307 93.2748 3.91646 93.2748L1.72323 93.9109ZM55.3006 67.691C55.4003 67.691 55.5143 67.6628 55.5997 67.6062C55.7279 67.5214 55.8133 67.4083 55.8418 67.267L56.0555 66.2493C56.0839 66.1079 56.0555 65.9666 55.97 65.8394C55.8845 65.7122 55.7706 65.6274 55.6282 65.5991L53.3922 65.1468C53.2498 65.1185 53.1074 65.1468 52.9792 65.2316C52.8511 65.3164 52.7656 65.4295 52.7371 65.5708L52.5235 66.5885C52.495 66.7299 52.5235 66.8712 52.609 66.9984C52.6944 67.1256 52.8083 67.2105 52.9508 67.2387L55.1867 67.691H55.3006ZM53.2783 65.6556L55.5143 66.1079C55.5285 66.1079 55.5285 66.1221 55.5285 66.1362L55.3149 67.1539C55.3149 67.168 55.3006 67.168 55.2864 67.168L53.0504 66.7157C53.0362 66.7157 53.0362 66.7016 53.0362 66.6875L53.2498 65.6698C53.2641 65.6556 53.2641 65.6556 53.2783 65.6556ZM1.83716 62.122C1.89413 62.122 1.93686 62.1078 1.99382 62.0937L4.11584 61.288C4.25826 61.2315 4.35795 61.1325 4.41492 61.0053C4.47189 60.8781 4.47188 60.7226 4.42916 60.5813L4.04463 59.606C3.98767 59.4646 3.88797 59.3657 3.7598 59.3092C3.63162 59.2526 3.47496 59.2526 3.33255 59.295L1.21053 60.1007C0.925694 60.2138 0.783276 60.5247 0.897209 60.8074L1.28174 61.7827C1.3387 61.9241 1.4384 62.023 1.56657 62.0796C1.65202 62.1078 1.75171 62.122 1.83716 62.122ZM1.80868 61.599C1.79444 61.599 1.7802 61.599 1.7802 61.5848L1.39567 60.6095C1.39567 60.5954 1.39567 60.5813 1.40991 60.5813L3.53193 59.7756L3.80252 59.6908L3.56041 59.7897L3.94494 60.765C3.94494 60.7792 3.94494 60.7933 3.93069 60.7933L1.80868 61.599ZM54.7737 34.4604C54.8734 34.4604 54.9873 34.4321 55.0728 34.3756C55.2009 34.2907 55.2864 34.1777 55.3149 34.0363L55.5285 33.0186C55.557 32.8773 55.5285 32.7359 55.4431 32.6087C55.3576 32.4815 55.2437 32.3967 55.1013 32.3684L52.8653 31.9161C52.7229 31.8878 52.5805 31.9161 52.4523 32.0009C52.3241 32.0857 52.2387 32.1988 52.2102 32.3402L51.9966 33.3579C51.9681 33.4992 51.9966 33.6406 52.082 33.7678C52.1675 33.895 52.2814 33.9798 52.4238 34.0081L54.6598 34.4604H54.7737ZM52.7514 32.4108L54.9873 32.8631C55.0016 32.8631 55.0016 32.8773 55.0016 32.8914L54.7879 33.9091C54.7879 33.9232 54.7737 33.9232 54.7595 33.9232L52.5235 33.4709C52.5093 33.4709 52.5093 33.4568 52.5093 33.4427L52.7229 32.425C52.7229 32.425 52.7371 32.4108 52.7514 32.4108Z" fill="#AEC7E6"/>
<path d="M28.7967 80.3982C27.8853 80.9212 27.1447 82.1791 27.1589 83.2251L27.2017 97.3033C27.2017 98.3351 27.9422 98.7591 28.8537 98.2362L37.0712 93.5293C37.9827 93.0063 38.7232 91.7483 38.709 90.7024L38.6663 76.6242C38.6663 75.5924 37.9257 75.1683 37.0142 75.6913L28.7967 80.3982Z" fill="#FBCD56"/>
<path d="M18.5712 89.2182C18.0301 89.5291 17.6028 90.2641 17.6028 90.8861L17.6455 103.805C17.6455 104.413 18.087 104.667 18.614 104.356L21.0208 102.985C21.562 102.674 21.9893 101.939 21.9893 101.317L21.9465 88.3984C21.9465 87.7906 21.505 87.5361 20.9781 87.8471L18.5712 89.2182Z" fill="#ED4944"/>
<path d="M45.1748 11.8873C44.6336 12.1983 44.2063 12.9333 44.2063 13.5552L44.3203 54.3621C44.3203 54.9699 44.7617 55.2243 45.2887 54.9133L48.8491 52.8638C49.3903 52.5528 49.8176 51.8178 49.8176 51.1959L49.7036 10.389C49.7036 9.78124 49.2621 9.52681 48.7352 9.83777L45.1748 11.8873Z" fill="#FBCD56"/>
<path d="M27.8853 42.4182C26.4184 44.7787 25.4927 47.5209 25.507 49.9662C25.5212 54.5599 28.7968 56.4257 32.8272 54.1076C36.8576 51.8037 40.119 46.1922 40.1048 41.5984C40.1048 39.1531 39.1648 37.4852 37.6837 36.8068C36.3877 38.8846 34.6786 40.6938 32.7845 41.7822C30.9046 42.8423 29.1813 43.0119 27.8853 42.4182Z" fill="#FB3F3F"/>
<path d="M18.4716 51.1676C17.9304 51.4785 17.5031 52.2135 17.5031 52.8355L17.5459 65.7546C17.5459 66.3624 17.9874 66.6168 18.5143 66.3058L20.9212 64.9348C21.4623 64.6238 21.8896 63.8888 21.8896 63.2669L21.8469 50.3478C21.8469 49.74 21.4054 49.4856 20.8784 49.7965L18.4716 51.1676Z" fill="#ED4944"/>
<path d="M32.756 25.1173C28.7255 27.4213 25.4642 33.0328 25.4784 37.6266C25.4784 40.0719 26.4184 41.7397 27.8995 42.4182C29.1955 43.0119 30.9188 42.8423 32.8129 41.768C34.7071 40.6796 36.4161 38.8845 37.7121 36.7926C39.179 34.4321 40.1047 31.69 40.0904 29.2447C40.062 24.6509 36.7864 22.7993 32.756 25.1173Z" fill="#F8FB4E"/>
<path d="M18.4145 32.1423C17.8733 32.4533 17.4461 33.1883 17.4461 33.8102L17.4888 46.7293C17.4888 47.3371 17.9303 47.5915 18.4573 47.2806L20.8641 45.9095C21.4053 45.5985 21.8326 44.8635 21.8326 44.2416L21.7898 31.3225C21.7898 30.7147 21.3483 30.4603 20.8214 30.7712L18.4145 32.1423Z" fill="#ED4944"/>
<path d="M6.02424 26.8559C4.52886 27.7181 3.30407 29.81 3.31831 31.5062L3.54618 117.078C3.54618 118.788 4.78521 119.481 6.26635 118.618L51.5836 92.667C53.0789 91.8048 54.3037 89.7129 54.2895 88.0167L54.0616 2.44528C54.0616 0.734978 52.8226 0.0423787 51.3414 0.904595L6.02424 26.8559ZM25.5069 49.9661C25.5069 47.5208 26.4184 44.7928 27.8853 42.4182C26.4042 41.7397 25.4785 40.0718 25.4642 37.6265C25.45 33.0328 28.7113 27.4213 32.7417 25.1173C36.7722 22.8134 40.0478 24.665 40.062 29.2588C40.062 31.7041 39.1505 34.4321 37.6836 36.8067C39.1648 37.4852 40.0905 39.1531 40.1047 41.5984C40.119 46.1922 36.8576 51.8036 32.8272 54.1076C28.7968 56.4115 25.5212 54.5599 25.5069 49.9661ZM44.306 54.362L44.1921 13.5551C44.1921 12.9474 44.6193 12.1982 45.1605 11.8873L48.7352 9.85186C49.2764 9.54089 49.7036 9.79532 49.7036 10.4031L49.8176 51.21C49.8176 51.8178 49.3903 52.5669 48.8491 52.8779L45.2745 54.9274C44.7475 55.2101 44.306 54.9698 44.306 54.362ZM27.2017 97.3032L27.159 83.2251C27.159 82.1932 27.8853 80.9211 28.7968 80.3981L37.0143 75.6913C37.9257 75.1683 38.6663 75.5923 38.6663 76.6242L38.709 90.7023C38.709 91.7341 37.9827 93.0063 37.0712 93.5293L28.8537 98.2361C27.9423 98.7591 27.2017 98.335 27.2017 97.3032ZM7.87567 103.848L7.76174 65.6415C7.76174 65.0337 8.18899 64.2846 8.73018 63.9736L9.88375 63.3093C10.4249 62.9983 10.8522 63.2527 10.8664 63.8605L10.9804 102.067C10.9804 102.674 10.5531 103.424 10.0119 103.734L8.85835 104.399C8.31716 104.696 7.87567 104.455 7.87567 103.848ZM17.5885 84.7799L17.5458 71.8608C17.5458 71.253 17.9731 70.5038 18.5142 70.1929L20.9211 68.8218C21.4623 68.5108 21.8895 68.7653 21.8895 69.3731L21.9323 82.2922C21.9323 82.9 21.505 83.6491 20.9638 83.9601L18.557 85.3311C18.03 85.6421 17.5885 85.3877 17.5885 84.7799ZM17.4746 46.7293L17.4319 33.8102C17.4319 33.2024 17.8591 32.4532 18.4003 32.1423L20.8072 30.7712C21.3484 30.4602 21.7756 30.7147 21.7756 31.3225L21.8326 44.2416C21.8326 44.8494 21.4053 45.5985 20.8641 45.9095L18.4573 47.2805C17.9161 47.5915 17.4888 47.3371 17.4746 46.7293ZM17.6455 103.805L17.6028 90.8861C17.6028 90.2783 18.03 89.5291 18.5712 89.2182L20.9781 87.8471C21.5193 87.5361 21.9465 87.7906 21.9465 88.3984L21.9892 101.317C21.9892 101.925 21.562 102.674 21.0208 102.985L18.6139 104.356C18.087 104.667 17.6455 104.413 17.6455 103.805ZM17.5316 65.7546L17.4888 52.8355C17.4888 52.2277 17.9161 51.4785 18.4573 51.1676L20.8641 49.7965C21.4053 49.4855 21.8326 49.74 21.8326 50.3478L21.8753 63.2669C21.8753 63.8747 21.448 64.6238 20.9069 64.9348L18.5 66.3058C17.9731 66.6168 17.5316 66.3624 17.5316 65.7546Z" fill="#FF8666"/>
<path d="M18.5285 70.1929C17.9873 70.5039 17.5601 71.2389 17.5601 71.8608L17.6028 84.7799C17.6028 85.3877 18.0443 85.6422 18.5712 85.3312L20.9781 83.9601C21.5193 83.6492 21.9465 82.9142 21.9465 82.2922L21.9038 69.3731C21.9038 68.7653 21.4623 68.5109 20.9354 68.8219L18.5285 70.1929ZM8.74444 63.9737C8.20326 64.2846 7.776 65.0196 7.776 65.6416L7.8757 103.848C7.8757 104.455 8.31719 104.71 8.84413 104.399L9.99772 103.735C10.5389 103.424 10.9662 102.674 10.9662 102.067L10.8522 63.8606C10.8522 63.2528 10.4107 62.9984 9.86954 63.3093L8.74444 63.9737Z" fill="#ED4944"/>
<path d="M2.3926 30.6583C2.3926 30.6159 2.40685 30.5876 2.40685 30.5452C2.42109 30.4745 2.42109 30.4039 2.43533 30.3332C2.43533 30.2908 2.44957 30.2484 2.46381 30.206C2.47805 30.1353 2.49229 30.0788 2.50653 30.0081C2.52078 29.9657 2.53502 29.9092 2.54926 29.8668C2.5635 29.8102 2.57774 29.7537 2.59199 29.7113C2.59199 29.6971 2.59199 29.6971 2.60623 29.683C2.64896 29.5558 2.69168 29.4286 2.73441 29.2872C2.74865 29.259 2.76289 29.2307 2.76289 29.2024C2.80561 29.1035 2.84834 28.9904 2.89106 28.8915C2.9053 28.8491 2.93379 28.8067 2.94803 28.7642C2.99076 28.6794 3.03348 28.5805 3.09045 28.4957C3.10469 28.4533 3.13317 28.4109 3.14742 28.3826C3.21862 28.2695 3.27559 28.1565 3.36104 28.0434L3.37528 28.0292C3.38952 28.0151 3.38953 28.001 3.40377 27.9868C3.46074 27.902 3.5177 27.8172 3.57467 27.7466C3.60315 27.7183 3.61739 27.69 3.64587 27.6476C3.6886 27.5911 3.73132 27.5345 3.78829 27.478C3.81678 27.4497 3.84526 27.4073 3.87374 27.379C3.91647 27.3225 3.95919 27.2801 4.01616 27.2236C4.04464 27.1953 4.07313 27.1529 4.11586 27.1246L4.25827 26.9833C4.28675 26.955 4.32948 26.9267 4.35796 26.8985C4.40069 26.8561 4.45765 26.8137 4.51462 26.7713C4.54311 26.743 4.57159 26.7147 4.61432 26.6865L4.78521 26.5592C4.8137 26.5451 4.84218 26.5168 4.87067 26.5027L5.12702 26.3331L50.4015 0.36765C50.4157 0.36765 50.43 0.353515 50.43 0.353515C50.5012 0.311111 50.5724 0.268707 50.6436 0.240437C50.6579 0.226303 50.6721 0.226303 50.7006 0.212168C50.786 0.169764 50.8572 0.141494 50.9427 0.113225H50.9569C51.0281 0.0849557 51.1136 0.070821 51.1848 0.0566863C51.199 0.0566863 51.2133 0.0566863 51.2275 0.0425516C51.2987 0.0284169 51.3699 0.0142822 51.4411 0.0142822H51.6975C51.7687 0.0142822 51.8257 0.0284169 51.8969 0.0425516C51.9111 0.0425516 51.9396 0.0566863 51.9538 0.0566863C51.9966 0.070821 52.0535 0.0849557 52.0963 0.0990904C52.1105 0.0990904 52.139 0.113225 52.1532 0.113225L52.3241 0.198033L53.2498 0.735152L53.0789 0.650343C53.0647 0.650343 53.0505 0.636209 53.022 0.636209C52.9793 0.622074 52.9223 0.607939 52.8796 0.593805C52.8796 0.57967 52.8511 0.565535 52.8368 0.565535C52.7656 0.551401 52.7087 0.537266 52.6375 0.537266H52.3811C52.3099 0.537266 52.2387 0.551401 52.1675 0.565535C52.1532 0.565535 52.139 0.565535 52.1248 0.57967C52.0535 0.593805 51.9823 0.622074 51.8969 0.636209H51.8826C51.7972 0.664478 51.726 0.692748 51.6405 0.735152C51.6263 0.749286 51.612 0.749286 51.5836 0.763421L51.3272 0.890633L6.02425 26.8561L5.7679 27.0257C5.73941 27.0398 5.71093 27.0681 5.68245 27.0822L5.51154 27.2094C5.48306 27.2377 5.44034 27.266 5.41185 27.2942C5.35489 27.3366 5.31216 27.379 5.25519 27.4215C5.22671 27.4497 5.18398 27.478 5.1555 27.5063L5.01308 27.6476C4.9846 27.6759 4.95612 27.7183 4.91339 27.7466C4.87067 27.8031 4.82794 27.8455 4.77097 27.902C4.74249 27.9303 4.71401 27.9727 4.68552 28.001C4.6428 28.0575 4.58583 28.1141 4.54311 28.1847C4.51462 28.213 4.50038 28.2413 4.4719 28.2837C4.41493 28.3685 4.35796 28.4392 4.30099 28.524C4.28675 28.5381 4.28675 28.5522 4.27251 28.5664C4.27251 28.5805 4.25827 28.5805 4.25827 28.5946L4.04465 28.9339C4.01616 28.9763 4.00192 29.0045 3.98768 29.0469C3.94495 29.1318 3.88799 29.2307 3.84526 29.3155C3.83102 29.3579 3.80253 29.4003 3.78829 29.4427C3.74557 29.5417 3.70284 29.6406 3.66012 29.7537C3.64587 29.7819 3.63164 29.8102 3.63164 29.8385C3.58891 29.9657 3.53194 30.0929 3.50346 30.2343C3.48922 30.2908 3.47498 30.3615 3.46074 30.418C3.44649 30.4604 3.43225 30.517 3.41801 30.5594C3.40377 30.63 3.38952 30.6866 3.37528 30.7572C3.36104 30.7996 3.36104 30.8421 3.3468 30.8845C3.33256 30.9551 3.33256 31.0258 3.31832 31.0965C3.31832 31.1389 3.30407 31.1671 3.30407 31.2096C3.28983 31.3226 3.28983 31.4216 3.28983 31.5205L3.5177 117.092C3.5177 117.94 3.83102 118.534 4.31524 118.816L3.38953 118.279C2.9053 117.997 2.59199 117.403 2.59199 116.555L2.36412 30.9834C2.3926 30.8845 2.3926 30.7714 2.3926 30.6583Z" fill="#ED4944"/>
<path opacity="0.25" d="M32.5424 27.7888C30.577 28.5521 28.7256 31.591 29.4662 35.4074C30.221 39.2238 31.6736 39.1672 31.6309 39.5771C31.5882 39.987 30.577 42.4889 30.2352 42.7574C29.8934 43.0401 25.4785 45.1745 24.7949 45.6126C24.1113 46.0508 23.7267 48.1004 23.8264 50.0227C23.9261 51.9591 24.4531 62.4188 24.4673 64.1574C24.4816 65.9101 25.4642 73.8396 25.507 74.3344C25.5497 74.8291 25.5212 75.7761 25.5782 76.2143C25.6351 76.6524 25.5782 79.6631 25.7348 80.4829C25.8915 81.3169 26.746 83.0272 28.398 82.5042C28.398 82.5042 28.7683 84.8506 28.811 85.2322C28.8538 85.6138 28.6401 102.448 28.811 103.692C28.9819 104.936 28.8965 105.671 28.8965 105.671L38.823 99.9888C38.823 99.9888 41.0874 76.8645 41.358 75.5923C41.6286 74.3343 44.2633 73.6841 44.9042 72.8361C45.5451 71.988 46.0151 70.8289 45.773 67.8324C45.5308 64.8217 43.5512 57.1748 43.5512 57.1748C43.5512 57.1748 41.6713 40.1567 41.2441 39.4216C40.8168 38.6866 39.8911 38.2061 39.1648 38.3757C38.4385 38.5453 37.1709 39.1672 36.8719 38.9835C36.5728 38.7997 37.47 36.4958 37.5412 33.6688C37.6124 30.6299 37.5697 25.8382 32.5424 27.7888Z" fill="black"/>
<path d="M46.6275 68.3412L46.1575 69.5851C46.1433 69.6275 46.1005 69.6699 46.0578 69.6982L45.5593 70.0657C45.5166 70.0939 45.4739 70.1081 45.4312 70.1081C45.3742 70.1081 45.303 70.1222 45.2175 70.1222C44.833 70.1788 44.7618 69.6275 45.1606 69.3731C45.1606 69.3731 45.2318 69.2035 45.303 69.1186C45.303 69.1186 45.4881 68.4543 45.5166 68.3271C45.6163 68.0444 46.7556 68.002 46.6275 68.3412Z" fill="#F2A29B"/>
<path d="M46.0435 68.7229L45.8299 70.6028C45.8299 70.6593 45.8014 70.7159 45.7729 70.7583L45.246 71.3519C45.2175 71.3943 45.1748 71.4226 45.132 71.4367C44.9611 71.5216 44.4912 71.7336 44.4484 71.7477C44.3203 71.8184 43.893 71.5781 44.1351 71.1823C44.306 70.9138 44.4199 70.8431 44.4199 70.8431L44.7617 70.3908C44.7617 70.3908 44.7902 69.0339 44.7902 68.8501C44.776 68.6805 46.0862 68.2706 46.0435 68.7229Z" fill="#F2A29B"/>
<path d="M45.3741 69.0904L45.2887 71.3661C45.2887 71.4368 45.2602 71.5074 45.2175 71.564L44.6051 72.299C44.5481 72.3838 44.4627 72.4403 44.3772 72.4827C44.1778 72.5817 43.9072 72.7937 43.8788 72.822C43.7506 72.8926 43.3091 72.6806 43.5369 72.2707C43.6936 71.988 43.8503 71.9032 43.8503 71.9032C43.8503 71.9032 44.0781 71.5216 44.1921 71.2247C44.1921 71.2247 44.2348 69.8961 44.2063 69.7123C44.2063 69.5286 45.4026 68.6381 45.3741 69.0904Z" fill="#F2A29B"/>
<path d="M44.3773 69.8537L44.2491 71.4509C44.2491 71.5498 44.2206 71.6346 44.1636 71.7053C44.0355 71.9173 43.7933 72.1859 43.7221 72.2424C43.6652 72.2848 43.1667 72.8502 42.9673 72.8926C42.7679 72.9492 42.711 72.6382 42.711 72.4403C42.711 72.0304 42.9388 71.8325 42.9388 71.8325L43.1952 71.3661C43.1952 71.3661 43.1382 70.3908 43.1382 70.1222C43.1382 69.8819 44.3915 69.6134 44.3773 69.8537Z" fill="#FFC5B3"/>
<path d="M42.3977 64.3836C42.4546 64.7652 42.4689 65.4719 42.4546 65.6415C42.4262 65.8253 42.184 66.4614 42.2553 67.2529C42.3265 68.0444 43.1525 69.4155 43.1525 70.1505C43.1525 70.2777 44.3773 70.0798 45.3742 69.5286C45.8869 69.2459 46.2429 68.737 46.5563 68.4261C46.6275 68.3554 46.6702 68.2706 46.6417 68.1858C46.5705 67.9455 46.3996 67.4225 46.0436 66.5603C45.7587 65.8677 45.6448 65.0762 44.9897 64.426C44.9897 64.426 44.7903 64.2281 44.7903 63.8606C44.8045 63.2528 42.298 63.7475 42.3977 64.3836Z" fill="#FFC5B3"/>
<path d="M42.3549 66.0514C42.3549 66.0514 42.184 66.532 42.0274 66.956C41.9704 67.0974 41.7283 68.3978 41.6998 68.5109C41.6713 68.6239 41.9134 70.6876 41.9989 70.9279C42.0843 71.1682 42.7395 71.677 42.7964 71.7901C42.8534 71.9032 43.7506 71.5781 43.0528 70.3908L42.9531 69.2741C42.9389 69.2741 42.8249 65.8394 42.3549 66.0514Z" fill="#FFC5B3"/>
<path d="M44.0924 43.5914C44.1352 45.7823 44.2064 54.249 44.2064 54.249C44.4485 55.6342 45.3315 63.5637 45.5308 64.6662C45.7302 65.7687 42.1698 66.8006 41.8422 65.2881L39.1078 54.8143C39.1078 54.8143 35.5616 40.2556 36.7295 39.6195C40.4608 37.5417 44.0212 39.2944 44.0924 43.5914Z" fill="#AEC7E6"/>
<path d="M43.01 104.696C45.246 105.982 46.072 107.551 44.5339 108.441C42.8107 109.431 40.7598 108.993 38.9227 107.947C37.0855 106.901 36.6867 105.812 35.8464 105.233C34.9919 104.667 33.7814 104.328 33.7814 103.155C33.7814 101.968 34.1659 100.738 34.1802 99.692C34.2086 98.646 37.4558 98.1513 38.0112 99.4517C38.5809 100.752 39.8769 102.886 43.01 104.696Z" fill="#071F3B"/>
<path d="M44.0924 66.009C44.0924 66.009 43.8076 75.3379 41.1871 85.628C41.1871 85.628 39.7772 99.6213 39.7772 101.628C39.7772 103.127 33.6959 103.042 33.6959 101.063C33.6959 99.0842 33.3114 91.7907 34.0805 85.1898C34.0805 85.1898 33.2544 72.5958 33.2544 65.9808C33.2544 59.3657 44.0924 61.5142 44.0924 66.009Z" fill="#114077"/>
<path d="M34.0947 85.1898C33.3114 91.7907 33.7102 99.0842 33.7102 101.063V101.162C33.7102 101.219 33.7244 101.275 33.7387 101.332C33.7387 101.346 33.7529 101.374 33.7529 101.388C33.8384 101.628 34.0377 101.84 34.2941 102.01C34.3226 102.024 34.3511 102.038 34.3795 102.067C34.4365 102.109 34.5077 102.137 34.5789 102.18C34.6359 102.208 34.7071 102.236 34.7783 102.265C34.8353 102.293 34.8922 102.307 34.9492 102.335L35.0774 102.378L35.2056 102.42C35.2483 102.434 35.2768 102.434 35.3195 102.448C35.6898 102.547 36.1028 102.618 36.5158 102.646L37.9115 86.7588L40.3753 70.2494C41.6856 69.9385 43.1667 69.3448 43.95 68.4119C44.0639 66.8995 44.0924 66.009 44.0924 66.009C44.0924 61.5283 33.2544 59.3657 33.2544 65.9808C33.2544 72.5958 34.0947 85.1898 34.0947 85.1898Z" fill="#0C3461"/>
<path d="M39.5921 107.72C40.7172 108.427 41.2868 109.459 40.8026 110.335C40.3326 111.226 37.0998 112.328 35.2626 111.282C33.4254 110.236 32.9981 108.766 32.1436 108.201C31.2891 107.636 29.6371 106.83 29.6371 105.643C29.6371 104.455 30.0216 103.226 30.0359 102.18C30.0643 101.134 33.3115 100.639 33.8669 101.939C34.4508 103.254 37.171 106.194 39.5921 107.72Z" fill="#071F3B"/>
<path d="M39.763 67.9596C39.763 67.9596 39.293 76.61 36.6725 86.9001C36.6725 86.9001 35.3765 101.416 35.3765 103.424C35.3765 105.007 29.4235 105.106 29.4235 103.735C29.4235 101.756 28.868 91.5363 29.6371 84.9354C29.6371 84.9354 27.1733 75.8043 28.1275 67.8182C28.8965 61.2597 40.2472 62.6732 39.763 67.9596Z" fill="#114077"/>
<path d="M29.637 84.9495C28.8537 91.5504 29.4092 101.77 29.4092 103.749C29.4092 104.116 29.8222 104.371 30.4346 104.526C30.2067 98.1231 30.933 84.9919 30.933 84.9919C30.933 84.9919 31.1894 77.8398 31.3888 76.8504C31.5882 75.8609 30.3064 73.67 30.2637 73.6135C30.2067 73.557 30.2637 71.5498 30.2637 71.5498C30.2637 71.5498 30.2922 71.8184 33.3826 71.9739C35.8464 72.1011 38.5239 71.2247 39.5066 70.8572C39.6917 69.0339 39.7487 67.9738 39.7487 67.9738C40.2329 62.7015 28.8822 61.2739 28.1132 67.8466C27.1875 75.8185 29.637 84.9495 29.637 84.9495Z" fill="#0C3461"/>
<path d="M41.828 40.6796C40.7884 39.252 38.0397 38.828 36.5158 39.7185C35.6044 40.2556 34.3511 40.9623 33.1405 41.6549C31.3034 42.7009 27.686 44.7363 26.8599 45.2169C26.0482 45.6833 25.0512 46.4042 26.8742 51.6764C27.6005 53.7542 29.2098 60.7368 29.0532 62.9418L27.8569 67.7476C27.8569 68.5956 28.5974 70.3342 33.7672 71.041C37.4131 71.5357 44.1921 67.9313 44.1779 65.9807C44.1637 64.7227 43.0528 62.8146 43.067 60.6095C43.0955 53.4574 45.8727 46.1922 41.828 40.6796Z" fill="#E9F0F7"/>
<path d="M26.8741 51.6765C27.6005 53.7543 29.2098 60.7368 29.0531 62.9418L27.8568 67.7476C27.8568 68.4968 28.4407 69.9668 32.229 70.7724C31.7306 68.4968 31.346 64.8641 31.4173 63.8323C31.5027 62.4612 30.9046 53.8391 30.9046 53.8391L26.4611 50.3619C26.5608 50.7718 26.7032 51.21 26.8741 51.6765Z" fill="#AEC7E6"/>
<path d="M37.3133 43.1956L38.2675 42.4324L38.6663 44.072C38.6663 44.072 39.4923 48.6516 40.6317 62.3482L39.5493 64.9631L37.7975 63.9736C38.4384 54.9274 37.4273 44.6798 37.4273 44.6798L35.6613 43.7752C36.0601 43.6621 37.3133 43.1956 37.3133 43.1956Z" fill="#404369"/>
<path d="M32.343 38.9834C32.1721 41.245 31.403 42.6443 31.403 42.6443C31.403 42.6443 34.1517 44.9059 37.2991 43.1956C39.0936 42.2203 37.0997 40.9906 36.5158 39.1389C35.8892 37.1459 34.935 37.3297 34.0662 37.4993C32.8272 37.7396 32.4142 38.0081 32.343 38.9834Z" fill="#FFC5B3"/>
<path d="M37.9115 42.6726C37.8403 42.7715 37.7691 42.8422 37.6978 42.927C37.6694 42.9553 37.6266 42.9836 37.5839 43.026C37.5839 43.026 37.5697 43.026 37.5697 43.0401C37.5412 43.0684 37.4985 43.0966 37.4557 43.1108H37.4415C37.3988 43.139 37.3418 43.1673 37.2848 43.1956C34.1374 44.9059 31.3888 42.6443 31.3888 42.6443C31.3888 42.6443 31.6878 42.0931 31.9584 41.1319C34.1374 42.4464 35.9176 42.5313 35.9176 42.5313C33.7244 42.0507 32.286 39.6054 32.286 39.6054L32.2717 39.5912C32.3002 39.3934 32.3145 39.1955 32.3287 38.9834C32.3999 38.0081 32.8129 37.7396 34.0377 37.4993C34.9207 37.3297 35.8749 37.1459 36.4873 39.1389C37 40.6796 38.4527 41.7821 37.9115 42.6726Z" fill="#F2A29B"/>
<path d="M37.2991 43.1956C37.2991 43.1956 37.057 45.1886 37.2991 45.867C37.2991 45.867 32.6991 45.5561 30.8904 42.9412C30.8904 42.9412 35.9604 44.3122 37.2991 43.1956Z" fill="#AEC7E6"/>
<path d="M37.2991 43.1956C37.2991 43.1956 36.8007 44.2275 36.9288 45.5561C36.9288 45.5561 32.3145 44.9201 30.8761 42.9412L31.9727 41.132C31.9727 41.132 33.7387 42.8988 37.2991 43.1956Z" fill="#E9F0F7"/>
<path d="M37.2992 43.1956C37.2992 43.1956 39.2218 43.7752 39.6063 44.6374C39.6063 44.6374 39.649 40.5949 37.0001 40.1567C36.9858 40.1567 38.1821 41.8811 37.2992 43.1956Z" fill="#AEC7E6"/>
<path d="M37.2991 43.1956C37.2991 43.1956 38.5381 43.1249 39.4638 44.0578C39.4638 44.0578 39.535 41.033 36.7152 39.6054C36.7152 39.6054 38.0681 41.9942 37.2991 43.1956Z" fill="#E9F0F7"/>
<path d="M30.7195 35.1954C31.5028 38.517 32.8415 39.7609 33.9808 40.4676C36.0031 41.7115 36.7152 42.3193 38.0255 42.0507C39.236 41.8104 40.0336 41.3157 40.6602 38.0506C40.9023 36.8209 41.472 33.8808 41.6002 32.8207C41.8138 31.167 41.2014 30.0221 40.2472 29.2729C39.1078 28.3824 37.94 27.8171 35.5759 27.7888C32.5994 27.7605 29.8792 31.5769 30.7195 35.1954Z" fill="#FFC5B3"/>
<path d="M40.1047 34.0788C36.2879 35.2378 33.7244 34.4604 33.8383 35.2095L33.8526 37.7397C33.8526 37.8103 33.7814 37.8527 33.7244 37.8245C33.4538 37.7255 33.2687 37.4994 33.2117 37.2308C33.055 36.3827 32.6278 34.6583 31.759 35.3085C30.463 36.2555 32.3572 38.9835 32.3572 38.9835C32.3572 38.9835 30.634 37.8245 30.0216 34.4604C29.4234 31.1812 31.1467 30.3048 31.1467 30.3048C31.1467 30.3048 32.7987 27.1386 36.0031 27.3789C39.3072 27.6192 40.4607 28.8065 40.8453 29.4567C41.0874 29.8525 41.4719 30.1776 41.9276 30.2341C42.0701 30.2483 42.2267 30.2483 42.3834 30.22C42.3834 30.2059 42.7822 33.2731 40.1047 34.0788Z" fill="#114077"/>
<path d="M40.1047 34.7996C36.2879 35.9587 33.7244 34.4745 33.8383 35.2237L33.8526 37.7538C33.8526 37.8245 33.7814 37.8669 33.7244 37.8386C33.4538 37.7397 33.2687 37.5135 33.2117 37.2449C33.055 36.3969 32.6278 34.6724 31.759 35.3226C30.4631 36.2696 32.3572 38.9976 32.3572 38.9976C32.3572 38.9976 30.634 37.8386 30.0216 34.4745C29.9646 34.1777 29.9361 33.895 29.9076 33.6406C31.7021 34.0364 32.7417 32.849 32.7417 32.849C32.7417 32.849 35.9319 33.683 38.9796 33.1459C42.0273 32.6088 42.3834 30.2341 42.3834 30.2341C42.3834 30.2341 42.7822 33.9798 40.1047 34.7996Z" fill="#0C3461"/>
<path d="M29.4947 74.0234C29.4947 74.0234 30.278 74.3202 30.4346 74.7443C30.4916 74.8856 30.9188 76.186 30.9473 76.2991C30.9758 76.4122 30.6767 77.9953 30.5913 78.2356C30.5058 78.4758 29.8507 78.9847 29.7937 79.0978C29.7368 79.2108 28.8395 78.8857 29.5374 77.6984L29.6086 76.5253C29.6086 76.5253 28.099 76.6242 27.8996 75.239C27.7002 73.8538 29.0247 73.8114 29.4947 74.0234Z" fill="#F2A29B"/>
<path d="M30.2779 78.7585L30.2067 80.0306C30.2067 80.1296 30.1782 80.2144 30.1213 80.2851C29.9931 80.4971 29.7368 80.907 29.6655 80.9494C29.6086 80.9918 29.281 81.1614 29.0816 81.2179C28.8822 81.2745 28.8395 81.1614 28.811 80.9777C28.7683 80.6808 29.1244 80.4264 29.1244 80.4264L29.281 79.9882C29.281 79.9882 29.4092 79.0695 29.4092 78.8009C29.395 78.5324 30.2922 78.5041 30.2779 78.7585Z" fill="#FFC5B3"/>
<path d="M29.4661 78.9846L29.3237 80.4971C29.3237 80.5677 29.2952 80.6384 29.2525 80.6949L28.9107 81.3027C28.8679 81.3875 28.7967 81.4582 28.7113 81.5006C28.5119 81.5996 28.1559 81.7975 28.1131 81.8116C27.985 81.8823 27.5435 81.6702 27.7713 81.2603C27.928 80.9776 27.9992 80.8928 27.9992 80.8928C27.9992 80.8928 28.1559 80.7091 28.2698 80.4123C28.2698 80.4123 28.3125 79.0836 28.284 78.8998C28.284 78.7302 29.5088 78.5323 29.4661 78.9846Z" fill="#FFC5B3"/>
<path d="M28.4549 78.9422L28.2983 80.5112C28.2983 80.5677 28.2698 80.6243 28.2413 80.6667L27.7428 81.2886C27.7143 81.331 27.6716 81.3593 27.6289 81.3734C27.458 81.4582 26.988 81.6702 26.9453 81.6844C26.8171 81.7551 26.3899 81.5148 26.632 81.119C26.8029 80.8504 26.9168 80.7798 26.9168 80.7798L27.2444 80.3274C27.2444 80.3274 27.2728 78.9705 27.2728 78.7868C27.2728 78.6172 28.5119 78.4899 28.4549 78.9422Z" fill="#FFC5B3"/>
<path d="M27.5293 78.8716L27.2871 80.2568C27.2729 80.3133 27.2587 80.3557 27.2159 80.3981L26.8884 80.7515C26.8599 80.7798 26.8172 80.808 26.7744 80.8222C26.7175 80.8363 26.6463 80.8646 26.5751 80.8928C26.219 81.0342 26.0196 80.5112 26.3472 80.172C26.3472 80.172 26.3757 79.9882 26.4184 79.8893C26.4184 79.8893 26.4469 79.2108 26.4469 79.0695C26.4611 78.7585 27.572 78.5182 27.5293 78.8716Z" fill="#FFC5B3"/>
<path d="M26.276 73.2036C26.3329 73.5287 26.5038 74.2354 26.4753 74.4192C26.4469 74.6029 26.0481 75.7054 26.1335 76.5111C26.2047 77.3026 26.4326 78.5182 26.4326 79.2532C26.4326 79.4511 29.3807 79.4228 30.2779 78.7585C30.2779 78.7585 30.4488 76.4828 30.0785 75.3379C29.8506 74.617 29.7225 74.3909 29.4661 73.9668C29.4661 73.9668 29.2098 73.147 29.1385 72.7937C28.9676 71.9739 26.1763 72.6806 26.276 73.2036Z" fill="#FFC5B3"/>
<path d="M26.5323 45.4289C28.9249 44.072 31.8587 47.4643 31.346 49.9379C30.8333 52.4115 29.8934 64.6239 29.8934 64.6239C29.8934 67.1681 29.8079 73.9245 29.8079 73.9245C29.8079 74.9705 26.1193 74.9705 26.1193 74.0517C26.1193 72.5958 25.1224 63.8323 25.1224 63.8323C25.1224 63.8323 24.4958 50.4044 24.6239 48.8071C24.7521 47.2099 25.0085 46.2912 26.5323 45.4289Z" fill="#E9F0F7"/>
<path d="M24.6097 49.8248C24.6382 53.3726 25.1224 63.8323 25.1224 63.8323C25.1224 63.8323 26.1193 72.5958 26.1193 74.0517C26.1193 74.8574 28.9107 74.9563 29.637 74.2779C27.5862 74.2213 27.3299 73.7831 26.8456 73.0905C26.3614 72.3838 25.7205 64.0443 25.8345 63.4365C25.9484 62.8146 24.6097 49.8248 24.6097 49.8248Z" fill="#AEC7E6"/>
<path d="M54.1756 69.5144C54.3038 69.5144 54.432 69.472 54.5317 69.3731L56.2407 67.8748C56.3546 67.7758 56.4116 67.6486 56.4258 67.4932C56.4401 67.3518 56.3831 67.2105 56.2834 67.0974L55.5856 66.3058C55.4859 66.1928 55.3577 66.1362 55.2011 66.1221C55.0586 66.1079 54.9162 66.1645 54.8023 66.2634L53.0933 67.7617C52.9793 67.8607 52.9224 67.9879 52.9081 68.1433C52.8939 68.2847 52.9509 68.426 53.0506 68.5391L53.7484 69.3307C53.8481 69.4437 53.9763 69.5003 54.1329 69.5144H54.1756ZM55.2011 66.6733H55.2153L55.9131 67.4649V67.4932L54.2041 68.9914H54.1756L53.4778 68.1999V68.1716L55.2011 66.6733C55.1868 66.6733 55.1868 66.6733 55.2011 66.6733ZM50.8004 73.0481C50.9285 73.0481 51.0567 73.0057 51.1564 72.9067L52.8654 71.4085C52.9793 71.3095 53.0363 71.1823 53.0506 71.0268C53.0648 70.8855 53.0078 70.7441 52.9081 70.6311L52.2103 69.8395C52.1106 69.7264 51.9824 69.6699 51.8258 69.6558C51.6833 69.6416 51.5409 69.6982 51.427 69.7971L49.718 71.2954C49.6041 71.3943 49.5471 71.5215 49.5328 71.677C49.5186 71.8184 49.5756 71.9597 49.6753 72.0728L50.3731 72.8643C50.5013 72.9774 50.6437 73.0481 50.8004 73.0481ZM50.8146 72.511H50.7861L50.0883 71.7194V71.6912L51.7973 70.1929H51.8258L52.5236 70.9844V71.0127L50.8146 72.511ZM46.7557 75.6489C46.8412 75.6489 46.9266 75.6347 47.0121 75.5923L49.0344 74.5605C49.1626 74.4898 49.2622 74.3767 49.305 74.2354C49.3477 74.0941 49.3335 73.9527 49.2765 73.8255L48.7923 72.8926C48.6499 72.624 48.3223 72.5251 48.0517 72.6523L46.0294 73.6841C45.7588 73.8255 45.6591 74.1506 45.7873 74.4192L46.2715 75.352C46.3569 75.5358 46.5563 75.6489 46.7557 75.6489ZM46.7557 75.1259C46.7415 75.1259 46.7272 75.1259 46.7272 75.1118L46.243 74.1789C46.243 74.1647 46.243 74.1506 46.2572 74.1506L48.2796 73.1188C48.2938 73.1188 48.3081 73.1188 48.3081 73.1329L48.7923 74.0658C48.7923 74.0799 48.7923 74.0941 48.778 74.0941L46.7557 75.1259Z" fill="#AEC7E6"/>
<path d="M52.5093 71.2247C52.6518 71.2247 52.7942 71.1682 52.8939 71.0551L54.432 69.26C54.6171 69.048 54.5886 68.737 54.375 68.5533L53.9478 68.1857C53.7341 68.002 53.4208 68.0303 53.2357 68.2423L51.6976 70.0374C51.6121 70.1363 51.5694 70.2636 51.5836 70.4049C51.5979 70.5321 51.6548 70.6593 51.7545 70.7441L52.1818 71.1116C52.2815 71.1823 52.3954 71.2247 52.5093 71.2247ZM54.019 68.9349L52.5236 70.6876L52.1391 70.3625L53.6344 68.6098L54.019 68.9349ZM48.6926 74.1365C48.7923 74.1365 48.8777 74.1082 48.9632 74.0517L50.9428 72.8078C51.1849 72.6523 51.2561 72.3414 51.0994 72.1011L50.7434 71.5498C50.6722 71.4367 50.5582 71.3519 50.4158 71.3237C50.2734 71.2954 50.1452 71.3095 50.0313 71.3943L48.0517 72.6382C47.8096 72.7937 47.7384 73.1046 47.895 73.3449L48.2511 73.8962C48.3223 74.0092 48.4362 74.0941 48.5786 74.1223C48.6214 74.1365 48.6498 74.1365 48.6926 74.1365ZM50.3304 71.8466L50.6579 72.3979L48.6926 73.6135L48.3508 73.0764L50.3304 71.8466ZM42.8107 78.3062C42.9247 78.3062 43.0244 78.2779 43.124 78.2072L45.004 76.921C45.1179 76.8362 45.2033 76.709 45.2318 76.5676C45.2603 76.4263 45.2318 76.2849 45.1464 76.1577L44.5482 75.2955C44.4628 75.1824 44.3346 75.0976 44.1922 75.0693C44.0498 75.0411 43.9073 75.0693 43.7792 75.1542L41.8993 76.4404C41.6429 76.61 41.5859 76.9493 41.7568 77.2037L42.355 78.0659C42.4689 78.2214 42.6398 78.3062 42.8107 78.3062ZM44.0925 75.5923C44.0925 75.5923 44.1067 75.5923 44.1067 75.6065L44.7049 76.4687V76.497L42.825 77.7832H42.7965L42.1983 76.921V76.8927L44.0925 75.5923C44.0782 75.5923 44.0782 75.5923 44.0925 75.5923ZM38.4528 80.0872C38.5382 80.0872 38.6237 80.073 38.6949 80.0306L40.7172 78.9988C40.8454 78.9281 40.9451 78.815 40.9878 78.6737C41.0305 78.5323 41.0163 78.391 40.9593 78.2638L40.4751 77.3309C40.3327 77.0623 40.0051 76.9634 39.7345 77.0906L37.6979 78.1224C37.4273 78.2638 37.3277 78.5889 37.4558 78.8574L37.9401 79.7903C38.0113 79.9175 38.1252 80.0165 38.2676 80.0589C38.3388 80.073 38.3958 80.0872 38.4528 80.0872ZM38.467 79.5642C38.4528 79.5642 38.4385 79.5642 38.4385 79.55L37.9543 78.6172C37.9543 78.603 37.9543 78.5889 37.9685 78.5889L40.0051 77.5571C40.0193 77.5571 40.0336 77.5571 40.0336 77.5712L40.5178 78.5041C40.5178 78.5182 40.5178 78.5323 40.5036 78.5323L38.467 79.5642Z" fill="#AEC7E6"/>
<path d="M44.7476 76.7372C44.833 76.7372 44.9327 76.709 45.0039 76.6666L47.0405 75.4369C47.1544 75.3662 47.2399 75.2531 47.2684 75.1259C47.2968 74.9987 47.2826 74.8573 47.2114 74.7442L46.9123 74.2637C46.7699 74.0234 46.4566 73.9527 46.2145 74.0941L44.1921 75.3238C43.95 75.4651 43.8788 75.7761 44.0212 76.0164L44.3203 76.497C44.4058 76.6524 44.5767 76.7372 44.7476 76.7372ZM46.7414 74.9987L44.7618 76.2001L44.4912 75.7619L46.4708 74.5605L46.7414 74.9987ZM40.2899 78.6454C40.3326 78.6454 40.3754 78.6454 40.4181 78.6313L42.6968 78.08C42.8249 78.0518 42.9389 77.967 43.0101 77.8398C43.0813 77.7267 43.1098 77.5853 43.067 77.444L42.9104 76.8079C42.8819 76.6807 42.7964 76.5676 42.6683 76.497C42.5543 76.4263 42.4119 76.398 42.2695 76.4404L39.9908 76.9917C39.8626 77.0199 39.7487 77.1047 39.6775 77.232C39.6063 77.345 39.5778 77.4864 39.6205 77.6277L39.7772 78.2638C39.8342 78.4899 40.0478 78.6454 40.2899 78.6454ZM42.4119 76.9493L42.5543 77.5712L40.3041 78.1083L40.1475 77.4864L42.4119 76.9493ZM34.6074 82.5042C34.7214 82.5042 34.8211 82.4759 34.9208 82.4053L36.8007 81.1331C36.9289 81.0483 37.0001 80.9211 37.0285 80.7798C37.057 80.6384 37.0285 80.4971 36.9431 80.3699L36.3449 79.5076C36.2595 79.3804 36.1313 79.3098 35.9889 79.2815C35.8465 79.2532 35.7041 79.2815 35.5759 79.3663L33.696 80.6384C33.5678 80.7232 33.4966 80.8504 33.4681 80.9918C33.4396 81.1331 33.4681 81.2745 33.5536 81.4017L34.1517 82.2639C34.2372 82.3911 34.3653 82.4618 34.5078 82.4901C34.5362 82.5042 34.579 82.5042 34.6074 82.5042ZM35.9034 79.8045C35.9034 79.8045 35.9177 79.8045 35.9177 79.8186L36.5158 80.6808V80.7091L34.6359 81.9812H34.6074L34.0093 81.119V81.0907L35.9034 79.8045C35.8892 79.8045 35.8892 79.8045 35.9034 79.8045ZM30.2637 84.5961C30.3207 84.5961 30.3919 84.582 30.4489 84.5679L32.5851 83.7905C32.7275 83.7339 32.8272 83.635 32.8984 83.5078C32.9554 83.3805 32.9696 83.2251 32.9127 83.0837L32.5566 82.1084C32.4569 81.8257 32.1436 81.6844 31.8588 81.7833L29.7225 82.5607C29.5801 82.6173 29.4804 82.7162 29.4092 82.8434C29.3522 82.9706 29.338 83.1261 29.395 83.2675L29.751 84.2428C29.8222 84.4548 30.0358 84.5961 30.2637 84.5961ZM30.2637 84.059C30.2495 84.059 30.2352 84.059 30.2352 84.0449L29.8792 83.0696C29.8792 83.0555 29.8792 83.0413 29.8934 83.0413L32.0297 82.2639C32.0439 82.2639 32.0582 82.2639 32.0582 82.278L32.4142 83.2533C32.4142 83.2675 32.4142 83.2816 32.4 83.2816L30.2637 84.059Z" fill="#AEC7E6"/>
<path d="M36.3735 80.9352C36.4589 80.9352 36.5444 80.907 36.6156 80.8646L38.6806 79.7197C38.9227 79.5783 39.0082 79.2815 38.88 79.0412L38.6094 78.5465C38.5382 78.4334 38.4385 78.3486 38.3103 78.3062C38.1822 78.2638 38.0398 78.292 37.9258 78.3486L35.8608 79.4935C35.6187 79.6348 35.5332 79.9317 35.6614 80.172L35.932 80.6667C36.0032 80.7798 36.1029 80.8646 36.2311 80.907C36.2738 80.9352 36.3165 80.9352 36.3735 80.9352ZM38.3958 79.2815L36.3735 80.4123L36.1171 79.9741L38.1394 78.8433L38.3958 79.2815ZM32.3715 83.3381C32.4427 83.3381 32.514 83.324 32.5852 83.2957L34.7072 82.3063C34.9635 82.1791 35.0775 81.8823 34.9635 81.6278L34.6787 81.0342C34.6217 80.907 34.522 80.8222 34.3796 80.7656C34.2515 80.7232 34.109 80.7232 33.9809 80.7798L31.8588 81.7692C31.7307 81.8257 31.6452 81.9247 31.5882 82.066C31.5455 82.1932 31.5455 82.3346 31.6025 82.4618L31.8873 83.0554C31.987 83.2251 32.1722 83.3381 32.3715 83.3381ZM34.223 81.2603L34.4793 81.8399L32.3715 82.801L32.1009 82.2215L34.223 81.2603ZM26.7318 87.5644C26.8742 87.5644 27.0024 87.522 27.1021 87.4231L28.7969 85.9106C28.9108 85.8117 28.9678 85.6845 28.982 85.529C28.9962 85.3877 28.9393 85.2463 28.8396 85.1332L28.1417 84.3558C28.0421 84.2428 27.9139 84.1862 27.7572 84.1721C27.6148 84.1579 27.4724 84.2145 27.3584 84.3134L25.6637 85.8258C25.5497 85.9248 25.4928 86.052 25.4785 86.2075C25.4643 86.3488 25.5213 86.4902 25.621 86.6033L26.3188 87.3807C26.4185 87.4937 26.5467 87.5503 26.7033 87.5644H26.7318ZM27.7145 84.7092H27.7287L28.4266 85.4866V85.5149L26.7318 87.0273H26.7033L26.0055 86.2499V86.2216L27.7145 84.7092ZM22.3169 89.3454C22.3738 89.3454 22.4451 89.3312 22.502 89.3171L24.6383 88.5397C24.9231 88.4408 25.0655 88.1298 24.9658 87.8471L24.6098 86.8718C24.5101 86.5891 24.1968 86.4478 23.912 86.5467L21.7757 87.3241C21.6333 87.3807 21.5336 87.4796 21.4624 87.6068C21.4054 87.734 21.3912 87.8895 21.4481 88.0309L21.8042 89.0061C21.8754 89.204 22.089 89.3454 22.3169 89.3454ZM24.0971 87.0273C24.1113 87.0273 24.1113 87.0273 24.1113 87.0414L24.4674 88.0167C24.4674 88.0309 24.4674 88.045 24.4531 88.045L22.3169 88.8224C22.3026 88.8224 22.2884 88.8224 22.2884 88.8083L21.9323 87.833L21.9466 87.8047L24.0971 87.0273Z" fill="#AEC7E6"/>
<path d="M28.455 85.7552C28.5689 85.7552 28.6829 85.7128 28.7683 85.6421L30.6197 84.1721C30.7194 84.0873 30.7906 83.9742 30.8049 83.8329C30.8191 83.7056 30.7764 83.5643 30.7052 83.4654L30.3492 83.0272C30.1783 82.8152 29.8507 82.7728 29.6371 82.9424L27.7856 84.4124C27.6859 84.4972 27.6147 84.6103 27.6005 84.7516C27.5863 84.8788 27.629 85.0202 27.7002 85.1191L28.0562 85.5573C28.1559 85.6986 28.2983 85.7552 28.455 85.7552ZM30.2779 83.7904L28.4692 85.2181L28.1559 84.8223L29.9504 83.3947L30.2779 83.7904ZM24.2679 88.2005C24.3249 88.2005 24.3961 88.1863 24.4531 88.1722L26.6463 87.3383C26.7745 87.2959 26.8742 87.1969 26.9311 87.0697C26.9881 86.9425 26.9881 86.8011 26.9454 86.6739L26.7033 86.0661C26.6605 85.9389 26.5609 85.84 26.4327 85.7834C26.3045 85.7269 26.1621 85.7269 26.0339 85.7693L23.8407 86.6033C23.5701 86.7022 23.4419 86.999 23.5416 87.2676L23.7837 87.8754C23.8549 88.0733 24.0543 88.2005 24.2679 88.2005ZM26.219 86.264L26.4327 86.8718L24.2679 87.6916L24.0401 87.098L26.219 86.264ZM18.1155 90.8437C18.1867 90.8437 18.2579 90.8295 18.3291 90.8013L20.4227 89.8966C20.5508 89.8401 20.6648 89.727 20.7217 89.5998C20.7787 89.4585 20.7787 89.3171 20.7217 89.1758L20.3087 88.2146C20.2518 88.0874 20.1378 87.9743 20.0097 87.9178C19.8672 87.8612 19.7248 87.8612 19.5824 87.9178L17.4889 88.8224C17.3607 88.8789 17.2468 88.992 17.1898 89.1192C17.1328 89.2606 17.1328 89.4019 17.1898 89.5433L17.6028 90.5044C17.6598 90.6316 17.7737 90.7447 17.9019 90.8013C17.9731 90.8295 18.0443 90.8437 18.1155 90.8437ZM19.7818 88.4125C19.796 88.4125 19.796 88.4125 19.796 88.4266L20.209 89.3878C20.209 89.4019 20.209 89.4161 20.1948 89.4161L18.1013 90.3207C18.087 90.3207 18.0728 90.3207 18.0728 90.3065L17.6598 89.3454C17.6598 89.3312 17.6598 89.3171 17.674 89.3171L19.7818 88.4125ZM13.4869 91.7341C13.5297 91.7341 13.5866 91.7342 13.6294 91.72L15.8226 91.1122C15.965 91.0698 16.0789 90.985 16.1501 90.8578C16.2214 90.7306 16.2356 90.5892 16.1929 90.4479L15.908 89.4443C15.8653 89.303 15.7799 89.1899 15.6517 89.1192C15.5235 89.0486 15.3811 89.0344 15.2387 89.0768L13.0454 89.6846C12.7606 89.7694 12.5897 90.0663 12.6609 90.3631L12.9458 91.3666C13.0312 91.5787 13.2448 91.7341 13.4869 91.7341ZM13.5012 91.197C13.4869 91.197 13.4727 91.197 13.4727 91.1829L13.1879 90.1793C13.1879 90.1652 13.1879 90.1511 13.2021 90.1511L15.3953 89.5433L15.4238 89.5574L15.7086 90.561L15.6944 90.5892L13.5012 91.197Z" fill="#AEC7E6"/>
<path d="M20.3088 89.6705C20.3657 89.6705 20.4227 89.6564 20.4797 89.6422L22.7014 88.8366C22.9577 88.7376 23.1002 88.4549 23.0005 88.2005L22.8011 87.6775C22.7584 87.5503 22.6587 87.4514 22.5447 87.3948C22.4166 87.3383 22.2884 87.3383 22.1602 87.3807L19.9385 88.1864C19.6821 88.2853 19.5397 88.568 19.6394 88.8224L19.8388 89.3454C19.8815 89.4726 19.9812 89.5716 20.0951 89.6281C20.1664 89.6564 20.2376 89.6705 20.3088 89.6705ZM22.502 88.3418L20.323 89.1334L20.1521 88.6528L22.3311 87.8613L22.502 88.3418ZM15.5663 90.6741H15.5948L17.9304 90.5751C18.2152 90.561 18.4431 90.3207 18.4289 90.038L18.4004 89.3878C18.4004 89.2465 18.3292 89.1193 18.2295 89.0345C18.1298 88.9355 18.0016 88.8931 17.8592 88.8931L15.5236 88.992C15.2387 89.0062 15.0108 89.2465 15.0251 89.5292L15.0536 90.1794C15.0536 90.3207 15.1248 90.4479 15.2245 90.5327C15.3099 90.6317 15.4381 90.6741 15.5663 90.6741ZM17.8734 89.4161L17.8877 90.0521L15.5663 90.137L15.5378 89.5009L17.8734 89.4161ZM9.24294 93.3597C9.31415 93.3597 9.38536 93.3455 9.45657 93.3173L11.5501 92.4409C11.6783 92.3844 11.7922 92.2854 11.8492 92.1441C11.9061 92.0027 11.9061 91.8614 11.8492 91.72L11.4362 90.7589C11.3222 90.4762 10.9947 90.349 10.7098 90.4621L8.61631 91.3384C8.33147 91.4515 8.2033 91.7766 8.31723 92.0593L8.73024 93.0204C8.81569 93.2325 9.02932 93.3597 9.24294 93.3597ZM10.9235 90.9426C10.9377 90.9426 10.9377 90.9426 10.9377 90.9568L11.3507 91.9179C11.3507 91.9321 11.3507 91.9462 11.3365 91.9462L9.2287 92.8225C9.21446 92.8225 9.20022 92.8225 9.20022 92.8084L8.78721 91.8473C8.78721 91.8331 8.78721 91.819 8.80145 91.819L10.9235 90.9426ZM4.55742 94.547H4.64286L6.89306 94.2077C7.19213 94.1653 7.40576 93.8826 7.34879 93.5858L7.19214 92.554C7.16365 92.4126 7.09244 92.2854 6.97851 92.2006C6.86458 92.1158 6.70791 92.0734 6.5655 92.1017L4.3153 92.4409C4.01623 92.4833 3.8026 92.766 3.85957 93.0628L4.01623 94.0947C4.04471 94.236 4.11592 94.3632 4.22985 94.448C4.32955 94.5046 4.44348 94.547 4.55742 94.547ZM6.66519 92.6105C6.67943 92.6105 6.67943 92.6247 6.67943 92.6247L6.83609 93.6565C6.83609 93.6706 6.82185 93.6706 6.82185 93.6848L4.57165 94.024H4.55742L4.38651 92.978C4.38651 92.9639 4.38651 92.9639 4.40075 92.9498L6.66519 92.6105C6.65095 92.6105 6.66519 92.6105 6.66519 92.6105Z" fill="#AEC7E6"/>
<path d="M11.2652 92.1582C11.3222 92.1582 11.3649 92.1441 11.4219 92.1299L13.6721 91.4091C13.9427 91.3243 14.0851 91.0416 13.9996 90.773L13.8287 90.2359C13.7433 89.9673 13.4584 89.826 13.1878 89.9108L10.9377 90.6317C10.6671 90.7165 10.5246 90.9992 10.6101 91.2677L10.781 91.8048C10.8522 92.0168 11.0516 92.1582 11.2652 92.1582ZM13.4869 90.9143L11.2795 91.6211L11.1228 91.1405L13.3303 90.4338L13.4869 90.9143ZM6.87876 93.7271C6.92149 93.7271 6.96421 93.7271 7.00694 93.713L9.28561 93.1618C9.55621 93.0911 9.72711 92.8225 9.67014 92.5398L9.51348 91.9038C9.485 91.7766 9.39954 91.6635 9.28561 91.5928C9.17168 91.5221 9.02926 91.4939 8.88684 91.5363L6.60817 92.0875C6.33757 92.1582 6.16667 92.4409 6.22364 92.7095L6.3803 93.3455C6.40878 93.4727 6.49423 93.5858 6.60817 93.6565C6.69362 93.6989 6.77907 93.7271 6.87876 93.7271ZM9.00078 92.031L9.1432 92.6529L6.893 93.19L6.73634 92.5681L9.00078 92.031ZM2.19323 94.7024C2.23595 94.7024 2.26443 94.7024 2.30716 94.6883L4.61432 94.1653C4.7425 94.1371 4.85643 94.0522 4.92764 93.9392C4.99885 93.8261 5.02733 93.6847 4.99885 93.5575L4.87067 93.0063C4.81371 92.7377 4.54312 92.5681 4.27252 92.6246L1.96536 93.1476C1.69477 93.2042 1.52386 93.4727 1.58083 93.7413L1.70901 94.2925C1.7375 94.4197 1.82294 94.5328 1.93687 94.6035C2.00808 94.6742 2.09354 94.7024 2.19323 94.7024ZM4.47191 93.6565L2.20747 94.1653L2.09354 93.6706L4.35797 93.1618L4.47191 93.6565ZM53.8053 36.2979C53.9335 36.2979 54.0616 36.2413 54.1613 36.1565L55.8276 34.6017C55.9273 34.5028 55.9985 34.3614 55.9985 34.2201C55.9985 34.0787 55.9558 33.9374 55.8561 33.8243L55.1298 33.061C55.0301 32.9621 54.8876 32.8914 54.7452 32.8914C54.6028 32.8914 54.4604 32.9338 54.3465 33.0328L52.6802 34.5876C52.5805 34.6865 52.5093 34.8279 52.5093 34.9692C52.5093 35.1106 52.552 35.2519 52.6517 35.365L53.378 36.1283C53.4777 36.2272 53.6201 36.2979 53.7626 36.2979H53.8053ZM54.7167 33.4285H54.731L55.4573 34.1918V34.2201L53.791 35.7749H53.7626L53.0362 35.0116V34.9834L54.7167 33.4285C54.7167 33.4285 54.7025 33.4285 54.7167 33.4285ZM50.5439 39.9446C50.6721 39.9446 50.8003 39.8881 50.9 39.8033L52.5662 38.2485C52.6802 38.1495 52.7371 38.0082 52.7371 37.8668C52.7371 37.7255 52.6944 37.5841 52.5947 37.4711L51.8684 36.7078C51.7687 36.5947 51.6263 36.5382 51.4839 36.5382C51.3415 36.5382 51.199 36.5806 51.0851 36.6795L49.4188 38.2343C49.3049 38.3333 49.2479 38.4746 49.2479 38.616C49.2479 38.7573 49.2906 38.8987 49.3903 39.0117L50.1167 39.775C50.2306 39.8881 50.3873 39.9446 50.5439 39.9446ZM50.5439 39.4075H50.5154L49.7891 38.6442V38.616L51.4554 37.0612H51.4839L52.2102 37.8244V37.8527L50.5439 39.4075ZM46.5847 42.6726C46.6702 42.6726 46.7556 42.6444 46.8268 42.602L48.8207 41.4994C48.9488 41.4288 49.0485 41.3157 49.077 41.1743C49.1197 41.033 49.1055 40.8917 49.0343 40.7644L48.5216 39.8457C48.3792 39.5771 48.0374 39.4923 47.7668 39.6337L45.7729 40.7362C45.5023 40.8775 45.4169 41.2168 45.5593 41.4853L46.072 42.4041C46.1859 42.5737 46.3853 42.6868 46.5847 42.6726ZM46.5705 42.1496C46.5562 42.1496 46.542 42.1496 46.542 42.1355L46.0293 41.2168C46.0293 41.2026 46.0293 41.1885 46.0435 41.1885L48.0374 40.086C48.0516 40.086 48.0659 40.086 48.0659 40.1001L48.5786 41.0189C48.5786 41.033 48.5786 41.0471 48.5643 41.0471L46.5705 42.1496Z" fill="#AEC7E6"/>
<path d="M52.196 38.0647C52.3384 38.0647 52.4809 37.9941 52.5806 37.881L54.0475 36.0435C54.2184 35.8314 54.1899 35.5064 53.962 35.3367L53.5205 34.9834C53.3069 34.8138 52.9793 34.842 52.8084 35.0682L51.3415 36.9057C51.2561 37.0046 51.2276 37.146 51.2418 37.2732C51.2561 37.4004 51.3273 37.5276 51.427 37.6124L51.8685 37.9658C51.9539 38.0365 52.0821 38.0647 52.196 38.0647ZM53.606 35.7325L52.1675 37.5276L51.7688 37.2166L53.2072 35.4074L53.606 35.7325ZM48.4789 41.1037C48.5786 41.1037 48.6641 41.0754 48.7495 41.0189L50.6864 39.7185C50.9285 39.563 50.9855 39.2379 50.8288 38.9976L50.4585 38.4605C50.3873 38.3474 50.2592 38.2768 50.131 38.2485C49.9886 38.2202 49.8604 38.2485 49.7464 38.3333L47.8096 39.6337C47.5675 39.7892 47.5105 40.1143 47.6672 40.3546L48.0374 40.8917C48.1086 41.0047 48.2368 41.0754 48.365 41.1037H48.4789ZM50.0313 38.7573L50.3873 39.2944L48.4647 40.5807L48.1086 40.0577L50.0313 38.7573ZM42.7395 45.4713C42.8534 45.4713 42.9531 45.4289 43.0528 45.3582L44.8758 44.0013C44.9897 43.9165 45.0752 43.7893 45.0894 43.6479C45.1179 43.5066 45.0752 43.3652 44.9897 43.238L44.3631 42.4041C44.2776 42.291 44.1494 42.2062 44.007 42.1921C43.8646 42.1638 43.7222 42.2062 43.594 42.291L41.7711 43.6479C41.529 43.8317 41.472 44.1709 41.6571 44.4112L42.2838 45.2452C42.3835 45.4006 42.5686 45.4713 42.7395 45.4713ZM43.9216 42.715C43.9216 42.715 43.9358 42.715 43.9358 42.7292L44.5625 43.5631V43.5914L42.7395 44.9483H42.711L42.0844 44.1144V44.0861L43.9216 42.715C43.9073 42.715 43.9073 42.715 43.9216 42.715ZM38.4385 47.3936C38.524 47.3936 38.6094 47.3654 38.6806 47.323L40.6745 46.2205C40.8026 46.1498 40.9023 46.0367 40.9308 45.8954C40.9735 45.754 40.9593 45.6127 40.8881 45.4854L40.3754 44.5667C40.233 44.2981 39.8912 44.2133 39.6348 44.3547L37.641 45.4572C37.3704 45.5985 37.2849 45.9378 37.4273 46.2063L37.94 47.1251C38.0113 47.2523 38.1252 47.3512 38.2676 47.3795C38.3246 47.3795 38.3815 47.3936 38.4385 47.3936ZM38.4243 46.8565C38.41 46.8565 38.3958 46.8565 38.3958 46.8424L37.8831 45.9236C37.8831 45.9095 37.8831 45.8954 37.8973 45.8954L39.8912 44.7928C39.9054 44.7928 39.9196 44.7928 39.9196 44.807L40.4324 45.7257C40.4324 45.7399 40.4324 45.754 40.4181 45.754L38.4243 46.8565Z" fill="#AEC7E6"/>
<path d="M44.6194 43.8317C44.7049 43.8317 44.8045 43.8034 44.8758 43.7469L46.8554 42.4606C46.9693 42.3899 47.0405 42.2768 47.069 42.1496C47.0975 42.0224 47.069 41.8811 46.9978 41.768L46.6845 41.3016C46.5278 41.0754 46.2145 41.0047 45.9866 41.1602L44.007 42.4465C43.7791 42.6019 43.7079 42.9129 43.8646 43.1391L44.1779 43.6055C44.2776 43.7469 44.4485 43.8317 44.6194 43.8317ZM46.542 42.0224L44.6052 43.2804L44.3203 42.8564L46.2572 41.5984L46.542 42.0224ZM40.2187 45.8812C40.2614 45.8812 40.3042 45.8671 40.3469 45.8671L42.5971 45.231C42.7253 45.1886 42.8392 45.1038 42.9104 44.9907C42.9816 44.8635 42.9958 44.7363 42.9531 44.5949L42.768 43.973C42.7253 43.8458 42.6398 43.7327 42.5259 43.662C42.4119 43.5914 42.2695 43.5772 42.1271 43.6196L39.8769 44.2557C39.7487 44.2981 39.6348 44.3829 39.5636 44.496C39.4924 44.6232 39.4781 44.7504 39.5209 44.8918L39.706 45.5137C39.763 45.7398 39.9908 45.8953 40.2187 45.8812ZM42.2838 44.1285L42.4547 44.7504L40.2187 45.3723L40.0478 44.7504L42.2838 44.1285ZM34.6787 49.9378C34.7926 49.9378 34.8923 49.8954 34.9777 49.8389L36.8149 48.5102C36.9289 48.4254 37.0143 48.2982 37.0286 48.1569C37.057 48.0155 37.0143 47.8742 36.9289 47.747L36.3022 46.8989C36.2168 46.7858 36.0886 46.701 35.9462 46.6869C35.8038 46.6586 35.6613 46.701 35.5332 46.7858L33.696 48.1145C33.5821 48.1993 33.4966 48.3265 33.4824 48.4678C33.4539 48.6092 33.4966 48.7505 33.5821 48.8777L34.2087 49.7258C34.2941 49.8389 34.4223 49.9237 34.5647 49.9378H34.6787ZM35.875 47.1957C35.875 47.1957 35.8892 47.1957 35.8892 47.2099L36.5159 48.0579V48.0862L34.6787 49.4149H34.6502L34.0236 48.5668V48.5385L35.875 47.1957C35.8607 47.1957 35.875 47.1957 35.875 47.1957ZM30.4061 52.157C30.4631 52.157 30.5343 52.1429 30.5913 52.1146L32.7133 51.2665C32.8557 51.21 32.9554 51.111 33.0124 50.9697C33.0694 50.8425 33.0694 50.687 33.0124 50.5456L32.6136 49.5703C32.4997 49.2877 32.1864 49.1604 31.9015 49.2735L29.7795 50.1216C29.6371 50.1781 29.5374 50.2771 29.4804 50.4184C29.4235 50.5598 29.4235 50.7011 29.4804 50.8425L29.8792 51.8178C29.9647 52.0298 30.1783 52.1711 30.4061 52.157ZM30.3919 51.634C30.3777 51.634 30.3634 51.634 30.3634 51.6199L29.9647 50.6446C29.9647 50.6304 29.9647 50.6163 29.9789 50.6163L32.1009 49.7682C32.1152 49.7682 32.1294 49.7682 32.1294 49.7824L32.5282 50.7577C32.5282 50.7718 32.5282 50.7859 32.5139 50.7859L30.3919 51.634Z" fill="#AEC7E6"/>
<path d="M36.3877 48.3123C36.4731 48.3123 36.5586 48.2841 36.6298 48.2417L38.6521 47.0261C38.8942 46.8847 38.9654 46.5738 38.823 46.3335L38.524 45.8529C38.4527 45.7398 38.3388 45.655 38.2106 45.6267C38.0825 45.5985 37.94 45.6126 37.8261 45.6833L35.8038 46.8989C35.5617 47.0402 35.4905 47.3512 35.6329 47.5915L35.932 48.0721C36.0032 48.1851 36.1171 48.2699 36.2453 48.2982C36.288 48.2982 36.3307 48.3123 36.3877 48.3123ZM38.3531 46.5738L36.3735 47.7611L36.1029 47.3229L38.0825 46.1356L38.3531 46.5738ZM32.4712 50.8283C32.5424 50.8283 32.6136 50.8142 32.6848 50.7718L34.7784 49.7117C35.0347 49.5845 35.1344 49.2735 35.0062 49.0191L34.7072 48.4396C34.6502 48.3123 34.5363 48.2275 34.4081 48.1851C34.2799 48.1427 34.1375 48.1569 34.0093 48.2134L31.9158 49.2735C31.7876 49.33 31.7022 49.4431 31.6594 49.5703C31.6167 49.6975 31.631 49.8389 31.6879 49.9661L31.987 50.5456C32.0867 50.7294 32.2718 50.8425 32.4712 50.8283ZM34.2514 48.694L34.5363 49.2735L32.457 50.3053L32.1579 49.7399L34.2514 48.694ZM26.9739 55.2383C27.1163 55.2383 27.2303 55.1818 27.3299 55.0829L28.982 53.5139C29.0817 53.415 29.1529 53.2736 29.1529 53.1323C29.1529 52.9909 29.0959 52.8496 28.9962 52.7365L28.2699 51.9874C28.1702 51.8884 28.0278 51.8177 27.8854 51.8177C27.743 51.8177 27.6005 51.8743 27.4866 51.9732L25.8346 53.5422C25.7349 53.6411 25.6637 53.7825 25.6637 53.9238C25.6637 54.0652 25.7206 54.2065 25.8203 54.3196L26.5467 55.0687C26.6463 55.1677 26.7888 55.2383 26.9312 55.2383H26.9739ZM27.8711 52.3549H27.8854L28.6117 53.104V53.1323L26.9597 54.7012H26.9312L26.2049 53.9521V53.9238L27.8711 52.3549C27.8569 52.3549 27.8569 52.3549 27.8711 52.3549ZM22.6159 57.1748C22.6729 57.1748 22.7441 57.1607 22.8011 57.1324L24.9231 56.2843C25.2079 56.1712 25.3361 55.8603 25.2222 55.5776L24.8234 54.6023C24.7095 54.3196 24.3962 54.1924 24.1113 54.3055L21.9893 55.1535C21.8469 55.2101 21.7472 55.309 21.6902 55.4504C21.6333 55.5776 21.6333 55.7331 21.6902 55.8744L22.089 56.8497C22.1744 57.0476 22.3881 57.1748 22.6159 57.1748ZM24.3249 54.8002C24.3392 54.8002 24.3392 54.8002 24.3392 54.8143L24.738 55.7896C24.738 55.8037 24.738 55.8179 24.7237 55.8179L22.6017 56.6659C22.5875 56.6659 22.5732 56.6659 22.5732 56.6518L22.1744 55.6765L22.1887 55.6482L24.3249 54.8002C24.3107 54.8002 24.3249 54.8002 24.3249 54.8002Z" fill="#AEC7E6"/>
<path d="M28.6259 53.3867C28.7398 53.3867 28.8395 53.3443 28.9392 53.2737L30.7479 51.733C30.8476 51.6482 30.9188 51.521 30.9188 51.3938C30.9331 51.2665 30.8903 51.1252 30.8049 51.0263L30.4346 50.6022C30.2494 50.3902 29.9361 50.3619 29.7225 50.5457L27.9138 52.0722C27.8141 52.157 27.7429 52.2842 27.7429 52.4115C27.7287 52.5387 27.7714 52.68 27.8568 52.779L28.2271 53.203C28.3411 53.3302 28.4835 53.3867 28.6259 53.3867ZM30.3776 51.3513L28.6116 52.8496L28.2841 52.468L30.0501 50.9697L30.3776 51.3513ZM24.5243 55.9734C24.5812 55.9734 24.6524 55.9593 24.7094 55.931L26.8599 55.0264C26.9881 54.9698 27.0878 54.8709 27.1447 54.7437C27.2017 54.6165 27.2017 54.4751 27.1447 54.3479L26.8884 53.7542C26.8314 53.627 26.7317 53.5281 26.6036 53.4716C26.4754 53.415 26.333 53.415 26.2048 53.4716L24.0543 54.3762C23.7979 54.4893 23.6698 54.7861 23.7837 55.0546L24.0401 55.6483C24.1113 55.8603 24.3249 55.9734 24.5243 55.9734ZM26.4184 53.9663L26.6605 54.5599L24.5243 55.4504L24.2679 54.8568L26.4184 53.9663ZM18.4715 58.8003C18.5427 58.8003 18.6139 58.7862 18.6852 58.7438L20.7502 57.7826C20.8784 57.7261 20.9781 57.613 21.035 57.4717C21.0778 57.3303 21.0778 57.189 21.0208 57.0476L20.5651 56.1006C20.5081 55.9734 20.3942 55.8745 20.2517 55.8179C20.1093 55.7755 19.9669 55.7755 19.8245 55.832L17.7594 56.7932C17.6313 56.8497 17.5316 56.9628 17.4746 57.1042C17.4319 57.2455 17.4319 57.3869 17.4889 57.5282L17.9446 58.4752C18.0016 58.6025 18.1155 58.7014 18.2579 58.7579C18.3291 58.8003 18.4003 58.8003 18.4715 58.8003ZM20.0666 56.3268C20.0808 56.3268 20.0808 56.3268 20.0808 56.3409L20.5366 57.2879C20.5366 57.3021 20.5366 57.3162 20.5223 57.3162L18.4573 58.2773C18.443 58.2773 18.4288 58.2774 18.4288 58.2632L17.9731 57.3162C17.9731 57.3021 17.9731 57.2879 17.9873 57.2879L20.0666 56.3268C20.0666 56.3268 20.0524 56.3268 20.0666 56.3268ZM13.8857 59.8463C13.9284 59.8463 13.9854 59.8322 14.0281 59.818L16.2071 59.1254C16.3495 59.083 16.4634 58.9841 16.5347 58.8569C16.6059 58.7297 16.6201 58.5742 16.5774 58.447L16.2641 57.4575C16.2213 57.3162 16.1216 57.2031 15.9935 57.1324C15.8653 57.0618 15.7086 57.0476 15.5805 57.09L13.4157 57.7826C13.1309 57.8674 12.96 58.1784 13.0597 58.4752L13.373 59.4647C13.4157 59.705 13.6436 59.8604 13.8857 59.8463ZM13.8715 59.3233C13.8572 59.3233 13.843 59.3233 13.843 59.3092L13.5296 58.3198C13.5296 58.3056 13.5296 58.2915 13.5439 58.2915L15.7086 57.5989L15.7371 57.613L16.0504 58.6024L16.0362 58.6307L13.8715 59.3233Z" fill="#AEC7E6"/>
<path d="M20.6363 57.5565C20.6933 57.5565 20.7502 57.5423 20.8072 57.5141L23.0004 56.6377C23.2568 56.5388 23.3849 56.2419 23.2853 55.9875L23.0716 55.4645C23.0147 55.3373 22.9292 55.2384 22.801 55.196C22.6729 55.1394 22.5447 55.1394 22.4165 55.196L20.2233 56.0723C19.9669 56.1713 19.8388 56.4681 19.9384 56.7225L20.1521 57.2455C20.209 57.3727 20.2945 57.4717 20.4227 57.5141C20.4796 57.5565 20.5508 57.5706 20.6363 57.5565ZM22.7726 56.1713L20.622 57.0335L20.4369 56.567L22.5874 55.7048L22.7726 56.1713ZM15.908 58.7296H15.9365L18.2722 58.5459C18.557 58.5176 18.7706 58.2773 18.7421 57.9946L18.6852 57.3444C18.6709 57.2031 18.614 57.09 18.5 56.9911C18.4003 56.9063 18.2579 56.8497 18.1297 56.8639L15.7941 57.0476C15.5093 57.0759 15.2956 57.3162 15.3241 57.5989L15.3811 58.2491C15.3953 58.3904 15.4523 58.5035 15.5662 58.6024C15.6659 58.6872 15.7799 58.7296 15.908 58.7296ZM18.1867 57.3868L18.2294 58.0229L15.9223 58.1925L15.8653 57.5565L18.1867 57.3868ZM9.6844 61.6131C9.75561 61.6131 9.82681 61.599 9.89802 61.5566L11.9631 60.6096C12.0913 60.553 12.1909 60.4399 12.2479 60.2986C12.3049 60.1572 12.2906 60.0159 12.2337 59.8746L11.7922 58.9275C11.664 58.659 11.3364 58.5318 11.0658 58.659L9.00079 59.606C8.7302 59.7332 8.60202 60.0583 8.7302 60.3269L9.17169 61.2739C9.25714 61.5 9.47077 61.6131 9.6844 61.6131ZM11.2937 59.1537C11.308 59.1537 11.308 59.1537 11.308 59.1678L11.7494 60.1148C11.7494 60.129 11.7494 60.1431 11.7352 60.1431L9.67015 61.0901C9.65591 61.0901 9.64167 61.0901 9.64167 61.076L9.20018 60.129C9.20018 60.1148 9.20018 60.1007 9.21442 60.1007L11.2937 59.1537C11.2937 59.1537 11.2795 59.1537 11.2937 59.1537ZM5.05583 62.9559C5.08432 62.9559 5.1128 62.9559 5.14128 62.9418L7.37723 62.5319C7.67631 62.4753 7.8757 62.1926 7.81873 61.8958L7.63358 60.864C7.6051 60.7226 7.51965 60.5954 7.40572 60.5106C7.27754 60.4258 7.13512 60.3975 6.99271 60.4258L4.75676 60.8357C4.45768 60.8922 4.25829 61.1749 4.31526 61.4718L4.51464 62.5036C4.54313 62.645 4.62858 62.7722 4.74251 62.857C4.81372 62.9276 4.92766 62.97 5.05583 62.9559ZM7.07816 60.9488C7.0924 60.9488 7.0924 60.9629 7.0924 60.9629L7.27754 61.9948C7.27754 62.0089 7.27754 62.023 7.2633 62.023L5.02735 62.4329H5.01311L4.81372 61.387C4.81372 61.3728 4.81372 61.3728 4.82796 61.3587L7.07816 60.9488ZM0.242123 62.3764C0.270607 62.3905 0.284849 62.4047 0.313332 62.4188L2.37838 63.3658C2.64898 63.493 2.97654 63.3658 3.10471 63.0973L3.54621 62.1502C3.60317 62.023 3.61742 61.8675 3.56045 61.7262C3.50348 61.5849 3.40379 61.4859 3.27562 61.4152L1.21056 60.4682C0.93997 60.341 0.61241 60.4682 0.484234 60.7368L0.0427399 61.6838C-0.0142269 61.811 -0.0284691 61.9665 0.0284977 62.1078C0.0712223 62.2209 0.142431 62.3199 0.242123 62.3764ZM3.06199 61.9099C3.07623 61.9099 3.07623 61.9241 3.07623 61.9382L2.63474 62.8852C2.63474 62.8994 2.62049 62.8994 2.60625 62.8994L0.541201 61.9524C0.541201 61.9524 0.526958 61.9524 0.526958 61.9382L0.968452 60.9771C0.968452 60.9629 0.982697 60.9629 0.996939 60.9629L3.06199 61.9099Z" fill="#AEC7E6"/>
<path d="M11.664 60.3551C11.721 60.3551 11.7637 60.341 11.8207 60.3269L14.0566 59.5212C14.313 59.4223 14.4554 59.1396 14.3557 58.8851L14.1706 58.3622C14.0709 58.1077 13.786 57.9664 13.5297 58.0653L11.2937 58.8569C11.0374 58.9558 10.895 59.2385 10.9947 59.4929L11.1798 60.0159C11.251 60.2279 11.4504 60.3551 11.664 60.3551ZM13.843 59.0406L11.664 59.818L11.4931 59.3374L13.6721 58.56L13.843 59.0406ZM7.33453 62.0654C7.37725 62.0654 7.41998 62.0513 7.4627 62.0513L9.7129 61.4294C9.98349 61.3587 10.1544 61.0619 10.0689 60.7933L9.89804 60.1714C9.85532 60.0442 9.76986 59.9311 9.65593 59.8604C9.52776 59.7898 9.39958 59.7756 9.25716 59.818L7.00697 60.44C6.73637 60.5106 6.56547 60.8075 6.65092 61.076L6.82183 61.6979C6.86455 61.8252 6.95 61.9382 7.06393 62.0089C7.14938 62.0372 7.23484 62.0654 7.33453 62.0654ZM9.39958 60.2986L9.55624 60.9205L7.32029 61.5283L7.14938 60.9064L9.39958 60.2986ZM2.87686 63.1679C2.91959 63.1679 2.94807 63.1679 2.9908 63.1538L5.28371 62.546C5.41189 62.5178 5.52583 62.4329 5.59703 62.3199C5.66824 62.2068 5.68248 62.0654 5.654 61.9382L5.51159 61.4011C5.44038 61.1326 5.16978 60.9771 4.89919 61.0477L2.60627 61.6555C2.33568 61.7262 2.17902 61.9948 2.25023 62.2633L2.39264 62.8004C2.42113 62.9277 2.50658 63.0407 2.62051 63.1114C2.69172 63.1538 2.77717 63.1679 2.87686 63.1679ZM5.11282 62.0513L2.87686 62.645L2.74869 62.1503L4.98464 61.5566L5.11282 62.0513ZM54.1756 51.9733C54.3038 51.9733 54.432 51.9309 54.5316 51.8319L56.2407 50.3336C56.4685 50.1358 56.497 49.7824 56.2834 49.5562L55.5855 48.7647C55.4858 48.6516 55.3577 48.5951 55.201 48.5809C55.0586 48.5668 54.9162 48.6233 54.8022 48.7223L53.0932 50.2206C52.9793 50.3195 52.9223 50.4467 52.9081 50.6022C52.8938 50.7436 52.9508 50.8849 53.0505 50.998L53.7483 51.7895C53.848 51.9026 53.9762 51.9591 54.1329 51.9733H54.1756ZM55.201 49.1322H55.2152L55.9131 49.9237V49.952L54.2041 51.4503H54.1756L53.4778 50.6587V50.6305L55.201 49.1322C55.1868 49.1322 55.1868 49.1322 55.201 49.1322ZM50.8003 55.5069C50.9285 55.5069 51.0567 55.4645 51.1564 55.3656L52.8654 53.8673C52.9793 53.7684 53.0363 53.6412 53.0505 53.4857C53.0647 53.3443 53.0078 53.203 52.9081 53.0899L52.2102 52.2984C52.0109 52.0722 51.6548 52.0439 51.4269 52.256L49.7179 53.7542C49.604 53.8532 49.547 53.9804 49.5328 54.1359C49.5186 54.2772 49.5755 54.4186 49.6752 54.5316L50.3731 55.3232C50.5012 55.4363 50.6437 55.5069 50.8003 55.5069ZM50.8146 54.9698H50.7861L50.0882 54.1783V54.15L51.7972 52.6517H51.8257L52.5236 53.4433V53.4715L50.8146 54.9698ZM47.4108 58.7297C47.5532 58.7297 47.6956 58.6731 47.7953 58.5742L49.4046 56.977C49.5043 56.878 49.5613 56.7367 49.5613 56.5953C49.5613 56.454 49.5043 56.3126 49.4046 56.2137L48.664 55.4787C48.4504 55.2667 48.0944 55.2667 47.8808 55.4787L46.2714 57.0759C46.0578 57.2879 46.0578 57.6413 46.2714 57.8533L47.012 58.5883C47.1259 58.6873 47.2684 58.7297 47.4108 58.7297ZM48.2795 55.832L49.0343 56.5812V56.6095L47.425 58.2067C47.4108 58.2208 47.4108 58.2208 47.3965 58.2067L46.656 57.4717C46.6417 57.4575 46.6417 57.4575 46.656 57.4434L48.2795 55.832C48.2653 55.832 48.2653 55.832 48.2795 55.832Z" fill="#AEC7E6"/>
<path d="M52.5093 53.6836H52.5521C52.6802 53.6694 52.8084 53.6129 52.8939 53.514L54.432 51.7189C54.6171 51.5068 54.5886 51.1959 54.375 51.0121L53.9478 50.6446C53.8481 50.5598 53.7199 50.5174 53.5775 50.5315C53.4493 50.5457 53.3211 50.6022 53.2357 50.7012L51.6976 52.4963C51.5124 52.7083 51.5409 53.0193 51.7545 53.203L52.1818 53.5705C52.2815 53.6412 52.3954 53.6836 52.5093 53.6836ZM54.019 51.3938L52.5093 53.1465L52.1248 52.8214L53.6202 51.0687L54.019 51.3938ZM48.6926 56.5953C48.7923 56.5953 48.8777 56.5671 48.9632 56.5105L50.9428 55.2667C51.0567 55.196 51.1421 55.0829 51.1706 54.9416C51.1991 54.8144 51.1706 54.673 51.0994 54.5599L50.7434 54.0087C50.6722 53.8956 50.5582 53.8108 50.4158 53.7825C50.2876 53.7543 50.1452 53.7825 50.0313 53.8532L48.0517 55.0971C47.8096 55.2525 47.7384 55.5635 47.895 55.8038L48.2511 56.355C48.3223 56.4681 48.4362 56.5529 48.5786 56.5812C48.6214 56.5953 48.6498 56.5953 48.6926 56.5953ZM50.3304 54.3055L50.6579 54.8568L48.6926 56.0724L48.3508 55.5352L50.3304 54.3055ZM43.4516 61.7121C43.5798 61.7121 43.708 61.6697 43.8076 61.5849L45.5309 60.1007C45.6448 60.0018 45.7018 59.8746 45.716 59.7332C45.7303 59.5919 45.6733 59.4505 45.5879 59.3375L44.89 58.5459C44.7903 58.4328 44.6622 58.3763 44.5197 58.3622C44.3773 58.348 44.2349 58.4046 44.121 58.4894L42.3977 59.9735C42.1698 60.1714 42.1414 60.5106 42.3407 60.7368L43.0386 61.5283C43.1383 61.6414 43.2949 61.7121 43.4516 61.7121ZM43.4658 61.175H43.4374L42.7395 60.3834V60.3552L44.4628 58.871H44.4912L45.1891 59.6626V59.6908L43.4658 61.175ZM38.3958 63.4648H38.4812L40.7314 63.1397C40.8738 63.1256 41.002 63.0408 41.0875 62.9277C41.1729 62.8146 41.2156 62.6732 41.1872 62.5178L41.0305 61.4859C41.0163 61.3446 40.9308 61.2174 40.8169 61.1326C40.7029 61.0478 40.5605 61.0054 40.4039 61.0336L38.1537 61.3587C38.0113 61.3729 37.8831 61.4577 37.7976 61.5707C37.7122 61.6838 37.6695 61.8252 37.6979 61.9807L37.8546 63.0125C37.8973 63.2669 38.1394 63.4648 38.3958 63.4648ZM40.5036 61.5425C40.5178 61.5425 40.5178 61.5566 40.5178 61.5566L40.6745 62.5884C40.6745 62.6026 40.6745 62.6026 40.6602 62.6167L38.41 62.9418C38.3958 62.9418 38.3958 62.9418 38.3815 62.9277L38.2249 61.8958C38.2249 61.8817 38.2391 61.8817 38.2391 61.8676L40.5036 61.5425Z" fill="#AEC7E6"/>
<path d="M45.2033 59.9311C45.3172 59.9311 45.4169 59.8887 45.5166 59.8322L47.3965 58.3904C47.4962 58.3056 47.5674 58.1925 47.5817 58.0512C47.5959 57.924 47.5674 57.7826 47.482 57.6837L47.1402 57.2455C47.0547 57.1466 46.9408 57.0759 46.7984 57.0618C46.6702 57.0476 46.5278 57.0759 46.4281 57.1607L44.5482 58.6024C44.4485 58.6872 44.3773 58.8003 44.363 58.9417C44.3488 59.0689 44.3773 59.2102 44.4627 59.3092L44.8045 59.7474C44.89 59.8463 45.0039 59.917 45.1463 59.9311H45.2033ZM47.0405 57.9946L45.2033 59.4081L44.89 58.9982L46.7272 57.5847L47.0405 57.9946ZM40.9878 62.7298C41.0732 62.7298 41.1729 62.7015 41.2441 62.6591L43.2664 61.5001C43.3804 61.4294 43.4658 61.3163 43.5085 61.1891C43.5513 61.0619 43.5228 60.9205 43.4516 60.7933L43.124 60.2279C43.0528 60.1149 42.9389 60.03 42.8107 59.9876C42.6825 59.9452 42.5401 59.9735 42.4119 60.0442L40.3896 61.2032C40.2757 61.2739 40.1902 61.387 40.1475 61.5142C40.1048 61.6414 40.1332 61.7827 40.2045 61.91L40.532 62.4753C40.6032 62.5884 40.7172 62.6732 40.8453 62.7156C40.9023 62.7298 40.945 62.7298 40.9878 62.7298ZM42.6968 60.4965L43.0101 61.0619L41.002 62.2068L40.6744 61.6555L42.6968 60.4965ZM34.7926 65.7829C34.9065 65.7829 35.0062 65.7546 35.1059 65.6839L36.9858 64.4118C37.114 64.327 37.1852 64.1998 37.2137 64.0584C37.2422 63.9171 37.2137 63.7757 37.1282 63.6485L36.5301 62.7863C36.3592 62.5319 36.0174 62.4753 35.761 62.645L33.8811 63.9171C33.753 64.0019 33.6817 64.1291 33.6533 64.2705C33.6248 64.4118 33.6533 64.5531 33.7387 64.6804L34.3369 65.5426C34.4223 65.6698 34.5505 65.7405 34.6929 65.7687C34.7214 65.7687 34.7499 65.7829 34.7926 65.7829ZM34.7926 65.2457H34.7641L34.166 64.3835V64.3553L36.0459 63.0831H36.0744L36.6725 63.9454V63.9736L34.7926 65.2457ZM30.3777 67.8465C30.4346 67.8465 30.5058 67.8324 30.5628 67.8183L32.6991 67.0409C32.9839 66.9419 33.1263 66.6309 33.0266 66.3483L32.6706 65.373C32.5709 65.0903 32.2576 64.9489 31.9727 65.0479L29.8365 65.8253C29.5516 65.9242 29.4092 66.2352 29.5089 66.5179L29.865 67.4932C29.9504 67.7193 30.164 67.8465 30.3777 67.8465ZM30.3919 67.3235C30.3777 67.3235 30.3634 67.3235 30.3634 67.3094L30.0074 66.3341C30.0074 66.32 30.0074 66.3059 30.0216 66.3059L32.1579 65.5284C32.1721 65.5284 32.1864 65.5284 32.1864 65.5426L32.5424 66.5179C32.5424 66.532 32.5424 66.5461 32.5282 66.5461L30.3919 67.3235Z" fill="#AEC7E6"/>
<path d="M36.3735 64.1008C36.4589 64.1008 36.5444 64.0726 36.6156 64.0302L38.6806 62.8852C38.7946 62.8146 38.88 62.7156 38.9227 62.5884C38.9655 62.4612 38.937 62.3199 38.88 62.2068L38.6094 61.7121C38.5382 61.599 38.4385 61.5142 38.3103 61.4718C38.1822 61.4294 38.0397 61.4576 37.9258 61.5142L35.8608 62.6591C35.6186 62.8004 35.5332 63.0973 35.6614 63.3376L35.932 63.8323C36.0032 63.9453 36.1029 64.0301 36.231 64.0726C36.2738 64.1008 36.3165 64.1008 36.3735 64.1008ZM38.3958 62.4471L36.3735 63.5778L36.1171 63.1397L38.1394 62.0089L38.3958 62.4471ZM32.5567 66.6027C32.6279 66.6027 32.6991 66.5885 32.7703 66.5603L34.8923 65.5708C35.1487 65.4436 35.2626 65.1468 35.1487 64.8924L34.8638 64.2987C34.7357 64.0443 34.4366 63.9312 34.1802 64.0443L32.0582 65.0337C31.8019 65.1609 31.6879 65.4578 31.8019 65.7122L32.0867 66.3058C32.1721 66.4896 32.3573 66.6027 32.5567 66.6027ZM34.3939 64.5249L34.6502 65.1044L32.5424 66.0655L32.2718 65.486L34.3939 64.5249ZM26.4327 70.207C26.5324 70.207 26.6321 70.1787 26.7176 70.1222L28.6544 68.9349C28.7826 68.8642 28.8681 68.737 28.8965 68.5957C28.925 68.4543 28.9108 68.313 28.8253 68.1858L28.2699 67.2953C28.1132 67.0408 27.7714 66.956 27.5151 67.1115L25.5782 68.2988C25.45 68.3695 25.3646 68.4967 25.3361 68.6381C25.3076 68.7794 25.3219 68.9208 25.4073 69.048L25.9627 69.9385C26.0624 70.1222 26.2476 70.207 26.4327 70.207ZM27.8142 67.5638C27.8142 67.5638 27.8284 67.5638 27.8284 67.578L28.3838 68.4684V68.4967L26.447 69.684H26.4185L25.8631 68.7935V68.7653L27.8142 67.5638ZM21.7614 71.1823C21.7899 71.1823 21.8184 71.1823 21.8611 71.1682L24.1113 70.7865C24.2537 70.7583 24.3819 70.6876 24.4674 70.5604C24.5528 70.4473 24.5813 70.2918 24.5671 70.1505L24.3962 69.1186C24.3677 68.9773 24.2965 68.8501 24.1683 68.7653C24.0544 68.6805 23.8977 68.6522 23.7553 68.6663L21.5051 69.048C21.206 69.1045 21.0066 69.3872 21.0493 69.684L21.2202 70.7159C21.2487 70.8572 21.3199 70.9844 21.4481 71.0692C21.5336 71.154 21.6475 71.1823 21.7614 71.1823ZM23.8265 69.2035C23.8407 69.2035 23.8407 69.2176 23.8407 69.2176L24.0116 70.2494L23.9974 70.2777L21.7472 70.6593C21.7329 70.6593 21.733 70.6452 21.7187 70.6452L21.5478 69.6134C21.5478 69.5992 21.5478 69.5992 21.562 69.5851L23.8265 69.2035Z" fill="#AEC7E6"/>
<path d="M28.4408 68.737C28.5263 68.737 28.5975 68.7229 28.6829 68.6805L30.7765 67.5638C31.0186 67.4366 31.1183 67.1257 30.9758 66.8854L30.7053 66.3907C30.5771 66.1504 30.2638 66.0514 30.0216 66.1928L27.9281 67.3094C27.686 67.4366 27.5863 67.7476 27.7287 67.9879L27.9993 68.4826C28.0848 68.6381 28.2699 68.737 28.4408 68.737ZM30.4916 67.1115L28.4551 68.1999L28.2129 67.7476L30.2495 66.6592L30.4916 67.1115ZM23.8835 70.4049C23.9119 70.4049 23.9547 70.4049 23.9832 70.3908L26.2903 69.9526C26.4327 69.9243 26.5467 69.8536 26.6179 69.7406C26.6891 69.6275 26.7318 69.4861 26.7033 69.3589L26.5751 68.7229C26.5182 68.4402 26.2476 68.2564 25.9628 68.313L23.6556 68.7511C23.5132 68.7794 23.3992 68.8501 23.328 68.9632C23.2568 69.0762 23.2141 69.2176 23.2426 69.3448L23.3708 69.9809C23.3992 70.1222 23.4704 70.2353 23.5844 70.306C23.6841 70.3766 23.7838 70.4049 23.8835 70.4049ZM26.0624 68.836L26.1764 69.472L23.8977 69.8961L23.7838 69.2741L26.0624 68.836ZM18.1156 73.0481C18.1868 73.0481 18.258 73.034 18.3292 73.0057L20.4227 72.1011C20.5509 72.0445 20.6648 71.9314 20.7218 71.8042C20.7788 71.6629 20.7788 71.5215 20.7218 71.3802L20.3088 70.419C20.2518 70.2918 20.1379 70.1787 20.0097 70.1222C19.8673 70.0657 19.7249 70.0657 19.5825 70.1222L17.4889 71.0268C17.3607 71.0834 17.2468 71.1964 17.1898 71.3237C17.1329 71.465 17.1329 71.6064 17.1898 71.7477L17.6029 72.7089C17.7025 72.9209 17.9019 73.0481 18.1156 73.0481ZM18.1298 72.511C18.1156 72.511 18.1013 72.511 18.1013 72.4968L17.6883 71.5357C17.6883 71.5215 17.6883 71.5074 17.7025 71.5074L19.7961 70.6028C19.8103 70.6028 19.8246 70.6028 19.8246 70.6169L20.2376 71.5781C20.2376 71.5922 20.2376 71.6064 20.2233 71.6064L18.1298 72.511ZM13.487 74.193C13.5297 74.193 13.5867 74.193 13.6294 74.1789L15.8226 73.5711C15.9651 73.5287 16.079 73.4439 16.1502 73.3167C16.2214 73.1894 16.2356 73.0481 16.1929 72.9067L15.9081 71.9032C15.8654 71.7618 15.7799 71.6488 15.6517 71.5781C15.5236 71.5074 15.3811 71.4933 15.2387 71.5357L13.0455 72.1435C12.7607 72.2283 12.5898 72.5251 12.661 72.8219L12.9458 73.8255C13.0313 74.0234 13.2449 74.193 13.487 74.193ZM15.3954 72.0021C15.4096 72.0021 15.4096 72.0021 15.4096 72.0163L15.6945 73.0198C15.6945 73.034 15.6945 73.0481 15.6802 73.0481L13.487 73.6559C13.4727 73.6559 13.4585 73.6559 13.4585 73.6417L13.1737 72.6382C13.1737 72.6241 13.1737 72.6099 13.1879 72.6099L15.3954 72.0021Z" fill="#AEC7E6"/>
<path d="M19.7249 71.1399C19.7534 71.1399 19.7819 71.1399 19.8103 71.1258L22.146 70.73C22.4166 70.6876 22.6017 70.4191 22.559 70.1505L22.4593 69.5992C22.4308 69.472 22.3596 69.359 22.2599 69.2741C22.146 69.2035 22.0178 69.1611 21.8896 69.1893L19.554 69.5851C19.4258 69.6134 19.3119 69.6841 19.2264 69.783C19.1552 69.8961 19.1125 70.0233 19.141 70.1505L19.2407 70.7017C19.2691 70.9703 19.4828 71.1399 19.7249 71.1399ZM22.032 70.2212L19.7534 70.6169L19.6679 70.1081L21.9466 69.7123L22.032 70.2212ZM15.5663 73.1329H15.5948L17.9304 73.034C18.0728 73.034 18.201 72.9633 18.2865 72.8644C18.3862 72.7654 18.4289 72.6382 18.4289 72.4969L18.4004 71.8467C18.4004 71.7053 18.3292 71.5781 18.2295 71.4933C18.1298 71.3943 18.0016 71.3519 17.8592 71.3519L15.5236 71.4509C15.2387 71.465 15.0109 71.7053 15.0251 71.988L15.0536 72.6382C15.0536 72.9068 15.2815 73.1329 15.5663 73.1329ZM17.8735 71.8749L17.8877 72.511L15.5663 72.5958L15.5378 71.9597L17.8735 71.8749ZM9.24297 75.8044C9.31418 75.8044 9.38539 75.7902 9.45659 75.762L11.5501 74.8856C11.835 74.7725 11.9631 74.4474 11.8492 74.1648L11.4362 73.2036C11.3223 72.9209 10.9947 72.7937 10.7099 72.9068L8.60209 73.7831C8.47392 73.8397 8.35998 73.9386 8.30301 74.0799C8.24605 74.2213 8.24605 74.3626 8.30301 74.504L8.73027 75.4793C8.81572 75.6913 9.02934 75.8044 9.24297 75.8044ZM10.9235 73.4015C10.9377 73.4015 10.9377 73.4015 10.9377 73.4156L11.3507 74.3768C11.3507 74.3909 11.3507 74.405 11.3365 74.405L9.22873 75.2814C9.21448 75.2814 9.20024 75.2814 9.20024 75.2673L8.78723 74.3061C8.78723 74.292 8.78723 74.2778 8.80147 74.2778L10.9235 73.4015ZM4.55744 77.0058H4.64289L6.89308 76.6666C7.0355 76.6383 7.16368 76.5676 7.24913 76.4546C7.33458 76.3415 7.3773 76.186 7.34881 76.0447L7.19216 75.0128C7.16368 74.8715 7.09247 74.7443 6.97853 74.6595C6.8646 74.5747 6.70794 74.5323 6.56552 74.5605L4.31533 74.8998C4.01625 74.9422 3.80262 75.2248 3.85959 75.5217L4.01625 76.5535C4.04473 76.6949 4.11594 76.8221 4.22988 76.9069C4.32957 76.9634 4.4435 77.0058 4.55744 77.0058ZM6.66521 75.0694C6.67946 75.0694 6.67946 75.0835 6.67946 75.0835L6.83612 76.1153C6.83612 76.1295 6.82187 76.1295 6.82187 76.1436L4.57168 76.4828H4.55744L4.38654 75.4369C4.38654 75.4227 4.38654 75.4227 4.40078 75.4086L6.66521 75.0694C6.65097 75.0694 6.66521 75.0694 6.66521 75.0694Z" fill="#AEC7E6"/>
<path d="M11.2653 74.617C11.3222 74.617 11.3649 74.6029 11.4219 74.5888L13.6721 73.8679C13.9427 73.7831 14.0851 73.5004 13.9997 73.2318L13.8288 72.6947C13.786 72.5675 13.7006 72.4686 13.5724 72.3979C13.4585 72.3414 13.3161 72.3272 13.1879 72.3696L10.9377 73.0905C10.6671 73.1753 10.5247 73.458 10.6101 73.7266L10.781 74.2637C10.8522 74.4757 11.0516 74.617 11.2653 74.617ZM13.487 73.3732L11.2795 74.0799L11.1228 73.5993L13.3303 72.8926L13.487 73.3732ZM6.8788 76.186C6.92152 76.186 6.96424 76.186 7.00697 76.1719L9.28565 75.6206C9.55624 75.5499 9.72715 75.2814 9.67018 74.9987L9.51352 74.3626C9.48503 74.2354 9.39958 74.1223 9.28565 74.0517C9.17171 73.981 9.0293 73.9527 8.88688 73.9951L6.6082 74.5464C6.33761 74.617 6.16671 74.8856 6.22367 75.1683L6.38034 75.8044C6.4373 76.0164 6.63669 76.186 6.8788 76.186ZM9.00082 74.4898L9.14323 75.1118L6.89304 75.6489L6.73638 75.0269L9.00082 74.4898ZM2.19327 77.1613C2.23599 77.1613 2.26447 77.1613 2.3072 77.1472L4.61436 76.6242C4.74254 76.5959 4.85647 76.5111 4.92768 76.398C4.99889 76.2849 5.02737 76.1436 4.99889 76.0164L4.87071 75.4651C4.81374 75.1966 4.54316 75.027 4.27256 75.0835L1.9654 75.6065C1.83722 75.6347 1.72329 75.7195 1.65208 75.8326C1.58087 75.9457 1.55239 76.0871 1.58087 76.2143L1.70905 76.7655C1.73753 76.8927 1.82298 77.0058 1.93691 77.0765C2.00812 77.133 2.09357 77.1613 2.19327 77.1613ZM4.47194 76.1153L2.20751 76.6242L2.09357 76.1295L4.35801 75.6206L4.47194 76.1153ZM54.1756 83.0696C54.3038 83.0696 54.432 83.0272 54.5316 82.9282L56.2407 81.43C56.4685 81.2321 56.497 80.8787 56.2834 80.6667L55.5855 79.8751C55.3861 79.649 55.0301 79.6207 54.8165 79.8186L53.1075 81.3169C52.8796 81.5148 52.8511 81.8681 53.0647 82.0943L53.7626 82.8858C53.8623 82.9989 53.9905 83.0555 54.1471 83.0696H54.1756ZM55.201 80.2285H55.2152L55.9131 81.0201V81.0483L54.2041 82.5466H54.1756L53.4778 81.7551V81.7268L55.201 80.2285C55.1868 80.2285 55.1868 80.2285 55.201 80.2285ZM50.8003 86.6033C50.9285 86.6033 51.0567 86.5609 51.1564 86.4619L52.8654 84.9636C53.0932 84.7658 53.1217 84.4124 52.9081 84.1862L52.2102 83.4088C52.0109 83.1827 51.6548 83.1544 51.4269 83.3523L49.7179 84.8506C49.604 84.9495 49.547 85.0767 49.5328 85.2322C49.5186 85.3735 49.5755 85.5149 49.6752 85.628L50.3731 86.4195C50.5012 86.5326 50.6437 86.6033 50.8003 86.6033ZM51.8257 83.7481H51.84L52.5378 84.5255V84.5537L50.8288 86.052H50.8003L50.1025 85.2605V85.2322L51.8257 83.7481C51.8115 83.7622 51.8115 83.7481 51.8257 83.7481ZM47.4108 89.826C47.5532 89.826 47.6956 89.7694 47.7953 89.6705L49.4046 88.0733C49.5043 87.9743 49.5613 87.833 49.5613 87.6916C49.5613 87.5503 49.5043 87.4089 49.4046 87.31L48.6641 86.575C48.4504 86.363 48.0944 86.363 47.8808 86.575L46.2714 88.1722C46.0578 88.3842 46.0578 88.7376 46.2714 88.9496L47.012 89.6846C47.1259 89.7694 47.2684 89.826 47.4108 89.826ZM48.2795 86.9284L49.0343 87.6775V87.7058L47.425 89.303H47.4108L46.656 88.5539C46.6417 88.5397 46.6417 88.5397 46.656 88.5256L48.2795 86.9284C48.2653 86.9284 48.2653 86.9284 48.2795 86.9284Z" fill="#AEC7E6"/>
<path d="M52.5093 84.7799H52.5521C52.6802 84.7657 52.8084 84.7092 52.8939 84.6103L54.432 82.8152C54.5174 82.7162 54.5602 82.589 54.5459 82.4477C54.5317 82.3204 54.4747 82.1932 54.375 82.1084L53.9478 81.7409C53.7341 81.5572 53.4208 81.5854 53.2357 81.7975L51.6976 83.5926C51.5124 83.8046 51.5409 84.1156 51.7545 84.2993L52.1818 84.6668C52.2815 84.7375 52.3954 84.7799 52.5093 84.7799ZM54.019 82.4901L52.5093 84.2428L52.1248 83.9177L53.6202 82.165L54.019 82.4901ZM48.6926 87.6916C48.7923 87.6916 48.8777 87.6634 48.9632 87.6068L50.9428 86.363C51.1849 86.2075 51.2561 85.8965 51.0994 85.6562L50.7434 85.105C50.6722 84.9919 50.5582 84.9071 50.4158 84.8788C50.2734 84.8506 50.1452 84.8788 50.0313 84.9495L48.0517 86.1934C47.9377 86.264 47.8523 86.3771 47.8238 86.5184C47.7953 86.6457 47.8096 86.787 47.895 86.9001L48.2511 87.4513C48.3223 87.5644 48.4362 87.6492 48.5786 87.6775C48.6214 87.6916 48.6498 87.6916 48.6926 87.6916ZM50.3304 85.4018L50.6579 85.9531L48.6926 87.1686L48.3508 86.6315L50.3304 85.4018ZM43.4516 92.8084C43.5798 92.8084 43.708 92.766 43.8076 92.6812L45.5309 91.197C45.7588 90.9992 45.7872 90.6599 45.5879 90.4338L44.89 89.6422C44.6906 89.4161 44.3488 89.3878 44.121 89.5857L42.3977 91.0698C42.1698 91.2677 42.1414 91.6069 42.3407 91.8331L43.0386 92.6246C43.1383 92.7377 43.2949 92.8084 43.4516 92.8084ZM43.4658 92.2713H43.4374L42.7395 91.4797V91.4515L44.4628 89.9673H44.4912L45.1891 90.7589V90.7871L43.4658 92.2713ZM38.3958 94.5611H38.4812L40.7314 94.236C41.0305 94.1936 41.2441 93.9109 41.2014 93.6141L41.0447 92.5822C41.002 92.2854 40.7172 92.0734 40.4181 92.1158L38.1679 92.4409C37.8688 92.4833 37.6552 92.766 37.6979 93.0628L37.8546 94.0946C37.8973 94.3632 38.1394 94.5611 38.3958 94.5611ZM38.41 94.0381C38.3958 94.0381 38.3958 94.0381 38.3815 94.024L38.2249 92.9921C38.2249 92.978 38.2249 92.978 38.2391 92.9639L40.4893 92.6388C40.5036 92.6388 40.5036 92.6388 40.5178 92.6529L40.6745 93.6847C40.6745 93.6989 40.6745 93.6989 40.6602 93.713L38.41 94.0381Z" fill="#AEC7E6"/>
<path d="M45.2033 91.0275C45.3172 91.0275 45.4169 90.9992 45.5166 90.9285L47.3965 89.4868C47.4962 89.402 47.5674 89.2889 47.5817 89.1476C47.5959 89.0203 47.5674 88.879 47.482 88.78L47.1402 88.3419C46.9693 88.1299 46.656 88.0875 46.4281 88.2571L44.5482 89.6988C44.4485 89.7836 44.3773 89.8967 44.363 90.038C44.3488 90.1652 44.3773 90.3066 44.4627 90.4055L44.8045 90.8437C44.9042 90.9568 45.0466 91.0275 45.2033 91.0275ZM47.0405 89.0769L45.2033 90.4903L44.89 90.0804L46.7272 88.667L47.0405 89.0769ZM40.9878 93.8261C41.0732 93.8261 41.1729 93.7979 41.2441 93.7555L43.2664 92.5964C43.3804 92.5257 43.4658 92.4127 43.5085 92.2855C43.5513 92.1582 43.5228 92.0169 43.4516 91.8897L43.124 91.3243C43.0528 91.2112 42.9389 91.1264 42.8107 91.084C42.6825 91.0416 42.5401 91.0699 42.4119 91.1405L40.3896 92.2996C40.1475 92.4409 40.062 92.7519 40.2045 93.0063L40.532 93.5717C40.6032 93.6848 40.7172 93.7696 40.8453 93.812C40.9023 93.8261 40.945 93.8261 40.9878 93.8261ZM42.6968 91.5929L43.0101 92.1582L41.002 93.3031L40.6744 92.7519L42.6968 91.5929ZM34.7926 96.8651C34.8923 96.8651 35.0062 96.8368 35.1059 96.7661L36.9858 95.494C37.114 95.4092 37.1852 95.282 37.2137 95.1407C37.2422 94.9993 37.2137 94.858 37.1282 94.7308L36.5301 93.8685C36.3592 93.6141 36.0174 93.5576 35.761 93.7272L33.8811 94.9993C33.753 95.0841 33.6817 95.2113 33.6533 95.3527C33.6248 95.494 33.6533 95.6354 33.7387 95.7626L34.3369 96.6248C34.4366 96.7803 34.6075 96.8651 34.7926 96.8651ZM34.7926 96.3421H34.7641L34.166 95.4799V95.4516L36.0459 94.1795H36.0744L36.6725 95.0417V95.07L34.7926 96.3421ZM30.3777 98.9429C30.4346 98.9429 30.5058 98.9288 30.5628 98.9146L32.6991 98.1372C32.8415 98.0807 32.9412 97.9817 33.0124 97.8545C33.0693 97.7273 33.0836 97.5718 33.0266 97.4305L32.6706 96.4552C32.6136 96.3138 32.5139 96.2149 32.3857 96.1442C32.2576 96.0877 32.1009 96.0735 31.9585 96.1301L29.8222 96.9075C29.6798 96.964 29.5801 97.063 29.5089 97.1902C29.4519 97.3174 29.4377 97.4729 29.4947 97.6142L29.8507 98.5895C29.9077 98.7309 30.0074 98.8298 30.1355 98.9005C30.221 98.9288 30.3064 98.9429 30.3777 98.9429ZM32.1721 96.6248C32.1864 96.6248 32.1864 96.6248 32.1864 96.6389L32.5424 97.6142C32.5424 97.6284 32.5424 97.6425 32.5282 97.6425L30.3919 98.4199C30.3777 98.4199 30.3634 98.4199 30.3634 98.4058L30.0074 97.4305C30.0074 97.4163 30.0074 97.4022 30.0216 97.4022L32.1721 96.6248C32.1579 96.6248 32.1579 96.6248 32.1721 96.6248Z" fill="#AEC7E6"/>
<path d="M36.3735 95.1971C36.4589 95.1971 36.5444 95.1689 36.6156 95.1265L38.6806 93.9816C38.7946 93.9109 38.88 93.8119 38.9227 93.6847C38.9655 93.5575 38.937 93.4162 38.88 93.3031L38.6094 92.8084C38.5382 92.6953 38.4385 92.6105 38.3103 92.5681C38.1822 92.5257 38.0397 92.5539 37.9258 92.6105L35.8608 93.7554C35.6186 93.8967 35.5332 94.1936 35.6614 94.4339L35.932 94.9286C36.0032 95.0417 36.1029 95.1265 36.231 95.1689C36.2738 95.1971 36.3165 95.1971 36.3735 95.1971ZM38.3958 93.5434L36.3735 94.6741L36.1171 94.236L38.1394 93.1052L38.3958 93.5434ZM32.5567 97.699C32.6279 97.699 32.6991 97.6848 32.7703 97.6566L34.8923 96.6671C35.0205 96.6106 35.1059 96.5117 35.1629 96.3703C35.2056 96.2431 35.2056 96.1018 35.1487 95.9745L34.8638 95.3809C34.7499 95.1265 34.4366 95.0134 34.1802 95.1265L32.0582 96.1159C31.93 96.1724 31.8446 96.2714 31.7876 96.4127C31.7449 96.5399 31.7449 96.6813 31.8019 96.8085L32.0867 97.4021C32.1721 97.5859 32.3573 97.699 32.5567 97.699ZM34.3939 95.6212L34.6502 96.2007L32.5424 97.1619L32.2718 96.5823L34.3939 95.6212ZM26.4327 101.303C26.5324 101.303 26.6321 101.275 26.7176 101.219L28.6544 100.031C28.7826 99.9605 28.8681 99.8333 28.8965 99.692C28.925 99.5506 28.9108 99.4093 28.8253 99.2821L28.2699 98.3916C28.1987 98.2644 28.0705 98.1796 27.9281 98.1513C27.7857 98.123 27.6433 98.1372 27.5151 98.222L25.5782 99.4093C25.45 99.4799 25.3646 99.6072 25.3361 99.7485C25.3076 99.8899 25.3219 100.031 25.4073 100.158L25.9627 101.049C26.0624 101.204 26.2476 101.303 26.4327 101.303ZM26.4327 100.78H26.4042L25.8488 99.8899V99.8616L27.8142 98.6601H27.8427L28.3981 99.5506V99.5789L26.4327 100.78ZM21.7614 102.279C21.7899 102.279 21.8184 102.279 21.8611 102.264L24.1113 101.883C24.2537 101.855 24.3819 101.784 24.4674 101.657C24.5528 101.544 24.5813 101.388 24.5671 101.247L24.3962 100.215C24.3677 100.074 24.2965 99.9464 24.1683 99.8616C24.0544 99.7768 23.8977 99.7485 23.7553 99.7626L21.5051 100.144C21.206 100.201 21.0066 100.484 21.0493 100.78L21.2202 101.812C21.2487 101.954 21.3199 102.081 21.4481 102.166C21.5336 102.236 21.6475 102.279 21.7614 102.279ZM21.7614 101.756C21.7472 101.756 21.7472 101.756 21.733 101.741L21.562 100.71C21.562 100.696 21.562 100.696 21.5763 100.681L23.8265 100.3C23.8407 100.3 23.8407 100.3 23.855 100.314L24.0259 101.346L24.0116 101.374L21.7614 101.756Z" fill="#AEC7E6"/>
<path d="M28.4408 99.8333C28.5262 99.8333 28.5974 99.8192 28.6829 99.7768L30.7764 98.6602C30.8903 98.6036 30.9758 98.4905 31.0185 98.3633C31.0612 98.2361 31.047 98.0948 30.9758 97.9817L30.7052 97.487C30.6482 97.3739 30.5343 97.2891 30.4061 97.2467C30.2779 97.2043 30.1355 97.2184 30.0216 97.2891L27.9281 98.4057C27.6859 98.533 27.5862 98.8439 27.7287 99.0842L27.9993 99.5789C28.0847 99.7344 28.2699 99.8333 28.4408 99.8333ZM30.4916 98.2078L28.455 99.2962L28.2129 98.8439L30.2495 97.7555L30.4916 98.2078ZM23.8834 101.501C23.9119 101.501 23.9546 101.501 23.9831 101.487L26.2903 101.049C26.4327 101.021 26.5466 100.95 26.6178 100.837C26.689 100.724 26.7317 100.582 26.7033 100.455L26.5751 99.8192C26.5181 99.5365 26.2475 99.3528 25.9627 99.4093L23.6555 99.8475C23.5131 99.8757 23.3992 99.9464 23.328 100.06C23.2568 100.173 23.214 100.314 23.2425 100.441L23.3707 101.077C23.4134 101.332 23.6413 101.501 23.8834 101.501ZM26.0624 99.9182L26.1763 100.554L23.8976 100.978L23.7837 100.356L26.0624 99.9182ZM18.1155 104.144C18.1867 104.144 18.2579 104.13 18.3291 104.102L20.4227 103.197C20.5508 103.141 20.6648 103.028 20.7217 102.901C20.7787 102.759 20.7787 102.618 20.7217 102.477L20.3087 101.515C20.2518 101.388 20.1378 101.275 20.0096 101.219C19.8672 101.162 19.7248 101.162 19.5824 101.219L17.4889 102.123C17.3607 102.18 17.2467 102.293 17.1898 102.42C17.1328 102.561 17.1328 102.703 17.1898 102.844L17.6028 103.805C17.7025 104.017 17.9019 104.144 18.1155 104.144ZM18.1297 103.607C18.1155 103.607 18.1013 103.607 18.1013 103.593L17.6882 102.632C17.6882 102.618 17.6882 102.604 17.7025 102.604L19.796 101.699C19.8103 101.699 19.8245 101.699 19.8245 101.713L20.2375 102.674C20.2375 102.689 20.2375 102.703 20.2233 102.703L18.1297 103.607ZM13.4869 105.275C13.5439 105.275 13.5866 105.275 13.6436 105.261L15.8368 104.653C15.9792 104.611 16.0932 104.526 16.1644 104.399C16.2356 104.272 16.2498 104.13 16.2071 103.989L15.9223 102.985C15.8795 102.844 15.7941 102.731 15.6659 102.66C15.5377 102.59 15.3953 102.575 15.2529 102.618L13.0597 103.226C12.9173 103.268 12.8033 103.353 12.7321 103.48C12.6609 103.607 12.6467 103.749 12.6752 103.89L12.96 104.894C13.0027 105.035 13.0882 105.148 13.2163 105.219C13.3018 105.261 13.4015 105.275 13.4869 105.275ZM15.3953 103.098L15.4238 103.113L15.7086 104.116L15.6944 104.144L13.5012 104.752C13.4869 104.752 13.4727 104.752 13.4727 104.738L13.1879 103.735C13.1879 103.72 13.1879 103.706 13.2021 103.706L15.3953 103.098Z" fill="#AEC7E6"/>
<path d="M19.7248 102.236C19.7533 102.236 19.7818 102.236 19.8103 102.222L22.1459 101.826C22.2741 101.798 22.388 101.727 22.4735 101.628C22.5447 101.515 22.5874 101.388 22.5589 101.261L22.4593 100.71C22.4308 100.583 22.3596 100.469 22.2599 100.385C22.1459 100.314 22.0178 100.272 21.8896 100.3L19.5539 100.696C19.4258 100.724 19.3118 100.795 19.2264 100.893C19.1552 101.007 19.1124 101.134 19.1409 101.261L19.2406 101.812C19.2691 102.067 19.4827 102.236 19.7248 102.236ZM22.032 101.318L19.7533 101.713L19.6679 101.204L21.9466 100.809L22.032 101.318ZM15.5663 104.229H15.5947L17.9304 104.13C18.2152 104.116 18.4431 103.876 18.4288 103.593L18.4004 102.943C18.3861 102.66 18.144 102.434 17.8592 102.448L15.5235 102.547C15.2387 102.561 15.0108 102.802 15.0251 103.084L15.0536 103.735C15.0536 103.876 15.1248 104.003 15.2245 104.088C15.3099 104.173 15.4381 104.229 15.5663 104.229ZM17.8734 102.971L17.8877 103.607L15.5663 103.692L15.5378 103.056L17.8734 102.971ZM9.24292 106.901C9.31413 106.901 9.38534 106.887 9.45655 106.858L11.5501 105.982C11.8349 105.869 11.9631 105.544 11.8492 105.261L11.4362 104.3C11.3222 104.017 10.9947 103.89 10.7098 104.003L8.60205 104.879C8.47387 104.936 8.35994 105.035 8.30297 105.176C8.246 105.318 8.246 105.459 8.30297 105.6L8.73022 106.576C8.81567 106.774 9.0293 106.901 9.24292 106.901ZM9.24292 106.378C9.22868 106.378 9.21444 106.378 9.21444 106.364L8.80143 105.402C8.80143 105.388 8.80143 105.374 8.81567 105.374L10.9092 104.498C10.9234 104.498 10.9377 104.498 10.9377 104.512L11.3507 105.473C11.3507 105.487 11.3507 105.501 11.3365 105.501L9.24292 106.378ZM4.55739 108.102H4.64284L6.89304 107.763C7.03546 107.735 7.16363 107.664 7.24908 107.551C7.33453 107.438 7.37726 107.282 7.34877 107.141L7.19212 106.109C7.16363 105.968 7.09242 105.841 6.97849 105.756C6.86456 105.671 6.70789 105.629 6.56548 105.657L4.31528 105.996C4.0162 106.039 3.80258 106.321 3.85954 106.618L4.0162 107.65C4.04469 107.791 4.1159 107.918 4.22983 108.003C4.32952 108.06 4.44346 108.102 4.55739 108.102ZM4.57163 107.579H4.55739L4.38649 106.533C4.38649 106.519 4.38649 106.519 4.40073 106.505L6.65093 106.166C6.66517 106.166 6.67941 106.18 6.67941 106.18L6.83607 107.212C6.83607 107.226 6.82183 107.226 6.82183 107.24L4.57163 107.579Z" fill="#AEC7E6"/>
<path d="M11.2653 105.713C11.3222 105.713 11.365 105.699 11.4219 105.685L13.6721 104.964C13.8003 104.922 13.9 104.837 13.9712 104.71C14.0282 104.597 14.0424 104.455 13.9997 104.328L13.8288 103.791C13.7861 103.664 13.7006 103.565 13.5724 103.494C13.4585 103.438 13.3161 103.424 13.1879 103.466L10.9377 104.187C10.6671 104.272 10.5247 104.554 10.6102 104.823L10.7811 105.36C10.8523 105.572 11.0517 105.713 11.2653 105.713ZM13.487 104.469L11.2795 105.176L11.1229 104.696L13.3303 103.989L13.487 104.469ZM6.87883 107.282C6.92155 107.282 6.96428 107.282 7.007 107.268L9.28568 106.717C9.41385 106.689 9.52779 106.604 9.599 106.491C9.67021 106.378 9.69869 106.236 9.65596 106.095L9.49931 105.459C9.4281 105.19 9.1575 105.021 8.87267 105.077L6.59399 105.629C6.46582 105.657 6.35188 105.742 6.28067 105.855C6.20946 105.968 6.18098 106.109 6.22371 106.25L6.38037 106.887C6.43733 107.113 6.63672 107.282 6.87883 107.282ZM9.00084 105.586L9.14326 106.208L6.89307 106.745L6.73641 106.123L9.00084 105.586ZM2.1933 108.258C2.23602 108.258 2.2645 108.258 2.30723 108.243L4.61439 107.72C4.74257 107.692 4.8565 107.607 4.92771 107.494C4.99892 107.381 5.0274 107.24 4.99892 107.113L4.87074 106.561C4.81377 106.293 4.54318 106.123 4.27259 106.18L1.96543 106.703C1.83725 106.731 1.72332 106.816 1.65211 106.929C1.5809 107.042 1.55242 107.183 1.5809 107.311L1.70908 107.862C1.7518 108.102 1.96543 108.258 2.1933 108.258ZM4.47197 107.212L2.20754 107.72L2.0936 107.226L4.35804 106.717L4.47197 107.212Z" fill="#AEC7E6"/>
</g>
<defs>
<clipPath id="clip0_3437_17604">
<rect width="56.44" height="119" fill="white" transform="matrix(-1 0 0 1 56.4399 0)"/>
</clipPath>
</defs>
</svg>
