<svg width="57" height="122" viewBox="0 0 57 122" fill="none" xmlns="http://www.w3.org/2000/svg">
<path d="M29.5864 16.3507C28.0323 16.4364 24.8229 18.33 27.3918 26.7168C29.9608 35.1026 31.6876 39.5791 32.5605 39.8036C33.4333 40.0281 38.9852 40.5894 36.8582 32.4439C35.5375 27.3864 34.4154 16.0828 29.5864 16.3507Z" fill="url(#paint0_linear_3437_17019)"/>
<path d="M35.4472 34.2085C33.0491 34.7738 29.8695 34.8191 32.3153 38.4753C34.761 42.1315 40.5572 44.2339 41.6386 44.9409C42.721 45.6479 44.7527 43.5495 44.0228 42.6288C42.2156 40.3531 40.0935 37.3921 37.0857 33.7408C36.325 34.0923 35.4472 34.2085 35.4472 34.2085Z" fill="url(#paint1_linear_3437_17019)"/>
<path d="M23.2541 104.053C23.2541 104.053 22.1796 105.845 23.3454 107.387C24.5112 108.928 29.5627 112.282 33.8803 112.752C38.1978 113.223 34.9884 108.685 33.1315 106.758C31.2756 104.832 29.2747 102.848 28.4972 102.591C27.7206 102.335 25.0246 102.126 23.2541 104.053ZM11.7908 109.533C11.7908 109.533 7.87636 110.083 10.7044 116.761C12.4561 120.898 16.1183 122.097 17.3268 120.47C18.5353 118.844 16.7489 109.525 15.5136 109.467C13.1284 109.356 12.8712 108.421 11.7908 109.533Z" fill="#0A0A71"/>
<path d="M12.9784 21.8641C16.7866 18.9306 32.3202 10.0564 33.5297 21.2191C34.7382 32.3828 32.8783 49.0796 33.0739 51.2204C33.2705 53.3611 23.7714 60.1261 14.0141 55.9303C13.8423 51.3061 7.6251 25.9871 12.9784 21.8641Z" fill="url(#paint2_linear_3437_17019)"/>
<path d="M29.0969 103.74C27.4564 106.994 23.5629 104.71 23.5629 104.71L24.117 82.1611L23.2461 74.1406L19.994 84.9301C19.994 84.9301 16.5403 107.422 16.1947 110.59C14.2663 112.902 11.1294 110.932 11.1294 110.932L12.4531 85.3585L14.0071 54.276L33.0918 51.1692L31.4573 82.2468C31.4573 82.2468 29.6152 98.7742 29.0969 103.74Z" fill="url(#paint3_linear_3437_17019)"/>
<path d="M11.4323 38.7766C12.3409 46.1777 13.9287 53.6251 14.0141 55.9303C23.7714 60.1262 33.2696 53.3612 33.0739 51.2204C32.918 49.5237 34.054 38.684 33.9309 28.7029C33.6767 28.2835 33.4821 27.864 33.4185 27.4671C32.9379 21.5273 30.1724 17.362 29.0433 15.8396C27.7971 15.6378 26.384 15.7589 24.9164 16.0878C25.2312 16.265 25.6423 16.461 26.1656 16.6776C28.9291 17.8199 30.368 23.0142 30.368 28.9511C28.238 31.5202 22.9999 31.2918 22.9999 31.2918C22.0466 24.3938 19.3635 20.5731 17.7945 18.8676C17.0895 19.2389 16.4222 19.615 15.8105 19.9803C18.3387 22.9601 19.1003 29.5055 18.7975 32.6625C18.5274 35.4729 13.5812 37.8647 11.4323 38.7766Z" fill="url(#paint4_linear_3437_17019)"/>
<path d="M20.3763 14.1154C20.3763 14.1154 20.28 17.3916 19.1102 18.5397C18.8511 19.5392 20.4915 22.9069 23.7446 23.2496C26.9967 23.5923 29.0403 20.8233 28.379 19.8533C27.7166 18.8824 27.7464 15.5147 27.7464 15.5147L20.3763 14.1154Z" fill="#F4BEBE"/>
<path d="M19.0804 2.27025C20.6096 0.681904 23.9729 0.72917 26.2757 1.98468C28.5785 3.24019 30.1326 6.49369 30.3053 9.23415C30.4781 11.9746 30.5357 16.3694 28.5785 17.5688C26.6213 18.7672 20.0009 16.5407 18.7348 11.5748C17.4687 6.6089 17.8719 3.52576 19.0804 2.27025Z" fill="#FDD1D0"/>
<path d="M30.7591 4.35387C29.8863 -0.0901508 22.4268 0.686791 20.9155 0.986144C19.4041 1.28648 17.1301 3.68328 17.001 7.8368C16.8719 11.9893 19.282 13.1592 19.282 13.1592C19.282 13.1592 19.3604 13.2783 19.4955 13.3926C19.7219 13.7756 19.9791 14.137 20.264 14.4728L20.3902 13.4664C20.561 13.3522 20.7447 13.1543 20.9343 12.8323C21.0227 12.6826 22.1776 12.2336 22.261 12.1321C22.822 11.4478 22.5559 7.39565 22.5559 7.39565C22.5698 7.39466 23.0941 8.22675 27.2479 8.26515C31.8673 8.30749 30.7591 4.35387 30.7591 4.35387Z" fill="#0A0A71"/>
<path d="M21.8002 12.3459C21.8002 12.3459 21.4547 10.276 20.2035 10.2622C18.9513 10.2484 18.6057 12.1745 20.0446 13.2449C21.4845 14.3153 21.8588 12.9022 21.8002 12.3459Z" fill="#FDD1D0"/>
<path d="M52.2429 30.0028C52.0314 29.799 51.6163 29.8758 51.097 30.3553C49.9799 31.3853 48.2898 32.9422 47.5023 33.6679L47.9929 30.0727L51.667 26.6341L53.5974 24.0138L50.6094 22.4215C49.1497 21.0793 47.0376 22.1083 44.8003 24.1703C43.3486 25.5086 42.1689 27.3716 41.3923 29.3637C41.3933 29.3549 41.3923 29.3618 41.3894 29.3706C41.3059 29.5853 41.2265 29.8009 41.153 30.0176C40.7171 31.0377 39.5732 33.1421 36.8166 35.6826C36.8176 35.6876 13.2048 57.4507 13.2048 57.4507C10.8732 59.5935 9.41353 60.1872 8.61614 60.3172C8.36789 60.2749 8.10871 60.2631 7.84159 60.2818C6.77709 60.3586 5.5825 60.9238 4.40182 62.0129C1.38705 64.7918 -0.419236 69.9251 0.377156 73.4563C0.683002 74.8132 1.33044 75.7379 2.18244 76.2056C2.18344 76.2115 5.52094 78.0775 5.52094 78.0775C5.52094 78.0775 8.69061 76.9481 9.15633 76.435C9.62206 75.922 18.9881 63.3501 18.9881 63.3501L44.707 41.1301L48.8985 39.4364L55.5 31.8068L52.2429 30.0028ZM6.6897 72.1584C6.63707 72.2067 6.58544 72.253 6.5338 72.2973C6.51692 72.312 6.50004 72.3248 6.48316 72.3396C6.4484 72.3691 6.41265 72.3977 6.3779 72.4253C6.35804 72.441 6.33818 72.4558 6.31832 72.4716C6.28655 72.4962 6.25378 72.5208 6.222 72.5444C6.20115 72.5592 6.18029 72.574 6.15944 72.5887C6.12766 72.6104 6.09688 72.6321 6.0651 72.6527C6.04425 72.6665 6.0234 72.6803 6.00254 72.6931C5.97077 72.7138 5.93899 72.7325 5.90622 72.7522C5.88636 72.764 5.8665 72.7758 5.84763 72.7876C5.81288 72.8073 5.77812 72.8261 5.74337 72.8448C5.72649 72.8536 5.7106 72.8625 5.69372 72.8714C5.59144 72.9235 5.49015 72.9688 5.38986 73.0072C5.37397 73.0131 5.35709 73.0191 5.3412 73.025C5.30744 73.0368 5.27368 73.0496 5.23991 73.0604C5.22105 73.0663 5.20218 73.0722 5.18331 73.0781C5.15253 73.087 5.12274 73.0959 5.09196 73.1037C5.0721 73.1087 5.05224 73.1136 5.03237 73.1185C5.00258 73.1254 4.97379 73.1323 4.944 73.1372C4.92414 73.1412 4.90428 73.1451 4.88541 73.1481C4.85562 73.153 4.82583 73.1569 4.79703 73.1609C4.77916 73.1638 4.76029 73.1658 4.74242 73.1677C4.71064 73.1707 4.67886 73.1727 4.64808 73.1746C4.63318 73.1756 4.6173 73.1766 4.6024 73.1776C4.55673 73.1796 4.51105 73.1796 4.46537 73.1776C4.56765 72.1939 4.74937 70.8763 5.06812 69.6119C5.52689 67.7912 7.68271 65.6908 8.77502 64.7189C8.80282 64.7731 8.82864 64.8292 8.85347 64.8863C8.87829 64.9444 8.90014 65.0005 8.92099 65.0576C8.92298 65.0635 8.92595 65.0695 8.92794 65.0764C8.94681 65.1285 8.96369 65.1837 8.98057 65.2388C8.98355 65.2497 8.98752 65.2595 8.9905 65.2713C9.00937 65.3363 9.02625 65.4033 9.04214 65.4722C9.50687 67.5352 8.4513 70.5346 6.6897 72.1584Z" fill="url(#paint5_linear_3437_17019)"/>
<path d="M13.5672 72.5965C13.751 72.1967 13.9158 71.794 14.0628 71.3873C14.6347 70.2539 15.8134 68.4174 18.144 66.2688C18.143 66.2638 41.7558 44.5007 41.7558 44.5007C44.6255 41.8616 46.1726 41.5721 46.7933 41.6056C46.8797 41.6233 46.968 41.6361 47.0574 41.647C47.1001 41.6598 47.122 41.6706 47.122 41.6706C47.115 41.6657 47.1071 41.6568 47.0991 41.6509C48.3553 41.7789 49.8309 41.1999 51.2886 39.8568C53.5259 37.7948 55.2954 35.2463 55.7522 32.1386C55.6459 31.6728 55.1475 31.6196 54.4732 32.24C52.9757 33.6206 50.4475 35.9504 50.4475 35.9504L48.2351 34.3364L49.0832 29.9013C49.0832 29.9013 51.6114 27.5715 53.1088 26.1909C53.7831 25.5705 54.0899 24.7739 53.9856 24.3061C52.5259 22.965 50.4148 23.993 48.1765 26.056C46.7248 27.3942 45.5441 29.2573 44.7685 31.2494C44.7705 31.2405 44.7685 31.2474 44.7656 31.2572C44.6821 31.4719 44.6027 31.6876 44.5292 31.9042C44.0933 32.9244 42.9493 35.0287 40.1928 37.5693C40.1937 37.5742 16.581 59.3374 16.581 59.3374C14.2494 61.4801 12.7897 62.0739 11.9923 62.2039C11.7441 62.1615 11.4849 62.1497 11.2178 62.1684C10.1523 62.2452 8.9587 62.8105 7.77801 63.8995C4.76225 66.6784 2.95796 71.8117 3.75335 75.3429C4.54975 78.8741 7.64991 79.4856 10.6647 76.7067C11.8454 75.6176 12.8404 74.1672 13.5663 72.5936L13.5672 72.5965ZM6.02635 73.2484C5.56162 71.1845 6.6162 68.185 8.37779 66.5602C10.1394 64.9364 11.9516 65.2939 12.4173 67.3569C12.8831 69.4198 11.8275 72.4203 10.0659 74.0441C8.30431 75.6688 6.49207 75.3114 6.02635 73.2484Z" fill="url(#paint6_linear_3437_17019)"/>
<path d="M13.8294 21.6553C12.2773 21.5371 8.84448 22.9935 10.2744 31.6433C11.7034 40.292 12.8205 44.9556 13.6556 45.2924C14.4907 45.6282 19.9195 46.9122 18.8957 38.5589C18.2582 33.3734 18.6514 22.0216 13.8294 21.6553Z" fill="url(#paint7_linear_3437_17019)"/>
<path d="M21.1141 54.1923C21.1141 54.1923 20.8986 55.3395 21.7833 56.268C22.6691 57.1966 24.7157 59.9391 24.1109 60.2551C23.5062 60.5712 23.3245 59.4743 22.4308 59.427C21.979 59.364 22.8816 61.3708 23.1021 62.1428C23.3225 62.9149 22.396 63.7913 21.1597 63.9065C19.9234 64.0227 19.2115 62.9533 18.8142 60.4826C18.417 58.012 18.2214 55.2361 18.2214 55.2361L21.1141 54.1923Z" fill="#FDD1D0"/>
<path d="M17.3674 39.7612C15.009 39.0503 12.2405 37.4994 12.4927 41.8803C12.745 46.2613 17.5472 55.0391 18.1221 56.1902C18.6971 57.3413 21.5192 56.5457 21.3563 55.3857C20.9532 52.5172 19.7596 44.8335 19.0188 40.1768C18.1847 40.099 17.3674 39.7612 17.3674 39.7612Z" fill="url(#paint8_linear_3437_17019)"/>
<path d="M44.4459 42.9074C44.4459 42.9074 44.3376 40.489 43.2582 41.0453C42.1788 41.6017 40.7112 43.1861 40.8402 43.5711C40.9693 43.9562 40.8621 45.1122 41.445 45.2619C42.0279 45.4126 44.2939 44.7922 44.4459 42.9074Z" fill="#FDD1D0"/>
<path d="M44.4289 42.7686C44.4289 42.7686 45.2273 42.4633 45.276 41.778C45.3246 41.0926 44.8609 41.2216 44.8222 41.3929C44.7844 41.5643 44.5312 42.0881 44.3525 42.1955C44.1757 42.3028 44.4289 42.7686 44.4289 42.7686Z" fill="#FDD1D0"/>
<defs>
<linearGradient id="paint0_linear_3437_17019" x1="41.6753" y1="56.9672" x2="29.598" y2="19.9163" gradientUnits="userSpaceOnUse">
<stop stop-color="#FF5A72"/>
<stop offset="1" stop-color="#FEAE6E"/>
</linearGradient>
<linearGradient id="paint1_linear_3437_17019" x1="43.3188" y1="56.4316" x2="31.2415" y2="19.3807" gradientUnits="userSpaceOnUse">
<stop stop-color="#FF5A72"/>
<stop offset="1" stop-color="#FEAE6E"/>
</linearGradient>
<linearGradient id="paint2_linear_3437_17019" x1="31.1236" y1="60.4068" x2="19.0473" y2="23.3549" gradientUnits="userSpaceOnUse">
<stop stop-color="#FF5A72"/>
<stop offset="1" stop-color="#FEAE6E"/>
</linearGradient>
<linearGradient id="paint3_linear_3437_17019" x1="23.4179" y1="19.9528" x2="21.6514" y2="103.887" gradientUnits="userSpaceOnUse">
<stop stop-color="#060180"/>
<stop offset="1" stop-color="#2B2CB2"/>
</linearGradient>
<linearGradient id="paint4_linear_3437_17019" x1="23.0366" y1="18.9434" x2="21.2252" y2="105.029" gradientUnits="userSpaceOnUse">
<stop stop-color="#060180"/>
<stop offset="1" stop-color="#2B2CB2"/>
</linearGradient>
<linearGradient id="paint5_linear_3437_17019" x1="57.2795" y1="31.7182" x2="-61.4772" y2="105.181" gradientUnits="userSpaceOnUse">
<stop stop-color="#D0D4F9"/>
<stop offset="1" stop-color="#636C9E"/>
</linearGradient>
<linearGradient id="paint6_linear_3437_17019" x1="72.2649" y1="16.7357" x2="-31.6881" y2="102.19" gradientUnits="userSpaceOnUse">
<stop stop-color="#F7F9FC"/>
<stop offset="0.516" stop-color="#D0D4F9"/>
<stop offset="1" stop-color="#636C9E"/>
</linearGradient>
<linearGradient id="paint7_linear_3437_17019" x1="24.3275" y1="62.6224" x2="12.2502" y2="25.5705" gradientUnits="userSpaceOnUse">
<stop stop-color="#FF5A72"/>
<stop offset="1" stop-color="#FEAE6E"/>
</linearGradient>
<linearGradient id="paint8_linear_3437_17019" x1="22.8736" y1="63.096" x2="10.7964" y2="26.0451" gradientUnits="userSpaceOnUse">
<stop stop-color="#FF5A72"/>
<stop offset="1" stop-color="#FEAE6E"/>
</linearGradient>
</defs>
</svg>
