<svg width="56" height="103" viewBox="0 0 56 103" fill="none" xmlns="http://www.w3.org/2000/svg">
<path d="M21.6653 92.3812C21.3021 92.4274 19.3439 92.1843 19.347 92.5298C19.3516 93.0472 19.3398 93.6147 19.8097 93.8795C20.4777 94.2559 25.8325 95.1462 28.2683 95.3052C33.0947 95.6204 36.3887 94.0534 36.4242 92.6489C36.4596 91.2444 32.46 91.0065 32.46 91.0065L21.6653 92.3812Z" fill="#5E4F4C"/>
<path d="M33.8506 93.7638C29.0062 95.3238 19.5148 92.7356 19.3471 92.5298C18.8456 91.9143 19.1876 90.5831 19.6511 90.2216C20.0764 89.8899 20.3268 90.4785 21.3783 90.3215C22.4087 90.1677 24.0761 89.979 24.8541 89.8266C25.3786 89.7238 25.496 89.8923 25.6293 89.9007C25.8106 89.912 26.1335 89.7706 26.0027 89.6498C24.6854 88.4325 26.7142 87.8707 28.0293 87.2676C28.4702 87.0655 29.0569 89.3732 31.4991 89.7226C31.5613 89.7311 31.6238 89.7412 31.688 89.7524C31.8163 89.7735 31.9501 89.7997 32.0865 89.8317C34.6057 90.3899 38.3301 92.3219 33.8506 93.7638Z" fill="#CEC5C0"/>
<path d="M30.964 91.86C29.0324 92.6303 26.2933 90.6221 25.3851 89.887C25.4934 89.8929 25.5758 89.8969 25.6293 89.9008C25.8106 89.9122 25.9247 89.81 26.0026 89.6499C27.7586 91.0191 30.8781 91.2915 31.4646 90.488C31.6606 90.2207 31.7135 89.9707 31.688 89.7525C31.8162 89.7736 31.9501 89.7998 32.0864 89.8318C32.4358 90.4141 32.5135 91.2423 30.964 91.86Z" fill="#BCB2AD"/>
<path d="M29.0319 88.4379C28.349 89.1126 27.1027 89.8297 26.792 90.739C26.6989 91.0116 27.1155 91.1769 27.2088 90.9036C27.4937 90.0697 28.6865 89.4059 29.3142 88.7858C29.5174 88.5851 29.2374 88.2348 29.0319 88.4379ZM29.6567 88.9482C29.4459 89.4528 29.2352 89.9574 29.0244 90.462C28.871 90.8293 28.6777 91.1794 28.6955 91.5852C28.7082 91.8729 29.1508 91.8025 29.1383 91.517C29.1213 91.1297 29.4341 90.6435 29.5817 90.2903C29.7456 89.8978 29.9095 89.5053 30.0734 89.1129C30.1849 88.8461 29.7678 88.6822 29.6567 88.9482ZM30.8432 89.5025C30.5647 90.1011 30.3301 90.7156 30.139 91.3476C30.056 91.6222 30.4723 91.7884 30.5558 91.5122C30.7469 90.8803 30.9814 90.2657 31.2599 89.6671C31.382 89.405 30.9644 89.242 30.8432 89.5025Z" fill="#F0F3FF"/>
<path d="M37.5481 84.4487C37.4899 84.6275 37.4268 84.8193 37.3607 85.0196C37.2756 85.2781 37.1843 85.5512 37.0918 85.8317C36.924 86.3425 36.75 86.8784 36.5926 87.3972C36.5393 87.5724 36.4879 87.7463 36.4395 87.916C36.2588 88.545 36.1168 89.1232 36.0555 89.566C35.7805 91.5621 36.1934 91.8365 36.3997 92.5475C36.6062 93.2581 28.3493 93.3511 28.0737 93.2813C27.7981 93.2127 29.5877 93.3009 31.2825 90.3916C31.566 89.9059 31.6744 88.9174 31.6622 87.8002C31.6597 87.532 31.6493 87.2557 31.6334 86.9776C31.6132 86.6316 31.5832 86.2819 31.5446 85.9389C31.506 85.5904 31.4643 85.2523 31.4257 84.9393C31.3823 84.5945 31.3418 84.2791 31.3106 84.0102C31.25 83.4914 31.2249 83.1454 31.2824 83.0982C31.2824 83.0982 37.4317 83.3732 37.8446 83.0982C37.9964 82.9971 37.8317 83.5766 37.5481 84.4487Z" fill="#FEA695"/>
<path d="M38.2443 87.208C38.2106 87.2147 37.9723 87.2515 37.9129 87.2563C38.1328 87.2233 38.2247 87.2098 38.2443 87.208ZM37.5478 84.4487C37.4897 84.6276 37.4266 84.8193 37.3604 85.0196C37.2753 85.2781 37.1841 85.5512 37.0915 85.8317C36.9237 86.3425 36.7498 86.8784 36.5924 87.3972C35.2462 87.4205 33.032 87.2098 31.6332 86.9777C31.6129 86.6316 31.5829 86.2819 31.5443 85.939C31.5057 85.5904 31.4641 85.2524 31.4255 84.9394C31.3821 84.5946 31.3416 84.2791 31.3104 84.0103C32.6652 84.0617 35.4887 84.153 36.6402 84.066C36.5906 84.2166 37.1191 84.3269 37.5478 84.4487Z" fill="#E57E73"/>
<path d="M23.8273 94.9436C23.8273 94.9436 23.6822 95.4291 23.97 95.5909C24.2578 95.7527 27.0396 96.4405 29.1883 96.137C31.337 95.8336 32.469 94.9435 33.1596 94.7615C33.8503 94.5794 33.8503 94.5794 33.8503 94.5794C33.8503 94.5794 33.9462 95.2065 34.0421 95.2267C34.138 95.2469 36.0949 95.247 36.2484 95.166C36.4019 95.0851 36.7631 93.3392 36.5989 93.2802C35.9945 93.0629 23.8273 94.9436 23.8273 94.9436Z" fill="#5E4F4C"/>
<path d="M30.31 91.5239C30.4162 91.4607 30.5405 91.4426 30.6591 91.4728C31.3135 91.6392 33.5274 92.1463 34.5025 91.6665C34.9308 91.4558 35.2396 91.2449 35.4586 91.0632C35.7142 90.8511 36.084 90.923 36.2653 91.2077C36.3336 91.3149 36.4831 91.7568 36.5361 91.8688C36.9006 92.6375 36.9204 93.3657 36.3062 93.5275C35.692 93.6893 33.7307 94.1344 32.0254 94.8221C31.5714 95.0052 31.2046 95.1539 30.9106 95.2736C30.1443 95.5855 29.3338 95.7573 28.5127 95.7806C26.885 95.8267 24.289 95.7655 23.8271 94.9436C23.1449 93.7298 27.2888 92.8803 28.4399 92.4352C29.296 92.1043 30.0035 91.7062 30.31 91.5239Z" fill="#B28E87"/>
<path d="M54.3292 92.9828C54.3292 92.9828 46.6908 96.0793 46.416 95.5977C46.1405 95.1161 48.6179 94.565 48.824 92.5012C48.936 91.3789 48.2426 89.3006 47.5679 87.5159C47.0017 86.0183 46.447 84.7268 46.3942 84.3818C46.2785 83.6247 53.6408 82.3859 53.6408 82.3859C53.6408 82.4893 53.6118 83.4902 53.5865 84.7636C53.5439 86.8889 53.5121 89.7743 53.6408 90.5053C53.8469 91.6753 54.3292 92.9828 54.3292 92.9828Z" fill="#FEA695"/>
<path d="M53.6408 82.3859C53.6408 82.4893 53.6118 83.4902 53.5865 84.7636C53.2951 84.8077 52.9553 84.8403 52.5626 84.8519C51.1778 84.8931 48.7965 86.5736 47.5679 87.5159C47.0017 86.0183 46.447 84.7268 46.3942 84.3819C46.2786 83.6247 53.6408 82.3859 53.6408 82.3859Z" fill="#E57E73"/>
<path d="M41.039 98.4171C41.039 98.4171 41.0028 98.9537 41.9203 99.3819C42.8377 99.81 45.9877 99.5654 47.8226 99.0454C49.6575 98.5256 51.89 97.2033 52.0735 97.2222C52.257 97.2411 52.3487 97.9139 52.3487 97.9139C52.3487 97.9139 55.1386 97.6081 55.2116 97.3635C55.2846 97.1188 55.1928 94.7885 55.1928 94.7885C55.1928 94.7885 48.526 98.4032 46.5687 98.5867C44.6116 98.7702 42.6655 99.4708 41.039 98.4171Z" fill="#5E4F4C"/>
<path d="M41.281 97.7738C41.5759 97.4493 41.9768 97.2417 42.4067 97.1556C42.8769 97.0614 43.6796 96.8428 44.5198 96.3543C45.8348 95.5897 47.5936 94.1588 47.9005 94.2594C50.3611 95.0658 51.942 93.0755 52.991 92.5928C54.04 92.11 54.1385 92.134 54.3293 92.4092C54.5201 92.6845 55.3458 94.5683 55.1929 94.7885C55.0399 95.0087 48.0061 99.4737 43.5106 99.1984C40.6988 99.0263 40.8062 98.2964 41.281 97.7738Z" fill="#B28E87"/>
<path d="M14.8323 59.6289C14.8323 59.6289 20.4833 74.5577 19.9833 81.8656C19.4834 89.1734 17.1983 90.7153 20.7612 91.3378C24.324 91.9605 29.6215 89.2054 29.3198 88.3093C29.0181 87.4132 31.9318 76.2649 30.915 70.8374C29.8982 65.4099 29.3757 50.2082 27.7782 50.4469C26.1807 50.6857 15.4766 48.3594 13.7441 51.3112C12.0117 54.263 14.8323 59.6289 14.8323 59.6289Z" fill="#DBD4D1"/>
<path d="M24.7521 50.4415C24.0295 52.3336 22.7814 55.0576 21.6836 56.7214C21.5293 56.9555 21.3761 57.1879 21.2241 57.418C18.7111 61.2305 18.1429 65.0541 17.2775 68.8944C16.2462 73.4735 14.8321 74.7978 13.7441 80.8678C13.2238 83.7687 12.8821 94.0142 12.8891 95.4809C12.895 96.745 5.84915 96.1547 2.73719 95.3105C2.06432 95.1279 1.6125 94.4983 1.65809 93.8026C1.87871 90.4365 2.56802 80.0992 3.05395 74.7978C3.83556 66.2785 3.53214 62.743 2.06555 58.0437C1.85341 57.3638 1.68227 56.699 1.54412 56.0596C0.727279 52.276 1.07762 49.3641 1.07762 49.3641C1.07762 49.3641 4.71197 48.7495 10.2068 48.5621C17.2243 48.3223 25.2361 48.1049 25.3436 48.3558C25.4135 48.5205 25.1718 49.3397 24.7521 50.4415Z" fill="#F7EEE8"/>
<path d="M23.3704 50.0444C20.4857 49.6455 15.3355 48.9783 10.2066 48.5621C4.71185 48.7494 1.0775 49.3641 1.0775 49.3641C1.0775 49.3641 0.727157 52.276 1.544 56.0596C4.04432 56.0617 7.12099 55.6968 10.2736 55.9705C8.58673 57.7889 6.25002 58.8397 4.00882 59.8306C3.77111 59.9357 3.97679 60.2845 4.21306 60.18C6.58046 59.1333 9.05382 58.0108 10.774 56.0169C11.0218 56.0414 11.2608 56.0675 11.4888 56.0953C15.2858 56.5584 20.0192 55.7739 21.2239 57.418C21.376 57.1879 21.5292 56.9555 21.6835 56.7213C22.7813 55.0576 24.0294 52.3336 24.752 50.4415C24.3833 50.2571 23.9266 50.1212 23.3704 50.0444Z" fill="#DBD4D1"/>
<path d="M4.58453 98.0226C4.17782 98.012 2.0683 97.4139 2.01332 97.794C1.93095 98.363 1.82205 98.9842 2.29341 99.3545C2.96345 99.8809 8.69408 101.764 11.3423 102.35C16.5897 103.512 20.4724 102.348 20.7486 100.811C21.0249 99.2747 16.6724 98.3374 16.6724 98.3374L4.58453 98.0226Z" fill="#5E4F4C"/>
<path d="M17.7335 101.601C12.1494 102.495 2.16259 98.0485 2.01318 97.794C1.56649 97.0333 2.04398 95.4084 2.61409 95.0898C3.13733 94.7974 4.1899 95.5806 5.35228 95.7919C6.84359 96.0631 7.5526 95.3821 8.43275 95.3462C9.02624 95.322 9.21227 95.9368 9.35725 95.9685C9.55444 96.0116 9.93287 95.9109 9.80972 95.7561C8.56876 94.1965 10.8919 93.9224 12.4382 93.4824C12.9565 93.3349 13.2109 95.9685 15.834 96.7651C15.9009 96.785 15.9678 96.8065 16.0364 96.8298C16.1737 96.8746 16.3163 96.9261 16.4607 96.9841C19.1331 98.0229 22.8969 100.774 17.7335 101.601Z" fill="#CEC5C0"/>
<path d="M14.885 99.022C12.6334 99.5414 9.96452 96.8729 9.09131 95.912C9.20928 95.9369 9.29907 95.9552 9.35715 95.9684C9.55434 96.0116 9.69692 95.9186 9.80961 95.756C11.5067 97.5566 14.8867 98.383 15.6666 97.5998C15.9272 97.3392 16.0276 97.0737 16.0364 96.8298C16.1737 96.8745 16.3163 96.926 16.4606 96.9841C16.7458 97.6827 16.6912 98.6054 14.885 99.022Z" fill="#BCB2AD"/>
<path d="M13.3414 94.9369C12.4773 95.5625 10.9874 96.1393 10.4925 97.0856C10.3441 97.3692 10.7737 97.6212 10.9224 97.3369C11.3763 96.4691 12.7985 95.9417 13.5927 95.3668C13.8497 95.1807 13.6016 94.7486 13.3414 94.9369ZM13.9415 95.603C13.6247 96.1216 13.3079 96.6402 12.9912 97.1588C12.7606 97.5362 12.4891 97.8881 12.4401 98.3367C12.4054 98.6548 12.9035 98.6523 12.9379 98.3367C12.9848 97.9084 13.4105 97.4274 13.6322 97.0644C13.8786 96.661 14.1249 96.2577 14.3713 95.8543C14.5388 95.5801 14.1084 95.3297 13.9415 95.603ZM15.1509 96.4122C14.7438 97.0226 14.3823 97.6579 14.0657 98.3196C13.9281 98.6072 14.3571 98.8601 14.4955 98.5709C14.8122 97.9091 15.1737 97.2738 15.5807 96.6635C15.759 96.3962 15.328 96.1467 15.1509 96.4122Z" fill="#F0F3FF"/>
<path d="M18.1448 7.63318C18.1448 7.63318 17.7598 14.7292 13.7442 16.7645C13.7442 16.7645 24.3974 25.2174 26.8178 24.5573C29.2381 23.8972 26.341 21.1651 26.176 15.4993C26.011 9.8335 18.1448 7.63318 18.1448 7.63318Z" fill="#E57E73"/>
<path d="M24.8252 20.7668C24.6703 21.6154 24.5049 22.6045 24.5182 22.8948C24.5294 23.1432 24.2738 23.3167 24.0478 23.2128C22.8547 22.6637 21.4614 21.8908 20.0259 20.7986C17.4829 18.8631 15.859 16.7253 14.8855 15.1939C14.8907 14.9986 14.9283 14.6667 15.13 14.3378C15.2034 14.2187 15.2908 14.1123 15.3873 14.0186C15.7636 13.6533 16.2799 13.481 16.6458 13.4885C17.6945 13.5082 17.3482 15.5043 19.4576 16.7825C21.0711 17.7607 24.0049 19.3741 24.5426 19.399C25.0808 19.4233 25.0808 19.4233 25.0808 19.4233C25.0808 19.4233 24.9564 20.0442 24.8252 20.7668Z" fill="#F3F6FF"/>
<path d="M25.0808 19.4233C25.0808 19.4233 24.9565 20.0442 24.8252 20.7668C24.6504 21.7741 24.6504 21.7741 24.6504 21.7741C24.6504 21.7741 24.3073 21.1102 23.5979 20.7923C22.8892 20.4744 20.5304 19.077 18.9195 17.883C17.5016 16.8319 16.2075 14.6164 15.3872 14.0187C15.7635 13.6534 16.2798 13.4811 16.6457 13.4886C17.6944 13.5082 17.3481 15.2154 19.4576 16.4935C21.071 17.4716 24.0049 19.3742 24.5425 19.399C25.0808 19.4233 25.0808 19.4233 25.0808 19.4233Z" fill="#E2E6ED"/>
<path d="M25.0804 19.4232C25.0804 19.4232 25.8383 22.6048 26.4006 22.5053C26.9629 22.4058 27.5252 20.67 27.4763 20.5478C27.4275 20.4255 27.6964 17.125 26.7184 17.3207C25.7406 17.5163 25.0804 19.4232 25.0804 19.4232Z" fill="#E2E6ED"/>
<path d="M24.6905 19.9099L26.1677 19.2072V20.7667L27.5021 20.5478L26.9797 24.0438L24.6905 25.034L23.7517 22.907L24.6905 19.9099Z" fill="#C5C7C9"/>
<path d="M29.1011 49.9814C29.1 49.9861 29.0994 49.9907 29.0988 49.9947C29.0931 50.0231 29.0878 50.0513 29.0821 50.0791C29.0815 50.082 29.0809 50.0854 29.0804 50.0883C28.8139 51.4272 28.5497 52.3377 28.3098 52.5747C27.9756 52.906 27.2241 53.1545 26.2251 53.3453C23.5722 53.8535 19.1741 53.9552 16.2102 54.1148C12.13 54.335 0.0872938 55.0786 0.0872938 53.4282C0.0872938 51.7783 -0.572873 40.8864 1.73773 29.8847C3.45527 21.7052 9.34071 17.3832 12.8891 15.916C14.1141 15.4096 14.9112 15.194 14.9112 15.194C15.9547 17.0225 21.2726 20.7107 24.6995 22.482C24.921 22.5964 25.1343 22.7028 25.3378 22.7994C25.8477 23.0439 26.2974 23.2312 26.6616 23.3463C26.724 23.3659 26.8616 21.6866 27.0744 20.1598C27.2547 18.8678 27.4889 17.6856 27.7779 17.7365C28.4636 17.8561 28.9549 18.4718 29.3197 19.3811C30.2614 21.7294 30.3609 26.0356 30.7973 28.811C31.2811 31.8865 30.1845 44.4363 29.1011 49.9814Z" fill="#C5C5E2"/>
<path d="M29.1011 49.9814C29.0999 49.986 29.0994 49.9906 29.0988 49.9947C29.0976 49.9982 29.0965 50.0016 29.0959 50.0051C29.0907 50.0282 29.0861 50.0531 29.082 50.0791C29.0814 50.082 29.0808 50.0854 29.0803 50.0883C28.8138 51.4272 28.5496 52.3377 28.3097 52.5747C27.9755 52.9059 27.224 53.1545 26.225 53.3453C19.0428 52.2958 16.6027 50.9396 13.744 49.6453C10.3425 48.1052 5.89434 44.1385 4.33764 41.133C3.3108 39.1506 3.20644 35.379 3.67406 33.5065C4.39503 30.6196 6.86476 29.6189 7.32902 29.2153C9.30941 27.4933 16.2101 26.831 16.2101 26.831C16.2101 26.831 22.8796 34.8619 23.6751 35.7424C24.2454 36.3731 25.6217 35.793 26.296 35.1189C26.6707 34.7443 27.0083 32.4592 26.9797 32.1118C26.6298 27.8552 26.702 27.5395 24.5185 22.8948C24.5921 22.7013 24.6642 22.5525 24.6995 22.4821C25.4735 22.8827 26.1516 23.1851 26.6615 23.3463C26.7239 23.366 26.8615 21.6866 27.0742 20.1598C28.0593 19.6222 28.997 19.3968 29.3196 19.3812C30.2613 21.7294 30.3607 26.0356 30.7971 28.8111C31.281 31.8865 30.1844 44.4363 29.1011 49.9814Z" fill="#B2B2CC"/>
<path d="M24.5427 23.433C21.3487 23.7145 15.0411 17.9764 12.8889 15.916C14.1139 15.4096 14.9111 15.194 14.9111 15.194C15.9545 17.0225 21.2724 20.7107 24.6994 22.482C24.9208 22.5964 25.1341 22.7028 25.3376 22.7994C25.3832 23.1514 25.1508 23.3792 24.5427 23.433ZM16.6441 25.3158C16.1586 24.516 15.6732 23.7162 15.1877 22.9163C14.7444 22.1859 14.302 21.4479 13.735 20.8048C12.729 19.6636 11.3707 18.8614 9.89458 18.5042C9.75002 18.4693 9.68831 18.6922 9.83308 18.7272C11.3042 19.0832 12.6446 19.888 13.6322 21.0381C14.1817 21.678 14.6101 22.4104 15.0462 23.129C15.5123 23.8969 15.9783 24.6647 16.4444 25.4326C16.5215 25.5596 16.7216 25.4435 16.6441 25.3158Z" fill="#B2B2CC"/>
<path d="M55.9902 81.8939C55.8856 83.7774 54.7254 80.9586 50.0682 83.8652C49.7463 84.0659 49.3317 84.2248 48.8681 84.3485C47.5587 84.6983 45.862 84.7705 44.7798 84.7364C44.7579 84.7358 44.7359 84.7347 44.714 84.7341C44.4555 84.7248 44.211 84.7202 43.9792 84.7197C39.8181 84.7121 39.6591 86.0383 36.098 85.2486C36.0778 85.2446 36.0576 85.24 36.0373 85.2353C35.8674 85.1966 35.6893 85.1538 35.5032 85.1052C34.3343 84.8017 33.1798 84.7 32.1046 84.674C32.0855 84.6734 32.0664 84.6734 32.0473 84.6728C29.1292 84.6104 26.8052 85.0966 26.378 83.6109C26.182 82.9287 26.3584 80.3013 26.7006 76.9859C26.7012 76.9813 26.7018 76.9749 26.7023 76.9674C27.3856 70.3592 28.7256 61.0317 29.0916 58.9164C29.6414 55.7368 29.3199 53.7869 29.3199 53.7869C29.3199 53.7869 36.5589 52.2718 43.0665 51.4566C48.2965 50.8005 53.0548 50.5964 53.2039 51.9931C53.2345 52.281 53.2664 52.5909 53.2987 52.9204C53.3745 53.7008 53.453 54.5899 53.5334 55.5536C53.789 58.6094 54.0589 62.4133 54.2896 65.8703C54.6242 70.8783 56.1371 79.2682 55.9902 81.8939Z" fill="#FB9177"/>
<path d="M53.5331 55.5536C52.6873 56.5288 51.0207 57.6723 48.2343 58.9846C42.8609 61.5149 35.6191 61.5958 31.9523 63.059C28.3253 64.506 26.7812 76.2789 26.702 76.9674C27.3854 70.3592 28.7253 61.0317 29.0913 58.9164C29.6411 55.7368 29.3197 53.7869 29.3197 53.7869C29.3197 53.7869 36.5586 52.2718 43.0662 51.4566C43.7416 51.3086 52.0894 49.534 53.2036 51.9931C53.3123 52.2329 53.3619 52.5344 53.2984 52.9204C53.3741 53.7008 53.4528 54.5899 53.5331 55.5536ZM36.0978 85.2486C36.0776 85.2446 36.0573 85.24 36.0371 85.2353C35.8671 85.1966 35.6891 85.1538 35.503 85.1052C34.3341 84.8017 33.1796 84.7 32.1044 84.674C32.4264 80.6955 33.5658 75.5314 34.9601 75.5314C36.3418 75.5314 36.3308 81.4499 36.0978 85.2486ZM48.8679 84.3485C47.5585 84.6983 45.8618 84.7705 44.7796 84.7364C44.7577 84.7358 44.7357 84.7347 44.7137 84.7341C44.4553 84.7248 44.2108 84.7202 43.979 84.7197C43.8605 79.7718 43.0754 71.8912 43.9801 66.2629C44.2067 64.8523 44.42 66.4947 44.5929 68.9267C44.9745 74.3053 46.4278 79.5498 48.8679 84.3485Z" fill="#EF846F"/>
<path d="M53.2037 54.798C51.3145 56.7214 49.701 57.418 42.9541 58.5054C40.7452 58.8615 36.7587 58.0099 33.7011 57.7243C33.1305 57.6712 32.5923 57.6376 32.1044 57.6353C29.958 57.6249 28.9319 57.5752 28.2948 55.5258L28.2844 55.4929C27.3212 52.3827 26.5287 49.2258 25.8159 45.9734C25.6026 45.0005 25.5361 44.1027 25.5748 43.2604C25.713 40.2937 27.1611 38.0148 28.1115 35.5556C28.3052 35.0538 28.4682 34.4462 28.6046 33.7786C29.2174 30.7852 29.3053 26.5894 29.3174 25.3754C29.3197 25.1563 29.3197 25.0343 29.3197 25.0343C29.3197 25.0343 29.7625 24.7961 30.4222 24.466C30.9292 24.2122 31.5645 23.9041 32.2247 23.6075C32.4767 23.4942 32.7322 23.3826 32.986 23.2768C34.1248 22.8004 35.2227 22.4322 35.7655 22.5033C37.1587 22.6866 41.6332 24.5937 45.8972 28.6051C50.6664 33.0917 56.8116 51.1254 53.2037 54.798Z" fill="#FFD4A6"/>
<path d="M34.96 24.594C34.96 24.594 36.8544 27.2437 33.5662 30.096C31.7145 31.702 29.8664 32.9738 28.6044 33.7785C29.0767 33.2218 29.8788 32.1081 30.1363 30.5164C30.6682 27.2278 28.4077 24.7862 28.101 24.4656C29.2143 24.7996 29.9516 24.6596 30.4219 24.466L32.1718 23.2433L32.9858 23.2768L34.96 24.594Z" fill="#E57E73"/>
<path d="M51.1676 51.4746C49.6657 52.6927 45.6699 54.0836 40.0196 54.5553C39.0588 54.6356 36.3036 56.515 33.701 57.7244C33.1304 57.6712 32.5923 57.6377 32.1044 57.6354C29.9579 57.625 28.9318 57.5753 28.2947 55.5259L28.2843 55.493C27.3212 52.3828 26.5286 49.2259 25.8158 45.9735C25.6025 45.0006 25.5361 44.1028 25.5748 43.2605C25.8522 43.0212 26.1667 42.801 26.5199 42.6026C26.9148 42.3812 37.0331 39.8127 37.0331 39.8127C37.0331 39.8127 37.269 47.0823 39.8427 48.5044C42.0892 49.7455 39.3981 50.8127 40.4456 50.8127C43.6425 50.8127 49.4246 50.6393 52.7088 48.8703C53.1111 48.6535 51.8399 50.9295 51.1676 51.4746ZM32.6119 24.5938C32.587 24.6493 32.4738 24.9933 32.2968 25.5286C31.4135 28.2005 28.952 35.6262 28.1114 35.5556C28.3051 35.0539 28.4681 34.4463 28.6046 33.7786C29.2173 30.7852 29.3052 26.5894 29.3174 25.3754C29.3197 25.1563 29.3197 25.0343 29.3197 25.0343C29.3197 25.0343 29.7625 24.7961 30.4221 24.466C30.9291 24.2122 31.5644 23.9041 32.2246 23.6075C32.5362 24.0573 32.6119 24.5938 32.6119 24.5938Z" fill="#F2C097"/>
<path d="M52.8682 48.8587C52.2924 49.6409 51.0946 50.9364 49.8476 51.5723C48.9475 52.0313 45.5663 53.0002 42.9539 53.1719C41.948 53.2377 41.056 53.1857 40.4634 52.9412C39.3587 52.4851 38.8991 51.5555 38.7124 50.7664C38.5389 50.0328 38.6014 49.4206 38.6014 49.4206C38.6453 49.3917 39.2622 49.3096 40.0021 49.0998C40.1576 49.0559 40.3189 49.0067 40.4814 48.9506C40.8328 48.8293 41.1901 48.6789 41.5109 48.4916C42.6845 47.8072 43.6135 47.514 44.3956 46.8782C45.1777 46.2428 47.0606 45.3381 47.378 45.5335C47.696 45.7295 47.8914 46.1203 47.2069 46.5602C46.5224 47.0007 45.7048 48.1649 45.5568 48.4125C45.3299 48.792 44.8112 49.5923 45.7645 49.1033C46.7184 48.6142 50.1407 46.2619 50.6789 45.5064C51.2165 44.7514 52.4143 45.2156 51.2165 46.6585C50.0557 48.0563 49.3539 48.972 49.3117 49.0275C49.3927 48.9616 51.3293 47.3765 52.0478 46.6827C52.7815 45.9734 53.27 46.6209 52.4144 47.5933C51.7727 48.3222 50.9657 49.0408 50.6026 49.3547C51.0535 48.9755 52.1716 48.0598 52.6346 47.9048C53.2214 47.7094 53.4434 48.0759 52.8682 48.8587Z" fill="#FEA695"/>
<path d="M42.9539 53.1718C41.948 53.2377 41.0561 53.1857 40.4635 52.9412C39.3587 52.485 38.8991 51.5555 38.7124 50.7664L40.0021 49.0997C40.1576 49.0558 40.319 49.0067 40.4814 48.9506C40.8121 49.9258 41.1364 52.3365 42.9539 53.1718Z" fill="#E57E73"/>
<path d="M38.7726 48.2107C39.046 48.064 39.5794 48.8342 40.3495 48.6508C40.3495 48.6508 40.6062 52.9414 40.3495 53.1981C40.0928 53.4548 37.7825 53.5649 37.7825 53.1981C37.7825 52.8314 38.7726 48.2107 38.7726 48.2107Z" fill="#F3F6FF"/>
<path d="M10.5818 21.8405C12.6312 21.4833 14.6556 22.5947 15.487 24.5017C17.3852 28.8556 21.36 37.7581 22.6003 38.8758C24.2505 40.3629 35.7014 46.2161 37.269 47.0822C39.8425 48.5041 39.8425 48.5041 39.8425 48.5041C39.8425 48.5041 38.9927 53.9324 38.0026 54.2987C37.0124 54.665 17.9546 47.7539 14.9112 45.3137C8.18822 39.9229 4.37349 32.1118 5.21777 26.2395C5.4267 24.7859 7.44184 22.3877 10.5818 21.8405Z" fill="#C5C5E2"/>
<path d="M34.4515 45.5975C34.4515 45.5975 27.9633 49.2395 24.752 48.5622C21.5407 47.8849 20.761 47.6529 20.761 47.6529L30.7049 43.6087L34.4515 45.5975Z" fill="#B2B2CC"/>
<path d="M17.6578 10.3835C17.6578 10.3835 18.1997 16.1594 19.7949 17.4795C21.3901 18.7997 26.6247 18.7461 27.716 18.3047C30.0279 17.3695 30.0264 10.8236 29.9714 10.0535C29.9164 9.28335 29.8064 5.81784 29.7513 4.60769C29.6964 3.39754 29.3196 0.537111 25.2407 0.262038C22.0343 0.0458437 17.9246 1.25221 17.7596 5.43281C17.6761 7.5474 17.3278 8.45824 17.6578 10.3835Z" fill="#FEA695"/>
<path d="M21.0233 2.70077C20.5464 4.46106 21.317 5.41435 20.7667 6.18437C20.2163 6.95498 19.1896 6.55147 19.0428 7.3949C18.8965 8.23832 18.4184 9.42402 17.5941 9.41825C16.7691 9.4119 17.6496 9.52229 16.7691 9.4119C16.7691 9.4119 15.3759 8.53149 15.5227 7.63308C15.5285 7.59838 15.5354 7.56427 15.5441 7.53134C15.6996 6.90235 16.2823 6.60811 16.3321 6.32887C16.3477 6.2456 16.3153 6.16355 16.2101 6.07451C15.7332 5.671 15.1557 4.97438 15.706 3.5806C15.765 3.43086 15.8343 3.33029 15.9101 3.26613C16.3651 2.87997 17.0634 3.80085 17.2831 3.36093C17.2906 3.34534 17.2975 3.32971 17.3039 3.31412C17.4964 2.82157 16.8344 2.40418 17.7594 1.71049C17.7831 1.69256 17.8062 1.6758 17.8288 1.65962C18.9341 0.871662 18.9636 1.85558 19.4931 1.78389C20.033 1.71049 21.5003 0.940468 21.0233 2.70077ZM30.2648 2.48052C30.2595 2.52504 30.2532 2.56838 30.2457 2.60943C30.1087 3.41415 29.6641 3.56559 29.515 3.15979C29.3584 2.73317 26.6714 0.631178 26.1725 0.410927C26.0112 0.339823 25.9586 0.265839 25.9823 0.201087C26.058 -0.0122239 26.9523 -0.131318 27.5142 0.23808C28.2478 0.720219 27.8443 1.08732 28.7976 1.12373C29.7514 1.16072 30.3746 1.56423 30.2648 2.48052Z" fill="#F3F7FF"/>
<path d="M19.0426 7.39488C18.8964 8.2383 18.4183 9.424 17.5939 9.41824C16.769 9.41189 17.6494 9.52228 16.769 9.41189C16.769 9.41189 15.3758 8.53147 15.5226 7.63306C15.5283 7.59837 15.5353 7.56426 15.544 7.53132C15.8717 7.58854 16.2828 7.63306 16.769 7.63306C18.1443 7.63301 18.4009 5.94617 19.0426 7.39488Z" fill="#C5D3DD"/>
<path d="M30.2456 2.60945C30.1086 3.41418 29.664 3.56562 29.515 3.15981C29.3583 2.73319 26.6713 0.631201 26.1724 0.410951C26.0111 0.339847 25.9585 0.265862 25.9822 0.201111C27.3806 0.849692 29.0502 1.71222 30.2456 2.60945ZM17.7229 3.37713C17.7929 3.58062 17.5755 3.51587 17.3039 3.31414C17.4963 2.82159 16.8344 2.40421 17.7594 1.71052C17.7831 1.69258 17.8062 1.67582 17.8288 1.65964C17.712 2.19783 17.5981 3.01238 17.7229 3.37713Z" fill="#D4DFE8"/>
<path d="M16.3323 6.32892C16.3478 6.24565 16.3155 6.1636 16.2103 6.07456C15.7334 5.67105 15.1558 4.97443 15.7062 3.58065C15.7652 3.43091 15.8345 3.33034 15.9103 3.26617C15.9773 4.02232 16.2473 5.9133 17.2775 6.00116C17.2774 6.00116 16.8433 6.19595 16.3323 6.32892Z" fill="#C5D3DD"/>
<path d="M17.5109 8.33722L21.4183 8.1806L21.44 8.84504L17.526 8.79945L17.5109 8.33722Z" fill="#664039"/>
<path d="M21.5857 10.7403C21.4897 10.6043 21.4086 10.4583 21.3463 10.3051C21.2868 10.1512 21.2442 9.99239 21.2175 9.8323C21.1641 9.51159 21.1753 9.18901 21.2284 8.87673C21.235 8.83691 21.2423 8.79965 21.2496 8.76292C21.2565 8.72529 21.2646 8.68466 21.2745 8.64393C21.2941 8.56312 21.3188 8.48347 21.3484 8.40575C21.4078 8.25046 21.4872 8.1034 21.5817 7.96861C21.6891 7.81765 21.8283 7.70555 21.9708 7.61875C22.1143 7.53174 22.264 7.46747 22.4149 7.41505C22.7176 7.31272 23.0267 7.26344 23.3347 7.23915C23.6431 7.21823 23.9515 7.22106 24.2579 7.25543C24.4111 7.27124 24.5637 7.29664 24.7152 7.32979C24.8668 7.36236 25.0176 7.40453 25.1657 7.46074C25.3133 7.51759 25.4598 7.58624 25.5961 7.68553C25.6634 7.73629 25.7294 7.79277 25.7853 7.86387L25.8267 7.91752C25.8392 7.9369 25.8503 7.95772 25.8618 7.97795C25.8874 8.02082 25.8994 8.05519 25.9152 8.09181C25.9797 8.23637 26.0233 8.3869 26.0636 8.53744C26.0981 8.6891 26.1285 8.84177 26.1436 8.99593C26.1788 9.30378 26.1761 9.61499 26.1326 9.92449C26.1091 10.079 26.0801 10.234 26.0277 10.3866C26.0166 10.4249 26.0018 10.4628 25.9859 10.5006C25.9701 10.5383 25.9565 10.5764 25.9358 10.6133C25.916 10.6497 25.8987 10.6892 25.8763 10.7229L25.8101 10.8255C25.7158 10.9583 25.6053 11.0793 25.4822 11.1853C25.3582 11.2905 25.2212 11.378 25.0787 11.4521C24.9363 11.5273 24.7853 11.5822 24.6326 11.6268C24.4798 11.6719 24.3233 11.7003 24.1662 11.7179C24.0091 11.7366 23.8508 11.7408 23.6934 11.7346C23.5357 11.7296 23.3787 11.7113 23.2236 11.682C23.0682 11.6541 22.9151 11.6128 22.7652 11.5609C22.6149 11.51 22.4684 11.4458 22.3277 11.3687C22.0455 11.2175 21.7862 11.0074 21.5857 10.7403ZM21.9134 10.5029C22.0675 10.7148 22.2766 10.8944 22.5167 11.0278C22.6359 11.0958 22.7621 11.1539 22.8931 11.2006C23.0236 11.2482 23.1582 11.2872 23.2955 11.3141C23.8414 11.4255 24.4327 11.3905 24.9289 11.1525C25.0515 11.0918 25.1683 11.0203 25.2732 10.9346C25.3773 10.8481 25.4706 10.7498 25.551 10.6415C25.6321 10.5306 25.6887 10.4173 25.735 10.2865C25.7819 10.1581 25.8121 10.0197 25.8341 9.88046C25.8754 9.60053 25.8804 9.31168 25.8496 9.02775C25.8369 8.88532 25.8096 8.7452 25.7793 8.60646C25.7434 8.46959 25.705 8.33261 25.6487 8.20471C25.6354 8.17284 25.6222 8.13687 25.6079 8.11658C25.6007 8.10462 25.5947 8.09224 25.5872 8.08033L25.5598 8.04617C25.5238 8.0001 25.4754 7.95895 25.424 7.92057C25.3192 7.84444 25.1935 7.7854 25.0626 7.7387C24.7999 7.64389 24.5137 7.59638 24.2279 7.57439C23.9415 7.55111 23.6519 7.55848 23.3672 7.58923C23.0829 7.6219 22.8023 7.68094 22.5421 7.77505C22.4132 7.82357 22.2896 7.88128 22.1802 7.95163C22.0707 8.02183 21.9769 8.10521 21.9138 8.1997C21.8384 8.30939 21.7764 8.42689 21.7304 8.55009C21.7076 8.61175 21.6887 8.67473 21.6737 8.73868C21.6662 8.77029 21.6601 8.80274 21.6538 8.83835C21.6468 8.87465 21.6402 8.91052 21.6349 8.9442C21.6122 9.0815 21.6007 9.2204 21.5987 9.35823C21.5959 9.496 21.6028 9.63346 21.6245 9.76713C21.6458 9.90085 21.6798 10.031 21.7264 10.1554C21.7756 10.2788 21.8391 10.3945 21.9134 10.5029ZM27.3018 10.3551C27.1609 10.1055 27.0875 9.84117 27.0397 9.57949C26.9941 9.31686 26.974 9.05454 26.9814 8.7902C26.9832 8.72401 26.9865 8.65765 26.9924 8.58996C26.9954 8.55607 26.9989 8.52191 27.0038 8.4863C27.0086 8.44968 27.0159 8.41333 27.0217 8.38183C27.0489 8.24277 27.0942 8.10532 27.1557 7.9771C27.1865 7.91288 27.2212 7.85074 27.2593 7.79112C27.2686 7.77606 27.2786 7.76154 27.2886 7.74692C27.2986 7.73229 27.312 7.71505 27.3237 7.69941C27.3485 7.66807 27.3747 7.63877 27.4021 7.61122C27.5122 7.50174 27.637 7.42353 27.7632 7.36134C28.017 7.23878 28.2799 7.17664 28.5419 7.14227C28.804 7.10826 29.0663 7.10309 29.3273 7.11985C29.5882 7.13736 29.8478 7.17974 30.1033 7.25714C30.231 7.29617 30.3572 7.34618 30.4796 7.41398C30.6009 7.4822 30.7222 7.57049 30.8125 7.7041C30.8233 7.72113 30.8339 7.73832 30.8436 7.75637C30.8525 7.77419 30.863 7.79485 30.8686 7.80889C30.8821 7.83975 30.8954 7.8706 30.9072 7.90194C30.932 7.96428 30.9529 8.02754 30.9721 8.09117C31.0097 8.21854 31.0385 8.34767 31.058 8.47776C31.0975 8.73788 31.1069 9.00121 31.0828 9.26428C31.0553 9.52664 31.0095 9.79248 30.8707 10.0486C30.7339 10.2932 30.5325 10.4936 30.3064 10.6448C30.0797 10.7968 29.8285 10.9031 29.5696 10.9717C29.3104 11.0399 29.0425 11.072 28.7733 11.0645C28.5045 11.0558 28.2328 11.0105 27.9725 10.9049C27.8427 10.8522 27.7161 10.7827 27.6 10.6923C27.4842 10.6023 27.3792 10.489 27.3018 10.3551ZM27.6537 10.1553C27.7464 10.325 27.9202 10.4587 28.123 10.5458C28.3264 10.6337 28.5564 10.6788 28.7879 10.6906C29.251 10.7135 29.7347 10.6105 30.1239 10.3661C30.3169 10.2434 30.4838 10.083 30.597 9.89129C30.6505 9.80076 30.6907 9.69314 30.721 9.58189C30.7514 9.47022 30.7721 9.35358 30.7833 9.2354C30.807 8.99908 30.8006 8.75726 30.7666 8.52126C30.7499 8.40313 30.7248 8.28671 30.6924 8.17322C30.6759 8.11664 30.6578 8.06064 30.6367 8.00619C30.6266 7.9787 30.6153 7.95195 30.6039 7.92526C30.5979 7.9101 30.5933 7.90322 30.5885 7.89291C30.5833 7.88336 30.5772 7.87397 30.5713 7.86446C30.5203 7.7893 30.4351 7.72257 30.338 7.66983C30.2404 7.61688 30.131 7.57668 30.0183 7.54476C29.792 7.48092 29.5511 7.45396 29.3114 7.4466C29.0713 7.43987 28.8301 7.45716 28.5961 7.49827C28.3633 7.5406 28.1341 7.60519 27.9385 7.70757C27.8416 7.75893 27.7538 7.82021 27.6881 7.89035C27.6719 7.90791 27.6569 7.92585 27.6433 7.94416L27.6234 7.97299L27.6013 8.00758C27.5724 8.05391 27.5464 8.10179 27.5235 8.15091C27.4776 8.24939 27.4447 8.35231 27.4249 8.45961C27.4196 8.48982 27.4148 8.51502 27.4117 8.54064C27.4083 8.56723 27.4055 8.59546 27.4033 8.62408C27.3989 8.68135 27.3964 8.74039 27.3953 8.79954C27.3925 9.03661 27.4054 9.2772 27.4448 9.50903C27.4843 9.74017 27.5485 9.96629 27.6537 10.1553Z" fill="#664039"/>
<path d="M26.0188 8.70679C25.9292 8.70679 25.8472 8.64668 25.8233 8.55583C25.7928 8.43983 25.8554 8.32095 26.0201 8.18168C26.0899 8.1227 26.234 8.01465 26.4155 7.95348C26.7711 7.83353 27.0675 7.96474 27.2084 8.3043C27.2513 8.40748 27.2024 8.52588 27.0992 8.56875C26.9959 8.61167 26.8776 8.56266 26.8347 8.45948C26.7783 8.32373 26.7091 8.31802 26.6795 8.31561C26.5137 8.30238 26.2782 8.4772 26.2151 8.55433C26.1975 8.62325 26.1441 8.6808 26.0704 8.70012C26.0532 8.7046 26.0359 8.70679 26.0188 8.70679ZM26.2146 8.45302C26.2146 8.45313 26.2146 8.45318 26.2147 8.45328C26.2147 8.45318 26.2147 8.45307 26.2146 8.45302Z" fill="#664039"/>
<path d="M19.0429 8.82492C18.9329 8.7149 17.0993 7.61477 16.4392 8.82492C15.7791 10.0351 16.5492 14.069 18.6762 13.629C20.8032 13.1889 19.0429 8.82492 19.0429 8.82492Z" fill="#FEA695"/>
<path d="M18.0573 9.71931C18.1853 9.46325 17.8307 9.2343 17.5936 9.41814C17.4213 9.5517 17.2272 9.73597 17.092 9.96385C16.7929 10.4681 17.12 12.0104 17.5712 11.7435C17.7592 11.6322 17.7535 11.3929 17.6828 11.1515C17.5588 10.7275 17.6608 10.2779 17.9343 9.914C17.9821 9.85063 18.0245 9.78508 18.0573 9.71931Z" fill="#E57E73"/>
<path d="M37.0701 25.0343C36.7643 26.3784 34.9896 30.4853 30.7974 29.3064C29.038 28.8116 27.916 28.5491 26.5199 25.4876C26.0106 24.3707 26.1191 23.443 25.9545 21.3496C25.9277 21.0082 25.8551 20.6801 25.8175 20.3622C25.7348 19.665 25.688 19.0303 25.6614 18.5221C25.6221 17.7822 25.6267 17.3122 25.6267 17.3122C30.4116 12.1498 33.4755 13.7725 35.0138 15.575C35.7213 16.4051 36.1058 17.2729 36.1873 17.5347C36.4441 18.3654 37.7303 22.1311 37.0701 25.0343Z" fill="#FEA695"/>
<path d="M34.6474 18.4608C33.8127 18.8875 32.1985 17.3211 32.0617 17.1862C31.0567 16.1951 31.0213 15.4285 30.2737 15.2873C29.8609 15.2093 29.4209 15.4343 28.541 15.8842C27.5278 16.4021 27.2729 16.8195 27.2032 16.9444C27.0147 17.2825 27.0107 17.5323 26.9483 17.8838C26.7593 18.9492 26.2349 19.8083 25.8176 20.3621C25.7349 19.6649 25.6881 19.0301 25.6615 18.522C25.6996 18.0763 25.6776 17.6688 25.6268 17.3121C30.4116 12.1497 33.4756 13.7724 35.0138 15.5749C35.3601 16.9527 35.2247 18.1657 34.6474 18.4608Z" fill="#E57E73"/>
<path d="M38.9676 22.3826C38.7328 22.46 38.4611 22.5029 38.1495 22.5034C36.939 22.5051 36.6309 21.7264 36.5586 20.8628C36.4667 19.7638 36.7575 18.5278 36.0591 18.5856C34.8122 18.6897 32.5021 18.6897 31.9518 16.2328C31.4014 13.7759 29.7238 14.9373 29.3197 15.1691C28.4659 15.6593 26.6836 15.7108 26.4512 17.3694C26.2183 19.0285 25.9934 20.4593 25.4187 20.6529C25.0806 20.7668 23.1977 20.5939 23.6752 19.5701C23.9504 18.9811 25.2048 19.058 25.2522 18.5856C25.3349 17.7584 24.8325 17.3329 25.1407 16.4184C25.1487 16.3935 25.1574 16.3681 25.1672 16.3426C26.0477 13.9956 28.2843 14.8101 28.2843 14.8101C28.2843 14.7002 27.4779 13.3868 29.3197 12.2168C30.7887 11.2832 31.2529 11.2941 31.4783 11.6184C31.6402 11.8509 31.6789 12.244 31.8784 12.5654C31.9888 12.744 32.0819 12.7319 32.1946 12.6105C32.5455 12.233 33.0884 10.7941 34.9602 10.7583C35.0764 10.756 35.1984 10.7594 35.3256 10.7687C37.7021 10.9421 36.4638 12.5642 36.2066 13.0053C36.2158 12.9949 36.3077 12.8868 36.4598 12.7406L36.4604 12.74C36.9096 12.3064 37.8813 11.537 38.7727 11.9422C39.9827 12.492 40.3128 15.3524 38.993 16.3797C38.5981 16.6867 38.3964 16.7999 38.3322 16.8318C38.4345 16.793 38.9097 16.663 39.3959 17.1497C40.1908 17.944 41.1498 21.6634 38.9676 22.3826Z" fill="#F2F5FC"/>
<path d="M38.7727 11.9422C37.1957 12.052 35.8759 13.9956 35.7655 14.1424L36.4598 12.7405L36.4604 12.7399C36.9096 12.3064 37.8813 11.5369 38.7727 11.9422Z" fill="#F3F7FF"/>
<path d="M31.4783 11.6184C31.4783 11.6184 30.6682 11.7741 29.9164 12.4468C29.0552 13.2172 28.6879 14.436 28.578 14.8101C28.4681 15.1847 27.3675 15.2425 25.791 15.9027C25.4841 16.031 25.276 16.2114 25.1407 16.4184C25.1487 16.3935 25.1574 16.3681 25.1673 16.3426C26.0477 13.9955 28.2844 14.8101 28.2844 14.8101C28.2844 14.7002 27.4779 13.3868 29.3197 12.2168C30.7886 11.2831 31.2528 11.2941 31.4783 11.6184ZM34.9602 10.7582C34.9596 10.7582 34.9596 10.7588 34.959 10.7588C33.3085 11.4086 32.2448 13.6655 32.172 13.9187C32.172 13.9187 32.172 13.9187 32.172 12.822C32.172 12.7556 32.1801 12.6844 32.1945 12.6104C32.5455 12.2329 33.0883 10.7941 34.9602 10.7582Z" fill="#D4DFE8"/>
<path d="M38.9674 22.3826C38.7327 22.46 38.461 22.5029 38.1494 22.5034C36.9389 22.5051 36.6307 21.7264 36.5585 20.8628L38.0482 19.5817C38.0482 19.5817 37.3701 21.101 38.0482 21.7739C38.3101 22.0334 38.6495 22.234 38.9674 22.3826Z" fill="#C5D3DD"/>
<path d="M35.0871 18.7647C35.0871 18.7647 35.6922 17.9638 36.2973 17.0287C36.9023 16.0936 38.8276 17.0105 38.3326 18.7249C37.8375 20.4392 37.3425 20.8534 37.3425 20.8534C37.3425 20.8534 36.6638 21.7283 36.0038 21.3394C35.3436 20.9505 35.0871 18.7647 35.0871 18.7647Z" fill="#FEA695"/>
<path d="M36.3706 18.1947C36.3706 18.1947 37.1223 17.0946 37.5807 17.6446C38.0391 18.1947 37.1407 20.3217 36.8839 20.1199C36.6272 19.9183 37.4763 18.6225 37.2562 18.378C37.0362 18.1336 36.2422 18.8915 36.3706 18.1947Z" fill="#E57E73"/>
<path d="M8.55284 36.1192C8.70722 36.4395 8.7575 36.9303 8.73668 37.4766C8.67946 39.0005 8.07247 40.959 7.66143 40.8752C7.6065 40.8636 7.05384 40.448 6.40868 39.8358C5.97282 39.4225 5.49474 38.9201 5.0987 38.3918C4.87034 38.0865 4.66861 37.7732 4.51829 37.4628C3.72227 35.8204 2.73312 31.5812 3.25513 29.8603C3.77656 28.1393 3.97599 28.4075 4.13037 29.1394C4.28469 29.8725 4.47836 31.8814 4.50382 31.6963C4.52982 31.5114 4.73043 29.336 4.64891 27.9769C4.55929 26.4802 5.79122 26.0599 5.88432 27.6087C5.99129 29.4031 5.86238 29.9459 5.86238 29.9459C5.86238 29.9459 5.91731 31.5091 6.43067 32.4624C6.94404 33.4156 6.92434 33.6631 7.15965 32.4924C7.41459 31.2275 6.2029 28.6556 7.23192 28.7776C8.11239 28.8822 8.60142 30.6078 8.80085 31.4778C8.99969 32.3472 7.96549 34.9052 8.55284 36.1192Z" fill="#FEA695"/>
<path d="M8.73651 37.4766C8.41799 37.9426 7.67455 39.1624 7.66126 40.8753C7.60633 40.8637 7.05367 40.4481 6.40851 39.8359C6.4218 39.6439 6.44609 39.4532 6.48308 39.263C6.83107 37.4645 8.14452 36.4188 8.55267 36.1193L8.73651 37.4766Z" fill="#E57E73"/>
<path d="M21.7855 38.4927C18.3811 38.9783 13.6919 36.984 12.9102 36.5907C11.6613 35.9623 9.67206 35.6303 9.1636 35.7423C9.03378 35.7709 7.13816 38.6884 7.39439 40.7054C7.65062 42.7225 15.964 46.7546 17.7752 47.3388C18.5442 47.5869 19.1377 47.7909 19.594 47.9562C20.9101 48.4333 25.1294 48.5826 26.4707 48.192C29.0274 47.4474 32.3289 47.9543 37.3608 42.6026C40.8368 38.9057 39.9861 32.2132 39.6391 29.6913C39.5362 28.9427 39.2423 28.4094 38.8711 28.0474C38.1409 27.3351 37.0134 27.5537 36.5383 27.6377C33.9856 28.089 31.8257 30.5416 30.8462 31.598C27.2181 35.5112 24.8604 38.054 21.7855 38.4927Z" fill="#FFD4A6"/>
<path d="M37.5146 36.3021C35.8752 34.0782 33.2844 32.6674 30.5246 32.5072C30.2644 32.4921 30.2654 32.8968 30.5246 32.9119C33.1296 33.063 35.6159 34.4047 37.1651 36.5063C37.318 36.7137 37.6694 36.5121 37.5146 36.3021Z" fill="#F2C097"/>
</svg>
